<?xml version="1.0" encoding="utf-8"?>
<!-- Generator: Adobe Illustrator 16.0.0, SVG Export Plug-In . SVG Version: 6.00 Build 0)  -->
<!DOCTYPE svg PUBLIC "-//W3C//DTD SVG 1.1//EN" "http://www.w3.org/Graphics/SVG/1.1/DTD/svg11.dtd">
<svg version="1.1" id="图层_1" xmlns="http://www.w3.org/2000/svg" xmlns:xlink="http://www.w3.org/1999/xlink" x="0px" y="0px"
	 width="141.732px" height="141.732px" viewBox="0 0 141.732 141.732" enable-background="new 0 0 141.732 141.732"
	 xml:space="preserve">
<path fill="#53688D" d="M-84.534-319.834c-0.2-2.4-1.5-3.6-4-3.6l-13.5,0.5v-4.2h-4.6c-2.8,0-4.1,0.5-4.1,1.5v2.9l-8.9,0.4v-1.6
	c-5.4-0.4-8.1,0.1-8.1,1.5v10.7h17v7.5h-11.6v2.8h11.6v14.1l8.7-0.8v-13.3h12.5v-2.9l-12.5,0.1v-7.5h14.6v-1.4h0.3
	c0.8-0.1,1.4-0.7,1.9-1.9L-84.534-319.834z M-93.334-320.334c0.8,0,1.2,0.4,1.2,1.1l-0.5,4.6h-27v-4.8l8.9-0.3v0.1l8.7-0.3v-0.1
	L-93.334-320.334z"/>
<path fill="#53688D" d="M-131.234-317.234h-4.7v-9.8h-4.6c-2.7-0.1-4.1,0.4-4,1.4v8.4h-16.3v2.9h16.3v28.2h8.6v-28.2h4.7V-317.234z"
	/>
<path fill="#53688D" d="M-162.334-327.034c-2.7-0.1-4,0.4-4,1.4c0,4.2-3.9,9-11.7,14.4l1.2,1.8l5.9-2.7l0.1,24l8.6,1.1v-30.9
	c2.4-2.9,3.7-5.9,3.8-9.1H-162.334z"/>
<path fill="#F29429" d="M-97.134-294.534l2.3,2.6l2.5,2.2c0.6,0.5,1.1,0.5,1.5,0l2.6-2.2l2.2-2.6c0.4-0.4,0.4-0.9,0-1.4l-2.3-2.6
	l-2.5-2.2c-0.4-0.5-0.9-0.5-1.5,0l-2.5,2.2l-2.3,2.6C-97.634-295.434-97.634-294.934-97.134-294.534z"/>
<path fill="#F29429" d="M-145.634-305.234l-2.9-3.4l-3.4-3c-0.6-0.6-1.3-0.6-1.9,0l-3.4,3l-3,3.4c-0.7,0.7-0.7,1.3,0,2l6.4,6.4
	c0.6,0.6,1.3,0.6,1.9,0l3.4-3.1l2.9-3.3C-144.934-303.934-144.934-304.534-145.634-305.234z"/>
<path fill="#F29429" d="M-87.034-278.234l3.4-0.6l2.2-2.2c1.2-1.8,3.2-3.9,6.1-6.3c3.2-2.7,4.3-3.5,3.3-2.4c0.6-0.6,0.9-1.1,0.8-1.7
	c0-0.4-0.4-0.7-1-0.6l-2,0.3c-13.9,2.9-31.3,4.9-52.2,5.8c-23.7,0.9-41.4-0.2-53.1-3.5c-3.7-1.1-7.1-2.1-10.4-3.1
	c-2.6-0.9-5-1.7-7.3-2.5c-1.2-0.4-2.5-0.8-3.6-1.3c-7.8-3.4-14-5.1-18.6-5c-4.2,0-7.8,1-10.6,2.9c-3,2.1-4.5,4.9-4.4,8.3
	c-0.1,3.9,1.5,6.9,4.6,9c2.2,1.5,4.9,2.5,8.1,2.9c0.2,0,0.4,0,0.6,0c-2.5-0.3-4.7-1.1-6.5-2.4c-2.6-1.8-3.9-4.2-3.9-7.2
	c0-5.9,3.3-9,10.2-9.5c0.3,0,0.6,0,1,0l6.7,0.6c2.2,0.7,4.2,1.4,5.9,2.2c0.8,0.3,3.1,1.5,6.9,3.4c1.6,0.8,3.4,1.8,5.5,2.8
	c0.2,0.2,0.5,0.3,0.8,0.4c5.4,2.7,10.7,4.8,15.8,6.5C-159.834-275.334-129.334-274.334-87.034-278.234z"/>
<path fill="#53688D" d="M-204.234-325.334v5.3h-17.1v2.8h17.1v6.5l-12.2,0.1v2.9l25.8-0.1c-1.2,4.5-3.3,8.8-6.6,12.8
	c2.3,0.8,4.7,1.6,7.3,2.5c4.7-5.6,7.5-11.6,8.2-18.2h-14v-6.5h17.7v-2.8h-17.7v-6.7l-4.5-0.1
	C-202.934-326.834-204.234-326.334-204.234-325.334z"/>
<path fill="#53688D" d="M-219.134-278.034h1.3c8.2-0.5,15.4-3.3,21.5-8.3c0.6-0.6,1.2-1.1,1.8-1.6c-0.3-0.1-0.6-0.2-0.8-0.4
	c-2.1-1-3.9-2-5.5-2.8c-0.2,0.2-0.4,0.4-0.6,0.6c-2.7,2.6-5.8,4.7-9.1,6.4c-3.2,1.5-5.9,2.2-8.1,2.3c-7.2,0-10.9-2.7-10.9-8.2
	c0-3.7,2.7-6.1,8.2-7.3c-6.9,0.5-10.2,3.6-10.2,9.5c0,3,1.3,5.4,3.9,7.2c1.8,1.3,4,2.1,6.5,2.4c-0.2,0-0.4,0-0.6,0
	C-220.834-278.134-220.034-278.134-219.134-278.034z"/>
<path d="M-74.734-327.134h-0.7l-1.1,3.3l-1.1-3.3h-0.7v3.9h0.5v-3.2l1.1,3.2h0.4l1.1-3.2v3.2h0.5V-327.134z"/>
<path d="M-78.934-326.634v-0.5h-3v0.5h1.3v3.4h0.6v-3.4H-78.934z"/>
<path fill="#E8E8E8" d="M-238.734-300.734c0.7-3.3,1.2-6.7,1.3-10.3c0.1-3.6-0.2-7.4-0.9-11.2c-3.5-0.7-6.8-1.7-9.9-3.2
	c-3.2-1.7-6.3-3.7-9-6l-0.6-0.6l-0.8-0.4h-6c-0.4,0-0.7,0.2-1,0.4l-0.5,0.6c-2.6,2.4-5.5,4.5-8.8,6.3c-3.4,1.4-6.7,2.4-10.1,2.9
	c-0.6,3.6-0.9,7.3-0.8,11.3c0,3.4,0.4,6.8,1.4,10.2l0.4,2.4c1,3.8,2.3,7.2,4.1,10.2c1.7,3.2,3.9,6.1,6.5,8.8
	c2.8,2.7,5.7,5.1,8.8,7.1l3,1.9c2.4-1.1,5-2.9,7.9-5.3l4-3.9c2.5-2.6,4.7-5.5,6.5-8.6c1.8-3.1,3.2-6.5,4.1-10.1L-238.734-300.734z
	 M-241.034-319.734l0.1,0.4c0.7,5,0.7,10,0,15.1l-0.5,3.6c-0.7,2.9-1.6,5.7-2.9,8.4c-1.4,2.9-3.2,5.6-5.4,8l-3.2,3.4
	c-2.5,2.3-5.3,4.3-8.4,5.9h-0.4l-2.4-1.4c-3.6-2.4-6.7-5.1-9.3-8c-2.9-3.3-5-6.6-6.3-10c-0.9-2.3-1.6-4.4-2-6.2h0.1
	c-0.6-2.2-1-4.3-1.2-6.4c-0.3-4.1-0.2-8.2,0.4-12.4l0.1-0.4l0.4-0.1l7-1.8h-0.1c3.8-1.4,7.2-3.6,10.1-6.4c0.6-0.7,1.3-1.1,2.1-1.1
	h1.2c1-0.1,2.2,0.3,3.3,1.2c2.4,2.1,5,3.8,7.9,5.2c2.8,1.3,5.7,2.3,9,2.8L-241.034-319.734z"/>
<path fill="#999999" d="M-240.934-319.334l-0.1-0.4l-0.4-0.2c-3.3-0.5-6.2-1.5-9-2.8c-2.9-1.4-5.5-3.1-7.9-5.2
	c-1.1-0.9-2.3-1.3-3.3-1.2h-1.2c-0.8,0-1.5,0.4-2.1,1.1c-2.9,2.8-6.3,5-10.1,6.4h0.1l-7,1.8l-0.4,0.1l-0.1,0.4
	c-0.6,4.2-0.7,8.3-0.4,12.4c0.2,2.1,0.6,4.2,1.2,6.4h-0.1c0.4,1.8,1.1,3.9,2,6.2c1.3,3.4,3.4,6.7,6.3,10c2.6,2.9,5.7,5.6,9.3,8
	l2.4,1.4h0.4c3.1-1.6,5.9-3.6,8.4-5.9l3.2-3.4c2.2-2.4,4-5.1,5.4-8c1.3-2.7,2.2-5.5,2.9-8.4l0.5-3.6
	C-240.234-309.334-240.234-314.334-240.934-319.334z M-261.634-327.934c0.8,0,1.5,0.3,2.3,1c2.5,2.1,5.3,4,8.4,5.4
	c2.6,1.3,5.5,2.3,8.8,2.9c0.6,4.7,0.6,9.4,0,14.2l-0.7,3.6v0.1c-0.6,2.6-1.6,5.3-2.7,7.9c-1.3,2.8-3,5.3-5.1,7.6l-3.3,3.5
	c-2.3,2.1-4.8,3.9-7.7,5.4v-0.1l-1.7-1.1c-3.6-2.3-6.7-4.8-9.2-7.7c-2.6-3-4.6-6.2-5.9-9.7c-1-2.1-1.6-4-1.9-5.8v-0.1
	c-0.6-2.2-1-4.3-1.2-6.3c-0.3-3.7-0.2-7.6,0.3-11.5l6.8-1.8c3.9-1.5,7.3-3.7,10.3-6.5c0.5-0.5,1-0.9,1.5-1H-261.634z"/>
<radialGradient id="SVGID_1_" cx="-331.6338" cy="-183.6338" r="819.2" gradientTransform="matrix(0.0376 0 0 0.0417 -249.4377 -297.719)" gradientUnits="userSpaceOnUse">
	<stop  offset="0" style="stop-color:#3D76B9"/>
	<stop  offset="0.3882" style="stop-color:#0063AD"/>
	<stop  offset="0.7647" style="stop-color:#585D70"/>
	<stop  offset="1" style="stop-color:#5B5D7F"/>
</radialGradient>
<path fill="url(#SVGID_1_)" d="M-259.334-326.934c-0.8-0.7-1.5-1-2.3-1v27.2h18.8v-0.1l0.7-3.6c0.6-4.8,0.6-9.5,0-14.2
	c-3.3-0.6-6.2-1.6-8.8-2.9C-254.034-322.934-256.834-324.834-259.334-326.934z"/>
<radialGradient id="SVGID_2_" cx="-331.6338" cy="-183.6338" r="819.2" gradientTransform="matrix(0.0212 -0.0123 0.0061 0.0107 -261.3183 -318.659)" gradientUnits="userSpaceOnUse">
	<stop  offset="0" style="stop-color:#FFE100"/>
	<stop  offset="1" style="stop-color:#F08910"/>
</radialGradient>
<path fill="url(#SVGID_2_)" d="M-274.434-320.434l-6.8,1.8c-0.5,3.9-0.6,7.8-0.3,11.5c0.2,2,0.6,4.1,1.2,6.3v0.1h18.7v-27.2h-1
	c-0.5,0.1-1,0.5-1.5,1C-267.134-324.134-270.534-321.934-274.434-320.434z M-263.834-324.934l0.1,1.7l-2,2.3
	c-3.2,3.2-7.1,4.7-11.7,4.6l-1.7-0.5C-271.934-319.434-266.934-322.234-263.834-324.934z"/>
<linearGradient id="SVGID_3_" gradientUnits="userSpaceOnUse" x1="-1150.8337" y1="-144.5088" x2="487.5663" y2="-144.5088" gradientTransform="matrix(0.0018 0.0032 -2.6078 1.508 -646.1763 -99.1297)">
	<stop  offset="0" style="stop-color:#FFFFFF"/>
	<stop  offset="1" style="stop-color:#FFFFFF"/>
</linearGradient>
<path fill="url(#SVGID_3_)" d="M-263.734-323.234l-0.1-1.7c-3.1,2.7-8.1,5.5-15.3,8.1l1.7,0.5c4.6,0.1,8.5-1.4,11.7-4.6
	L-263.734-323.234z"/>
<radialGradient id="SVGID_4_" cx="-331.6338" cy="-183.6338" r="819.2" gradientTransform="matrix(0.0376 0 0 0.0417 -249.4377 -297.719)" gradientUnits="userSpaceOnUse">
	<stop  offset="0" style="stop-color:#3D76B9"/>
	<stop  offset="0.3882" style="stop-color:#0063AD"/>
	<stop  offset="0.7647" style="stop-color:#585D70"/>
	<stop  offset="1" style="stop-color:#5B5D7F"/>
</radialGradient>
<path fill="url(#SVGID_4_)" d="M-280.334-300.734c0.3,1.8,0.9,3.7,1.9,5.8c1.3,3.5,3.3,6.7,5.9,9.7c2.5,2.9,5.6,5.4,9.2,7.7l1.7,1.1
	v-24.3H-280.334z"/>
<radialGradient id="SVGID_5_" cx="-331.6338" cy="-183.6338" r="819.2001" gradientTransform="matrix(-0.0228 1.000000e-004 -1.000000e-004 -0.0262 -269.1041 -305.5696)" gradientUnits="userSpaceOnUse">
	<stop  offset="0.1373" style="stop-color:#FFE100"/>
	<stop  offset="0.7294" style="stop-color:#F08910"/>
	<stop  offset="1" style="stop-color:#E72518"/>
</radialGradient>
<path fill="url(#SVGID_5_)" d="M-242.834-300.734h-18.8v24.3v0.1c2.9-1.5,5.4-3.3,7.7-5.4l3.3-3.5c2.1-2.3,3.8-4.8,5.1-7.6
	C-244.434-295.434-243.434-298.134-242.834-300.734z"/>
<path fill="#F08300" d="M-31.834-213.534v1.6h2.2v-26.1h-24.3v26.3h2.4v-1.8H-31.834z M-31.834-236.234v21h-19.7v-21H-31.834z"/>
<path fill="#F08300" d="M-34.334-231.134v-1.9h-14.5v1.9l5.6-0.1v3.9l-5.3-0.2v2l5.3-0.1v5.4l-6.4-0.2v2h15.9v-2l-7.2,0.2v-5.4
	l6,0.1v-2l-6,0.2v-3.9L-34.334-231.134z"/>
<path fill="#F08300" d="M-37.434-221.034l2-1.2l-2.3-2.5l-1.7,1.3L-37.434-221.034z"/>
<path fill="#F08300" d="M-72.234-233.734l0.2-6.1h-2.8l0.2,6.1h-9.9v13.7h2.6v-2.2h7.3l-0.2,10.3h2.8l-0.2-10.3h7.6v2.1h2.6v-13.6
	H-72.234z M-64.734-231.734v7.6h-7.5v-7.6H-64.734z M-74.634-231.734v7.6h-7.3v-7.6H-74.634z"/>
<path fill="#F08300" d="M-78.334-198.634l-1.1-0.8l-1.6-0.3c-1.3-0.1-2.3,0.5-3.1,1.5v-1.3h-1.4v9.7h1.6v-5.3c0-1.3,0.2-2.1,0.8-2.5
	c0.4-0.5,1-0.8,1.8-0.7l1.2,0.3l0.6,0.8l0.2,1.4v6h1.7l-0.1-7.6L-78.334-198.634z"/>
<path fill="#F08300" d="M-93.734-239.134h-0.8l-1.3,3.8l-1.3-3.8h-0.9v4.4h0.6v-3.8l1.3,3.8h0.6l1.2-3.7v3.7h0.6V-239.134z"/>
<path fill="#F08300" d="M-98.734-238.734v-0.4h-3.5v0.4h1.5v4h0.6v-4H-98.734z"/>
<path fill="#F08300" d="M-95.534-226.534c-0.7,0-1.3,0.3-1.8,0.7c-0.4,0.5-0.7,1.1-0.7,1.8c0,0.6,0.3,1.2,0.7,1.7
	c0.5,0.4,1.1,0.7,1.8,0.7c0.6,0,1.2-0.3,1.7-0.7c0.4-0.5,0.7-1.1,0.7-1.7c0-0.7-0.3-1.3-0.7-1.8
	C-94.334-226.234-94.934-226.534-95.534-226.534z"/>
<path fill="#F08300" d="M-110.534-220.634l4.2-3.8v-13.1h-27.5v27.4h26.1l1.5-3.5h-22.6v-7H-110.534z M-117.734-233.934h6.5v9.8
	l-6.5-0.1V-233.934z M-128.834-233.934h6.3v9.7h-6.3V-233.934z"/>
<path fill="#F08300" d="M-111.534-199.334l-1.8-0.4c-0.6,0-1.2,0.1-1.7,0.4c-0.5,0.3-0.9,0.7-1.2,1.1v-1.3h-1.5v9.7h1.7v-5.1
	c0-0.9,0.1-1.6,0.2-2c0.2-0.5,0.5-0.8,0.9-1l1.3-0.4c0.6,0,1,0.2,1.3,0.5l0.4,1.7v6.3h1.7v-5.6c-0.1-1.1,0.2-1.8,0.7-2.2
	c0.4-0.5,0.9-0.8,1.6-0.7l1,0.2l0.6,0.7l0.1,1.5v6.1h1.7v-6.7c0-1.1-0.3-1.9-0.8-2.5c-0.5-0.5-1.2-0.8-2.2-0.7c-1.2,0-2.2,0.5-3,1.7
	L-111.534-199.334z"/>
<path fill="#F08300" d="M-95.534-197.434c-0.4,0.8-0.6,1.7-0.6,2.7c0,1.6,0.4,2.9,1.3,3.8c0.7,0.9,1.8,1.3,3.2,1.3
	c1,0,1.9-0.3,2.6-0.9c0.8-0.7,1.2-1.5,1.4-2.7l-1.6-0.2c-0.1,0.8-0.4,1.5-0.9,1.9c-0.4,0.3-0.9,0.5-1.5,0.5c-0.9,0-1.5-0.3-2-0.8
	c-0.5-0.6-0.8-1.6-0.8-2.9c0-1.3,0.3-2.2,0.8-2.8s1.2-0.9,2-0.9l1.5,0.5c0.3,0.3,0.6,0.8,0.7,1.4l1.7-0.2c-0.2-1-0.7-1.7-1.4-2.3
	c-0.6-0.5-1.5-0.8-2.5-0.7c-0.9,0-1.7,0.2-2.4,0.5C-94.734-198.834-95.234-198.234-95.534-197.434z"/>
<path fill="#F08300" d="M-99.134-189.834v-1.9h-1.8v1.9H-99.134z"/>
<path d="M-301.034-222.534l-0.5-0.6c0.6,0,3.7-0.9,9.6-2.9c5.8-2,15.1-4.3,27.7-6.9l-1.6-3.8c9.3,2.2,14.5,4.7,15.5,7.4l0,0
	l-0.1-1.2c-0.9-3.2-7.1-5.8-18.6-7.6c1.3,0.9,2.3,1.9,2.8,2.8l0.6,1.6l-22.6,5.4l-15,4.2l2.1,4.9l-1.1,1.7l-3.8,3.1l-2.5,1.2
	l-2.4-1.5l0.6,10.5c-5,1.1-8.2,3.2-9.5,6.3l-0.6,1.8c-0.5,2.3,0.2,4,2.3,5.2c-1.7-2-2-3.9-0.9-5.8c0.6-0.9,1.3-1.8,2.4-2.6
	c2-1.7,4.3-2.7,6.7-3.2h1l0.5-9.7l6.7,1.8l7.1-0.3c2.2-0.6,4.2-1.4,6-2.5c1.8-1,3.5-2.3,5-3.9c0.8,0.6,1.3,2.5,1.5,5.6l0.4-2.9
	c0-2.7-1.3-4.6-3.7-5.8l1.5,1.8l-1,0.8c-2,1.7-4.2,3-6.5,4l-0.9,0.3c-2.8,1-5.7,1.3-8.6,1.1l-1.3-0.2l-0.3-0.1
	c-1.1-0.1-2-0.5-2.7-1.1l5.9-4c-0.3-1.6-0.8-3.2-1.5-4.6L-301.034-222.534z"/>
<path fill="#F08300" d="M-304.534-229.234l-1.1,0.6c-10.6,6.4-18.1,13.4-22.5,21c-4.7,7.9-4.6,14.1,0.1,18.6l4,2.9l0.7,0.3
	c5,1.9,10.3,2.6,15.9,1.9c7-0.8,14.4-3.6,22.4-8.5l1.9-1.3l-1.9,0.6c-10.1,3.2-18.6,4.6-25.5,4.1l-6-1.2l-0.4-0.2l-1.2-0.5
	c-2.1-1.2-2.8-2.9-2.3-5.2l0.6-1.8c1.3-3.1,4.5-5.2,9.5-6.3l-0.6-10.5l2.4,1.5l2.5-1.2l3.8-3.1l1.1-1.7l-2.1-4.9l15-4.2l22.6-5.4
	l-0.6-1.6c-0.5-0.9-1.5-1.9-2.8-2.8c11.5,1.8,17.7,4.4,18.6,7.6l0.1,1.2v1.3l-0.4,2.2c-0.8,2.3-2.4,5.1-4.9,8.1l-11,12.3
	c-3.1,2.9-5.6,6.9-7.4,12c-2,5,0.1,7.6,6.1,7.7c5.9,0,13.9-1.8,23.7-5.4c8.9-3.4,16.9-7.5,24.1-12.2l2.2-1.6l-2.2,0.9
	c-18,6.6-30.6,10.3-37.8,10.9c-7.6,0.7-8.2-2.5-1.8-9.4l7.7-9.1c1.8-2.1,3.3-4.1,4.5-6.3c4.6-7.9,4.6-14.1,0-18.6l-0.4-0.5
	c-1.6-1.4-3.4-2.5-5.5-3.2c-4.5-1.7-10.5-2-17.7-1C-282.334-239.834-293.534-235.834-304.534-229.234z"/>
<path fill="#F08300" d="M-139.134-224.434v-13.1h-27.5v27.4h26l1.5-3.5h-22.6l0.1-7h18.2L-139.134-224.434z M-144.034-224.134
	l-6.5-0.1v-9.7h6.5V-224.134z M-155.334-233.934v9.7h-6.3v-9.7H-155.334z"/>
<path fill="#F08300" d="M-151.534-199.734l-2.2,0.3l-1.4,1l-0.8,1.6l1.7,0.3l0.8-1.5l1.7-0.4c0.8,0,1.4,0.2,1.8,0.5
	c0.3,0.3,0.5,0.8,0.5,1.5v0.4l-4.4,0.8c-0.4,0.1-0.8,0.3-1.1,0.5c-0.4,0.3-0.7,0.6-0.9,1.1l-0.3,1.2c0,0.8,0.3,1.5,0.9,2
	c0.5,0.6,1.3,0.8,2.4,0.8l1.9-0.3l1.7-1.1l0.3,1.2h1.7l-0.4-1.2l-0.1-6.6l-0.6-1.1c-0.2-0.4-0.6-0.6-1.2-0.8L-151.534-199.734z
	 M-154.134-193.234l0.6-0.5l4.1-1v0.6l-0.2,1.7l-1.1,1.1l-1.7,0.4l-1.4-0.4c-0.4-0.3-0.6-0.6-0.6-1.1
	C-154.434-192.734-154.334-192.934-154.134-193.234z"/>
<path fill="#F08300" d="M-158.434-196.834l-0.8-1.6c-0.4-0.5-0.8-0.8-1.4-1l-1.7-0.3c-1.1-0.1-2,0.4-2.6,1.2v-4.8h-1.7v13.5h1.5
	v-1.3c0.7,1,1.6,1.5,2.7,1.5c1.2,0,2.2-0.4,3-1.4c0.9-0.9,1.3-2.2,1.3-3.8L-158.434-196.834z M-164.334-197.534
	c0.5-0.6,1.1-0.9,1.9-0.9c0.7,0,1.3,0.3,1.8,0.9s0.7,1.5,0.7,2.8c0,1.2-0.2,2.2-0.7,2.9c-0.6,0.5-1.2,0.8-1.9,0.8
	c-0.9,0-1.6-0.4-2.1-1.2c-0.3-0.6-0.5-1.4-0.5-2.5C-165.134-195.934-164.934-196.834-164.334-197.534z"/>
<path fill="#F08300" d="M-132.234-199.034c-0.7-0.5-1.5-0.8-2.6-0.7c-0.8,0-1.6,0.2-2.3,0.5c-0.7,0.4-1.2,1-1.6,1.8
	c-0.3,0.8-0.5,1.7-0.5,2.7c0,1.6,0.4,2.9,1.2,3.8c0.8,0.9,1.9,1.3,3.2,1.3c1.1,0,1.9-0.3,2.7-0.9c0.7-0.7,1.2-1.5,1.4-2.7l-1.6-0.2
	c-0.2,0.8-0.5,1.5-0.9,1.9c-0.4,0.3-0.9,0.5-1.6,0.5c-0.8,0-1.5-0.3-1.9-0.8c-0.6-0.6-0.8-1.6-0.8-2.9c0-1.3,0.2-2.2,0.8-2.8
	c0.5-0.6,1.2-0.9,2-0.9l1.4,0.5l0.8,1.4l1.6-0.2C-131.134-197.734-131.534-198.434-132.234-199.034z"/>
<path fill="#F08300" d="M-124.834-199.734c-1.2,0-2.2,0.3-3,1.1c-1,0.8-1.5,2.1-1.5,3.9c0,1.6,0.4,2.9,1.3,3.8
	c0.8,0.9,1.9,1.3,3.2,1.3c0.9,0,1.7-0.2,2.4-0.6l1.6-1.6c0.4-0.8,0.6-1.8,0.6-3c0-1.6-0.4-2.8-1.3-3.6
	C-122.334-199.334-123.434-199.834-124.834-199.734z M-126.834-197.534c0.6-0.6,1.3-0.9,2-0.9c0.9,0,1.5,0.3,2.1,0.9
	c0.5,0.7,0.8,1.6,0.8,2.8c0,1.3-0.3,2.3-0.8,2.9c-0.6,0.5-1.2,0.8-2.1,0.8c-0.7,0-1.4-0.3-2-0.8c-0.5-0.6-0.8-1.6-0.8-2.9
	C-127.634-195.934-127.334-196.834-126.834-197.534z"/>
<path fill="#F08300" d="M-177.234-221.134l4.7-3.6v-13h-26.6v16.6h10.6v2.2h-10.6v3.2h10.6v2.6h-10.9v3.1h26.3l1.4-3.1h-11.8v-2.6
	h9.7l1.5-3.2h-11.2v-2.2H-177.234z M-179.034-227.934l1.4-3h-5.9v-3.6h6.2v10.3h-6.2v-3.7H-179.034z M-188.534-234.534v3.6h-5.8
	v-3.6H-188.534z M-194.334-224.234v-3.7h5.8v3.7H-194.334z"/>
<path fill="#F08300" d="M-191.834-203.334h-1.6v1.9h1.6V-203.334z"/>
<path fill="#F08300" d="M-191.834-199.534h-1.6v9.7h1.6V-199.534z"/>
<path fill="#F08300" d="M-196.634-203.334h-1.7v13.5h1.7V-203.334z"/>
<path fill="#F08300" d="M-182.634-199.434l-1.7-0.3c-1.1-0.1-2,0.4-2.7,1.2v-4.8h-1.6v13.5h1.5v-1.3c0.6,1,1.6,1.5,2.7,1.5
	c1.1,0,2.1-0.4,3-1.4c0.8-0.9,1.2-2.2,1.2-3.8l-0.3-2l-0.8-1.6L-182.634-199.434z M-187.134-194.734c0-1.2,0.2-2.1,0.8-2.8
	c0.5-0.6,1-0.9,1.8-0.9c0.7,0,1.4,0.3,1.8,0.9c0.6,0.6,0.8,1.5,0.8,2.8c0,1.2-0.2,2.2-0.8,2.9c-0.6,0.5-1.1,0.8-1.8,0.8
	c-0.9,0-1.6-0.4-2.2-1.2C-187.034-192.834-187.134-193.634-187.134-194.734z"/>
<path fill="#F08300" d="M-171.534-199.534l-2-0.2l-2.2,0.3c-0.7,0.2-1.1,0.5-1.4,1l-0.8,1.6l1.6,0.3c0.2-0.7,0.5-1.2,0.8-1.5
	c0.4-0.3,1-0.4,1.7-0.4c0.9,0,1.5,0.2,1.9,0.5c0.3,0.3,0.5,0.8,0.5,1.5v0.4l-4.4,0.8l-1.2,0.5l-0.8,1.1l-0.3,1.2
	c-0.1,0.8,0.2,1.5,0.8,2c0.6,0.6,1.4,0.8,2.4,0.8l1.9-0.3l1.7-1.1l0.3,1.2h1.8l-0.4-1.2l-0.2-6.6l-0.5-1.1
	C-170.634-199.134-171.034-199.334-171.534-199.534z M-171.434-194.734v0.6l-0.3,1.7l-1,1.1l-1.8,0.4l-1.4-0.4
	c-0.3-0.3-0.5-0.6-0.5-1.1c0-0.3,0.1-0.5,0.2-0.8c0.2-0.2,0.4-0.4,0.6-0.5L-171.434-194.734z"/>
<path fill="#F08300" d="M-144.134-189.834h1.9v-1.9h-1.9V-189.834z"/>
<path fill="#F08300" d="M-205.534-234.134h0.2l1.4-3.6h-17.8v3.6h12v20.8h-2.9v3.5h3.2l3.9-3.7V-234.134z"/>
<path fill="#F08300" d="M-210.734-231.534h-10v19h6.5l3.5-3.2V-231.534z M-216.734-228.234h2.1v12.5h-2.1V-228.234z"/>
<path fill="#F08300" d="M-222.334-223.934l-1.9-1.6l1.9-1.7v-10.5h-9.8v28.7l4.1-2v-1.8h2.3l3.4-3.4V-223.934z M-228.034-234.434
	h1.6v7.2h-1.6V-234.434z M-228.034-223.934h1.6v7.7h-1.6V-223.934z"/>
<path fill="#F08300" d="M-225.334-195.734c-0.5,0.5-0.8,1.2-0.7,2c-0.1,0.8,0.2,1.4,0.7,1.9l2,0.9c0.7-0.1,1.4-0.3,1.9-0.9
	c0.6-0.5,0.9-1.1,0.9-1.9c0-0.8-0.3-1.5-0.9-2c-0.5-0.6-1.2-0.8-1.9-0.8C-224.134-196.534-224.734-196.334-225.334-195.734z
	 M-224.234-194.034v-1.1h1.1l0.6,0.2l0.1,0.4v0.3l-0.3,0.2h-0.5H-224.234z M-225.734-193.734c0-0.7,0.3-1.2,0.8-1.7
	c0.4-0.5,0.9-0.7,1.6-0.7c0.6,0,1.2,0.2,1.6,0.7c0.5,0.5,0.7,1,0.7,1.7c0,0.5-0.2,1.1-0.6,1.6l-0.6-0.9l-0.6-0.6
	c0.3-0.1,0.5-0.2,0.7-0.4l0.2-0.5l-0.2-0.6c-0.1-0.1-0.2-0.2-0.3-0.3h-0.7h-1.5v3.3h0.4v-1.5h0.8l0.2,0.1l0.3,0.2l0.7,1.2h0.5
	c-0.4,0.5-1,0.7-1.6,0.7c-0.7,0-1.2-0.2-1.6-0.7C-225.434-192.534-225.734-193.134-225.734-193.734z"/>
<path fill="#F08300" d="M-203.134-199.534l-2-0.2l-2.2,0.3l-1.4,1c-0.4,0.4-0.6,1-0.8,1.6l1.7,0.3c0.1-0.7,0.4-1.2,0.7-1.5l1.8-0.4
	c0.8,0,1.4,0.2,1.8,0.5c0.3,0.3,0.5,0.8,0.5,1.5v0.4l-4.4,0.8l-1.1,0.5l-0.9,1.1l-0.3,1.2c0,0.8,0.3,1.5,0.8,2
	c0.6,0.6,1.4,0.8,2.5,0.8l1.8-0.3l1.8-1.1l0.3,1.2h1.7l-0.4-1.2l-0.1-6.6c-0.2-0.5-0.3-0.8-0.6-1.1
	C-202.134-199.134-202.534-199.334-203.134-199.534z M-207.834-193.234l0.7-0.5l4.1-1v0.6c0,0.7-0.1,1.3-0.3,1.7l-1,1.1l-1.7,0.4
	l-1.4-0.4l-0.6-1.1L-207.834-193.234z"/>
<rect fill="none" width="141.732" height="141.732"/>
<g>
	<path fill="#53688D" d="M127.026,55.811c-0.164-1.973-1.233-2.96-3.289-2.96l-11.102,0.411v-3.454h-3.783
		c-2.303,0-3.371,0.412-3.371,1.234v2.385l-7.319,0.329v-1.315c-4.44-0.329-6.661,0.082-6.661,1.233v8.799h13.98v6.168h-9.539v2.302
		h9.539v11.595l7.154-0.658V70.942h10.279v-2.385l-10.279,0.083v-6.168h12.006v-1.151h0.247c0.657-0.083,1.151-0.576,1.562-1.563
		L127.026,55.811z M119.79,55.399c0.658,0,0.986,0.33,0.986,0.905l-0.41,3.783H98.162V56.14l7.319-0.247v0.082l7.154-0.246v-0.083
		L119.79,55.399z"/>
	<path fill="#53688D" d="M88.623,57.949h-3.865v-8.058h-3.782c-2.221-0.083-3.372,0.329-3.289,1.151v6.907H64.281v2.385h13.405
		v23.19h7.071v-23.19h3.865V57.949z"/>
	<path fill="#53688D" d="M63.049,49.891c-2.221-0.083-3.29,0.329-3.29,1.151c0,3.454-3.207,7.401-9.621,11.841l0.986,1.481
		l4.853-2.221l0.082,19.736l7.072,0.905v-25.41c1.974-2.386,3.042-4.853,3.125-7.483H63.049z"/>
	<path fill="#F29429" d="M116.665,76.617l1.892,2.138l2.056,1.809c0.493,0.412,0.904,0.412,1.233,0l2.139-1.809l1.809-2.138
		c0.329-0.329,0.329-0.741,0-1.151l-1.892-2.138l-2.056-1.81c-0.329-0.411-0.74-0.411-1.233,0l-2.056,1.81l-1.892,2.138
		C116.254,75.876,116.254,76.288,116.665,76.617z"/>
	<path fill="#F29429" d="M76.781,67.817l-2.385-2.796l-2.796-2.467c-0.493-0.494-1.068-0.494-1.563,0l-2.796,2.467l-2.467,2.796
		c-0.576,0.576-0.576,1.069,0,1.645l5.263,5.263c0.494,0.493,1.069,0.493,1.563,0l2.796-2.549l2.385-2.714
		C77.357,68.886,77.357,68.393,76.781,67.817z"/>
	<path fill="#F29429" d="M124.971,90.02l2.796-0.494l1.81-1.809c0.986-1.48,2.631-3.207,5.016-5.181
		c2.632-2.22,3.537-2.878,2.714-1.974c0.494-0.493,0.74-0.904,0.658-1.397c0-0.329-0.329-0.576-0.822-0.493l-1.645,0.247
		c-11.431,2.384-25.739,4.029-42.927,4.77c-19.489,0.74-34.045-0.165-43.666-2.878c-3.043-0.905-5.839-1.728-8.552-2.55
		c-2.139-0.74-4.112-1.398-6.004-2.056c-0.986-0.329-2.056-0.658-2.961-1.069c-6.414-2.796-11.512-4.194-15.295-4.112
		c-3.454,0-6.414,0.823-8.717,2.385c-2.467,1.727-3.7,4.03-3.618,6.825c-0.082,3.207,1.233,5.674,3.782,7.401
		c1.81,1.233,4.029,2.056,6.661,2.384c0.164,0,0.329,0,0.493,0c-2.056-0.246-3.865-0.904-5.345-1.974
		c-2.139-1.48-3.207-3.454-3.207-5.92c0-4.852,2.713-7.401,8.388-7.813c0.247,0,0.493,0,0.822,0l5.51,0.494
		c1.81,0.576,3.454,1.151,4.852,1.81c0.658,0.246,2.55,1.233,5.674,2.795c1.316,0.658,2.797,1.48,4.523,2.302
		c0.164,0.165,0.411,0.247,0.658,0.33c4.44,2.22,8.799,3.947,12.992,5.345C65.104,92.405,90.186,93.228,124.971,90.02z"/>
	<path fill="#53688D" d="M28.592,51.288v4.359H14.53v2.302h14.062v5.345L18.56,63.376v2.385l21.217-0.082
		c-0.987,3.7-2.714,7.236-5.428,10.526c1.892,0.658,3.865,1.316,6.004,2.056c3.864-4.605,6.167-9.539,6.742-14.967H35.582v-5.345
		h14.556v-2.302H35.582v-5.51l-3.7-0.082C29.661,50.055,28.592,50.465,28.592,51.288z"/>
	<path fill="#53688D" d="M16.339,90.185h1.069c6.743-0.411,12.665-2.714,17.681-6.826c0.493-0.493,0.986-0.904,1.48-1.315
		c-0.247-0.083-0.494-0.165-0.658-0.33c-1.727-0.822-3.207-1.644-4.523-2.302c-0.164,0.165-0.328,0.329-0.492,0.493
		c-2.222,2.139-4.771,3.865-7.483,5.263c-2.632,1.234-4.853,1.81-6.661,1.892c-5.922,0-8.964-2.22-8.964-6.743
		c0-3.042,2.22-5.016,6.743-6.003c-5.675,0.411-8.388,2.961-8.388,7.813c0,2.467,1.068,4.44,3.207,5.92
		c1.479,1.069,3.289,1.728,5.345,1.974c-0.164,0-0.329,0-0.493,0C14.941,90.103,15.6,90.103,16.339,90.185z"/>
	<path d="M135.085,49.808h-0.575l-0.904,2.714l-0.904-2.714h-0.576v3.208h0.411v-2.631l0.904,2.631h0.329l0.904-2.631v2.631h0.411
		V49.808z"/>
	<path d="M131.632,50.219v-0.412h-2.467v0.412h1.068v2.796h0.494v-2.796H131.632z"/>
</g>
</svg>
