<?xml version="1.0" encoding="utf-8"?>
<!-- Generator: Adobe Illustrator 16.0.0, SVG Export Plug-In . SVG Version: 6.00 Build 0)  -->
<!DOCTYPE svg PUBLIC "-//W3C//DTD SVG 1.1//EN" "http://www.w3.org/Graphics/SVG/1.1/DTD/svg11.dtd">
<svg version="1.1" id="图层_1" xmlns="http://www.w3.org/2000/svg" xmlns:xlink="http://www.w3.org/1999/xlink" x="0px" y="0px"
	 width="141.732px" height="141.732px" viewBox="0 0 141.732 141.732" enable-background="new 0 0 141.732 141.732"
	 xml:space="preserve">
<path fill="#53688D" d="M-359.534-324.334c-0.2-2.4-1.5-3.6-4-3.6l-13.5,0.5v-4.2h-4.6c-2.8,0-4.1,0.5-4.1,1.5v2.9l-8.9,0.4v-1.6
	c-5.4-0.4-8.1,0.1-8.1,1.5v10.7h17v7.5h-11.6v2.8h11.6v14.1l8.7-0.8v-13.3h12.5v-2.9l-12.5,0.1v-7.5h14.6v-1.4h0.3
	c0.8-0.1,1.4-0.7,1.9-1.9L-359.534-324.334z M-368.334-324.834c0.8,0,1.2,0.4,1.2,1.1l-0.5,4.6h-27v-4.8l8.9-0.3v0.1l8.7-0.3v-0.1
	L-368.334-324.834z"/>
<path fill="#53688D" d="M-406.234-321.734h-4.7v-9.8h-4.6c-2.7-0.1-4.1,0.4-4,1.4v8.4h-16.3v2.9h16.3v28.2h8.6v-28.2h4.7V-321.734z"
	/>
<path fill="#53688D" d="M-437.334-331.534c-2.7-0.1-4,0.4-4,1.4c0,4.2-3.9,9-11.7,14.4l1.2,1.8l5.9-2.7l0.1,24l8.6,1.1v-30.9
	c2.4-2.9,3.7-5.9,3.8-9.1H-437.334z"/>
<path fill="#F29429" d="M-372.134-299.034l2.3,2.6l2.5,2.2c0.6,0.5,1.1,0.5,1.5,0l2.6-2.2l2.2-2.6c0.4-0.4,0.4-0.9,0-1.4l-2.3-2.6
	l-2.5-2.2c-0.4-0.5-0.9-0.5-1.5,0l-2.5,2.2l-2.3,2.6C-372.634-299.934-372.634-299.434-372.134-299.034z"/>
<path fill="#F29429" d="M-420.634-309.734l-2.9-3.4l-3.4-3c-0.6-0.6-1.3-0.6-1.9,0l-3.4,3l-3,3.4c-0.7,0.7-0.7,1.3,0,2l6.4,6.4
	c0.6,0.6,1.3,0.6,1.9,0l3.4-3.1l2.9-3.3C-419.934-308.434-419.934-309.034-420.634-309.734z"/>
<path fill="#F29429" d="M-362.034-282.734l3.4-0.6l2.2-2.2c1.2-1.8,3.2-3.9,6.1-6.3c3.2-2.7,4.3-3.5,3.3-2.4
	c0.6-0.6,0.9-1.1,0.8-1.7c0-0.4-0.4-0.7-1-0.6l-2,0.3c-13.9,2.9-31.3,4.9-52.2,5.8c-23.7,0.9-41.4-0.2-53.1-3.5
	c-3.7-1.1-7.1-2.1-10.4-3.1c-2.6-0.9-5-1.7-7.3-2.5c-1.2-0.4-2.5-0.8-3.6-1.3c-7.8-3.4-14-5.1-18.6-5c-4.2,0-7.8,1-10.6,2.9
	c-3,2.1-4.5,4.9-4.4,8.3c-0.1,3.9,1.5,6.9,4.6,9c2.2,1.5,4.9,2.5,8.1,2.9c0.2,0,0.4,0,0.6,0c-2.5-0.3-4.7-1.1-6.5-2.4
	c-2.6-1.8-3.9-4.2-3.9-7.2c0-5.9,3.3-9,10.2-9.5c0.3,0,0.6,0,1,0l6.7,0.6c2.2,0.7,4.2,1.4,5.9,2.2c0.8,0.3,3.1,1.5,6.9,3.4
	c1.6,0.8,3.4,1.8,5.5,2.8c0.2,0.2,0.5,0.3,0.8,0.4c5.4,2.7,10.7,4.8,15.8,6.5C-434.834-279.834-404.334-278.834-362.034-282.734z"/>
<path fill="#53688D" d="M-479.234-329.834v5.3h-17.1v2.8h17.1v6.5l-12.2,0.1v2.9l25.8-0.1c-1.2,4.5-3.3,8.8-6.6,12.8
	c2.3,0.8,4.7,1.6,7.3,2.5c4.7-5.6,7.5-11.6,8.2-18.2h-14v-6.5h17.7v-2.8h-17.7v-6.7l-4.5-0.1
	C-477.934-331.334-479.234-330.834-479.234-329.834z"/>
<path fill="#53688D" d="M-494.134-282.534h1.3c8.2-0.5,15.4-3.3,21.5-8.3c0.6-0.6,1.2-1.1,1.8-1.6c-0.3-0.1-0.6-0.2-0.8-0.4
	c-2.1-1-3.9-2-5.5-2.8c-0.2,0.2-0.4,0.4-0.6,0.6c-2.7,2.6-5.8,4.7-9.1,6.4c-3.2,1.5-5.9,2.2-8.1,2.3c-7.2,0-10.9-2.7-10.9-8.2
	c0-3.7,2.7-6.1,8.2-7.3c-6.9,0.5-10.2,3.6-10.2,9.5c0,3,1.3,5.4,3.9,7.2c1.8,1.3,4,2.1,6.5,2.4c-0.2,0-0.4,0-0.6,0
	C-495.834-282.634-495.034-282.634-494.134-282.534z"/>
<path d="M-349.734-331.634h-0.7l-1.1,3.3l-1.1-3.3h-0.7v3.9h0.5v-3.2l1.1,3.2h0.4l1.1-3.2v3.2h0.5V-331.634z"/>
<path d="M-353.934-331.134v-0.5h-3v0.5h1.3v3.4h0.6v-3.4H-353.934z"/>
<path fill="#E8E8E8" d="M-513.734-305.234c0.7-3.3,1.2-6.7,1.3-10.3c0.1-3.6-0.2-7.4-0.9-11.2c-3.5-0.7-6.8-1.7-9.9-3.2
	c-3.2-1.7-6.3-3.7-9-6l-0.6-0.6l-0.8-0.4h-6c-0.4,0-0.7,0.2-1,0.4l-0.5,0.6c-2.6,2.4-5.5,4.5-8.8,6.3c-3.4,1.4-6.7,2.4-10.1,2.9
	c-0.6,3.6-0.9,7.3-0.8,11.3c0,3.4,0.4,6.8,1.4,10.2l0.4,2.4c1,3.8,2.3,7.2,4.1,10.2c1.7,3.2,3.9,6.1,6.5,8.8
	c2.8,2.7,5.7,5.1,8.8,7.1l3,1.9c2.4-1.1,5-2.9,7.9-5.3l4-3.9c2.5-2.6,4.7-5.5,6.5-8.6c1.8-3.1,3.2-6.5,4.1-10.1L-513.734-305.234z
	 M-516.034-324.234l0.1,0.4c0.7,5,0.7,10,0,15.1l-0.5,3.6c-0.7,2.9-1.6,5.7-2.9,8.4c-1.4,2.9-3.2,5.6-5.4,8l-3.2,3.4
	c-2.5,2.3-5.3,4.3-8.4,5.9h-0.4l-2.4-1.4c-3.6-2.4-6.7-5.1-9.3-8c-2.9-3.3-5-6.6-6.3-10c-0.9-2.3-1.6-4.4-2-6.2h0.1
	c-0.6-2.2-1-4.3-1.2-6.4c-0.3-4.1-0.2-8.2,0.4-12.4l0.1-0.4l0.4-0.1l7-1.8h-0.1c3.8-1.4,7.2-3.6,10.1-6.4c0.6-0.7,1.3-1.1,2.1-1.1
	h1.2c1-0.1,2.2,0.3,3.3,1.2c2.4,2.1,5,3.8,7.9,5.2c2.8,1.3,5.7,2.3,9,2.8L-516.034-324.234z"/>
<path fill="#999999" d="M-515.934-323.834l-0.1-0.4l-0.4-0.2c-3.3-0.5-6.2-1.5-9-2.8c-2.9-1.4-5.5-3.1-7.9-5.2
	c-1.1-0.9-2.3-1.3-3.3-1.2h-1.2c-0.8,0-1.5,0.4-2.1,1.1c-2.9,2.8-6.3,5-10.1,6.4h0.1l-7,1.8l-0.4,0.1l-0.1,0.4
	c-0.6,4.2-0.7,8.3-0.4,12.4c0.2,2.1,0.6,4.2,1.2,6.4h-0.1c0.4,1.8,1.1,3.9,2,6.2c1.3,3.4,3.4,6.7,6.3,10c2.6,2.9,5.7,5.6,9.3,8
	l2.4,1.4h0.4c3.1-1.6,5.9-3.6,8.4-5.9l3.2-3.4c2.2-2.4,4-5.1,5.4-8c1.3-2.7,2.2-5.5,2.9-8.4l0.5-3.6
	C-515.234-313.834-515.234-318.834-515.934-323.834z M-536.634-332.434c0.8,0,1.5,0.3,2.3,1c2.5,2.1,5.3,4,8.4,5.4
	c2.6,1.3,5.5,2.3,8.8,2.9c0.6,4.7,0.6,9.4,0,14.2l-0.7,3.6v0.1c-0.6,2.6-1.6,5.3-2.7,7.9c-1.3,2.8-3,5.3-5.1,7.6l-3.3,3.5
	c-2.3,2.1-4.8,3.9-7.7,5.4v-0.1l-1.7-1.1c-3.6-2.3-6.7-4.8-9.2-7.7c-2.6-3-4.6-6.2-5.9-9.7c-1-2.1-1.6-4-1.9-5.8v-0.1
	c-0.6-2.2-1-4.3-1.2-6.3c-0.3-3.7-0.2-7.6,0.3-11.5l6.8-1.8c3.9-1.5,7.3-3.7,10.3-6.5c0.5-0.5,1-0.9,1.5-1H-536.634z"/>
<radialGradient id="SVGID_1_" cx="-606.6338" cy="-188.1338" r="819.2" gradientTransform="matrix(0.0376 0 0 0.0417 -514.0977 -302.0313)" gradientUnits="userSpaceOnUse">
	<stop  offset="0" style="stop-color:#3D76B9"/>
	<stop  offset="0.3882" style="stop-color:#0063AD"/>
	<stop  offset="0.7647" style="stop-color:#585D70"/>
	<stop  offset="1" style="stop-color:#5B5D7F"/>
</radialGradient>
<path fill="url(#SVGID_1_)" d="M-534.334-331.434c-0.8-0.7-1.5-1-2.3-1v27.2h18.8v-0.1l0.7-3.6c0.6-4.8,0.6-9.5,0-14.2
	c-3.3-0.6-6.2-1.6-8.8-2.9C-529.034-327.434-531.834-329.334-534.334-331.434z"/>
<radialGradient id="SVGID_2_" cx="-606.6338" cy="-188.1338" r="819.2" gradientTransform="matrix(0.0212 -0.0123 0.0061 0.0107 -530.4608 -326.4933)" gradientUnits="userSpaceOnUse">
	<stop  offset="0" style="stop-color:#FFE100"/>
	<stop  offset="1" style="stop-color:#F08910"/>
</radialGradient>
<path fill="url(#SVGID_2_)" d="M-549.434-324.934l-6.8,1.8c-0.5,3.9-0.6,7.8-0.3,11.5c0.2,2,0.6,4.1,1.2,6.3v0.1h18.7v-27.2h-1
	c-0.5,0.1-1,0.5-1.5,1C-542.134-328.634-545.534-326.434-549.434-324.934z M-538.834-329.434l0.1,1.7l-2,2.3
	c-3.2,3.2-7.1,4.7-11.7,4.6l-1.7-0.5C-546.934-323.934-541.934-326.734-538.834-329.434z"/>
<linearGradient id="SVGID_3_" gradientUnits="userSpaceOnUse" x1="-1425.8337" y1="-149.0088" x2="212.5663" y2="-149.0088" gradientTransform="matrix(0.0018 0.0032 -2.6078 1.508 -932.4164 -95.9637)">
	<stop  offset="0" style="stop-color:#FFFFFF"/>
	<stop  offset="1" style="stop-color:#FFFFFF"/>
</linearGradient>
<path fill="url(#SVGID_3_)" d="M-538.734-327.734l-0.1-1.7c-3.1,2.7-8.1,5.5-15.3,8.1l1.7,0.5c4.6,0.1,8.5-1.4,11.7-4.6
	L-538.734-327.734z"/>
<radialGradient id="SVGID_4_" cx="-606.6338" cy="-188.1338" r="819.2" gradientTransform="matrix(0.0376 0 0 0.0417 -514.0977 -302.0313)" gradientUnits="userSpaceOnUse">
	<stop  offset="0" style="stop-color:#3D76B9"/>
	<stop  offset="0.3882" style="stop-color:#0063AD"/>
	<stop  offset="0.7647" style="stop-color:#585D70"/>
	<stop  offset="1" style="stop-color:#5B5D7F"/>
</radialGradient>
<path fill="url(#SVGID_4_)" d="M-555.334-305.234c0.3,1.8,0.9,3.7,1.9,5.8c1.3,3.5,3.3,6.7,5.9,9.7c2.5,2.9,5.6,5.4,9.2,7.7l1.7,1.1
	v-24.3H-555.334z"/>
<radialGradient id="SVGID_5_" cx="-606.6338" cy="-188.1338" r="819.2001" gradientTransform="matrix(-0.0228 1.000000e-004 -1.000000e-004 -0.0262 -550.3746 -310.16)" gradientUnits="userSpaceOnUse">
	<stop  offset="0.1373" style="stop-color:#FFE100"/>
	<stop  offset="0.7294" style="stop-color:#F08910"/>
	<stop  offset="1" style="stop-color:#E72518"/>
</radialGradient>
<path fill="url(#SVGID_5_)" d="M-517.834-305.234h-18.8v24.3v0.1c2.9-1.5,5.4-3.3,7.7-5.4l3.3-3.5c2.1-2.3,3.8-4.8,5.1-7.6
	C-519.434-299.934-518.434-302.634-517.834-305.234z"/>
<path fill="#F08300" d="M-306.834-218.034v1.6h2.2v-26.1h-24.3v26.3h2.4v-1.8H-306.834z M-306.834-240.734v21h-19.7v-21H-306.834z"
	/>
<path fill="#F08300" d="M-309.334-235.634v-1.9h-14.5v1.9l5.6-0.1v3.9l-5.3-0.2v2l5.3-0.1v5.4l-6.4-0.2v2h15.9v-2l-7.2,0.2v-5.4
	l6,0.1v-2l-6,0.2v-3.9L-309.334-235.634z"/>
<path fill="#F08300" d="M-312.434-225.534l2-1.2l-2.3-2.5l-1.7,1.3L-312.434-225.534z"/>
<path fill="#F08300" d="M-347.234-238.234l0.2-6.1h-2.8l0.2,6.1h-9.9v13.7h2.6v-2.2h7.3l-0.2,10.3h2.8l-0.2-10.3h7.6v2.1h2.6v-13.6
	H-347.234z M-339.734-236.234v7.6h-7.5v-7.6H-339.734z M-349.634-236.234v7.6h-7.3v-7.6H-349.634z"/>
<path fill="#F08300" d="M-353.334-203.134l-1.1-0.8l-1.6-0.3c-1.3-0.1-2.3,0.5-3.1,1.5v-1.3h-1.4v9.7h1.6v-5.3
	c0-1.3,0.2-2.1,0.8-2.5c0.4-0.5,1-0.8,1.8-0.7l1.2,0.3l0.6,0.8l0.2,1.4v6h1.7l-0.1-7.6L-353.334-203.134z"/>
<path fill="#F08300" d="M-368.734-243.634h-0.8l-1.3,3.8l-1.3-3.8h-0.9v4.4h0.6v-3.8l1.3,3.8h0.6l1.2-3.7v3.7h0.6V-243.634z"/>
<path fill="#F08300" d="M-373.734-243.234v-0.4h-3.5v0.4h1.5v4h0.6v-4H-373.734z"/>
<path fill="#F08300" d="M-370.534-231.034c-0.7,0-1.3,0.3-1.8,0.7c-0.4,0.5-0.7,1.1-0.7,1.8c0,0.6,0.3,1.2,0.7,1.7
	c0.5,0.4,1.1,0.7,1.8,0.7c0.6,0,1.2-0.3,1.7-0.7c0.4-0.5,0.7-1.1,0.7-1.7c0-0.7-0.3-1.3-0.7-1.8
	C-369.334-230.734-369.934-231.034-370.534-231.034z"/>
<path fill="#F08300" d="M-385.534-225.134l4.2-3.8v-13.1h-27.5v27.4h26.1l1.5-3.5h-22.6v-7H-385.534z M-392.734-238.434h6.5v9.8
	l-6.5-0.1V-238.434z M-403.834-238.434h6.3v9.7h-6.3V-238.434z"/>
<path fill="#F08300" d="M-386.534-203.834l-1.8-0.4c-0.6,0-1.2,0.1-1.7,0.4c-0.5,0.3-0.9,0.7-1.2,1.1v-1.3h-1.5v9.7h1.7v-5.1
	c0-0.9,0.1-1.6,0.2-2c0.2-0.5,0.5-0.8,0.9-1l1.3-0.4c0.6,0,1,0.2,1.3,0.5l0.4,1.7v6.3h1.7v-5.6c-0.1-1.1,0.2-1.8,0.7-2.2
	c0.4-0.5,0.9-0.8,1.6-0.7l1,0.2l0.6,0.7l0.1,1.5v6.1h1.7v-6.7c0-1.1-0.3-1.9-0.8-2.5c-0.5-0.5-1.2-0.8-2.2-0.7c-1.2,0-2.2,0.5-3,1.7
	L-386.534-203.834z"/>
<path fill="#F08300" d="M-370.534-201.934c-0.4,0.8-0.6,1.7-0.6,2.7c0,1.6,0.4,2.9,1.3,3.8c0.7,0.9,1.8,1.3,3.2,1.3
	c1,0,1.9-0.3,2.6-0.9c0.8-0.7,1.2-1.5,1.4-2.7l-1.6-0.2c-0.1,0.8-0.4,1.5-0.9,1.9c-0.4,0.3-0.9,0.5-1.5,0.5c-0.9,0-1.5-0.3-2-0.8
	c-0.5-0.6-0.8-1.6-0.8-2.9c0-1.3,0.3-2.2,0.8-2.8s1.2-0.9,2-0.9l1.5,0.5c0.3,0.3,0.6,0.8,0.7,1.4l1.7-0.2c-0.2-1-0.7-1.7-1.4-2.3
	c-0.6-0.5-1.5-0.8-2.5-0.7c-0.9,0-1.7,0.2-2.4,0.5C-369.734-203.334-370.234-202.734-370.534-201.934z"/>
<path fill="#F08300" d="M-374.134-194.334v-1.9h-1.8v1.9H-374.134z"/>
<path d="M-576.034-227.034l-0.5-0.6c0.6,0,3.7-0.9,9.6-2.9c5.8-2,15.1-4.3,27.7-6.9l-1.6-3.8c9.3,2.2,14.5,4.7,15.5,7.4l0,0
	l-0.1-1.2c-0.9-3.2-7.1-5.8-18.6-7.6c1.3,0.9,2.3,1.9,2.8,2.8l0.6,1.6l-22.6,5.4l-15,4.2l2.1,4.9l-1.1,1.7l-3.8,3.1l-2.5,1.2
	l-2.4-1.5l0.6,10.5c-5,1.1-8.2,3.2-9.5,6.3l-0.6,1.8c-0.5,2.3,0.2,4,2.3,5.2c-1.7-2-2-3.9-0.9-5.8c0.6-0.9,1.3-1.8,2.4-2.6
	c2-1.7,4.3-2.7,6.7-3.2h1l0.5-9.7l6.7,1.8l7.1-0.3c2.2-0.6,4.2-1.4,6-2.5c1.8-1,3.5-2.3,5-3.9c0.8,0.6,1.3,2.5,1.5,5.6l0.4-2.9
	c0-2.7-1.3-4.6-3.7-5.8l1.5,1.8l-1,0.8c-2,1.7-4.2,3-6.5,4l-0.9,0.3c-2.8,1-5.7,1.3-8.6,1.1l-1.3-0.2l-0.3-0.1
	c-1.1-0.1-2-0.5-2.7-1.1l5.9-4c-0.3-1.6-0.8-3.2-1.5-4.6L-576.034-227.034z"/>
<path fill="#F08300" d="M-579.534-233.734l-1.1,0.6c-10.6,6.4-18.1,13.4-22.5,21c-4.7,7.9-4.6,14.1,0.1,18.6l4,2.9l0.7,0.3
	c5,1.9,10.3,2.6,15.9,1.9c7-0.8,14.4-3.6,22.4-8.5l1.9-1.3l-1.9,0.6c-10.1,3.2-18.6,4.6-25.5,4.1l-6-1.2l-0.4-0.2l-1.2-0.5
	c-2.1-1.2-2.8-2.9-2.3-5.2l0.6-1.8c1.3-3.1,4.5-5.2,9.5-6.3l-0.6-10.5l2.4,1.5l2.5-1.2l3.8-3.1l1.1-1.7l-2.1-4.9l15-4.2l22.6-5.4
	l-0.6-1.6c-0.5-0.9-1.5-1.9-2.8-2.8c11.5,1.8,17.7,4.4,18.6,7.6l0.1,1.2v1.3l-0.4,2.2c-0.8,2.3-2.4,5.1-4.9,8.1l-11,12.3
	c-3.1,2.9-5.6,6.9-7.4,12c-2,5,0.1,7.6,6.1,7.7c5.9,0,13.9-1.8,23.7-5.4c8.9-3.4,16.9-7.5,24.1-12.2l2.2-1.6l-2.2,0.9
	c-18,6.6-30.6,10.3-37.8,10.9c-7.6,0.7-8.2-2.5-1.8-9.4l7.7-9.1c1.8-2.1,3.3-4.1,4.5-6.3c4.6-7.9,4.6-14.1,0-18.6l-0.4-0.5
	c-1.6-1.4-3.4-2.5-5.5-3.2c-4.5-1.7-10.5-2-17.7-1C-557.334-244.334-568.534-240.334-579.534-233.734z"/>
<path fill="#F08300" d="M-414.134-228.934v-13.1h-27.5v27.4h26l1.5-3.5h-22.6l0.1-7h18.2L-414.134-228.934z M-419.034-228.634
	l-6.5-0.1v-9.7h6.5V-228.634z M-430.334-238.434v9.7h-6.3v-9.7H-430.334z"/>
<path fill="#F08300" d="M-426.534-204.234l-2.2,0.3l-1.4,1l-0.8,1.6l1.7,0.3l0.8-1.5l1.7-0.4c0.8,0,1.4,0.2,1.8,0.5
	c0.3,0.3,0.5,0.8,0.5,1.5v0.4l-4.4,0.8c-0.4,0.1-0.8,0.3-1.1,0.5c-0.4,0.3-0.7,0.6-0.9,1.1l-0.3,1.2c0,0.8,0.3,1.5,0.9,2
	c0.5,0.6,1.3,0.8,2.4,0.8l1.9-0.3l1.7-1.1l0.3,1.2h1.7l-0.4-1.2l-0.1-6.6l-0.6-1.1c-0.2-0.4-0.6-0.6-1.2-0.8L-426.534-204.234z
	 M-429.134-197.734l0.6-0.5l4.1-1v0.6l-0.2,1.7l-1.1,1.1l-1.7,0.4l-1.4-0.4c-0.4-0.3-0.6-0.6-0.6-1.1
	C-429.434-197.234-429.334-197.434-429.134-197.734z"/>
<path fill="#F08300" d="M-433.434-201.334l-0.8-1.6c-0.4-0.5-0.8-0.8-1.4-1l-1.7-0.3c-1.1-0.1-2,0.4-2.6,1.2v-4.8h-1.7v13.5h1.5
	v-1.3c0.7,1,1.6,1.5,2.7,1.5c1.2,0,2.2-0.4,3-1.4c0.9-0.9,1.3-2.2,1.3-3.8L-433.434-201.334z M-439.334-202.034
	c0.5-0.6,1.1-0.9,1.9-0.9c0.7,0,1.3,0.3,1.8,0.9s0.7,1.5,0.7,2.8c0,1.2-0.2,2.2-0.7,2.9c-0.6,0.5-1.2,0.8-1.9,0.8
	c-0.9,0-1.6-0.4-2.1-1.2c-0.3-0.6-0.5-1.4-0.5-2.5C-440.134-200.434-439.934-201.334-439.334-202.034z"/>
<path fill="#F08300" d="M-407.234-203.534c-0.7-0.5-1.5-0.8-2.6-0.7c-0.8,0-1.6,0.2-2.3,0.5c-0.7,0.4-1.2,1-1.6,1.8
	c-0.3,0.8-0.5,1.7-0.5,2.7c0,1.6,0.4,2.9,1.2,3.8c0.8,0.9,1.9,1.3,3.2,1.3c1.1,0,1.9-0.3,2.7-0.9c0.7-0.7,1.2-1.5,1.4-2.7l-1.6-0.2
	c-0.2,0.8-0.5,1.5-0.9,1.9c-0.4,0.3-0.9,0.5-1.6,0.5c-0.8,0-1.5-0.3-1.9-0.8c-0.6-0.6-0.8-1.6-0.8-2.9c0-1.3,0.2-2.2,0.8-2.8
	c0.5-0.6,1.2-0.9,2-0.9l1.4,0.5l0.8,1.4l1.6-0.2C-406.134-202.234-406.534-202.934-407.234-203.534z"/>
<path fill="#F08300" d="M-399.834-204.234c-1.2,0-2.2,0.3-3,1.1c-1,0.8-1.5,2.1-1.5,3.9c0,1.6,0.4,2.9,1.3,3.8
	c0.8,0.9,1.9,1.3,3.2,1.3c0.9,0,1.7-0.2,2.4-0.6l1.6-1.6c0.4-0.8,0.6-1.8,0.6-3c0-1.6-0.4-2.8-1.3-3.6
	C-397.334-203.834-398.434-204.334-399.834-204.234z M-401.834-202.034c0.6-0.6,1.3-0.9,2-0.9c0.9,0,1.5,0.3,2.1,0.9
	c0.5,0.7,0.8,1.6,0.8,2.8c0,1.3-0.3,2.3-0.8,2.9c-0.6,0.5-1.2,0.8-2.1,0.8c-0.7,0-1.4-0.3-2-0.8c-0.5-0.6-0.8-1.6-0.8-2.9
	C-402.634-200.434-402.334-201.334-401.834-202.034z"/>
<path fill="#F08300" d="M-452.234-225.634l4.7-3.6v-13h-26.6v16.6h10.6v2.2h-10.6v3.2h10.6v2.6h-10.9v3.1h26.3l1.4-3.1h-11.8v-2.6
	h9.7l1.5-3.2h-11.2v-2.2H-452.234z M-454.034-232.434l1.4-3h-5.9v-3.6h6.2v10.3h-6.2v-3.7H-454.034z M-463.534-239.034v3.6h-5.8
	v-3.6H-463.534z M-469.334-228.734v-3.7h5.8v3.7H-469.334z"/>
<path fill="#F08300" d="M-466.834-207.834h-1.6v1.9h1.6V-207.834z"/>
<path fill="#F08300" d="M-466.834-204.034h-1.6v9.7h1.6V-204.034z"/>
<path fill="#F08300" d="M-471.634-207.834h-1.7v13.5h1.7V-207.834z"/>
<path fill="#F08300" d="M-457.634-203.934l-1.7-0.3c-1.1-0.1-2,0.4-2.7,1.2v-4.8h-1.6v13.5h1.5v-1.3c0.6,1,1.6,1.5,2.7,1.5
	c1.1,0,2.1-0.4,3-1.4c0.8-0.9,1.2-2.2,1.2-3.8l-0.3-2l-0.8-1.6L-457.634-203.934z M-462.134-199.234c0-1.2,0.2-2.1,0.8-2.8
	c0.5-0.6,1-0.9,1.8-0.9c0.7,0,1.4,0.3,1.8,0.9c0.6,0.6,0.8,1.5,0.8,2.8c0,1.2-0.2,2.2-0.8,2.9c-0.6,0.5-1.1,0.8-1.8,0.8
	c-0.9,0-1.6-0.4-2.2-1.2C-462.034-197.334-462.134-198.134-462.134-199.234z"/>
<path fill="#F08300" d="M-446.534-204.034l-2-0.2l-2.2,0.3c-0.7,0.2-1.1,0.5-1.4,1l-0.8,1.6l1.6,0.3c0.2-0.7,0.5-1.2,0.8-1.5
	c0.4-0.3,1-0.4,1.7-0.4c0.9,0,1.5,0.2,1.9,0.5c0.3,0.3,0.5,0.8,0.5,1.5v0.4l-4.4,0.8l-1.2,0.5l-0.8,1.1l-0.3,1.2
	c-0.1,0.8,0.2,1.5,0.8,2c0.6,0.6,1.4,0.8,2.4,0.8l1.9-0.3l1.7-1.1l0.3,1.2h1.8l-0.4-1.2l-0.2-6.6l-0.5-1.1
	C-445.634-203.634-446.034-203.834-446.534-204.034z M-446.434-199.234v0.6l-0.3,1.7l-1,1.1l-1.8,0.4l-1.4-0.4
	c-0.3-0.3-0.5-0.6-0.5-1.1c0-0.3,0.1-0.5,0.2-0.8c0.2-0.2,0.4-0.4,0.6-0.5L-446.434-199.234z"/>
<path fill="#F08300" d="M-419.134-194.334h1.9v-1.9h-1.9V-194.334z"/>
<path fill="#F08300" d="M-480.534-238.634h0.2l1.4-3.6h-17.8v3.6h12v20.8h-2.9v3.5h3.2l3.9-3.7V-238.634z"/>
<path fill="#F08300" d="M-485.734-236.034h-10v19h6.5l3.5-3.2V-236.034z M-491.734-232.734h2.1v12.5h-2.1V-232.734z"/>
<path fill="#F08300" d="M-497.334-228.434l-1.9-1.6l1.9-1.7v-10.5h-9.8v28.7l4.1-2v-1.8h2.3l3.4-3.4V-228.434z M-503.034-238.934
	h1.6v7.2h-1.6V-238.934z M-503.034-228.434h1.6v7.7h-1.6V-228.434z"/>
<path fill="#F08300" d="M-500.334-200.234c-0.5,0.5-0.8,1.2-0.7,2c-0.1,0.8,0.2,1.4,0.7,1.9l2,0.9c0.7-0.1,1.4-0.3,1.9-0.9
	c0.6-0.5,0.9-1.1,0.9-1.9c0-0.8-0.3-1.5-0.9-2c-0.5-0.6-1.2-0.8-1.9-0.8C-499.134-201.034-499.734-200.834-500.334-200.234z
	 M-499.234-198.534v-1.1h1.1l0.6,0.2l0.1,0.4v0.3l-0.3,0.2h-0.5H-499.234z M-500.734-198.234c0-0.7,0.3-1.2,0.8-1.7
	c0.4-0.5,0.9-0.7,1.6-0.7c0.6,0,1.2,0.2,1.6,0.7c0.5,0.5,0.7,1,0.7,1.7c0,0.5-0.2,1.1-0.6,1.6l-0.6-0.9l-0.6-0.6
	c0.3-0.1,0.5-0.2,0.7-0.4l0.2-0.5l-0.2-0.6c-0.1-0.1-0.2-0.2-0.3-0.3h-0.7h-1.5v3.3h0.4v-1.5h0.8l0.2,0.1l0.3,0.2l0.7,1.2h0.5
	c-0.4,0.5-1,0.7-1.6,0.7c-0.7,0-1.2-0.2-1.6-0.7C-500.434-197.034-500.734-197.634-500.734-198.234z"/>
<path fill="#F08300" d="M-478.134-204.034l-2-0.2l-2.2,0.3l-1.4,1c-0.4,0.4-0.6,1-0.8,1.6l1.7,0.3c0.1-0.7,0.4-1.2,0.7-1.5l1.8-0.4
	c0.8,0,1.4,0.2,1.8,0.5c0.3,0.3,0.5,0.8,0.5,1.5v0.4l-4.4,0.8l-1.1,0.5l-0.9,1.1l-0.3,1.2c0,0.8,0.3,1.5,0.8,2
	c0.6,0.6,1.4,0.8,2.5,0.8l1.8-0.3l1.8-1.1l0.3,1.2h1.7l-0.4-1.2l-0.1-6.6c-0.2-0.5-0.3-0.8-0.6-1.1
	C-477.134-203.634-477.534-203.834-478.134-204.034z M-482.834-197.734l0.7-0.5l4.1-1v0.6c0,0.7-0.1,1.3-0.3,1.7l-1,1.1l-1.7,0.4
	l-1.4-0.4l-0.6-1.1L-482.834-197.734z"/>
<rect x="-275" y="-4.5" fill="none" width="141.732" height="141.732"/>
<g>
	<path fill="#53688D" d="M-147.974,51.311c-0.164-1.973-1.233-2.96-3.289-2.96l-11.102,0.411v-3.454h-3.783
		c-2.303,0-3.371,0.412-3.371,1.234v2.385l-7.319,0.329v-1.315c-4.44-0.329-6.661,0.082-6.661,1.233v8.799h13.98v6.168h-9.539v2.302
		h9.539v11.595l7.154-0.658V66.442h10.279v-2.385l-10.279,0.083v-6.168h12.006v-1.151h0.247c0.657-0.083,1.151-0.576,1.562-1.563
		L-147.974,51.311z M-155.21,50.899c0.658,0,0.986,0.33,0.986,0.905l-0.41,3.783h-22.204V51.64l7.319-0.247v0.082l7.154-0.246
		v-0.083L-155.21,50.899z"/>
	<path fill="#53688D" d="M-186.377,53.449h-3.865v-8.058h-3.782c-2.221-0.083-3.372,0.329-3.289,1.151v6.907h-13.405v2.385h13.405
		v23.19h7.071v-23.19h3.865V53.449z"/>
	<path fill="#53688D" d="M-211.951,45.391c-2.221-0.083-3.29,0.329-3.29,1.151c0,3.454-3.207,7.401-9.621,11.841l0.986,1.481
		l4.853-2.221l0.082,19.736l7.072,0.905v-25.41c1.974-2.386,3.042-4.853,3.125-7.483H-211.951z"/>
	<path fill="#F29429" d="M-158.335,72.117l1.892,2.138l2.056,1.809c0.493,0.412,0.904,0.412,1.233,0l2.139-1.809l1.809-2.138
		c0.329-0.329,0.329-0.741,0-1.151l-1.892-2.138l-2.056-1.81c-0.329-0.411-0.74-0.411-1.233,0l-2.056,1.81l-1.892,2.138
		C-158.746,71.376-158.746,71.788-158.335,72.117z"/>
	<path fill="#F29429" d="M-198.219,63.317l-2.385-2.796l-2.796-2.467c-0.493-0.494-1.068-0.494-1.563,0l-2.796,2.467l-2.467,2.796
		c-0.576,0.576-0.576,1.069,0,1.645l5.263,5.263c0.494,0.493,1.069,0.493,1.563,0l2.796-2.549l2.385-2.714
		C-197.643,64.386-197.643,63.893-198.219,63.317z"/>
	<path fill="#F29429" d="M-150.029,85.52l2.796-0.494l1.81-1.809c0.986-1.48,2.631-3.207,5.016-5.181
		c2.632-2.22,3.537-2.878,2.714-1.974c0.494-0.493,0.74-0.904,0.658-1.397c0-0.329-0.329-0.576-0.822-0.493l-1.645,0.247
		c-11.431,2.384-25.739,4.029-42.927,4.77c-19.489,0.74-34.045-0.165-43.666-2.878c-3.043-0.905-5.839-1.728-8.552-2.55
		c-2.139-0.74-4.112-1.398-6.004-2.056c-0.986-0.329-2.056-0.658-2.961-1.069c-6.414-2.796-11.512-4.194-15.295-4.112
		c-3.454,0-6.414,0.823-8.717,2.385c-2.467,1.727-3.7,4.03-3.618,6.825c-0.082,3.207,1.233,5.674,3.782,7.401
		c1.81,1.233,4.029,2.056,6.661,2.384c0.164,0,0.329,0,0.493,0c-2.056-0.246-3.865-0.904-5.345-1.974
		c-2.139-1.48-3.207-3.454-3.207-5.92c0-4.852,2.713-7.401,8.388-7.813c0.247,0,0.493,0,0.822,0l5.51,0.494
		c1.81,0.576,3.454,1.151,4.852,1.81c0.658,0.246,2.55,1.233,5.674,2.795c1.316,0.658,2.797,1.48,4.523,2.302
		c0.164,0.165,0.411,0.247,0.658,0.33c4.44,2.22,8.799,3.947,12.992,5.345C-209.896,87.905-184.814,88.728-150.029,85.52z"/>
	<path fill="#53688D" d="M-246.408,46.788v4.359h-14.062v2.302h14.062v5.345l-10.032,0.083v2.385l21.217-0.082
		c-0.987,3.7-2.714,7.236-5.428,10.526c1.892,0.658,3.865,1.316,6.004,2.056c3.864-4.605,6.167-9.539,6.742-14.967h-11.513v-5.345
		h14.556v-2.302h-14.556v-5.51l-3.7-0.082C-245.339,45.555-246.408,45.965-246.408,46.788z"/>
	<path fill="#53688D" d="M-258.661,85.685h1.069c6.743-0.411,12.665-2.714,17.681-6.826c0.493-0.493,0.986-0.904,1.48-1.315
		c-0.247-0.083-0.494-0.165-0.658-0.33c-1.727-0.822-3.207-1.644-4.523-2.302c-0.164,0.165-0.328,0.329-0.492,0.493
		c-2.222,2.139-4.771,3.865-7.483,5.263c-2.632,1.234-4.853,1.81-6.661,1.892c-5.922,0-8.964-2.22-8.964-6.743
		c0-3.042,2.22-5.016,6.743-6.003c-5.675,0.411-8.388,2.961-8.388,7.813c0,2.467,1.068,4.44,3.207,5.92
		c1.479,1.069,3.289,1.728,5.345,1.974c-0.164,0-0.329,0-0.493,0C-260.059,85.603-259.4,85.603-258.661,85.685z"/>
	<path d="M-139.915,45.308h-0.575l-0.904,2.714l-0.904-2.714h-0.576v3.208h0.411v-2.631l0.904,2.631h0.329l0.904-2.631v2.631h0.411
		V45.308z"/>
	<path d="M-143.368,45.719v-0.412h-2.467v0.412h1.068v2.796h0.494v-2.796H-143.368z"/>
</g>
<g>
	<path fill="#53688D" d="M30.582,119.761h2.606c16.439-1.002,30.874-6.616,43.103-16.639c1.203-1.203,2.405-2.205,3.608-3.207
		c-0.602-0.202-1.203-0.401-1.604-0.803c-4.209-2.004-7.819-4.009-11.026-5.612c-0.4,0.401-0.801,0.802-1.202,1.203
		c-5.414,5.212-11.628,9.421-18.244,12.83c-6.416,3.007-11.829,4.411-16.24,4.611c-14.433,0-21.85-5.413-21.85-16.439
		c0-7.417,5.412-12.229,16.438-14.635c-13.833,1.002-20.448,7.218-20.448,19.045c0,6.014,2.606,10.827,7.818,14.434
		c3.609,2.606,8.019,4.21,13.031,4.812c-0.402,0-0.802,0-1.204,0C27.174,119.561,28.778,119.561,30.582,119.761z"/>
	<g>
		<path fill="#53688D" d="M60.452,24.936v10.625H26.171v5.614h34.281v13.03l-24.458,0.202v5.813l51.723-0.2
			c-2.406,9.021-6.615,17.643-13.231,25.661c4.611,1.603,9.422,3.208,14.635,5.012c9.421-11.227,15.036-23.256,16.438-36.488H77.494
			v-13.03h35.483v-5.614H77.494V22.129l-9.022-0.2C63.059,21.929,60.452,22.931,60.452,24.936z"/>
		<path fill="#F29429" d="M141.732,102.54c-12.305-1.262-22.895-3.131-31.762-5.632c-7.418-2.205-14.234-4.209-20.849-6.215
			c-5.213-1.804-10.024-3.409-14.635-5.012c-2.405-0.801-5.012-1.604-7.218-2.606C51.632,76.258,39.202,72.851,29.981,73.05
			c-8.42,0-15.638,2.004-21.251,5.814C3.508,82.52,0.556,87.235,0,92.876v5.534c0.578,6.417,3.71,11.464,9.13,15.137
			c4.411,3.007,9.824,5.012,16.239,5.814c0.402,0,0.802,0,1.204,0c-5.012-0.602-9.422-2.206-13.031-4.812
			c-5.212-3.607-7.818-8.42-7.818-14.434c0-11.828,6.615-18.043,20.448-19.045c0.602,0,1.203,0,2.005,0l13.432,1.203
			c4.412,1.404,8.421,2.807,11.829,4.41c1.604,0.601,6.215,3.007,13.833,6.817c3.208,1.604,6.817,3.608,11.026,5.612
			c0.401,0.402,1.002,0.602,1.604,0.803c10.827,5.412,21.451,9.623,31.676,13.03c8.793,2.838,18.855,5.118,30.158,6.859V102.54z"/>
	</g>
</g>
<rect fill="none" width="141.732" height="141.732"/>
</svg>
