<?xml version="1.0" encoding="utf-8"?>
<!-- Generator: Adobe Illustrator 16.0.0, SVG Export Plug-In . SVG Version: 6.00 Build 0)  -->
<!DOCTYPE svg PUBLIC "-//W3C//DTD SVG 1.1//EN" "http://www.w3.org/Graphics/SVG/1.1/DTD/svg11.dtd">
<svg version="1.1" id="Layer_1" xmlns="http://www.w3.org/2000/svg" xmlns:xlink="http://www.w3.org/1999/xlink" x="0px" y="0px"
	 width="141.732px" height="141.732px" viewBox="0 0 141.732 141.732" enable-background="new 0 0 141.732 141.732"
	 xml:space="preserve">
<rect fill="none" width="141.732" height="141.732"/>
<g>
	<path fill="#E1002A" d="M34.512,33.479h29.833c4.167,0,6.755,3.396,5.783,7.576l-13.89,59.634c-0.979,4.168-5.15,7.563-9.316,7.563
		H17.088c-4.166,0-6.755-3.396-5.784-7.563L25.2,41.055C26.173,36.875,30.339,33.479,34.512,33.479L34.512,33.479L34.512,33.479z"/>
	<path fill="#004280" d="M61.865,33.479H96.17c4.166,0,2.289,3.396,1.31,7.576l-13.89,59.634c-0.973,4.168-0.668,7.563-4.841,7.563
		H44.441c-4.173,0-6.753-3.396-5.775-7.563l13.886-59.634C53.536,36.875,57.696,33.479,61.865,33.479L61.865,33.479L61.865,33.479z"
		/>
	<path fill="#007A8A" d="M94.815,33.479h29.828c4.171,0,6.762,3.396,5.783,7.576l-13.888,59.634
		c-0.975,4.168-5.146,7.563-9.322,7.563H77.396c-4.176,0-6.763-3.396-5.781-7.563l13.883-59.634
		C86.474,36.875,90.643,33.479,94.815,33.479L94.815,33.479L94.815,33.479z"/>
	<path fill-rule="evenodd" clip-rule="evenodd" fill="#FFFFFF" d="M89.829,89.578h2.814l0.813-2.704h-2.809L89.829,89.578
		L89.829,89.578z M92.079,82.115l-0.964,3.199c0,0,1.069-0.548,1.642-0.718c0.577-0.135,1.455-0.242,1.455-0.242l0.682-2.239H92.079
		L92.079,82.115z M93.479,77.513l-0.935,3.075c0,0,1.047-0.472,1.619-0.629c0.58-0.149,1.447-0.208,1.447-0.208l0.674-2.237H93.479
		L93.479,77.513z M99.699,77.513l-3.636,12.033h0.979l-0.758,2.485h-0.977l-0.229,0.771H91.62l0.236-0.771H84.82l0.71-2.301h0.711
		l3.688-12.216l0.734-2.467h3.533l-0.371,1.244c0,0,0.941-0.675,1.833-0.907c0.888-0.235,6.006-0.322,6.006-0.322l-0.756,2.452
		H99.699L99.699,77.513z"/>
	<path fill="#FFFFFF" d="M101.255,75.061h3.77l0.042,1.406c-0.023,0.237,0.179,0.349,0.618,0.349h0.767l-0.7,2.318h-2.036
		c-1.764,0.129-2.43-0.628-2.389-1.482L101.255,75.061L101.255,75.061z"/>
	<path fill="#FFFFFF" d="M101.753,86.058h-3.589l0.613-2.064h4.104l0.589-1.883h-4.055l0.696-2.329h11.281l-0.708,2.329h-3.779
		l-0.594,1.883h3.794l-0.624,2.064h-4.105l-0.728,0.872h1.664l0.406,2.6c0.044,0.257,0.05,0.425,0.132,0.537
		c0.082,0.095,0.581,0.138,0.874,0.138h0.502l-0.767,2.534h-1.28c-0.202,0-0.492-0.015-0.894-0.037
		c-0.386-0.031-0.66-0.258-0.918-0.382c-0.235-0.116-0.585-0.401-0.668-0.885l-0.399-2.594l-1.865,2.557
		c-0.593,0.806-1.396,1.421-2.748,1.421h-2.613l0.683-2.258h0.999c0.287,0,0.545-0.113,0.73-0.209
		c0.194-0.082,0.362-0.178,0.554-0.46L101.753,86.058L101.753,86.058z"/>
	<path fill="#FFFFFF" d="M62.421,80.41h9.509l-0.699,2.269h-3.808l-0.589,1.933h3.888l-0.708,2.344h-3.888L65.184,90.1
		c-0.114,0.347,0.919,0.396,1.296,0.396l1.945-0.268l-0.778,2.59h-4.386c-0.351,0-0.616-0.048-0.999-0.134
		c-0.37-0.091-0.529-0.256-0.697-0.508c-0.158-0.258-0.402-0.467-0.234-1.014l1.257-4.168h-2.159l0.715-2.382h2.173l0.574-1.933
		h-2.158L62.421,80.41L62.421,80.41z"/>
	<path fill="#FFFFFF" d="M68.823,76.332h3.9l-0.712,2.372h-5.328l-0.58,0.5c-0.245,0.239-0.331,0.138-0.655,0.316
		c-0.302,0.149-0.936,0.449-1.756,0.449h-1.71l0.694-2.278h0.515c0.435,0,0.729-0.038,0.878-0.135
		c0.168-0.108,0.359-0.348,0.576-0.74l0.979-1.781h3.88L68.823,76.332L68.823,76.332z"/>
	<path fill-rule="evenodd" clip-rule="evenodd" fill="#FFFFFF" d="M76.307,80.232c0,0,1.063-0.969,2.887-1.287
		c0.413-0.081,3.006-0.055,3.006-0.055l0.393-1.303H77.1L76.307,80.232L76.307,80.232z M81.455,81.226h-5.448l-0.335,1.097h4.715
		c0.555-0.067,0.67,0.011,0.716-0.015L81.455,81.226L81.455,81.226z M74.399,75.061h3.323l-0.483,1.675c0,0,1.049-0.839,1.786-1.139
		c0.73-0.272,2.384-0.52,2.384-0.52l5.378-0.026l-1.829,6.1c-0.313,1.046-0.671,1.721-0.894,2.027
		c-0.203,0.316-0.441,0.579-0.91,0.837c-0.456,0.241-0.867,0.381-1.248,0.419c-0.356,0.026-0.899,0.04-1.653,0.046h-5.179
		l-1.464,4.828c-0.137,0.478-0.204,0.706-0.113,0.835c0.078,0.115,0.251,0.245,0.498,0.245l2.283-0.216l-0.78,2.646h-2.558
		c-0.811,0-1.405-0.016-1.819-0.048c-0.396-0.032-0.808,0-1.081-0.213c-0.239-0.21-0.602-0.484-0.594-0.769
		c0.027-0.264,0.135-0.697,0.3-1.292L74.399,75.061L74.399,75.061z"/>
	<path fill="#FFFFFF" d="M84.086,84.912l-0.306,1.464c-0.133,0.456-0.247,0.804-0.594,1.099c-0.359,0.306-0.789,0.63-1.788,0.63
		l-1.841,0.075l-0.015,1.656c-0.023,0.471,0.102,0.423,0.176,0.498c0.088,0.081,0.163,0.118,0.245,0.148l0.582-0.03l1.759-0.101
		l-0.724,2.419h-2.023c-1.415,0-2.465-0.032-2.81-0.307c-0.337-0.213-0.386-0.486-0.377-0.95l0.128-6.457h3.226l-0.042,1.319h0.777
		c0.265,0,0.442-0.027,0.556-0.097c0.094-0.075,0.169-0.176,0.219-0.338l0.315-1.029H84.086L84.086,84.912z"/>
	<path fill="#FFFFFF" d="M38.041,52.529c-0.114,0.521-2.185,10.077-2.192,10.081c-0.446,1.932-0.767,3.315-1.867,4.201
		c-0.629,0.515-1.358,0.768-2.204,0.768c-1.356,0-2.154-0.677-2.288-1.958l-0.026-0.438c0,0,0.413-2.593,0.417-2.602
		c0,0,2.174-8.708,2.563-9.857c0.014-0.065,0.024-0.096,0.032-0.129c-4.229,0.038-4.984,0-5.033-0.064
		c-0.024,0.086-0.135,0.629-0.135,0.629l-2.218,9.805l-0.194,0.838l-0.362,2.719c0,0.804,0.155,1.464,0.472,2.021
		c1.013,1.771,3.896,2.033,5.524,2.033c2.104,0,4.073-0.449,5.402-1.26c2.313-1.368,2.923-3.508,3.461-5.403l0.249-0.97
		c0,0,2.242-9.045,2.626-10.221c0.007-0.065,0.018-0.096,0.031-0.129C39.235,52.625,38.332,52.593,38.041,52.529L38.041,52.529z"/>
	<path fill="#FFFFFF" d="M50.423,70.48c-1.499-0.021-2.027-0.021-3.781,0.065l-0.071-0.13c0.156-0.665,0.32-1.325,0.468-2
		l0.218-0.912c0.322-1.421,0.64-3.074,0.679-3.574c0.029-0.305,0.134-1.062-0.733-1.062c-0.364,0-0.745,0.177-1.128,0.354
		c-0.211,0.754-0.639,2.875-0.84,3.846c-0.434,2.039-0.464,2.269-0.656,3.278l-0.127,0.134c-1.545-0.021-2.08-0.021-3.86,0.065
		l-0.084-0.146c0.299-1.212,0.595-2.436,0.877-3.642c0.749-3.284,0.922-4.539,1.132-6.208l0.142-0.102
		c1.733-0.241,2.154-0.29,4.032-0.675l0.157,0.177l-0.283,1.047c0.317-0.189,0.62-0.38,0.946-0.549
		c0.886-0.434,1.87-0.562,2.412-0.562c0.82,0,1.72,0.229,2.096,1.18c0.359,0.848,0.122,1.893-0.347,3.954l-0.243,1.046
		c-0.479,2.29-0.558,2.709-0.828,4.281L50.423,70.48L50.423,70.48z"/>
	<path fill="#FFFFFF" d="M56.519,70.48c-0.902-0.005-1.487-0.021-2.054-0.005c-0.565,0.005-1.116,0.033-1.955,0.07l-0.049-0.07
		l-0.054-0.075c0.229-0.869,0.356-1.175,0.471-1.481c0.112-0.306,0.219-0.616,0.422-1.497c0.262-1.148,0.426-1.952,0.538-2.655
		c0.121-0.681,0.192-1.261,0.277-1.933l0.07-0.052l0.074-0.064c0.898-0.129,1.472-0.209,2.053-0.3
		c0.59-0.085,1.181-0.199,2.112-0.376l0.035,0.081l0.028,0.08c-0.173,0.714-0.347,1.422-0.519,2.146
		c-0.167,0.719-0.34,1.428-0.5,2.141c-0.337,1.512-0.472,2.076-0.551,2.479c-0.076,0.386-0.098,0.596-0.233,1.378l-0.08,0.069
		L56.519,70.48L56.519,70.48z"/>
	<path fill="#FFFFFF" d="M66.071,65.147c-0.079,0.387-0.418,1.834-0.88,2.452c-0.32,0.45-0.703,0.724-1.125,0.724
		c-0.122,0-0.862,0-0.875-1.099c-0.008-0.543,0.103-1.105,0.238-1.706c0.396-1.749,0.865-3.213,2.052-3.213
		C66.418,62.304,66.48,63.393,66.071,65.147L66.071,65.147z M69.996,65.313c0.525-2.307,0.122-3.386-0.396-4.045
		c-0.782-0.998-2.162-1.32-3.593-1.32c-0.861,0-2.91,0.086-4.515,1.568c-1.146,1.062-1.682,2.51-2.003,3.894
		c-0.323,1.412-0.699,3.958,1.64,4.903c0.728,0.307,1.76,0.393,2.431,0.393c1.714,0,3.47-0.473,4.788-1.873
		C69.374,67.694,69.837,66.006,69.996,65.313L69.996,65.313z"/>
	<path fill="#FFFFFF" d="M106.68,70.635c-1.808-0.015-2.328-0.015-4.005,0.054l-0.109-0.135c0.458-1.722,0.913-3.439,1.317-5.177
		c0.523-2.259,0.642-3.219,0.818-4.538l0.135-0.113c1.799-0.259,2.297-0.329,4.169-0.677l0.059,0.157
		c-0.341,1.417-0.684,2.834-1.012,4.255c-0.691,2.977-0.945,4.49-1.206,6.046L106.68,70.635L106.68,70.635z"/>
	<path fill="#FFFFFF" d="M103.961,65.347c-0.088,0.369-0.428,1.833-0.893,2.441c-0.307,0.432-1.04,0.705-1.458,0.705
		c-0.117,0-0.853,0-0.878-1.088c-0.008-0.536,0.106-1.098,0.242-1.706c0.398-1.712,0.863-3.17,2.056-3.17
		C103.963,62.529,104.364,63.591,103.961,65.347L103.961,65.347z M107.541,65.518c0.525-2.296-1.589-0.204-1.929-0.96
		c-0.519-1.18-0.193-3.578-2.279-4.378c-0.802-0.311-2.685,0.092-4.296,1.563c-1.134,1.056-1.68,2.489-1.995,3.872
		c-0.325,1.39-0.697,3.933,1.627,4.846c0.738,0.311,1.409,0.402,2.082,0.375c2.338-0.128,4.122-3.659,5.44-5.058
		C107.209,64.669,107.388,66.193,107.541,65.518L107.541,65.518z"/>
	<path fill="#FFFFFF" d="M80.247,70.48c-1.505-0.021-2.018-0.021-3.782,0.065l-0.065-0.13c0.149-0.665,0.319-1.325,0.478-2
		l0.209-0.912c0.327-1.421,0.642-3.074,0.676-3.574c0.031-0.305,0.133-1.062-0.725-1.062c-0.371,0-0.746,0.177-1.132,0.354
		c-0.21,0.754-0.641,2.875-0.85,3.846c-0.425,2.039-0.456,2.269-0.648,3.278l-0.129,0.134c-1.545-0.021-2.079-0.021-3.854,0.065
		l-0.081-0.146c0.297-1.212,0.589-2.436,0.873-3.642c0.746-3.284,0.919-4.539,1.128-6.208l0.139-0.102
		c1.734-0.241,2.155-0.29,4.033-0.675l0.151,0.177l-0.273,1.047c0.307-0.189,0.624-0.38,0.942-0.549
		c0.878-0.434,1.873-0.562,2.405-0.562c0.821,0,1.725,0.229,2.111,1.18c0.351,0.848,0.114,1.893-0.36,3.954l-0.236,1.046
		c-0.49,2.29-0.565,2.709-0.826,4.281L80.247,70.48L80.247,70.48z"/>
	<path fill="#FFFFFF" d="M93.246,52.513c-0.006,0-1.245,0.016-1.245,0.016c-3.246,0.038-4.547,0.021-5.08-0.043
		c-0.05,0.236-0.136,0.661-0.136,0.661s-1.157,5.385-1.157,5.391c0,0-2.781,11.453-2.912,11.991
		c2.829-0.032,3.994-0.032,4.477,0.016c0.114-0.537,0.771-3.735,0.777-3.735c0,0,0.56-2.349,0.594-2.434
		c0,0,0.175-0.243,0.355-0.339h0.257c2.443,0,5.206,0,7.362-1.594c1.467-1.091,2.478-2.698,2.926-4.652
		c0.115-0.482,0.201-1.057,0.201-1.625c0-0.749-0.149-1.491-0.587-2.071C97.975,52.55,95.786,52.529,93.246,52.513L93.246,52.513z
		 M94.872,58.121c-0.264,1.19-1.038,2.198-2.035,2.686c-0.826,0.414-1.829,0.446-2.868,0.446H89.3l0.05-0.269
		c0,0,1.238-5.374,1.233-5.358l0.032-0.274l0.028-0.213l0.49,0.053c0,0,2.546,0.221,2.61,0.227
		C94.75,55.802,95.164,56.81,94.872,58.121L94.872,58.121z"/>
	<path fill="#FFFFFF" d="M121.505,60.035l-0.143-0.161c-1.85,0.369-2.187,0.433-3.89,0.658l-0.126,0.124
		c-0.008,0.022-0.011,0.054-0.019,0.081l-0.007-0.026c-1.271,2.928-1.228,2.295-2.261,4.598c-0.008-0.107-0.01-0.177-0.015-0.283
		l-0.254-4.99l-0.163-0.161c-1.938,0.369-1.987,0.433-3.779,0.658l-0.142,0.124c-0.015,0.064-0.019,0.129-0.028,0.199l0.014,0.027
		c0.222,1.147,0.172,0.889,0.394,2.692c0.106,0.886,0.242,1.781,0.343,2.656c0.18,1.462,0.281,2.188,0.494,4.42
		c-1.206,2-1.499,2.755-2.652,4.51l0.063,0.162c1.752-0.065,2.155-0.065,3.451-0.065l0.288-0.321
		C114.051,72.83,121.505,60.035,121.505,60.035L121.505,60.035z"/>
	<path fill="#FFFFFF" d="M58.166,61.273c0.991-0.691,1.115-1.646,0.277-2.139c-0.847-0.499-2.328-0.344-3.325,0.348
		c-1.004,0.68-1.117,1.641-0.274,2.14C55.68,62.111,57.168,61.966,58.166,61.273L58.166,61.273z"/>
	<path fill="#FFFFFF" d="M112.939,75.114l-1.458,2.496c-0.46,0.852-1.314,1.491-2.674,1.496l-2.322-0.036l0.676-2.249h0.453
		c0.235,0,0.41-0.016,0.544-0.081c0.112-0.037,0.201-0.129,0.295-0.265l0.856-1.362H112.939L112.939,75.114z"/>
</g>
<g>
	<g>
		<g>
			<path fill="#4C4948" d="M723.822,479.763l3.354-14.437h-17.288l1.385-5.924H705.3l-1.382,5.941h-5.323
				c-3.24,0.057-6.641,2.671-6.641,2.671l0.617-2.668h-5.935l-4.395,18.933h17.269l-2.588,11.128h5.973l2.579-11.128H718.5
				c2.13,0,3.579-1.551,3.579-1.551C723.503,481.372,723.822,479.763,723.822,479.763z M700.476,480.13H689.13l2.472-10.642h11.346
				L700.476,480.13z M718.024,479.188c0,0-0.337,0.889-1.278,0.945h-10.297l2.469-10.64h11.356L718.024,479.188z"/>
		</g>
		<g>
			<path fill="#4C4948" d="M767.862,490.901l7.335-31.504l-28.746,0.003c-3.258,0.082-6.649,2.679-6.649,2.679l0.621-2.672h-5.956
				l-8.36,35.998h36.474c1.97,0.019,3.363-1.366,3.363-1.366C767.501,492.689,767.862,490.901,767.862,490.901z M762.107,490.14
				c0,0-0.247,1.057-1.338,1.129h-27.767l6.453-27.714h28.823L762.107,490.14z"/>
		</g>
		<path fill="#4C4948" d="M741.874,466.723h22.535l-0.972,4.138h-8.301l-1.04,4.473h8.304l-0.963,4.142h-8.304l-1.039,4.48h3.046
			c0,0-0.018-1.607-0.288-2.996h4.295c0,0,0.134,1.438,0.104,2.996h1.144l-0.964,4.153h-22.529l0.963-4.134h8.278l1.05-4.514h-8.282
			l0.961-4.122h8.291l1.035-4.462h-8.293L741.874,466.723z"/>
		<path fill="#4C4948" d="M779.82,464.937h1.857c0,0,2.709-0.207,4.385-5.53h6.252c0,0-0.775,1.883-1.347,2.754h7.802l-0.967,4.154
			h-9.969c0,0-2.645,2.855-6.235,2.855h-2.76L779.82,464.937z"/>
		<path fill="#4C4948" d="M796.879,470.178l-0.962,4.148h-7.058l-1.347,5.808h7.055l-0.965,4.155h-7.072l-1.314,5.649
			c-0.245,1.342,0.956,1.333,0.956,1.333h5.809l-0.963,4.133H782c-1.481-0.057-2.147-0.579-2.147-0.579
			c-1.599-1.025-0.945-3.165-0.945-3.165l1.714-7.37h-4.248l0.967-4.16h4.246l1.349-5.806h-4.245l0.965-4.148H796.879z"/>
		<g>
			<path fill="#4C4948" d="M820.799,473.818l3.352-14.417h-10.692c-3.086,0.01-6.643,2.689-6.643,2.689l0.623-2.689h-5.957
				l-7.465,32.098c-0.522,1.982,0.367,2.872,0.367,2.872c0.92,1.11,2.918,1.035,2.918,1.035h6.896l0.963-4.139h-3.889
				c-1.272-0.094-0.941-1.328-0.941-1.328L803,478.466h12.376c1.785,0,2.86-0.928,2.86-0.928
				C820.311,476.178,820.799,473.818,820.799,473.818z M806.466,463.584h10.763l-0.769,3.298h-4.974
				c-3.204,0.195-6.399,2.645-6.399,2.645L806.466,463.584z M814.731,474.317h-10.758l0.764-3.295h10.759L814.731,474.317z"/>
		</g>
		<path fill="#4C4948" d="M805.788,480.131h5.928l0.058,2.881h2.147c0,0,0.778,0,0.96-0.652l0.519-2.223h4.547l-0.726,3.132
			c0,0-0.288,1.449-1.341,2.127c0,0-0.952,0.826-3.264,0.826h-2.779l0.07,4.194c0,0,0.045,0.854,1.106,0.854h4.335l-0.961,4.141
			h-6.596c0,0-2.848,0.139-3.456-1.263c0,0-0.337-0.632-0.35-1.95L805.788,480.131z"/>
		<g>
			<path fill="#4C4948" d="M851.196,463.562l0.97-4.162h-7.555c-3.26,0.242-6.466,2.67-6.466,2.67l0.617-2.669h-5.928l-6.978,30.074
				h-2.14l-0.958,4.13h13.766l-0.422,1.801h5.94l0.416-1.788h1.735l0.961-4.133h-1.738l6.024-25.925H851.196z M837.488,489.462
				h-5.71l1.364-5.873h5.71L837.488,489.462z M839.804,479.505c0,0-2.651,0.036-6.323,2.631l1.985-8.537h5.712L839.804,479.505z
				 M842.137,469.464c0,0-2.651,0.037-6.32,2.631l1.98-8.54h5.712L842.137,469.464z"/>
		</g>
		<path fill="#4C4948" d="M849.536,473.595l0.952-4.103h20.842l-0.961,4.103h-7.456l-0.915,3.941h7.451l-0.956,4.104h-8.064
			l-1.28,2.115h3.573l1.037,5.907c0,0,0.273,1.506,1.031,1.596h1.464l-0.967,4.148h-3.159c0,0-2.322-0.021-3.208-1.384
			c0,0-0.549-0.726-0.758-2.305l-0.862-4.934l-3.022,4.999c0,0-0.88,1.651-1.953,2.487c0,0-1.238,1.171-3.548,1.135h-4.318
			l0.96-4.13h2.19c0,0,0.866,0.048,1.746-1.218l5.143-8.42h-6.829l0.952-4.106h7.463l0.913-3.936L849.536,473.595z"/>
		<path fill="#4C4948" d="M873.673,459.4h-6.47c0,0-0.484,1.488-1.11,2.381c0,0-0.828,1.298-3.057,1.335l-0.969,4.16h3.584
			c0,0,2.668,0.145,4.976-2.314C870.627,464.962,872.696,462.93,873.673,459.4z"/>
		<path fill="#4C4948" d="M852.848,459.4h6.475c0,0-0.209,1.488-0.002,2.381c0,0,0.228,1.298,2.439,1.335l-0.969,4.16h-3.58
			c0,0-2.734,0.145-3.899-2.314C853.312,464.962,852.184,462.93,852.848,459.4z"/>
	</g>
	<g>
		<path fill="#4C4948" d="M691.154,519.932c-1.537,0.727-3.582,1.422-7.238,1.422c-5.745,0-9.256-4.119-7.882-10.041
			c1.375-5.917,6.804-10.064,12.55-10.064c4.033,0,5.679,0.93,6.402,1.419l-1.809,2.786c-0.569-0.29-1.891-1.103-4.879-1.103
			c-3.104,0-6.978,2.816-7.94,6.962c-0.93,4.006,1.607,6.935,4.713,6.935c2.845,0,4.391-0.666,5.503-1.071L691.154,519.932z"/>
		<path fill="#4C4948" d="M701.524,520.979l1.912-8.242c0.297-1.277-0.094-1.972-1.573-1.972c-1.131,0-2.222,0.695-2.789,1.016
			l-2.135,9.198h-3.827l4.666-20.106l3.923-0.409l-2.09,8.995c0.606-0.347,2.536-1.539,4.771-1.539c2.497,0,3.615,1.539,3.064,3.918
			l-2.121,9.141H701.524z"/>
		<path fill="#4C4948" d="M715.599,503.599c-0.232,1.011-1.375,1.944-2.425,1.944c-1.014,0-1.725-0.933-1.492-1.944
			c0.239-1.017,1.388-1.974,2.408-1.974C715.129,501.625,715.838,502.582,715.599,503.599z M714.474,508.21l-2.963,12.768h-3.804
			l2.965-12.768H714.474z"/>
		<path fill="#4C4948" d="M722.65,520.979l1.91-8.242c0.297-1.277-0.121-1.972-1.571-1.972c-1.219,0-2.222,0.695-2.792,1.016
			l-2.128,9.198h-3.804l2.965-12.768h3.597l-0.147,1.248c0.606-0.347,2.506-1.539,4.826-1.539c2.493,0,3.616,1.539,3.067,3.918
			l-2.121,9.141H722.65z"/>
		<path fill="#4C4948" d="M732.36,521.264c-2.555,0-3.845-1.563-3.352-3.682c0.553-2.38,2.957-4.235,6.239-4.381l2.72-0.086
			l0.149-0.641c0.261-1.13,0.049-2.087-1.923-2.087c-1.744,0-3.019,0.49-3.813,0.781l-0.36-1.942
			c0.967-0.407,3.118-1.307,5.874-1.307c3.05,0,4.732,1.482,4.153,3.976l-1.639,7.081c-0.167,0.696-0.12,1.622-0.034,2.003h-3.973
			c-0.064-0.351-0.066-0.84,0.004-1.136C735.654,520.338,734.275,521.264,732.36,521.264z M737.523,515.029l-1.858,0.146
			c-1.164,0.113-2.773,0.549-3.108,2.001c-0.324,1.392,0.914,1.566,1.611,1.566c1.012,0,2.103-0.696,2.734-1.046L737.523,515.029z"
			/>
		<path fill="#4C4948" d="M765.395,514.305c-0.923,3.973-4.566,7.049-9.817,7.049c-5.278,0-7.503-2.929-6.542-7.049l2.938-12.68
			h4.122l-2.83,12.185c-0.668,2.874,0.205,4.498,3.226,4.498c2.986,0,4.771-2.32,5.274-4.498l2.832-12.185h3.74L765.395,514.305z"/>
		<path fill="#4C4948" d="M774.988,520.979l1.91-8.242c0.301-1.277-0.119-1.972-1.571-1.972c-1.219,0-2.22,0.695-2.788,1.016
			l-2.134,9.198h-3.802l2.965-12.768h3.597l-0.146,1.248c0.603-0.347,2.502-1.539,4.824-1.539c2.5,0,3.62,1.539,3.067,3.918
			l-2.121,9.141H774.988z"/>
		<path fill="#4C4948" d="M789.319,503.599c-0.232,1.011-1.379,1.944-2.423,1.944c-1.016,0-1.727-0.933-1.489-1.944
			c0.234-1.017,1.387-1.974,2.401-1.974C788.851,501.625,789.558,502.582,789.319,503.599z M788.194,508.21l-2.965,12.768h-3.802
			l2.965-12.768H788.194z"/>
		<path fill="#4C4948" d="M803.307,514.594c-0.95,4.092-4.972,6.67-8.863,6.67c-3.887,0-6.711-2.578-5.759-6.67
			c0.947-4.089,4.974-6.674,8.858-6.674C801.433,507.919,804.256,510.504,803.307,514.594z M792.717,514.594
			c-0.506,2.175,0.025,4.149,2.313,4.149c1.917,0,3.679-1.975,4.187-4.149c0.512-2.205-0.344-4.151-2.259-4.151
			C794.668,510.442,793.23,512.389,792.717,514.594z"/>
		<path fill="#4C4948" d="M812.185,520.979l1.91-8.242c0.297-1.277-0.12-1.972-1.573-1.972c-1.217,0-2.222,0.695-2.786,1.016
			l-2.137,9.198H803.8l2.963-12.768h3.594l-0.143,1.248c0.604-0.347,2.504-1.539,4.826-1.539c2.493,0,3.616,1.539,3.063,3.918
			l-2.12,9.141H812.185z"/>
		<path fill="#4C4948" d="M825.214,508.21l-0.066,1.046c0.639-0.376,2.018-1.337,4.254-1.337c3.479,0,5.4,2.353,4.459,6.414
			c-1.005,4.325-4.54,6.931-7.731,6.931c-2.292,0-3.21-0.548-3.597-0.751l-1.656,7.136h-3.804l4.513-19.438H825.214z
			 M825.744,518.799c1.479,0,3.272-1.217,4.011-4.407c0.715-3.079-0.61-3.862-2.09-3.862c-1.334,0-2.513,0.7-3.05,1.017l-1.55,6.673
			C823.502,518.453,824.179,518.799,825.744,518.799z"/>
		<path fill="#4C4948" d="M837.588,521.264c-2.553,0-3.843-1.563-3.352-3.682c0.551-2.38,2.956-4.235,6.239-4.381l2.72-0.086
			l0.147-0.641c0.265-1.13,0.051-2.087-1.924-2.087c-1.741,0-3.016,0.49-3.808,0.781l-0.36-1.942
			c0.965-0.407,3.111-1.307,5.874-1.307c3.046,0,4.732,1.482,4.153,3.976l-1.644,7.081c-0.16,0.696-0.115,1.622-0.029,2.003h-3.975
			c-0.064-0.351-0.068-0.84,0.002-1.136C840.882,520.338,839.503,521.264,837.588,521.264z M842.751,515.029l-1.861,0.146
			c-1.159,0.113-2.769,0.549-3.105,2.001c-0.322,1.392,0.913,1.566,1.609,1.566c1.019,0,2.103-0.696,2.738-1.046L842.751,515.029z"
			/>
		<path fill="#4C4948" d="M852.082,524.225c-1.297,2.09-2.747,3.717-5.129,3.717c-2.32,0-3.033-0.553-3.622-0.901l1.455-2.263
			c0.585,0.23,1.161,0.493,2.093,0.493c1.451,0,2.053-1.104,3.208-2.696l0.864-1.368l-2.318-12.996h3.917l1.249,8.616l5.136-8.616
			h3.274L852.082,524.225z"/>
	</g>
</g>
</svg>
