<?xml version="1.0" encoding="utf-8"?>
<!-- Generator: Adobe Illustrator 16.0.0, SVG Export Plug-In . SVG Version: 6.00 Build 0)  -->
<!DOCTYPE svg PUBLIC "-//W3C//DTD SVG 1.1//EN" "http://www.w3.org/Graphics/SVG/1.1/DTD/svg11.dtd">
<svg version="1.1" id="图层_1" xmlns="http://www.w3.org/2000/svg" xmlns:xlink="http://www.w3.org/1999/xlink" x="0px" y="0px"
	 width="283.46px" height="283.46px" viewBox="0 0 283.46 283.46" enable-background="new 0 0 283.46 283.46" xml:space="preserve">
<path fill="#999899" d="M234.269,187.886c21.649-15.412,35.021-36.166,35.021-59.066c0-47.488-57.114-85.986-127.559-85.986
	c-70.449,0-127.56,38.498-127.56,85.986c0,47.487,57.11,85.986,127.56,85.986c19.6,0,38.103-3.066,54.693-8.393l72.865,34.214
	L234.269,187.886z M203.702,129.077c0,2.425-1.969,4.39-4.39,4.39H83.89c-2.425,0-4.39-1.965-4.39-4.39s1.965-4.39,4.39-4.39
	h115.423C201.733,124.688,203.702,126.652,203.702,129.077z M83.244,91.895h75.657c2.211,0,4.002,1.791,4.002,4.002
	s-1.791,4.002-4.002,4.002H83.244c-2.211,0-4.003-1.791-4.003-4.002S81.033,91.895,83.244,91.895z M83.89,166.519
	c-2.425,0-4.39-1.969-4.39-4.39s1.965-4.39,4.39-4.39h115.423c2.421,0,4.39,1.969,4.39,4.39s-1.969,4.39-4.39,4.39H83.89z"/>
</svg>
