<?xml version="1.0" encoding="utf-8"?>
<!-- Generator: Adobe Illustrator 16.0.0, SVG Export Plug-In . SVG Version: 6.00 Build 0)  -->
<!DOCTYPE svg PUBLIC "-//W3C//DTD SVG 1.1//EN" "http://www.w3.org/Graphics/SVG/1.1/DTD/svg11.dtd">
<svg version="1.1" id="图层_1" xmlns="http://www.w3.org/2000/svg" xmlns:xlink="http://www.w3.org/1999/xlink" x="0px" y="0px"
	 width="283.46px" height="283.46px" viewBox="0 0 283.46 283.46" enable-background="new 0 0 283.46 283.46" xml:space="preserve">
<path fill="#FFFFFF" d="M266.677,256.716l-65.761-65.762c36.896-41.821,35.473-105.612-4.507-145.592
	C154.823,3.776,87.402,3.776,45.816,45.356c-41.585,41.592-41.585,109.01,0,150.602c39.678,39.665,102.804,41.397,144.644,5.367
	l65.798,65.81c2.884,2.871,7.548,2.871,10.419,0C269.549,264.264,269.555,259.6,266.677,256.716z M54.775,185.89
	c-36.23-36.236-36.23-94.98,0-131.217c36.237-36.236,94.983-36.236,131.214,0c36.237,36.237,36.237,94.981,0,131.217
	C149.759,222.127,91.006,222.127,54.775,185.89z"/>
</svg>
