<?xml version="1.0" encoding="utf-8"?>
<!-- Generator: Adobe Illustrator 16.0.0, SVG Export Plug-In . SVG Version: 6.00 Build 0)  -->
<!DOCTYPE svg PUBLIC "-//W3C//DTD SVG 1.1//EN" "http://www.w3.org/Graphics/SVG/1.1/DTD/svg11.dtd">
<svg version="1.1" id="图层_1" xmlns="http://www.w3.org/2000/svg" xmlns:xlink="http://www.w3.org/1999/xlink" x="0px" y="0px"
	 width="283.46px" height="283.46px" viewBox="0 0 283.46 283.46" enable-background="new 0 0 283.46 283.46" xml:space="preserve">
<path fill="#999899" d="M266.51,250.33l-73.326-73.336c31.013-39.342,28.435-96.518-7.872-132.825
	C146.161,5.02,82.692,5.011,43.542,44.161C4.382,83.315,4.382,146.805,43.533,185.954c36.736,36.736,94.903,38.985,134.282,6.775
	l73.152,73.152c3.932,3.932,10.615,3.657,14.903-0.64C270.167,260.944,270.45,254.271,266.51,250.33z M58.847,170.649
	c-30.693-30.703-30.693-80.477,0.009-111.174c30.693-30.693,80.458-30.688,111.15,0.009c30.693,30.693,30.702,80.458,0.01,111.147
	C139.314,201.333,89.54,201.333,58.847,170.649z"/>
</svg>
