<?xml version="1.0" encoding="utf-8"?>
<!-- Generator: Adobe Illustrator 16.0.0, SVG Export Plug-In . SVG Version: 6.00 Build 0)  -->
<!DOCTYPE svg PUBLIC "-//W3C//DTD SVG 1.1//EN" "http://www.w3.org/Graphics/SVG/1.1/DTD/svg11.dtd">
<svg version="1.1" id="图层_1" xmlns="http://www.w3.org/2000/svg" xmlns:xlink="http://www.w3.org/1999/xlink" x="0px" y="0px"
	 width="283.46px" height="283.46px" viewBox="0 0 283.46 283.46" enable-background="new 0 0 283.46 283.46" xml:space="preserve">
<g>
	<path fill="#8F8E8F" d="M231.701,236.016c0,10.016-8.122,18.131-18.138,18.131H44.299c-10.009,0-18.132-8.115-18.132-18.131V66.351
		c0-10.016,8.123-18.135,18.132-18.135h104.229V35.021H32.303c-10.009,0-18.132,8.12-18.132,18.135v194.856
		c0,10.016,8.123,18.131,18.132,18.131H225.56c10.016,0,18.138-8.115,18.138-18.131V130.99h-11.996V236.016z"/>
	<polygon fill="#8F8E8F" points="241.772,17.317 226.228,32.868 253.744,60.39 269.289,44.839 	"/>
	<polygon fill="#8F8E8F" points="113.589,145.5 110.49,176.129 141.111,173.018 248.458,65.676 220.936,38.161 	"/>
</g>
</svg>
