<?xml version="1.0" encoding="utf-8"?>
<!-- Generator: Adobe Illustrator 16.0.0, SVG Export Plug-In . SVG Version: 6.00 Build 0)  -->
<!DOCTYPE svg PUBLIC "-//W3C//DTD SVG 1.1//EN" "http://www.w3.org/Graphics/SVG/1.1/DTD/svg11.dtd">
<svg version="1.1" id="图层_1" xmlns="http://www.w3.org/2000/svg" xmlns:xlink="http://www.w3.org/1999/xlink" x="0px" y="0px"
	 width="283.46px" height="283.46px" viewBox="0 0 283.46 283.46" enable-background="new 0 0 283.46 283.46" xml:space="preserve">
<g>
	<path fill="#609638" d="M253.344,14.175H30.115c-8.802,0-15.944,7.143-15.944,15.945v223.221c0,8.801,7.142,15.943,15.944,15.943
		h223.229c8.805,0,15.945-7.143,15.945-15.943V30.12C269.289,21.318,262.148,14.175,253.344,14.175L253.344,14.175z
		 M253.344,253.341H30.115V30.12h223.229V253.341L253.344,253.341z M82.203,31.182H65.194v221.094h17.008V31.182L82.203,31.182z
		 M116.218,201.256c0,0.28,36.159,0,51.024,0s51.023,0.083,51.023,0c0-15.177-8.023-46.983-39.146-54.126
		c12.032-6.061,21.889-20.394,21.889-32.921c0-16.391-16.876-32.104-33.417-32.104c-16.527,0-34.116,14.318-34.116,30.728
		c0,12.539,10.293,27.693,22.53,34.124C129.842,153.95,116.218,187.938,116.218,201.256L116.218,201.256z M116.218,201.256"/>
</g>
</svg>
