<?xml version="1.0" encoding="utf-8"?>
<!-- Generator: Adobe Illustrator 16.0.0, SVG Export Plug-In . SVG Version: 6.00 Build 0)  -->
<!DOCTYPE svg PUBLIC "-//W3C//DTD SVG 1.1//EN" "http://www.w3.org/Graphics/SVG/1.1/DTD/svg11.dtd">
<svg version="1.1" id="图层_1" xmlns="http://www.w3.org/2000/svg" xmlns:xlink="http://www.w3.org/1999/xlink" x="0px" y="0px"
	 width="99.212px" height="99.212px" viewBox="0 0 99.212 99.212" enable-background="new 0 0 99.212 99.212" xml:space="preserve">
<g>
	<path fill="#272636" d="M-1900.328-229.592c5.461,21.805,8.6,44.521,9.42,68.147c0.818,23.626-0.135,46.342-2.867,68.148
		c-2.729,21.812-7.1,42.16-13.107,61.061c-6.01,18.9-13.107,34.893-21.297,47.98c-8.738,13.809-17.203,26.896-25.395,39.255
		c-8.197,12.354-15.568,23.621-22.123,33.801c-7.643,11.632-14.746,22.534-21.295,32.71c2.73,10.18,4.639,20.355,5.734,30.531
		c1.09,8.724,1.225,18.171,0.41,28.351c-0.82,10.176-3.688,19.629-8.605,28.348c-6.004,10.907-16.52,22.898-31.539,35.985
		c-15.016,13.086-34.133,25.258-57.344,36.524c-23.211,11.273-50.242,20.538-81.1,27.808
		c-30.857,7.269-65.129,10.902-102.811,10.902c-35.496,0-68.129-3.998-97.895-11.995c-29.762-7.99-55.976-18.172-78.641-30.531
		c-22.664-12.353-41.644-25.805-56.933-40.341c-15.293-14.538-25.672-28.353-31.133-41.435c-5.461-11.631-8.738-22.171-9.828-31.622
		c-1.094-9.447-1.094-17.443,0-23.989c1.09-7.997,3.004-14.902,5.734-20.715c-8.738-10.903-17.476-22.898-26.215-35.984
		c-7.644-10.903-15.703-23.445-24.167-37.618c-8.465-14.173-16.52-29.258-24.165-45.25c-7.101-15.994-13.382-32.896-18.843-50.704
		c-5.461-17.807-9.422-36.525-11.879-56.153c-2.457-19.627-3.141-39.983-2.047-61.061c1.094-21.083,4.914-42.163,11.469-63.246
		c4.371-14.538,9.285-27.078,14.746-37.617c5.461-10.539,11.469-19.81,18.023-27.806c0.543-5.813,1.363-13.081,2.457-21.807
		c1.09-8.725,2.594-17.625,4.504-26.713c1.914-9.089,4.371-18.354,7.375-27.807c3.004-9.446,6.688-17.443,11.059-23.989
		c16.383-24.713,37-39.614,61.847-44.704c24.852-5.091,51.204-1.451,79.055,10.902c18.023,7.998,38.094,15.266,60.211,21.812
		c22.117,6.542,40.824,11.631,56.113,15.266c0-3.635,0.137-7.633,0.41-11.995c0.274-4.362,0.684-8.361,1.231-11.996
		c1.637-12.359,5.734-21.265,12.289-26.713c6.551-5.455,17.203-8.18,31.945-8.18c15.839,0,26.489,2.543,31.95,7.633
		c5.459,5.09,8.738,11.631,9.832,19.627c1.092,5.813,2.045,11.63,2.867,17.443c0.818,5.818,1.5,10.904,2.047,15.265
		c14.199-5.084,31.949-11.63,53.25-19.627c21.295-7.992,41.504-16.716,60.621-26.168c27.303-13.082,53.518-15.811,78.639-8.179
		c25.125,7.633,45.604,23.809,61.443,48.526c7.643,11.632,13.242,25.804,16.793,42.526c3.549,16.715,6.143,31.254,7.781,43.612
		c11.469,9.453,21.436,20.72,29.9,33.801C-1911.936-264.485-1905.242-248.492-1900.328-229.592L-1900.328-229.592z
		 M-2045.328-396.424c-11.469-3.635-23.482-4.539-36.043-2.725c-12.564,1.82-24.576,4.544-36.043,8.178
		c-11.473,3.635-21.848,7.452-31.133,11.45c-9.281,3.999-16.111,6.724-20.482,8.179c-3.271,1.455-7.643,3.088-13.104,4.908
		c-5.461,1.814-11.195,3.453-17.203,4.903c13.65,2.912,28.943,5.636,45.875,8.178c16.928,2.548,32.496,3.816,46.693,3.816
		c17.479,0,35.635,0.728,54.479,2.185c18.838,1.45,37,5.084,54.475,10.902c-2.182-8.724-6.689-19.627-13.514-32.714
		C-2018.158-382.247-2029.49-391.334-2045.328-396.424L-2045.328-396.424z M-2513.09-395.333
		c-16.383,5.817-27.715,15.629-33.996,29.443c-6.281,13.81-10.242,25.441-11.879,34.888c15.293-7.269,31.265-11.813,47.922-13.627
		c16.66-1.82,33.179-3.088,49.562-3.816c17.477-0.729,35.91-2.361,55.297-4.909c19.387-2.542,36.727-5.266,52.02-8.178
		c-6.008-2.178-11.606-3.999-16.793-5.449c-5.192-1.456-9.422-2.907-12.7-4.362c-4.367-1.456-11.332-4.18-20.89-8.179
		c-9.555-3.998-20.344-7.814-32.356-11.45c-12.015-3.633-24.714-6.176-38.093-7.631
		C-2488.379-400.06-2501.074-398.967-2513.09-395.333L-2513.09-395.333z M-1965.865-3.884c7.646-15.264,13.926-32.713,18.84-52.336
		c4.918-19.627,8.328-39.255,10.242-58.883c1.912-19.627,1.912-38.891,0-57.791c-1.914-18.899-5.596-35.621-11.057-50.158
		c-8.195-20.35-18.16-36.162-29.902-47.428c-11.744-11.267-24.58-19.81-38.504-25.628c-13.926-5.813-28.811-9.448-44.646-10.903
		c-15.84-1.45-31.947-2.543-48.332-3.271c-15.293-0.728-30.311-2.178-45.059-4.363c-14.746-2.179-28.26-4.544-40.549-7.086
		c-12.285-2.542-22.801-4.909-31.539-7.087c-8.74-2.184-14.473-3.635-17.203-4.363h-8.193c-8.189-1.455-16.518-1.819-24.982-1.09
		c-8.465,0.728-16.52,1.09-24.168,1.09c-19.66,4.363-38.774,8.361-57.344,11.996c-15.836,3.635-32.359,6.723-49.562,9.266
		c-17.204,2.547-31.809,4.18-43.825,4.908c-12.015,0.727-24.168,2.001-36.457,3.816c-12.285,1.82-24.574,5.454-36.863,10.902
		c-12.289,5.455-24.164,13.633-35.633,24.536c-11.469,10.903-22.121,25.441-31.949,43.612
		c-8.191,15.994-13.109,33.807-14.746,53.434c-1.641,19.622-0.957,39.432,2.047,59.423c3.004,19.992,7.781,39.437,14.336,58.337
		c6.554,18.899,13.652,35.257,21.3,49.065c15.29,27.625,30.719,51.792,46.286,72.511c15.562,20.721,28.261,34.711,38.089,41.98
		c11.469,7.996,27.036,15.447,46.696,22.353c19.66,6.903,40.277,12.903,61.851,17.994c21.571,5.085,42.461,8.901,62.668,11.449
		c20.207,2.542,36.864,3.452,49.968,2.724c8.195,0,20.346-0.909,36.457-2.724c16.109-1.819,34.271-4.726,54.479-8.725
		c20.207-3.998,41.367-9.452,63.488-16.356c22.115-6.905,42.732-15.812,61.848-26.715c5.461-2.906,11.742-8.542,18.842-16.902
		c7.1-8.356,14.336-17.809,21.707-28.349c7.375-10.538,14.611-21.806,21.711-33.8C-1978.426,19.562-1971.871,7.749-1965.865-3.884
		L-1965.865-3.884z M-2445.098-256.853c8.738-0.728,16.66-1.638,23.758-2.725c7.101-1.091,13.383-2.365,18.844-3.815
		c6.007-1.457,11.742-2.912,17.203-4.363c-3.824,5.813-7.649,12.359-11.469,19.628c-3.277,5.813-6.691,12.359-10.242,19.627
		c-3.551,7.269-6.418,14.538-8.602,21.806c-6.554,23.262-10.511,40.887-11.879,52.882c-1.363,11.996-3.957,20.901-7.781,26.716
		c-1.637,2.905-4.234,6.357-7.781,10.356c-3.551,3.998-6.965,8.723-10.242,14.177c-3.278,5.45-6.282,11.997-9.012,19.627
		c-2.731,7.634-4.094,16.899-4.094,27.801c0,11.631,1.637,20.721,4.914,27.262c3.278,6.545,6.828,12.541,10.649,17.994
		c3.824,5.449,7.238,11.449,10.242,17.99s4.23,15.265,3.687,26.168c-1.093,9.452-3.687,16.356-7.785,20.72
		c-4.094,4.357-11.605,2.542-22.527-5.454c-9.828-7.27-18.297-15.448-25.395-24.535c-7.101-9.084-13.105-17.627-18.023-25.623
		c-6.008-8.725-10.649-17.809-13.926-27.26c-9.285-21.079-16.383-42.162-21.301-63.24c-4.367-18.178-6.824-37.26-7.371-57.246
		c-0.547-19.992,3.551-38.346,12.289-55.066c7.645-14.538,16.793-25.623,27.442-33.256c10.652-7.631,21.164-12.904,31.539-15.811
		C-2469.946-255.397-2457.657-256.853-2445.098-256.853L-2445.098-256.853z M-2108.408-263.393
		c12.564,0.728,25.125,3.27,37.686,7.632c10.379,3.635,21.301,9.266,32.77,16.898c11.467,7.632,21.295,18.718,29.492,33.261
		c10.922,18.171,16.654,37.617,17.203,58.331c0.543,20.72-0.549,40.166-3.277,58.336c-3.826,21.084-9.559,42.162-17.205,63.246
		c-3.824,10.902-8.738,21.805-14.746,32.709c-4.914,9.451-11.195,19.082-18.842,28.897c-7.646,9.812-16.658,17.99-27.033,24.53
		c-17.475,10.903-30.311,13.27-38.504,7.087c-8.191-6.177-10.1-17.262-5.734-33.255c2.186-7.268,5.189-13.451,9.014-18.535
		c3.824-5.09,7.508-10.182,11.057-15.266c3.551-5.09,6.693-11.268,9.422-18.536c2.732-7.269,4.1-16.721,4.1-28.353
		c0-11.631-1.367-21.805-4.1-30.53c-2.729-8.725-6.008-16.357-9.832-22.898c-3.818-6.541-7.508-11.996-11.057-16.357
		c-3.551-4.362-6.146-7.997-7.783-10.902c-3.277-5.815-5.596-16.359-6.963-31.624c-1.365-15.265-6.689-33.437-15.973-54.515
		c-9.285-19.627-16.385-33.807-21.303-42.526c-2.729-5.09-4.914-9.089-6.551-11.995c4.367,0,9.557,0.364,15.564,1.092
		C-2141.719-265.94-2127.521-264.85-2108.408-263.393L-2108.408-263.393z M-2164.932-149.995
		c2.186,13.086,2.049,23.807-0.408,32.167c-2.457,8.362-5.734,16.171-9.828,23.445c-4.1,7.269-8.061,14.902-11.879,22.898
		c-3.824,7.995-5.736,18.535-5.736,31.616c0,11.631,1.365,20.902,4.094,27.807c2.732,6.904,5.736,13.086,9.014,18.535
		c3.275,5.455,6.418,10.723,9.422,15.813s4.504,11.994,4.504,20.72c0.547,15.992-3.822,28.346-13.107,37.071
		c-9.285,8.724-23.482,16.356-42.596,22.897c-10.926,4.363-25.805,6.904-44.65,7.633c-18.839,0.728-37.819-0.729-56.932-4.362
		c-18.024-3.634-33.176-10.722-45.465-21.261c-12.289-10.544-18.707-24.172-19.254-40.893c0-10.902,1.504-19.622,4.508-26.169
		c3.004-6.541,6.418-12.535,10.238-17.99c3.824-5.453,7.375-11.266,10.652-17.443c3.278-6.182,4.914-14.725,4.914-25.627
		c0-10.904-1.91-20.352-5.734-28.347c-3.824-7.997-7.781-15.812-11.879-23.445c-4.098-7.633-7.645-15.447-10.648-23.444
		c-3.004-7.997-3.688-18.171-2.051-30.53c1.094-9.453,3.277-19.993,6.554-31.623c3.278-11.631,7.512-23.625,12.7-35.984
		c5.187-12.354,11.332-24.349,18.429-35.98c7.102-11.631,14.747-21.806,22.938-30.53l91.754-1.092
		c10.922,11.631,21.021,24.354,30.307,38.163c7.646,12.359,15.293,26.714,22.939,43.072
		C-2174.49-186.521-2168.754-168.896-2164.932-149.995L-2164.932-149.995z M-2164.932-149.995"/>
</g>
<g>
	<linearGradient id="SVGID_1_" gradientUnits="userSpaceOnUse" x1="-1360.8994" y1="-512.0283" x2="-1360.8994" y2="-483.1343">
		<stop  offset="0" style="stop-color:#00D6ED"/>
		<stop  offset="0.2058" style="stop-color:#00D2EA"/>
		<stop  offset="0.4191" style="stop-color:#00C5E0"/>
		<stop  offset="0.6358" style="stop-color:#00B1D0"/>
		<stop  offset="0.8535" style="stop-color:#0094BA"/>
		<stop  offset="1" style="stop-color:#007CA7"/>
	</linearGradient>
	<path fill="url(#SVGID_1_)" d="M-1360.04-483.728c-2.51,1.336-3.83,0-3.83,0s-1.186-28.3-2.026-28.3
		C-1361.568-510.189-1349.656-506.734-1360.04-483.728z"/>
	<linearGradient id="SVGID_2_" gradientUnits="userSpaceOnUse" x1="-1375.2539" y1="-511.6904" x2="-1375.2539" y2="-483.165">
		<stop  offset="0" style="stop-color:#00D6ED"/>
		<stop  offset="0.2058" style="stop-color:#00D2EA"/>
		<stop  offset="0.4191" style="stop-color:#00C5E0"/>
		<stop  offset="0.6358" style="stop-color:#00B1D0"/>
		<stop  offset="0.8535" style="stop-color:#0094BA"/>
		<stop  offset="1" style="stop-color:#007CA7"/>
	</linearGradient>
	<path fill="url(#SVGID_2_)" d="M-1376.001-483.759c2.51,1.336,3.73,0,3.73,0s2.272-27.64,1.905-27.932
		C-1374.693-509.851-1386.385-506.765-1376.001-483.759z"/>
	<linearGradient id="SVGID_3_" gradientUnits="userSpaceOnUse" x1="-1380.2871" y1="-511.5908" x2="-1380.2871" y2="-481.8271">
		<stop  offset="0" style="stop-color:#FFFFFF"/>
		<stop  offset="0.1383" style="stop-color:#FBFDFE"/>
		<stop  offset="0.2816" style="stop-color:#EEF8FD"/>
		<stop  offset="0.4274" style="stop-color:#DAEFFA"/>
		<stop  offset="0.5747" style="stop-color:#BDE3F5"/>
		<stop  offset="0.7233" style="stop-color:#97D3F0"/>
		<stop  offset="0.8709" style="stop-color:#6AC0EA"/>
		<stop  offset="1" style="stop-color:#3CADE3"/>
	</linearGradient>
	<path fill="url(#SVGID_3_)" stroke="#007CBC" stroke-miterlimit="10" d="M-1379.584-481.841c1.75,0.249,3.25-3,3.25-3
		c-11.833-23.751,4.5-24.751,4.25-26.75C-1392.915-511.591-1392.167-496.425-1379.584-481.841z"/>
	<linearGradient id="SVGID_4_" gradientUnits="userSpaceOnUse" x1="-1355.7686" y1="-511.5908" x2="-1355.7686" y2="-481.8271">
		<stop  offset="0" style="stop-color:#FFFFFF"/>
		<stop  offset="0.1383" style="stop-color:#FBFDFE"/>
		<stop  offset="0.2816" style="stop-color:#EEF8FD"/>
		<stop  offset="0.4274" style="stop-color:#DAEFFA"/>
		<stop  offset="0.5747" style="stop-color:#BDE3F5"/>
		<stop  offset="0.7233" style="stop-color:#97D3F0"/>
		<stop  offset="0.8709" style="stop-color:#6AC0EA"/>
		<stop  offset="1" style="stop-color:#3CADE3"/>
	</linearGradient>
	<path fill="url(#SVGID_4_)" stroke="#007CBC" stroke-miterlimit="10" d="M-1356.472-481.841c-1.75,0.249-3.25-3-3.25-3
		c11.833-23.751-4.5-24.751-4.25-26.75C-1343.141-511.591-1343.889-496.425-1356.472-481.841z"/>
	<linearGradient id="SVGID_5_" gradientUnits="userSpaceOnUse" x1="-1367.959" y1="-511.6909" x2="-1367.959" y2="-483.8589">
		<stop  offset="0" style="stop-color:#FFFFFF"/>
		<stop  offset="0.1383" style="stop-color:#FBFDFE"/>
		<stop  offset="0.2816" style="stop-color:#EEF8FD"/>
		<stop  offset="0.4274" style="stop-color:#DAEFFA"/>
		<stop  offset="0.5747" style="stop-color:#BDE3F5"/>
		<stop  offset="0.7233" style="stop-color:#97D3F0"/>
		<stop  offset="0.8709" style="stop-color:#6AC0EA"/>
		<stop  offset="1" style="stop-color:#3CADE3"/>
	</linearGradient>
	<path fill="url(#SVGID_5_)" stroke="#007CBC" stroke-miterlimit="10" d="M-1372.365-506.66l0.503,22.801h7.997l0.313-22.701
		c0,0-0.896-5.147-4.313-5.131S-1372.365-506.66-1372.365-506.66z"/>
	<linearGradient id="SVGID_6_" gradientUnits="userSpaceOnUse" x1="-1375.0215" y1="-473.4795" x2="-1360.7968" y2="-487.7043">
		<stop  offset="0" style="stop-color:#00ABE9"/>
		<stop  offset="0.2711" style="stop-color:#03ADE9"/>
		<stop  offset="0.4961" style="stop-color:#0EB2EB"/>
		<stop  offset="0.7046" style="stop-color:#1FBBED"/>
		<stop  offset="0.9021" style="stop-color:#37C7F0"/>
		<stop  offset="1" style="stop-color:#46CFF2"/>
	</linearGradient>
	<path fill="url(#SVGID_6_)" stroke="#007CBC" stroke-miterlimit="10" d="M-1379.25-477.708h22.667c0,0-0.084-3.508-0.084-5.15
		c-0.229-1.858-1.886-1.858-1.886-1.858h-18.874c0,0-1.782,0.406-1.907,2.051C-1379.305-481.216-1379.369-479.844-1379.25-477.708z"
		/>
	<linearGradient id="SVGID_7_" gradientUnits="userSpaceOnUse" x1="-1370.6592" y1="-483.5703" x2="-1365.583" y2="-483.5703">
		<stop  offset="0" style="stop-color:#00ABE9"/>
		<stop  offset="0.0018" style="stop-color:#00ABE9"/>
		<stop  offset="0.1317" style="stop-color:#1AB8EC"/>
		<stop  offset="0.2754" style="stop-color:#2DC2EF"/>
		<stop  offset="0.4405" style="stop-color:#3BCAF1"/>
		<stop  offset="0.6441" style="stop-color:#44CEF2"/>
		<stop  offset="1" style="stop-color:#46CFF2"/>
	</linearGradient>
	<ellipse fill="url(#SVGID_7_)" stroke="#007CBC" stroke-miterlimit="10" cx="-1368.121" cy="-483.571" rx="2.538" ry="4.901"/>
	<path fill="#FFFFFF" stroke="#007CBC" stroke-miterlimit="10" d="M-1372.084-511.691c0,0,2.068-7.826,4.25-7
		c2.904,1.099,3.75,7,3.75,7H-1372.084z"/>
</g>
<g>
	<linearGradient id="SVGID_8_" gradientUnits="userSpaceOnUse" x1="-171.8828" y1="23.2402" x2="-171.8828" y2="79.2988">
		<stop  offset="0" style="stop-color:#00D6ED"/>
		<stop  offset="0.2058" style="stop-color:#00D2EA"/>
		<stop  offset="0.4191" style="stop-color:#00C5E0"/>
		<stop  offset="0.6358" style="stop-color:#00B1D0"/>
		<stop  offset="0.8535" style="stop-color:#0094BA"/>
		<stop  offset="1" style="stop-color:#007CA7"/>
	</linearGradient>
	<path fill="url(#SVGID_8_)" d="M-170.539,78.134c-4.917,2.621-7.506,0-7.506,0s-2.803-54.894-4.451-54.894
		C-173.996,23.24-147.329,35.406-170.539,78.134z"/>
	<linearGradient id="SVGID_9_" gradientUnits="userSpaceOnUse" x1="-200.2266" y1="22.9629" x2="-200.2266" y2="79.1914">
		<stop  offset="0" style="stop-color:#00D6ED"/>
		<stop  offset="0.2058" style="stop-color:#00D2EA"/>
		<stop  offset="0.4191" style="stop-color:#00C5E0"/>
		<stop  offset="0.6358" style="stop-color:#00B1D0"/>
		<stop  offset="0.8535" style="stop-color:#0094BA"/>
		<stop  offset="1" style="stop-color:#007CA7"/>
	</linearGradient>
	<path fill="url(#SVGID_9_)" d="M-201.819,78.076c4.918,2.619,8.111-0.197,8.111-0.197s4.933-53.901,4.212-54.473
		C-192.496,20.24-227.162,33.573-201.819,78.076z"/>
	<linearGradient id="SVGID_10_" gradientUnits="userSpaceOnUse" x1="-210.1191" y1="23.5313" x2="-210.1191" y2="82.0889">
		<stop  offset="0" style="stop-color:#FFFFFF"/>
		<stop  offset="0.1383" style="stop-color:#FBFDFE"/>
		<stop  offset="0.2816" style="stop-color:#EEF8FD"/>
		<stop  offset="0.4274" style="stop-color:#DAEFFA"/>
		<stop  offset="0.5747" style="stop-color:#BDE3F5"/>
		<stop  offset="0.7233" style="stop-color:#97D3F0"/>
		<stop  offset="0.8709" style="stop-color:#6AC0EA"/>
		<stop  offset="1" style="stop-color:#3CADE3"/>
	</linearGradient>
	<path fill="url(#SVGID_10_)" stroke="#007CBC" stroke-miterlimit="10" d="M-208.49,82.063c3.429,0.487,6.02-6.108,6.02-6.108
		c-23.191-46.547,8.817-48.506,8.328-52.424C-234.967,23.531-233.152,53.48-208.49,82.063z"/>
	<linearGradient id="SVGID_11_" gradientUnits="userSpaceOnUse" x1="-162.168" y1="23.5313" x2="-162.168" y2="81.8604">
		<stop  offset="0" style="stop-color:#FFFFFF"/>
		<stop  offset="0.1383" style="stop-color:#FBFDFE"/>
		<stop  offset="0.2816" style="stop-color:#EEF8FD"/>
		<stop  offset="0.4274" style="stop-color:#DAEFFA"/>
		<stop  offset="0.5747" style="stop-color:#BDE3F5"/>
		<stop  offset="0.7233" style="stop-color:#97D3F0"/>
		<stop  offset="0.8709" style="stop-color:#6AC0EA"/>
		<stop  offset="1" style="stop-color:#3CADE3"/>
	</linearGradient>
	<path fill="url(#SVGID_11_)" stroke="#007CBC" stroke-miterlimit="10" d="M-163.546,81.834c-3.428,0.487-6.37-5.879-6.37-5.879
		c23.192-46.547-8.818-48.506-8.329-52.424C-137.418,23.531-138.885,53.251-163.546,81.834z"/>
	<linearGradient id="SVGID_12_" gradientUnits="userSpaceOnUse" x1="-186.0586" y1="23.334" x2="-186.0586" y2="77.8789">
		<stop  offset="0" style="stop-color:#FFFFFF"/>
		<stop  offset="0.1383" style="stop-color:#FBFDFE"/>
		<stop  offset="0.2816" style="stop-color:#EEF8FD"/>
		<stop  offset="0.4274" style="stop-color:#DAEFFA"/>
		<stop  offset="0.5747" style="stop-color:#BDE3F5"/>
		<stop  offset="0.7233" style="stop-color:#97D3F0"/>
		<stop  offset="0.8709" style="stop-color:#6AC0EA"/>
		<stop  offset="1" style="stop-color:#3CADE3"/>
	</linearGradient>
	<path fill="url(#SVGID_12_)" stroke="#007CBC" stroke-miterlimit="10" d="M-194.694,33.194l0.986,44.685h15.672l0.613-44.488
		c0,0-1.755-10.089-8.452-10.057C-192.57,23.363-194.694,33.194-194.694,33.194z"/>
	<linearGradient id="SVGID_13_" gradientUnits="userSpaceOnUse" x1="-199.9004" y1="98.2207" x2="-172.0229" y2="70.3432">
		<stop  offset="0" style="stop-color:#00ABE9"/>
		<stop  offset="0.2711" style="stop-color:#03ADE9"/>
		<stop  offset="0.4961" style="stop-color:#0EB2EB"/>
		<stop  offset="0.7046" style="stop-color:#1FBBED"/>
		<stop  offset="0.9021" style="stop-color:#37C7F0"/>
		<stop  offset="1" style="stop-color:#46CFF2"/>
	</linearGradient>
	<path fill="url(#SVGID_13_)" stroke="#007CBC" stroke-miterlimit="10" d="M-208.188,89.934h44.424c0,0,0.223-7.526-0.164-10.091
		c-0.45-3.642-3.696-3.642-3.696-3.642h-36.988c0,0-3.493,0.796-3.739,4.02C-208.49,80.813-208.678,85.595-208.188,89.934z"/>
	<linearGradient id="SVGID_14_" gradientUnits="userSpaceOnUse" x1="-190.8525" y1="78.4443" x2="-180.9033" y2="78.4443">
		<stop  offset="0" style="stop-color:#00ABE9"/>
		<stop  offset="0.0018" style="stop-color:#00ABE9"/>
		<stop  offset="0.1317" style="stop-color:#1AB8EC"/>
		<stop  offset="0.2754" style="stop-color:#2DC2EF"/>
		<stop  offset="0.4405" style="stop-color:#3BCAF1"/>
		<stop  offset="0.6441" style="stop-color:#44CEF2"/>
		<stop  offset="1" style="stop-color:#46CFF2"/>
	</linearGradient>
	<path fill="url(#SVGID_14_)" stroke="#007CBC" stroke-miterlimit="10" d="M-180.903,78.444c0,5.306-2.231,9.604-4.971,9.604
		c-2.751,0-4.979-4.299-4.979-9.604c0-5.305,2.228-9.604,4.979-9.604C-183.135,68.84-180.903,73.14-180.903,78.444z"/>
	<path fill="#FFFFFF" stroke="#007CBC" stroke-miterlimit="10" d="M-194.143,23.334c0,0,4.054-15.336,8.328-13.719
		c5.693,2.154,7.351,13.719,7.351,13.719H-194.143z"/>
</g>
<g>
	<linearGradient id="SVGID_15_" gradientUnits="userSpaceOnUse" x1="-58.1328" y1="23.0957" x2="-58.1328" y2="79.1543">
		<stop  offset="0" style="stop-color:#FFD45E"/>
		<stop  offset="0.1634" style="stop-color:#FDD05B"/>
		<stop  offset="0.3328" style="stop-color:#F8C353"/>
		<stop  offset="0.5049" style="stop-color:#EFAF45"/>
		<stop  offset="0.6789" style="stop-color:#E39232"/>
		<stop  offset="0.8526" style="stop-color:#D36D19"/>
		<stop  offset="1" style="stop-color:#C34700"/>
	</linearGradient>
	<path fill="url(#SVGID_15_)" d="M-56.789,77.989c-4.917,2.621-7.506,0-7.506,0s-2.803-54.894-4.451-54.894
		C-60.246,23.096-33.579,35.262-56.789,77.989z"/>
	<linearGradient id="SVGID_16_" gradientUnits="userSpaceOnUse" x1="-86.4766" y1="22.8184" x2="-86.4766" y2="79.0469">
		<stop  offset="0" style="stop-color:#FFD45E"/>
		<stop  offset="0.1634" style="stop-color:#FDD05B"/>
		<stop  offset="0.3328" style="stop-color:#F8C353"/>
		<stop  offset="0.5049" style="stop-color:#EFAF45"/>
		<stop  offset="0.6789" style="stop-color:#E39232"/>
		<stop  offset="0.8526" style="stop-color:#D36D19"/>
		<stop  offset="1" style="stop-color:#C34700"/>
	</linearGradient>
	<path fill="url(#SVGID_16_)" d="M-88.069,77.932c4.918,2.619,8.111-0.197,8.111-0.197s4.933-53.901,4.212-54.473
		C-78.746,20.096-113.412,33.429-88.069,77.932z"/>
	<linearGradient id="SVGID_17_" gradientUnits="userSpaceOnUse" x1="-96.3691" y1="23.3867" x2="-96.3691" y2="81.9443">
		<stop  offset="0" style="stop-color:#FFFFFF"/>
		<stop  offset="0.0747" style="stop-color:#FFF8E7"/>
		<stop  offset="0.2206" style="stop-color:#FFEDBD"/>
		<stop  offset="0.3699" style="stop-color:#FFE49B"/>
		<stop  offset="0.521" style="stop-color:#FFDD80"/>
		<stop  offset="0.6745" style="stop-color:#FFD86D"/>
		<stop  offset="0.8321" style="stop-color:#FFD562"/>
		<stop  offset="1" style="stop-color:#FFD45E"/>
	</linearGradient>
	<path fill="url(#SVGID_17_)" stroke="#B96A06" stroke-miterlimit="10" d="M-94.74,81.919c3.429,0.487,6.02-6.108,6.02-6.108
		c-23.191-46.547,8.817-48.506,8.328-52.424C-121.217,23.387-119.402,53.336-94.74,81.919z"/>
	<linearGradient id="SVGID_18_" gradientUnits="userSpaceOnUse" x1="-48.418" y1="23.3867" x2="-48.418" y2="81.7158">
		<stop  offset="0" style="stop-color:#FFFFFF"/>
		<stop  offset="0.0747" style="stop-color:#FFF8E7"/>
		<stop  offset="0.2206" style="stop-color:#FFEDBD"/>
		<stop  offset="0.3699" style="stop-color:#FFE49B"/>
		<stop  offset="0.521" style="stop-color:#FFDD80"/>
		<stop  offset="0.6745" style="stop-color:#FFD86D"/>
		<stop  offset="0.8321" style="stop-color:#FFD562"/>
		<stop  offset="1" style="stop-color:#FFD45E"/>
	</linearGradient>
	<path fill="url(#SVGID_18_)" stroke="#B96A06" stroke-miterlimit="10" d="M-49.796,81.689c-3.428,0.487-6.37-5.879-6.37-5.879
		c23.192-46.547-8.818-48.506-8.329-52.424C-23.668,23.387-25.135,53.106-49.796,81.689z"/>
	<linearGradient id="SVGID_19_" gradientUnits="userSpaceOnUse" x1="-72.3086" y1="23.1895" x2="-72.3086" y2="77.7344">
		<stop  offset="0" style="stop-color:#FFFFFF"/>
		<stop  offset="0.0747" style="stop-color:#FFF8E7"/>
		<stop  offset="0.2206" style="stop-color:#FFEDBD"/>
		<stop  offset="0.3699" style="stop-color:#FFE49B"/>
		<stop  offset="0.521" style="stop-color:#FFDD80"/>
		<stop  offset="0.6745" style="stop-color:#FFD86D"/>
		<stop  offset="0.8321" style="stop-color:#FFD562"/>
		<stop  offset="1" style="stop-color:#FFD45E"/>
	</linearGradient>
	<path fill="url(#SVGID_19_)" stroke="#B96A06" stroke-miterlimit="10" d="M-80.944,33.05l0.986,44.685h15.672l0.613-44.488
		c0,0-1.755-10.089-8.452-10.057C-78.82,23.219-80.944,33.05-80.944,33.05z"/>
	<linearGradient id="SVGID_20_" gradientUnits="userSpaceOnUse" x1="-72.3535" y1="76.0566" x2="-72.3535" y2="89.7891">
		<stop  offset="0" style="stop-color:#FFDE76"/>
		<stop  offset="0.0462" style="stop-color:#FFD865"/>
		<stop  offset="0.1481" style="stop-color:#FFCD46"/>
		<stop  offset="0.2598" style="stop-color:#FFC32C"/>
		<stop  offset="0.3829" style="stop-color:#FFBC19"/>
		<stop  offset="0.5236" style="stop-color:#FFB70B"/>
		<stop  offset="0.6969" style="stop-color:#FFB402"/>
		<stop  offset="1" style="stop-color:#FFB300"/>
	</linearGradient>
	<path fill="url(#SVGID_20_)" stroke="#B96A06" stroke-miterlimit="10" d="M-94.438,89.789h44.424c0,0,0.223-7.526-0.164-10.091
		c-0.45-3.642-3.696-3.642-3.696-3.642h-36.988c0,0-3.493,0.796-3.739,4.02C-94.74,80.669-94.928,85.45-94.438,89.789z"/>
	<linearGradient id="SVGID_21_" gradientUnits="userSpaceOnUse" x1="-77.5352" y1="72.8916" x2="-66.7179" y2="83.7088">
		<stop  offset="0" style="stop-color:#FFFFFF"/>
		<stop  offset="0.0102" style="stop-color:#FFFBFB"/>
		<stop  offset="0.1216" style="stop-color:#FDD4D1"/>
		<stop  offset="0.2393" style="stop-color:#FCB2AD"/>
		<stop  offset="0.3621" style="stop-color:#FB978F"/>
		<stop  offset="0.4919" style="stop-color:#FA8279"/>
		<stop  offset="0.6318" style="stop-color:#F97369"/>
		<stop  offset="0.7891" style="stop-color:#F96A5F"/>
		<stop  offset="1" style="stop-color:#F9675C"/>
	</linearGradient>
	<path fill="url(#SVGID_21_)" stroke="#B96A06" stroke-miterlimit="10" d="M-67.153,78.3c0,5.306-2.231,9.604-4.971,9.604
		c-2.751,0-4.979-4.299-4.979-9.604c0-5.305,2.228-9.604,4.979-9.604C-69.385,68.695-67.153,72.995-67.153,78.3z"/>
	<path fill="#FFFFFF" stroke="#B96A06" stroke-miterlimit="10" d="M-80.393,23.189c0,0,4.054-15.336,8.328-13.719
		c5.693,2.154,7.351,13.719,7.351,13.719H-80.393z"/>
</g>
<g>
	
		<linearGradient id="SVGID_22_" gradientUnits="userSpaceOnUse" x1="-40.1953" y1="26.3047" x2="-40.1953" y2="74.9102" gradientTransform="matrix(-1 0 0 1 24.8438 0)">
		<stop  offset="0" style="stop-color:#FFFFFF"/>
		<stop  offset="0.0228" style="stop-color:#FFFCE7"/>
		<stop  offset="0.0675" style="stop-color:#FFF8BE"/>
		<stop  offset="0.1177" style="stop-color:#FFF398"/>
		<stop  offset="0.1723" style="stop-color:#FEF078"/>
		<stop  offset="0.2326" style="stop-color:#FEED5C"/>
		<stop  offset="0.3008" style="stop-color:#FEEA46"/>
		<stop  offset="0.3804" style="stop-color:#FEE835"/>
		<stop  offset="0.4788" style="stop-color:#FEE72A"/>
		<stop  offset="0.6168" style="stop-color:#FEE623"/>
		<stop  offset="1" style="stop-color:#FEE621"/>
	</linearGradient>
	<path fill="url(#SVGID_22_)" d="M65.318,74.91c-1.28-0.184-3.844-0.184-3.844-0.184s0.182-46.87-1.648-47.785
		C63.121,23.462,77.769,33.531,65.318,74.91z"/>
	
		<linearGradient id="SVGID_23_" gradientUnits="userSpaceOnUse" x1="-43.541" y1="20.2988" x2="-43.541" y2="74.7627" gradientTransform="matrix(-1 0 0 1 30.7715 0)">
		<stop  offset="0" style="stop-color:#FFFFFF"/>
		<stop  offset="0.1102" style="stop-color:#FFCBCB"/>
		<stop  offset="0.239" style="stop-color:#FF9696"/>
		<stop  offset="0.3696" style="stop-color:#FF6868"/>
		<stop  offset="0.4992" style="stop-color:#FF4343"/>
		<stop  offset="0.6276" style="stop-color:#FF2525"/>
		<stop  offset="0.7546" style="stop-color:#FF1111"/>
		<stop  offset="0.8795" style="stop-color:#FF0404"/>
		<stop  offset="1" style="stop-color:#FF0000"/>
	</linearGradient>
	<path fill="url(#SVGID_23_)" stroke="#D03E05" stroke-miterlimit="10" d="M73.785,74.344l-9.784,0.419c0,0,11.26-44.9-4.212-48.332
		c0,0-0.072-5.186,0.046-6.132C104.681,20.299,87.691,68.481,73.785,74.344z"/>
	<linearGradient id="SVGID_24_" gradientUnits="userSpaceOnUse" x1="38.3076" y1="26.1221" x2="38.3076" y2="74.7275">
		<stop  offset="0" style="stop-color:#FFFFFF"/>
		<stop  offset="0.0228" style="stop-color:#FFFCE7"/>
		<stop  offset="0.0675" style="stop-color:#FFF8BE"/>
		<stop  offset="0.1177" style="stop-color:#FFF398"/>
		<stop  offset="0.1723" style="stop-color:#FEF078"/>
		<stop  offset="0.2326" style="stop-color:#FEED5C"/>
		<stop  offset="0.3008" style="stop-color:#FEEA46"/>
		<stop  offset="0.3804" style="stop-color:#FEE835"/>
		<stop  offset="0.4788" style="stop-color:#FEE72A"/>
		<stop  offset="0.6168" style="stop-color:#FEE623"/>
		<stop  offset="1" style="stop-color:#FEE621"/>
	</linearGradient>
	<path fill="url(#SVGID_24_)" d="M38.026,74.728c1.282-0.185,3.847-0.185,3.847-0.185s-0.184-46.869,1.647-47.784
		C40.226,23.28,25.577,33.349,38.026,74.728z"/>
	<linearGradient id="SVGID_25_" gradientUnits="userSpaceOnUse" x1="27.5898" y1="20.2627" x2="27.5898" y2="74.7275">
		<stop  offset="0" style="stop-color:#FFFFFF"/>
		<stop  offset="0.1102" style="stop-color:#FFCBCB"/>
		<stop  offset="0.239" style="stop-color:#FF9696"/>
		<stop  offset="0.3696" style="stop-color:#FF6868"/>
		<stop  offset="0.4992" style="stop-color:#FF4343"/>
		<stop  offset="0.6276" style="stop-color:#FF2525"/>
		<stop  offset="0.7546" style="stop-color:#FF1111"/>
		<stop  offset="0.8795" style="stop-color:#FF0404"/>
		<stop  offset="1" style="stop-color:#FF0000"/>
	</linearGradient>
	<path fill="url(#SVGID_25_)" stroke="#D03E05" stroke-miterlimit="10" d="M27.728,74.04l10.299,0.688
		c0,0-11.259-44.899,4.211-48.332c0,0,0.073-5.187-0.045-6.133C-2.653,20.263,13.82,68.179,27.728,74.04z"/>
	<linearGradient id="SVGID_26_" gradientUnits="userSpaceOnUse" x1="51.3477" y1="22.252" x2="51.3477" y2="77.8047">
		<stop  offset="0" style="stop-color:#FFFFFF"/>
		<stop  offset="0.0286" style="stop-color:#FFF0F0"/>
		<stop  offset="0.1404" style="stop-color:#FFB8B8"/>
		<stop  offset="0.2559" style="stop-color:#FF8787"/>
		<stop  offset="0.3727" style="stop-color:#FF5D5D"/>
		<stop  offset="0.4909" style="stop-color:#FF3C3C"/>
		<stop  offset="0.611" style="stop-color:#FF2121"/>
		<stop  offset="0.7339" style="stop-color:#FF0F0F"/>
		<stop  offset="0.8613" style="stop-color:#FF0404"/>
		<stop  offset="1" style="stop-color:#FF0000"/>
	</linearGradient>
	<path fill="url(#SVGID_26_)" stroke="#D03E05" stroke-miterlimit="10" d="M42.238,77.805l18.311-0.551
		c0,0,15.012-54.891-9.478-55.002C27.27,22.142,42.238,77.805,42.238,77.805z"/>
	
		<linearGradient id="SVGID_27_" gradientUnits="userSpaceOnUse" x1="70.2715" y1="96.7256" x2="28.5255" y2="72.6235" gradientTransform="matrix(-1 0 0 -1 99.9961 165.7324)">
		<stop  offset="0" style="stop-color:#FEE621"/>
		<stop  offset="0.0592" style="stop-color:#FEDB1A"/>
		<stop  offset="0.1837" style="stop-color:#FFC90E"/>
		<stop  offset="0.3342" style="stop-color:#FFBC06"/>
		<stop  offset="0.5357" style="stop-color:#FFB501"/>
		<stop  offset="1" style="stop-color:#FFB300"/>
	</linearGradient>
	<linearGradient id="SVGID_28_" gradientUnits="userSpaceOnUse" x1="51.0254" y1="74.1201" x2="51.0254" y2="90.2061">
		<stop  offset="0" style="stop-color:#FFF926"/>
		<stop  offset="0.1691" style="stop-color:#FCEE26"/>
		<stop  offset="0.4679" style="stop-color:#F6D025"/>
		<stop  offset="0.8587" style="stop-color:#EAA024"/>
		<stop  offset="1" style="stop-color:#E68D23"/>
	</linearGradient>
	<path fill="url(#SVGID_27_)" stroke="url(#SVGID_28_)" stroke-miterlimit="10" d="M75.285,74.62H26.484
		c0,0-0.244,8.269,0.182,11.085c0.493,4.001,4.061,4.001,4.061,4.001h40.631c0,0,3.838-0.875,4.107-4.415
		C75.617,84.64,75.824,79.387,75.285,74.62z"/>
	<linearGradient id="SVGID_29_" gradientUnits="userSpaceOnUse" x1="43.8877" y1="16.375" x2="60.4851" y2="25.9575">
		<stop  offset="0" style="stop-color:#FFFFFF"/>
		<stop  offset="0.0935" style="stop-color:#FFFEF4"/>
		<stop  offset="0.2588" style="stop-color:#FFFAD6"/>
		<stop  offset="0.4766" style="stop-color:#FFF5A6"/>
		<stop  offset="0.7353" style="stop-color:#FEED63"/>
		<stop  offset="0.9704" style="stop-color:#FEE621"/>
		<stop  offset="1" style="stop-color:#FFB300"/>
	</linearGradient>
	<path fill="url(#SVGID_29_)" stroke="#D03E05" stroke-miterlimit="10" d="M60.135,26.565H41.94v-6.711
		c7.081-13.372,11.323-13.372,18.194,0V26.565z"/>
	<rect x="49.146" y="79.049" fill="#560000" width="3.844" height="6.041"/>
	<rect x="31.795" y="78.941" fill="#C52A30" width="1.558" height="6.227"/>
	<rect x="68.781" y="78.941" fill="#C52A30" width="1.557" height="6.227"/>
	<rect x="49.623" y="51.476" fill="#FFFF25" width="2.803" height="4.76"/>
	<rect x="83.848" y="51.476" fill="#FFFF25" width="1.402" height="4.76"/>
	<rect x="16.797" y="51.476" fill="#FFFF25" width="1.401" height="4.76"/>
</g>
</svg>
