<?xml version="1.0" encoding="utf-8"?>
<!-- Generator: Adobe Illustrator 16.0.0, SVG Export Plug-In . SVG Version: 6.00 Build 0)  -->
<!DOCTYPE svg PUBLIC "-//W3C//DTD SVG 1.1//EN" "http://www.w3.org/Graphics/SVG/1.1/DTD/svg11.dtd">
<svg version="1.1" id="图层_1" xmlns="http://www.w3.org/2000/svg" xmlns:xlink="http://www.w3.org/1999/xlink" x="0px" y="0px"
	 width="283.46px" height="283.46px" viewBox="0 0 283.46 283.46" enable-background="new 0 0 283.46 283.46" xml:space="preserve">
<g>
	<path fill="#646C72" d="M244.048,216.651c0,10.646-8.61,19.278-19.229,19.278H58.637c-10.621,0-19.23-8.632-19.23-19.278V66.81
		c0-10.647,8.609-19.28,19.23-19.28h166.182c10.619,0,19.229,8.632,19.229,19.28V216.651z"/>
	<path fill="#F8F7F6" d="M226.429,78.722h-70.683l-39.774-25.771H60.146c-8.448,0-15.295,6.838-15.295,15.273v147.032
		c0,8.438,6.848,15.273,15.295,15.273h163.207c8.447,0,15.295-6.836,15.295-15.273v-123.8
		C238.647,81.179,226.429,78.722,226.429,78.722z"/>
	<path fill="#F8F7F6" stroke="#636B71" stroke-miterlimit="10" d="M40.665,76.661l88.993-18.523l20.781,11.521L40.665,93.715
		c0,0-4.94,0.697-3.777-4.681C36.887,89.034,39.874,76.858,40.665,76.661z"/>
	<path fill="#F8F7F6" stroke="#636B71" stroke-miterlimit="10" d="M38.01,95.069c-0.479,1.031-0.819,2.477-0.932,3.388
		c-0.117,0.965-0.27,2.062-0.368,2.662c-0.319,1.934-2.25,7.552,7.038,4.645c11.328-3.547,115.788-28.376,115.788-28.376
		s-4.636-6.098-10.057-6.776c-5.244-0.655-102.971,21.786-109.394,23.25C39.868,93.912,38.306,94.561,38.01,95.069z"/>
	<path fill="#F8F7F6" stroke="#636B71" stroke-miterlimit="10" d="M38.519,110.26c0,0,0.959,11.631,1.242,12.705
		c0.282,1.072-0.227,3.954,9.651-1.34l110.367-44.101l-116.03,28.239C43.749,105.763,38.603,106.222,38.519,110.26z"/>
	<path fill="#646C72" d="M220.008,140.866c0,5.893-4.02,10.672-8.978,10.672c-4.96,0-8.979-4.779-8.979-10.672
		c0-5.895,8.979-25.582,8.979-25.582S220.008,134.971,220.008,140.866z"/>
	<path fill="#666C6F" d="M173.364,139.681c0,2.184-1.77,3.951-3.951,3.951l0,0c-2.185,0-3.954-1.768-3.954-3.951v-12.2
		c0-2.183,1.77-3.951,3.954-3.951l0,0c2.182,0,3.951,1.768,3.951,3.951V139.681z"/>
	<path fill="#666B71" d="M123.22,139.681c0,2.184-1.77,3.951-3.951,3.951l0,0c-2.185,0-3.954-1.768-3.954-3.951v-12.2
		c0-2.183,1.769-3.951,3.954-3.951l0,0c2.181,0,3.951,1.768,3.951,3.951V139.681z"/>
	<path fill="#646C72" d="M144.63,169.157c-12.644,0-23.98,5.563-31.721,14.365c0.898,1.454,1.888,2.843,2.973,4.155
		c6.835-8.276,17.175-13.552,28.749-13.552c11.572,0,21.914,5.276,28.749,13.552c1.084-1.31,2.074-2.701,2.974-4.155
		C168.612,174.72,157.276,169.157,144.63,169.157z"/>
	<path fill="#F8F7F6" stroke="#636B71" stroke-miterlimit="10" d="M77.87,128.102c2.286-2.166,5.896-2.066,8.062,0.218l0,0
		c2.167,2.288,2.069,5.897-0.22,8.065l-18.448,17.474c-2.286,2.166-5.896,2.068-8.062-0.22l0,0
		c-2.165-2.288-2.067-5.897,0.218-8.062L77.87,128.102z"/>
	<path fill="#F8F7F6" stroke="#636B71" stroke-miterlimit="10" d="M86.422,141.826c2.728,1.573,3.663,5.063,2.088,7.79l0,0
		c-1.575,2.728-5.064,3.663-7.792,2.087l-22.006-12.704c-2.728-1.574-3.662-5.063-2.086-7.791l0,0
		c1.574-2.728,5.063-3.662,7.79-2.088L86.422,141.826z"/>
</g>
<g>
	<path fill="#646C72" d="M1094.442,216.648c0,10.645-8.608,19.276-19.229,19.276H909.036c-10.621,0-19.229-8.632-19.229-19.276
		V66.809c0-10.647,8.607-19.279,19.229-19.279h166.178c10.62,0,19.229,8.632,19.229,19.279V216.648z"/>
	<path fill="#F8F7F6" d="M1076.824,78.721h-70.68L966.37,52.95h-55.827c-8.447,0-15.295,6.838-15.295,15.272v147.029
		c0,8.438,6.848,15.272,15.295,15.272h163.206c8.448,0,15.294-6.835,15.294-15.272V91.454
		C1089.042,81.179,1076.824,78.721,1076.824,78.721z"/>
	<path fill="#666C6F" d="M1023.761,139.679c0,2.184-1.771,3.951-3.953,3.951l0,0c-2.182,0-3.953-1.768-3.953-3.951V127.48
		c0-2.183,1.771-3.952,3.953-3.952l0,0c2.183,0,3.953,1.77,3.953,3.952V139.679z"/>
	<path fill="#666B71" d="M973.618,139.679c0,2.184-1.771,3.951-3.953,3.951l0,0c-2.181,0-3.95-1.768-3.95-3.951V127.48
		c0-2.183,1.77-3.952,3.95-3.952l0,0c2.183,0,3.953,1.77,3.953,3.952V139.679z"/>
	<path fill="#646C72" d="M995.03,187.675c12.644,0,23.979-5.563,31.722-14.364c-0.9-1.453-1.891-2.845-2.974-4.155
		c-6.835,8.275-17.174,13.552-28.748,13.552c-11.571,0-21.914-5.276-28.748-13.552c-1.084,1.311-2.075,2.702-2.976,4.155
		C971.048,182.112,982.386,187.675,995.03,187.675z"/>
	<path fill="#F8F7F6" stroke="#636B71" stroke-miterlimit="10" d="M979.832,58.139c0,0-90.803,20.668-92.61,23.829
		c-1.804,3.162-2.582,28.46,0,30.718c2.586,2.26,102.744-41.373,104.905-43.048C994.286,67.964,983.86,57.215,979.832,58.139z"/>
	<polygon fill="#F8F7F6" stroke="#636B71" stroke-miterlimit="10" points="864.523,68.472 886.383,85.427 886.034,88.462 
		858.931,80.499 	"/>
	<polygon fill="#F8F7F6" stroke="#636B71" stroke-miterlimit="10" points="862.829,86.26 886.034,88.462 886.034,90.156 
		864.523,96.085 	"/>
	<g>
		<path fill="#646C72" d="M926.417,78.842l-0.385-1.394l3.477-0.958l0.12-0.906l1.801-0.495l-0.152,0.915l8.937-2.461l0.381,1.393
			l-2.541,0.699l1.047,1.057c0.275,0.275,0.675,0.47,1.2,0.584c0.314,0.06,0.6,0.06,0.855,0.001l0.394,1.425
			c-0.652,0.18-1.267,0.187-1.839,0.021c-0.562-0.164-1.175-0.534-1.838-1.109l-1.68-1.464l-5.178,1.443
			c-0.098,0.687-0.179,1.185-0.247,1.499c-0.264,1.221-0.89,2.175-1.879,2.867c-0.406,0.281-0.868,0.495-1.389,0.645l-0.37-1.348
			c0.647-0.223,1.143-0.58,1.49-1.078c0.333-0.486,0.552-1.195,0.652-2.121L926.417,78.842z M929.316,88.232l-1.131-4.105
			c-0.117-0.427-0.085-0.809,0.098-1.137c0.174-0.313,0.535-0.544,1.087-0.695l10.289-2.834c0.52-0.144,0.888-0.182,1.097-0.112
			c0.488,0.157,0.8,0.48,0.935,0.97l1.163,4.226c0.103,0.373,0.069,0.719-0.099,1.04c-0.172,0.323-0.539,0.561-1.104,0.715
			l-10.273,2.831c-0.472,0.13-0.818,0.179-1.042,0.146C929.828,89.203,929.487,88.854,929.316,88.232z M929.981,85.149l4.672-1.287
			l-0.391-1.416l-4.217,1.17c-0.303,0.082-0.411,0.271-0.328,0.567L929.981,85.149z M935.385,86.527l-0.36-1.317l-4.676,1.279
			l0.229,0.825c0.091,0.332,0.328,0.445,0.711,0.339L935.385,86.527z M936.092,83.467l4.593-1.266l-0.227-0.819
			c-0.061-0.225-0.138-0.363-0.229-0.415c-0.117-0.07-0.255-0.087-0.406-0.044l-4.121,1.127L936.092,83.467z M936.827,86.131
			l3.956-1.089c0.241-0.067,0.384-0.141,0.434-0.22c0.09-0.135,0.108-0.299,0.054-0.492l-0.215-0.782l-4.592,1.266L936.827,86.131z"
			/>
	</g>
</g>
<g>
	<path fill="#646C72" d="M527.513,216.649c0,10.648-8.608,19.279-19.228,19.279h-166.18c-10.621,0-19.229-8.631-19.229-19.279
		V66.811c0-10.647,8.608-19.279,19.229-19.279h166.18c10.619,0,19.228,8.632,19.228,19.279V216.649z"/>
	<path fill="#F8F7F6" d="M509.875,78.724h-70.683l-39.774-25.771h-55.825c-8.449,0-15.297,6.838-15.297,15.272v147.03
		c0,8.437,6.848,15.272,15.297,15.272h163.204c8.448,0,15.295-6.836,15.295-15.272v-123.8
		C522.092,81.18,509.875,78.724,509.875,78.724z"/>
	<g>
		<line fill="none" stroke="#636B71" stroke-miterlimit="10" x1="363.648" y1="124.884" x2="406.789" y2="126.07"/>
		<line fill="none" stroke="#636B71" stroke-miterlimit="10" x1="363.792" y1="145.67" x2="406.644" y2="140.521"/>
		<line fill="none" stroke="#636B71" stroke-miterlimit="10" x1="486.744" y1="124.884" x2="443.604" y2="126.07"/>
		<line fill="none" stroke="#636B71" stroke-miterlimit="10" x1="486.598" y1="145.67" x2="443.75" y2="140.521"/>
		<circle fill="#666B71" cx="397.415" cy="134.485" r="2.145"/>
		<circle fill="#666B71" cx="452.977" cy="134.485" r="2.146"/>
	</g>
	<path fill="none" stroke="#636B71" stroke-miterlimit="10" d="M457.392,183.048c0,2.559-2.072,4.631-4.631,4.631h-55.133
		c-2.555,0-4.629-2.072-4.629-4.631l0,0c0-2.558,2.074-4.631,4.629-4.631h55.133C455.32,178.417,457.392,180.49,457.392,183.048
		L457.392,183.048z"/>
	<path fill="#666B71" d="M444.338,187.782c0.401-0.549,0.62-1.126,0.62-1.721c0-3.837-8.849-6.947-19.763-6.947
		c-10.915,0-19.764,3.11-19.764,6.947c0,0.595,0.219,1.172,0.621,1.721H444.338z"/>
	
		<line fill="none" stroke="#636B71" stroke-width="0.5" stroke-miterlimit="10" x1="468.674" y1="78.724" x2="468.674" y2="111.786"/>
	
		<line fill="none" stroke="#636B71" stroke-width="0.5" stroke-miterlimit="10" x1="482.228" y1="78.724" x2="482.228" y2="113.424"/>
	
		<line fill="none" stroke="#636B71" stroke-width="0.5" stroke-miterlimit="10" x1="495.777" y1="78.724" x2="495.777" y2="117.432"/>
</g>
<g>
	<path fill="none" stroke="#FFFFFF" stroke-miterlimit="10" d="M705.185,57.55c-2.358,0.041-4.836,0.134-7.409,0.276"/>
	<path fill="none" stroke="#636B71" stroke-miterlimit="10" d="M616.964,73.848c-12.254,4.438-18.338,8.474-17.725,11.917
		c0.459,2.579,5.314,4.182,13.201,4.797"/>
	<g>
		<path fill="#646C72" d="M817.077,216.648c0,10.648-8.609,19.28-19.229,19.28h-166.18c-10.621,0-19.229-8.632-19.229-19.28V66.81
			c0-10.648,8.607-19.28,19.229-19.28h166.18c10.619,0,19.229,8.632,19.229,19.28V216.648z"/>
		<path fill="#F8F7F6" d="M799.46,78.72h-70.684l-39.773-25.771h-55.826c-8.449,0-15.296,6.84-15.296,15.274v147.031
			c0,8.438,6.847,15.273,15.296,15.273h163.207c8.445,0,15.293-6.835,15.293-15.273v-123.8
			C811.677,81.176,799.46,78.72,799.46,78.72z"/>
		<g>
			<path fill="#646C72" d="M669.837,118.486h3.288l-2.001,13.137c-0.054,0.379-0.08,0.629-0.08,0.746
				c0,0.338,0.154,0.635,0.462,0.889c0.232,0.18,0.533,0.271,0.903,0.271h4.638v-15.042h3.319v15.042h2.016v3.128h-2.016v6.065
				h-3.319v-6.065h-6.385c-1.122,0-2.017-0.523-2.683-1.572c-0.276-0.434-0.413-1.001-0.413-1.7c0-0.21,0.015-0.421,0.047-0.635
				L669.837,118.486z"/>
		</g>
		<g>
			<path fill="#646C72" d="M747.088,118.486h3.287l-2.002,13.137c-0.054,0.379-0.081,0.629-0.081,0.746
				c0,0.338,0.155,0.635,0.462,0.889c0.232,0.18,0.535,0.271,0.905,0.271h4.637v-15.042h3.318v15.042h2.019v3.128h-2.019v6.065
				h-3.318v-6.065h-6.385c-1.121,0-2.016-0.523-2.684-1.572c-0.273-0.434-0.412-1.001-0.412-1.7c0-0.21,0.017-0.421,0.047-0.635
				L747.088,118.486z"/>
		</g>
		<g>
			<path fill="#646C72" d="M709.154,188.801v-15.485c0-1.356,0.396-2.45,1.19-3.287c0.783-0.814,1.716-1.224,2.795-1.224h6.289
				c1.483,0,2.572,0.43,3.272,1.287c0.72,0.889,1.08,1.916,1.08,3.079v15.552c0,1.427-0.366,2.508-1.097,3.237
				c-0.307,0.309-0.694,0.567-1.159,0.779c-0.552,0.254-1.043,0.382-1.478,0.382h-6.544c-1.279,0-2.344-0.409-3.19-1.223
				C709.54,191.145,709.154,190.111,709.154,188.801z M714.077,189.99h4.7c0.669,0,1.123-0.133,1.366-0.396
				c0.211-0.243,0.318-0.672,0.318-1.287v-14.849c0-1.019-0.461-1.527-1.383-1.527h-5.178c-0.444,0-0.788,0.113-1.032,0.336
				c-0.264,0.254-0.396,0.561-0.396,0.922v15.118C712.473,189.431,713.007,189.99,714.077,189.99z"/>
		</g>
		<path fill="none" stroke="#FFFFFF" stroke-miterlimit="10" d="M718.38,71.984c7.792-3.452,12.173-6.795,11.694-9.485
			c-0.288-1.616-2.462-2.83-6.062-3.655"/>
		<path fill="none" stroke="#636B71" stroke-miterlimit="10" d="M711.851,74.609c2.379-0.877,4.562-1.755,6.529-2.625"/>
		<path fill="none" stroke="#636B71" stroke-miterlimit="10" d="M677.266,84.119c3.682-0.768,7.251-1.573,10.68-2.408"/>
		<path fill="none" stroke="#636B71" stroke-miterlimit="10" d="M646.5,89.148c4.444-0.521,9.077-1.16,13.844-1.92"/>
		<path fill="none" stroke="#636B71" stroke-miterlimit="10" d="M617.881,90.822c1.371,0.028,2.807,0.037,4.298,0.019"/>
		<path fill="none" stroke="#FFFFFF" stroke-miterlimit="10" d="M612.441,90.562c1.681,0.134,3.498,0.219,5.44,0.261"/>
		<polygon fill="#F8F7F6" stroke="#636B71" stroke-miterlimit="10" points="633.234,79.165 636.68,86.145 644.382,87.266 
			638.808,92.699 640.125,100.372 633.234,96.748 626.343,100.372 627.66,92.699 622.084,87.266 629.789,86.145 		"/>
		<polygon fill="#F8F7F6" stroke="#636B71" stroke-miterlimit="10" points="667.68,80.723 669.374,84.155 673.158,84.705 
			670.42,87.375 671.066,91.146 667.68,89.364 664.293,91.146 664.939,87.375 662.2,84.705 665.986,84.155 		"/>
		<polygon fill="#646C72" stroke="#F8F7F6" stroke-miterlimit="10" points="715.75,50.22 718.177,55.137 723.603,55.924 
			719.677,59.751 720.605,65.154 715.75,62.604 710.899,65.154 711.824,59.751 707.898,55.924 713.325,55.137 		"/>
		<polygon fill="#F8F7F6" stroke="#636B71" stroke-miterlimit="10" points="697.89,67.51 701.408,74.641 709.275,75.783 
			703.583,81.331 704.926,89.166 697.89,85.469 690.851,89.166 692.195,81.331 686.502,75.783 694.37,74.641 		"/>
	</g>
</g>
</svg>
