<?xml version="1.0" encoding="utf-8"?>
<!-- Generator: Adobe Illustrator 16.0.0, SVG Export Plug-In . SVG Version: 6.00 Build 0)  -->
<!DOCTYPE svg PUBLIC "-//W3C//DTD SVG 1.1//EN" "http://www.w3.org/Graphics/SVG/1.1/DTD/svg11.dtd">
<svg version="1.1" id="图层_1" xmlns="http://www.w3.org/2000/svg" xmlns:xlink="http://www.w3.org/1999/xlink" x="0px" y="0px"
	 width="283.46px" height="283.46px" viewBox="0 0 283.46 283.46" enable-background="new 0 0 283.46 283.46" xml:space="preserve">
<g>
	<path fill="#999899" d="M263.955,213.884H95.131L56.217,75.618c-0.012-0.05-0.056-0.077-0.072-0.127
		c0.305-0.698,0.415-1.263,0.166-1.496L21.33,42.162c-0.582-0.532-2.631,0.765-4.565,2.887c-1.934,2.133-3.02,4.282-2.438,4.803
		l32.039,29.163L86.139,220.35c0.377,1.335,1.451,2.271,2.787,2.747c0.886,0.704,1.961,1.191,3.186,1.191h32.382
		c-4.704,0.033-8.51,3.845-8.51,8.565c0,4.731,3.834,8.564,8.565,8.564c4.736,0,8.57-3.833,8.57-8.564
		c0-4.721-3.806-8.532-8.516-8.565h107.679c-4.704,0.033-8.51,3.845-8.51,8.565c0,4.731,3.834,8.564,8.565,8.564
		c4.736,0,8.57-3.833,8.57-8.564c0-4.721-3.807-8.532-8.516-8.565h31.563c2.875,0,5.202-2.327,5.202-5.202
		S266.83,213.884,263.955,213.884z"/>
	<path fill="#999899" d="M80.881,94.045h176.011l-16.997,96.443H110.188c-3.063,0-5.551,2.487-5.551,5.557
		c0,3.063,2.487,5.551,5.551,5.551h131.883c0.454,0.194,0.897,0.41,1.418,0.504c2.87,0.499,5.49-0.958,6.128-3.263
		c0.498-0.831,0.864-1.751,0.864-2.792c0-0.267-0.116-0.499-0.149-0.754l18.897-107.224c0.393-2.194-1.202-4.277-3.596-5.142
		c-0.017-0.005-0.033-0.011-0.045-0.017c-0.343-0.122-0.647-0.293-1.019-0.359c-0.277-0.051-0.532,0.005-0.804-0.006
		c-0.145-0.012-0.261-0.083-0.404-0.083H80.881c-3.196,0-5.789,2.593-5.789,5.795C75.092,91.452,77.685,94.045,80.881,94.045z"/>
</g>
<g>
	<path fill="#5D9138" d="M576.726,214.653H407.901L368.987,76.388c-0.012-0.05-0.056-0.077-0.072-0.127
		c0.305-0.698,0.415-1.263,0.166-1.496l-34.98-31.833c-0.582-0.532-2.631,0.765-4.564,2.887c-1.934,2.133-3.02,4.282-2.438,4.803
		l32.038,29.163l39.772,141.334c0.377,1.335,1.451,2.271,2.787,2.747c0.886,0.704,1.961,1.191,3.186,1.191h32.382
		c-4.704,0.033-8.51,3.845-8.51,8.565c0,4.731,3.834,8.564,8.565,8.564c4.736,0,8.57-3.833,8.57-8.564
		c0-4.721-3.806-8.532-8.516-8.565h107.679c-4.704,0.033-8.51,3.845-8.51,8.565c0,4.731,3.834,8.564,8.565,8.564
		c4.736,0,8.57-3.833,8.57-8.564c0-4.721-3.807-8.532-8.516-8.565h31.563c2.875,0,5.202-2.327,5.202-5.202
		S579.601,214.653,576.726,214.653z"/>
	<path fill="#5D9138" d="M393.651,94.815h176.011l-16.997,96.443H422.959c-3.063,0-5.551,2.487-5.551,5.557
		c0,3.063,2.487,5.551,5.551,5.551h131.883c0.454,0.194,0.897,0.41,1.418,0.504c2.87,0.499,5.49-0.958,6.128-3.263
		c0.498-0.831,0.864-1.751,0.864-2.792c0-0.267-0.116-0.499-0.149-0.754L582,88.837c0.393-2.194-1.202-4.277-3.596-5.142
		c-0.017-0.005-0.033-0.011-0.045-0.017c-0.343-0.122-0.647-0.293-1.019-0.359c-0.277-0.051-0.532,0.005-0.804-0.006
		c-0.145-0.012-0.261-0.083-0.404-0.083H393.651c-3.196,0-5.789,2.593-5.789,5.795C387.862,92.222,390.455,94.815,393.651,94.815z"
		/>
</g>
</svg>
