<?xml version="1.0" encoding="utf-8"?>
<!-- Generator: Adobe Illustrator 16.0.0, SVG Export Plug-In . SVG Version: 6.00 Build 0)  -->
<!DOCTYPE svg PUBLIC "-//W3C//DTD SVG 1.1//EN" "http://www.w3.org/Graphics/SVG/1.1/DTD/svg11.dtd">
<svg version="1.1" id="图层_1" xmlns="http://www.w3.org/2000/svg" xmlns:xlink="http://www.w3.org/1999/xlink" x="0px" y="0px"
	 width="283.46px" height="283.46px" viewBox="0 0 283.46 283.46" enable-background="new 0 0 283.46 283.46" xml:space="preserve">
<g>
	<path fill="#3D639F" d="M269.16,136.706h-8.647c0.044,1.372,0.104,2.74,0.104,4.123c0,66.217-53.677,119.895-119.893,119.895
		c-66.214,0-119.892-53.678-119.892-119.895c0-66.215,53.678-119.892,119.892-119.892c1.383,0,2.752,0.06,4.123,0.104v-6.789
		c-1.039-0.027-2.071-0.079-3.117-0.079c-70.448,0-127.559,57.108-127.559,127.556c0,70.452,57.11,127.559,127.559,127.559
		s127.56-57.106,127.56-127.559C269.289,140.044,269.225,138.376,269.16,136.706z"/>
	<path fill="#3D639F" d="M113.432,74.479v66.765c0,3.972,3.22,7.194,7.191,7.194h46.195c3.973,0,7.194-3.223,7.194-7.194V74.479
		c0-3.973-3.222-7.191-7.194-7.191h-46.195C116.651,67.287,113.432,70.506,113.432,74.479z M166.559,115.82h-43.137l-7.612-15.225
		h55.824L166.559,115.82z M164.44,70.095c3.972,0,7.193,3.222,7.193,7.193v20.666H115.81V77.288c0-3.972,3.221-7.193,7.192-7.193
		H164.44z"/>
	<path fill="#3D639F" d="M82.877,160.917v51.689c0,3.975,3.22,7.196,7.192,7.196h107.409c3.975,0,7.193-3.222,7.193-7.196v-51.689
		c0-3.97-3.219-7.191-7.193-7.191H90.069C86.097,153.726,82.877,156.947,82.877,160.917z M98.048,191.812v-32.986h15.304v32.986
		h60.898v-32.986h15.146v32.986v25.474H174.25h-60.898H98.048V191.812z"/>
</g>
</svg>
