<?xml version="1.0" encoding="utf-8"?>
<!-- Generator: Adobe Illustrator 16.0.0, SVG Export Plug-In . SVG Version: 6.00 Build 0)  -->
<!DOCTYPE svg PUBLIC "-//W3C//DTD SVG 1.1//EN" "http://www.w3.org/Graphics/SVG/1.1/DTD/svg11.dtd">
<svg version="1.1" id="图层_1" xmlns="http://www.w3.org/2000/svg" xmlns:xlink="http://www.w3.org/1999/xlink" x="0px" y="0px"
	 width="283.46px" height="283.46px" viewBox="0 0 283.46 283.46" enable-background="new 0 0 283.46 283.46" xml:space="preserve">
<path fill="none" d="M141.731,28.886c-62.323,0-112.846,50.522-112.846,112.844c0,62.322,50.523,112.845,112.846,112.845
	c62.32,0,112.843-50.522,112.843-112.845C254.574,79.408,204.052,28.886,141.731,28.886z M217.165,191.354
	c-2.027,4.338-5.971,8.897-8.988,11.677c-8.571,7.899-17.182,13.092-27.345,11.797c-15.126-1.892-48.493-19.03-72.095-41.43
	c-23.596-22.394-41.642-54.059-43.652-68.436c-1.291-9.194,5.172-19.724,14.392-27.303c4.218-3.468,7.327-6.224,12.784-8.241
	c2.521-1.078,5.087-1.436,7.979-0.216c0.735,0.33,2.156,1.08,2.156,1.08s5.076,2.338,10.784,9.923
	c2.108,2.804,4.821,6.751,6.686,9.925c3.519,5.987,5.823,11.218,5.823,11.218l0.432,1.295c1.003,2.48,0.496,5.001-1.51,6.903
	c-0.193,0.19-0.432,0.432-0.432,0.432c-0.143,0.096-1.166,0.985-1.294,1.079c-3.194,2.099-2.652,1.528-5.392,3.235
	c-3.025,1.816-5.779,2.404-10.568,4.739c-4.847,2.363-5.45,8.556-4.124,11.513c3.645,8.123,10.06,16.662,21.795,27.798
	c10.125,9.615,19.986,15.61,27.66,19.953c6.044,3.421,12.111-0.706,14.452-4.878c1.724-3.075,3.155-6.203,4.376-8.421
	c2.849-5.078,4.249-6.617,3.969-6.099c0.658-1.148,2.076-2.411,3.688-2.967c1.781-0.614,4.31-0.531,5.822,0.217l3.45,1.725
	c-0.205-0.132,3.066,1.864,7.765,4.963c3.867,2.551,8.827,6.327,12.798,9.61c4.831,3.995,6.675,6.148,6.675,6.148
	s1.961,2.285,1.631,1.974l0.617,0.896C219.42,184.193,218.306,188.915,217.165,191.354z"/>
<g>
	<path fill="none" d="M141.731,20.386c-67.017,0-121.346,54.328-121.346,121.344c0,67.017,54.329,121.345,121.346,121.345
		c67.015,0,121.343-54.328,121.343-121.345C263.074,74.714,208.746,20.386,141.731,20.386z M217.165,191.354
		c-2.027,4.338-5.971,8.897-8.988,11.677c-8.571,7.899-17.182,13.092-27.345,11.797c-15.126-1.892-48.493-19.03-72.095-41.43
		c-23.596-22.394-41.642-54.059-43.652-68.436c-1.291-9.194,5.172-19.724,14.392-27.303c4.218-3.468,7.327-6.224,12.784-8.241
		c2.521-1.078,5.087-1.436,7.979-0.216c0.735,0.33,2.156,1.08,2.156,1.08s5.076,2.338,10.784,9.923
		c2.108,2.804,4.821,6.751,6.686,9.925c3.519,5.987,5.823,11.218,5.823,11.218l0.432,1.295c1.003,2.48,0.496,5.001-1.51,6.903
		c-0.193,0.19-0.432,0.432-0.432,0.432c-0.143,0.096-1.166,0.985-1.294,1.079c-3.194,2.099-2.652,1.528-5.392,3.235
		c-3.025,1.816-5.779,2.404-10.568,4.739c-4.847,2.363-5.45,8.556-4.124,11.513c3.645,8.123,10.06,16.662,21.795,27.798
		c10.125,9.615,19.986,15.61,27.66,19.953c6.044,3.421,12.111-0.706,14.452-4.878c1.724-3.075,3.155-6.203,4.376-8.421
		c2.849-5.078,4.249-6.617,3.969-6.099c0.658-1.148,2.076-2.411,3.688-2.967c1.781-0.614,4.31-0.531,5.822,0.217l3.45,1.725
		c-0.205-0.132,3.066,1.864,7.765,4.963c3.867,2.551,8.827,6.327,12.798,9.61c4.831,3.995,6.675,6.148,6.675,6.148
		s1.961,2.285,1.631,1.974l0.617,0.896C219.42,184.193,218.306,188.915,217.165,191.354z"/>
	<path fill="#272635" d="M216.882,180.566c0.33,0.312-1.631-1.974-1.631-1.974s-1.844-2.153-6.675-6.148
		c-3.971-3.283-8.931-7.06-12.798-9.61c-4.698-3.099-7.97-5.095-7.765-4.963l-3.45-1.725c-1.513-0.748-4.041-0.831-5.822-0.217
		c-1.612,0.556-3.03,1.818-3.688,2.967c0.28-0.519-1.12,1.021-3.969,6.099c-1.221,2.218-2.652,5.346-4.376,8.421
		c-2.341,4.172-8.408,8.299-14.452,4.878c-7.674-4.343-17.535-10.338-27.66-19.953c-11.735-11.136-18.15-19.675-21.795-27.798
		c-1.327-2.957-0.723-9.15,4.124-11.513c4.79-2.334,7.543-2.923,10.568-4.739c2.739-1.707,2.197-1.137,5.392-3.235
		c0.128-0.094,1.151-0.983,1.294-1.079c0,0,0.238-0.242,0.432-0.432c2.006-1.901,2.513-4.423,1.51-6.903l-0.432-1.295
		c0,0-2.304-5.231-5.823-11.218c-1.865-3.174-4.577-7.121-6.686-9.925c-5.708-7.585-10.784-9.923-10.784-9.923
		s-1.421-0.75-2.156-1.08c-2.893-1.219-5.459-0.862-7.979,0.216c-5.458,2.017-8.566,4.773-12.784,8.241
		c-9.22,7.579-15.683,18.108-14.392,27.303c2.01,14.377,20.056,46.042,43.652,68.436c23.603,22.399,56.969,39.538,72.095,41.43
		c10.163,1.295,18.773-3.897,27.345-11.797c3.018-2.779,6.961-7.339,8.988-11.677c1.141-2.438,2.255-7.16,0.334-9.891
		L216.882,180.566z"/>
	<path fill="#272635" d="M141.73,14.171c-70.449,0-127.56,57.11-127.56,127.559c0,70.45,57.11,127.56,127.56,127.56
		s127.559-57.109,127.559-127.56C269.289,71.281,212.18,14.171,141.73,14.171z M141.731,263.074
		c-67.017,0-121.346-54.328-121.346-121.345c0-67.016,54.329-121.344,121.346-121.344c67.015,0,121.343,54.328,121.343,121.344
		C263.074,208.746,208.746,263.074,141.731,263.074z"/>
</g>
</svg>
