<?xml version="1.0" encoding="utf-8"?>
<!-- Generator: Adobe Illustrator 16.0.0, SVG Export Plug-In . SVG Version: 6.00 Build 0)  -->
<!DOCTYPE svg PUBLIC "-//W3C//DTD SVG 1.1//EN" "http://www.w3.org/Graphics/SVG/1.1/DTD/svg11.dtd">
<svg version="1.1" id="图层_1" xmlns="http://www.w3.org/2000/svg" xmlns:xlink="http://www.w3.org/1999/xlink" x="0px" y="0px"
	 width="283.46px" height="283.46px" viewBox="0 0 283.46 283.46" enable-background="new 0 0 283.46 283.46" xml:space="preserve">
<g>
	<path fill="#C6465E" d="M269.16,136.707h-8.646c0.043,1.371,0.104,2.74,0.104,4.123c0,66.216-53.678,119.894-119.893,119.894
		c-66.215,0-119.893-53.678-119.893-119.894c0-66.214,53.678-119.893,119.893-119.893c1.383,0,2.752,0.058,4.124,0.104V14.25
		c-1.039-0.025-2.072-0.079-3.118-0.079c-70.449,0-127.56,57.111-127.56,127.559c0,70.451,57.11,127.56,127.56,127.56
		c70.448,0,127.559-57.108,127.559-127.56C269.289,140.045,269.225,138.376,269.16,136.707z"/>
	<polygon fill="#C6465E" points="85.528,68.457 66.913,87.074 93.601,113.762 97.711,109.65 120.214,132.152 130.755,121.611 
		108.253,99.109 112.216,95.146 	"/>
	<path fill="#C6465E" d="M156.689,146.74l-15.465,15.465c-2.809,2.81-2.809,7.364,0,10.172l36.778,36.777
		c2.811,2.808,7.365,2.808,10.172,0l19.732-19.731c2.811-2.81,2.811-7.364,0-10.172l-32.426-32.424
		C171.545,146.515,160.299,146.49,156.689,146.74z M185.258,196.896c-1.818,1.813-4.764,1.813-6.582,0l-23.396-23.402
		c-1.818-1.813-1.818-4.762,0-6.576c1.816-1.818,4.764-1.818,6.576,0l23.402,23.396
		C187.072,192.134,187.074,195.077,185.258,196.896z M196.021,186.13c-1.816,1.816-4.762,1.816-6.578,0l-23.4-23.399
		c-1.816-1.816-1.816-4.763,0-6.579c1.82-1.816,4.764-1.816,6.58,0l23.398,23.399C197.838,181.367,197.84,184.313,196.021,186.13z"
		/>
	<path fill="#C6465E" d="M138.193,124.03l-0.068-0.067l-12.451,13.349l-27.166,30.923l0.028,0.026
		c-7.723-3.604-17.191-2.244-23.568,4.131c-8.145,8.146-8.145,21.348,0.001,29.495c8.144,8.143,21.349,8.143,29.492,0
		c6.377-6.378,7.736-15.849,4.13-23.57l0.033,0.035l44.619-39.662l-0.021-0.024c13.588,7.02,30.699,4.842,42.092-6.552
		c8.752-8.753,12.061-20.88,9.947-32.193l-24.49,24.608l-23.473-3.591l-4.299-26.576l25.111-22.871
		c-11.777-2.783-24.674,0.376-33.859,9.563C132.605,92.698,130.605,110.307,138.193,124.03z M97.9,195.66
		c-4.542,4.542-11.905,4.542-16.447,0.002c-4.542-4.544-4.541-11.906,0.001-16.448c4.541-4.54,11.903-4.54,16.445,0
		C102.441,183.758,102.441,191.118,97.9,195.66z"/>
</g>
</svg>
