<?xml version="1.0" encoding="utf-8"?>
<!-- Generator: Adobe Illustrator 16.0.0, SVG Export Plug-In . SVG Version: 6.00 Build 0)  -->
<!DOCTYPE svg PUBLIC "-//W3C//DTD SVG 1.1//EN" "http://www.w3.org/Graphics/SVG/1.1/DTD/svg11.dtd">
<svg version="1.1" id="图层_1" xmlns="http://www.w3.org/2000/svg" xmlns:xlink="http://www.w3.org/1999/xlink" x="0px" y="0px"
	 width="283.46px" height="283.46px" viewBox="0 0 283.46 283.46" enable-background="new 0 0 283.46 283.46" xml:space="preserve">
<g>
	<path fill="#999899" d="M210.343,14.171H73.114c-8.875,0-16.069,7.197-16.069,16.072v222.974c0,8.875,7.194,16.072,16.069,16.072
		h137.229c8.875,0,16.072-7.197,16.072-16.072V30.243C226.415,21.368,219.218,14.171,210.343,14.171z M215.076,242.232
		c0,8.875-7.197,16.072-16.072,16.072H83.744c-8.875,0-16.069-7.197-16.069-16.072V41.582c0-8.875,7.194-16.073,16.069-16.073
		h115.26c8.875,0,16.072,7.198,16.072,16.073V242.232z"/>
	<path fill="#999899" d="M85.037,65.549h73.347c3.134,0,5.669-2.536,5.669-5.669c0-3.134-2.535-5.67-5.669-5.67H85.037
		c-3.131,0-5.669,2.536-5.669,5.67C79.368,63.013,81.906,65.549,85.037,65.549z"/>
	<path fill="#999899" d="M198.423,93.541H85.037c-3.131,0-5.669,2.535-5.669,5.669s2.538,5.67,5.669,5.67h113.386
		c3.134,0,5.669-2.536,5.669-5.67S201.557,93.541,198.423,93.541z"/>
	<path fill="#999899" d="M198.423,133.226H85.037c-3.134,0-5.669,2.536-5.669,5.67s2.535,5.669,5.669,5.669h113.386
		c3.134,0,5.669-2.535,5.669-5.669S201.557,133.226,198.423,133.226z"/>
	<path fill="#999899" d="M198.423,172.911H85.037c-3.134,0-5.669,2.535-5.669,5.669s2.535,5.67,5.669,5.67h113.386
		c3.134,0,5.669-2.536,5.669-5.67S201.557,172.911,198.423,172.911z"/>
	<path fill="#999899" d="M198.423,212.596H85.037c-3.134,0-5.669,2.536-5.669,5.67s2.535,5.669,5.669,5.669h113.386
		c3.134,0,5.669-2.535,5.669-5.669S201.557,212.596,198.423,212.596z"/>
</g>
<g>
	<path fill="#639D38" d="M515.113,15.941H377.885c-8.875,0-16.07,7.197-16.07,16.072v222.973c0,8.875,7.195,16.072,16.07,16.072
		h137.229c8.875,0,16.072-7.197,16.072-16.072V32.013C531.186,23.138,523.988,15.941,515.113,15.941z M519.846,244.002
		c0,8.875-7.197,16.072-16.072,16.072h-115.26c-8.875,0-16.068-7.197-16.068-16.072V43.352c0-8.875,7.193-16.073,16.068-16.073
		h115.26c8.875,0,16.072,7.198,16.072,16.073V244.002z"/>
	<path fill="#639D38" d="M389.807,67.319h73.348c3.133,0,5.668-2.536,5.668-5.669c0-3.134-2.535-5.67-5.668-5.67h-73.348
		c-3.131,0-5.668,2.536-5.668,5.67C384.139,64.783,386.676,67.319,389.807,67.319z"/>
	<path fill="#639D38" d="M503.193,95.311H389.807c-3.131,0-5.668,2.535-5.668,5.669s2.537,5.67,5.668,5.67h113.387
		c3.133,0,5.668-2.536,5.668-5.67S506.326,95.311,503.193,95.311z"/>
	<path fill="#639D38" d="M503.193,134.996H389.807c-3.133,0-5.668,2.536-5.668,5.67c0,3.133,2.535,5.668,5.668,5.668h113.387
		c3.133,0,5.668-2.535,5.668-5.668C508.861,137.532,506.326,134.996,503.193,134.996z"/>
	<path fill="#639D38" d="M503.193,174.682H389.807c-3.133,0-5.668,2.535-5.668,5.668c0,3.135,2.535,5.67,5.668,5.67h113.387
		c3.133,0,5.668-2.535,5.668-5.67C508.861,177.217,506.326,174.682,503.193,174.682z"/>
	<path fill="#639D38" d="M503.193,214.365H389.807c-3.133,0-5.668,2.537-5.668,5.67c0,3.135,2.535,5.67,5.668,5.67h113.387
		c3.133,0,5.668-2.535,5.668-5.67C508.861,216.902,506.326,214.365,503.193,214.365z"/>
</g>
</svg>
