<?xml version="1.0" encoding="utf-8"?>
<!-- Generator: Adobe Illustrator 16.0.0, SVG Export Plug-In . SVG Version: 6.00 Build 0)  -->
<!DOCTYPE svg PUBLIC "-//W3C//DTD SVG 1.1//EN" "http://www.w3.org/Graphics/SVG/1.1/DTD/svg11.dtd">
<svg version="1.1" id="图层_1" xmlns="http://www.w3.org/2000/svg" xmlns:xlink="http://www.w3.org/1999/xlink" x="0px" y="0px"
	 width="283.46px" height="283.46px" viewBox="0 0 283.46 283.46" enable-background="new 0 0 283.46 283.46" xml:space="preserve">
<g>
	<path fill="#3B529B" d="M269.16,136.706h-8.647c0.044,1.372,0.104,2.74,0.104,4.124c0,66.215-53.677,119.892-119.893,119.892
		c-66.215,0-119.892-53.677-119.892-119.892c0-66.214,53.677-119.893,119.892-119.893c1.383,0,2.751,0.059,4.124,0.104v-6.791
		c-1.042-0.026-2.072-0.079-3.118-0.079c-70.447,0-127.559,57.109-127.559,127.558c0,70.45,57.111,127.559,127.559,127.559
		c70.448,0,127.56-57.108,127.56-127.559C269.289,140.044,269.224,138.375,269.16,136.706z"/>
	<polygon fill="#3B529B" points="139.526,93.846 134.145,88.463 66.934,155.675 106.258,194.997 111.641,189.612 77.7,155.672 	"/>
	<polygon fill="#3B529B" points="120.612,194.997 125.995,189.615 92.055,155.675 153.879,93.848 148.497,88.463 81.288,155.672 	
		"/>
	<polygon fill="#3B529B" points="134.965,194.997 140.35,189.612 106.406,155.675 168.233,93.848 162.85,88.463 95.643,155.675 	"/>
	
		<rect x="115.739" y="113.924" transform="matrix(-0.7071 0.7071 -0.7071 -0.7071 378.9251 126.5041)" fill="#3B529B" width="95.048" height="55.612"/>
</g>
</svg>
