<?xml version="1.0" encoding="utf-8"?>
<!-- Generator: Adobe Illustrator 16.0.0, SVG Export Plug-In . SVG Version: 6.00 Build 0)  -->
<!DOCTYPE svg PUBLIC "-//W3C//DTD SVG 1.1//EN" "http://www.w3.org/Graphics/SVG/1.1/DTD/svg11.dtd">
<svg version="1.1" id="图层_1" xmlns="http://www.w3.org/2000/svg" xmlns:xlink="http://www.w3.org/1999/xlink" x="0px" y="0px"
	 width="283.46px" height="283.46px" viewBox="0 0 283.46 283.46" enable-background="new 0 0 283.46 283.46" xml:space="preserve">
<g>
	<path fill="#D2603B" d="M269.16,136.706h-8.648c0.045,1.372,0.104,2.741,0.104,4.124c0,66.215-53.677,119.892-119.893,119.892
		c-66.215,0-119.892-53.677-119.892-119.892S74.509,20.938,140.724,20.938c1.383,0,2.751,0.059,4.124,0.104v-6.791
		c-1.041-0.026-2.072-0.079-3.118-0.079c-70.447,0-127.559,57.109-127.559,127.558c0,70.45,57.111,127.559,127.559,127.559
		c70.448,0,127.56-57.108,127.56-127.559C269.289,140.044,269.225,138.375,269.16,136.706z"/>
	<path fill="#D2603B" d="M125.396,62.223c0,0-2.853-1.321-5.603,3.119v1.088C101.969,74.208,89.5,91.965,89.5,112.654
		c0,0.285,0.037,0.562,0.042,0.845h0.032l12.667,106.411c0,0,45.252,5.288,75.912,0l12.474-106.569c0,0-0.121-0.011-0.297-0.026
		c0.012-0.221,0.032-0.438,0.032-0.66c0-20.562-12.323-38.217-29.971-46.068v-1.244c0,0-10.15-9.093-23.578-3.7
		C136.813,61.642,127.826,63.015,125.396,62.223z M184.757,112.655c0,0.06-0.005,0.119-0.01,0.179
		c-12.046-1.009-38.854-3.077-43.864-1.978c0,0-16.773-0.373-45.768,2.007c-0.003-0.069-0.01-0.137-0.01-0.208
		c0-17.506,10.055-32.63,24.688-40.01v11.832c0,0,3.065,0.847,4.334-4.229c1.269-5.074,5.498-3.17,6.344,0.847
		c0,0,3.808,6.236,6.767-0.529c0,0,3.7-12.052,9.726-0.105c0,0,11.421,11.63,13.429-0.317v-7.343
		C174.85,80.239,184.757,95.275,184.757,112.655z"/>
</g>
</svg>
