<?xml version="1.0" encoding="utf-8"?>
<!-- Generator: Adobe Illustrator 16.0.0, SVG Export Plug-In . SVG Version: 6.00 Build 0)  -->
<!DOCTYPE svg PUBLIC "-//W3C//DTD SVG 1.1//EN" "http://www.w3.org/Graphics/SVG/1.1/DTD/svg11.dtd">
<svg version="1.1" id="图层_1" xmlns="http://www.w3.org/2000/svg" xmlns:xlink="http://www.w3.org/1999/xlink" x="0px" y="0px"
	 width="283.46px" height="283.46px" viewBox="0 0 283.46 283.46" enable-background="new 0 0 283.46 283.46" xml:space="preserve">
<g>
	<polygon fill="#8E438E" points="66.453,81.412 66.453,86.381 66.453,187.68 71.741,187.68 71.741,86.381 208.758,86.381 
		208.758,187.891 213.781,187.891 213.781,86.381 213.781,81.24 208.758,81.24 66.453,81.24 	"/>
	<path fill="#8E438E" d="M269.16,136.706h-8.648c0.045,1.372,0.104,2.741,0.104,4.124c0,66.215-53.677,119.892-119.893,119.892
		c-66.215,0-119.892-53.677-119.892-119.892S74.509,20.938,140.724,20.938c1.383,0,2.751,0.059,4.124,0.104v-6.791
		c-1.041-0.026-2.072-0.079-3.118-0.079c-70.447,0-127.559,57.109-127.559,127.558c0,70.45,57.111,127.559,127.559,127.559
		c70.448,0,127.56-57.108,127.56-127.559C269.289,140.044,269.225,138.375,269.16,136.706z"/>
	<path fill="#8E438E" d="M203.668,113.572l-17.145,0.092l-9.302-15.229h-74.405l-8.779,15.046l-17.304,0.104v8.615l13.099,0.139
		l-8.539,11.659l-0.184,8.002h-4.376v45.892h21.888v-6.497l83.093-0.364v6.826h21.954v-45.89h-4.378v-7.603l-8.65-12.06
		l12.959-0.069L203.668,113.572z M105.186,102.537h69.942l8.752,15.23H96.342L105.186,102.537z M90.05,161.538l-4.376-10.578
		l28.355,6.472v4.106H90.05z M177.404,174.896h-74.409l-2.324-8.755h0.547h78.378L177.404,174.896z M194.73,150.96l-4.468,10.578
		h-23.798v-4.287L194.73,150.96z"/>
</g>
</svg>
