<?xml version="1.0" encoding="utf-8"?>
<!-- Generator: Adobe Illustrator 16.0.0, SVG Export Plug-In . SVG Version: 6.00 Build 0)  -->
<!DOCTYPE svg PUBLIC "-//W3C//DTD SVG 1.1//EN" "http://www.w3.org/Graphics/SVG/1.1/DTD/svg11.dtd">
<svg version="1.1" id="图层_1" xmlns="http://www.w3.org/2000/svg" xmlns:xlink="http://www.w3.org/1999/xlink" x="0px" y="0px"
	 width="283.465px" height="283.465px" viewBox="0 0 283.465 283.465" enable-background="new 0 0 283.465 283.465"
	 xml:space="preserve">
<g>
	<g>
		<path fill-rule="evenodd" clip-rule="evenodd" fill="#666666" d="M104.884-214.928c5.285,0,9.566-4.285,9.566-9.566
			c0-5.282-4.281-9.567-9.566-9.567s-9.567,4.285-9.567,9.567C95.316-219.213,99.599-214.928,104.884-214.928z M139.962-310.597
			c-70.45,0-127.559,57.108-127.559,127.559s57.108,127.56,127.559,127.56s127.56-57.109,127.56-127.56
			S210.412-310.597,139.962-310.597z M139.962-68.234c-63.402,0-114.803-51.397-114.803-114.804
			c0-63.405,51.4-114.803,114.803-114.803c63.406,0,114.804,51.397,114.804,114.803C254.766-119.632,203.368-68.234,139.962-68.234z
			 M216.498-183.038c0,42.267-34.27,76.536-76.536,76.536c-42.27,0-76.535-34.27-76.535-76.536H50.671
			c0,49.312,39.978,89.292,89.291,89.292c49.317,0,89.292-39.98,89.292-89.292H216.498z M175.041-214.928
			c5.282,0,9.567-4.285,9.567-9.566c0-5.282-4.285-9.567-9.567-9.567c-5.281,0-9.566,4.285-9.566,9.567
			C165.475-219.213,169.76-214.928,175.041-214.928z"/>
	</g>
</g>
<g>
	<g>
		<path fill-rule="evenodd" clip-rule="evenodd" fill="#FFFFFF" d="M534.768-183.768c0,42.266-34.27,76.536-76.535,76.536
			c-42.27,0-76.535-34.27-76.535-76.536h-12.756c0,49.311,39.977,89.292,89.291,89.292c49.316,0,89.291-39.98,89.291-89.292H534.768
			z M423.154-215.658c5.285,0,9.566-4.285,9.566-9.566c0-5.282-4.281-9.567-9.566-9.567s-9.568,4.285-9.568,9.567
			C413.586-219.943,417.869-215.658,423.154-215.658z M458.232-311.327c-70.451,0-127.559,57.108-127.559,127.559
			c0,70.45,57.107,127.559,127.559,127.559c70.449,0,127.559-57.109,127.559-127.559
			C585.791-254.218,528.682-311.327,458.232-311.327z M458.232-68.965c-63.402,0-114.803-51.396-114.803-114.803
			c0-63.405,51.4-114.803,114.803-114.803c63.406,0,114.803,51.397,114.803,114.803C573.035-120.361,521.639-68.965,458.232-68.965z
			 M493.311-215.658c5.283,0,9.568-4.285,9.568-9.566c0-5.282-4.285-9.567-9.568-9.567c-5.281,0-9.566,4.285-9.566,9.567
			C483.744-219.943,488.029-215.658,493.311-215.658z"/>
	</g>
</g>
<g>
	<g>
		<path fill-rule="evenodd" clip-rule="evenodd" fill="#666666" d="M97.086,192.756h89.292v-6.377H97.086V192.756z M116.22,97.086
			H77.953v6.379h38.268V97.086z M141.732,14.174c-70.451,0-127.559,57.107-127.559,127.559s57.108,127.559,127.559,127.559
			c70.449,0,127.559-57.107,127.559-127.559S212.182,14.174,141.732,14.174z M141.732,256.535
			c-63.406,0-114.803-51.396-114.803-114.803S78.327,26.93,141.732,26.93c63.406,0,114.803,51.396,114.803,114.803
			S205.139,256.535,141.732,256.535z M167.244,103.465h38.268v-6.379h-38.268V103.465z"/>
	</g>
</g>
<g>
	<g>
		<path fill-rule="evenodd" clip-rule="evenodd" fill="#FFFFFF" d="M419.586,190.256h89.293v-6.377h-89.293V190.256z
			 M438.721,94.586h-38.268v6.379h38.268V94.586z M464.232,11.674c-70.451,0-127.559,57.107-127.559,127.559
			s57.107,127.559,127.559,127.559c70.449,0,127.559-57.107,127.559-127.559S534.682,11.674,464.232,11.674z M464.232,254.035
			c-63.406,0-114.803-51.396-114.803-114.803S400.826,24.43,464.232,24.43s114.803,51.396,114.803,114.803
			S527.639,254.035,464.232,254.035z M489.744,100.965h38.268v-6.379h-38.268V100.965z"/>
	</g>
</g>
<g>
	<g>
		<path fill-rule="evenodd" clip-rule="evenodd" fill="#666666" d="M90.208,440.721h6.378v-12.756h12.756v-6.379H96.586V408.83
			h-6.378v12.756H77.453v6.379h12.756V440.721z M141.232,338.674c-70.45,0-127.559,57.107-127.559,127.559
			s57.108,127.559,127.559,127.559c70.452,0,127.559-57.107,127.559-127.559S211.684,338.674,141.232,338.674z M141.232,581.035
			c-63.405,0-114.803-51.396-114.803-114.803S77.827,351.43,141.232,351.43c63.407,0,114.803,51.396,114.803,114.803
			S204.639,581.035,141.232,581.035z M192.256,408.83h-6.377v12.756h-12.756v6.379h12.756v12.756h6.377v-12.756h12.756v-6.379
			h-12.756V408.83z M141.232,472.611c-35.222,0-63.779,28.557-63.779,63.779h12.756c0-28.178,22.847-51.023,51.023-51.023
			c28.178,0,51.024,22.846,51.024,51.023h12.756C205.012,501.168,176.455,472.611,141.232,472.611z"/>
	</g>
</g>
<g>
	<g>
		<path fill-rule="evenodd" clip-rule="evenodd" fill="#FFFFFF" d="M412.709,440.221h6.377v-12.756h12.756v-6.379h-12.756V408.33
			h-6.377v12.756h-12.756v6.379h12.756V440.221z M463.732,338.174c-70.451,0-127.559,57.107-127.559,127.559
			s57.107,127.559,127.559,127.559s127.559-57.107,127.559-127.559S534.184,338.174,463.732,338.174z M463.732,580.535
			c-63.406,0-114.803-51.396-114.803-114.803S400.326,350.93,463.732,350.93s114.803,51.396,114.803,114.803
			S527.139,580.535,463.732,580.535z M514.756,408.33h-6.377v12.756h-12.756v6.379h12.756v12.756h6.377v-12.756h12.756v-6.379
			h-12.756V408.33z M463.732,472.111c-35.223,0-63.779,28.557-63.779,63.779h12.756c0-28.178,22.846-51.023,51.023-51.023
			s51.023,22.846,51.023,51.023h12.756C527.512,500.668,498.955,472.111,463.732,472.111z"/>
	</g>
</g>
</svg>
