<?xml version="1.0" encoding="utf-8"?>
<!-- Generator: Adobe Illustrator 16.0.0, SVG Export Plug-In . SVG Version: 6.00 Build 0)  -->
<!DOCTYPE svg PUBLIC "-//W3C//DTD SVG 1.1//EN" "http://www.w3.org/Graphics/SVG/1.1/DTD/svg11.dtd">
<svg version="1.1" id="图层_1" xmlns="http://www.w3.org/2000/svg" xmlns:xlink="http://www.w3.org/1999/xlink" x="0px" y="0px"
	 width="283.465px" height="283.465px" viewBox="0 0 283.465 283.465" enable-background="new 0 0 283.465 283.465"
	 xml:space="preserve">
<g>
	<g>
		<path fill-rule="evenodd" clip-rule="evenodd" fill="#666666" d="M-211.616,110.572c5.285,0,9.566-4.285,9.566-9.566
			c0-5.282-4.281-9.567-9.566-9.567s-9.567,4.285-9.567,9.567C-221.184,106.287-216.901,110.572-211.616,110.572z M-176.538,14.903
			c-70.45,0-127.559,57.108-127.559,127.559s57.108,127.56,127.559,127.56s127.56-57.109,127.56-127.56
			S-106.088,14.903-176.538,14.903z M-176.538,257.266c-63.402,0-114.803-51.397-114.803-114.804
			c0-63.405,51.4-114.803,114.803-114.803c63.406,0,114.804,51.397,114.804,114.803
			C-61.734,205.868-113.132,257.266-176.538,257.266z M-100.002,142.462c0,42.267-34.27,76.536-76.536,76.536
			c-42.27,0-76.535-34.27-76.535-76.536h-12.756c0,49.312,39.978,89.292,89.291,89.292c49.317,0,89.292-39.98,89.292-89.292
			H-100.002z M-141.459,110.572c5.282,0,9.567-4.285,9.567-9.566c0-5.282-4.285-9.567-9.567-9.567c-5.281,0-9.566,4.285-9.566,9.567
			C-151.025,106.287-146.74,110.572-141.459,110.572z"/>
	</g>
</g>
<g>
	<g>
		<path fill-rule="evenodd" clip-rule="evenodd" fill="#FFFFFF" d="M218.268,141.732c0,42.266-34.27,76.536-76.535,76.536
			c-42.27,0-76.535-34.27-76.535-76.536H52.441c0,49.311,39.977,89.292,89.291,89.292c49.316,0,89.291-39.98,89.291-89.292H218.268z
			 M106.654,109.842c5.285,0,9.566-4.285,9.566-9.566c0-5.282-4.281-9.567-9.566-9.567s-9.568,4.285-9.568,9.567
			C97.086,105.557,101.369,109.842,106.654,109.842z M141.732,14.173c-70.451,0-127.559,57.108-127.559,127.559
			c0,70.45,57.107,127.559,127.559,127.559c70.449,0,127.559-57.109,127.559-127.559C269.291,71.282,212.182,14.173,141.732,14.173z
			 M141.732,256.535c-63.402,0-114.803-51.396-114.803-114.803c0-63.405,51.4-114.803,114.803-114.803
			c63.406,0,114.803,51.397,114.803,114.803C256.535,205.139,205.139,256.535,141.732,256.535z M176.811,109.842
			c5.283,0,9.568-4.285,9.568-9.566c0-5.282-4.285-9.567-9.568-9.567c-5.281,0-9.566,4.285-9.566,9.567
			C167.244,105.557,171.529,109.842,176.811,109.842z"/>
	</g>
</g>
<g>
	<g>
		<path fill-rule="evenodd" clip-rule="evenodd" fill="#666666" d="M-219.414,518.256h89.292v-6.377h-89.292V518.256z
			 M-200.28,422.586h-38.268v6.379h38.268V422.586z M-174.768,339.674c-70.451,0-127.559,57.107-127.559,127.559
			s57.108,127.559,127.559,127.559c70.449,0,127.559-57.107,127.559-127.559S-104.318,339.674-174.768,339.674z M-174.768,582.035
			c-63.406,0-114.803-51.396-114.803-114.803s51.397-114.803,114.803-114.803c63.406,0,114.803,51.396,114.803,114.803
			S-111.361,582.035-174.768,582.035z M-149.256,428.965h38.268v-6.379h-38.268V428.965z"/>
	</g>
</g>
<g>
	<g>
		<path fill-rule="evenodd" clip-rule="evenodd" fill="#FFFFFF" d="M103.086,515.756h89.293v-6.377h-89.293V515.756z
			 M122.221,420.086H83.953v6.379h38.268V420.086z M147.732,337.174c-70.451,0-127.559,57.107-127.559,127.559
			s57.107,127.559,127.559,127.559c70.449,0,127.559-57.107,127.559-127.559S218.182,337.174,147.732,337.174z M147.732,579.535
			c-63.406,0-114.803-51.396-114.803-114.803S84.326,349.93,147.732,349.93s114.803,51.396,114.803,114.803
			S211.139,579.535,147.732,579.535z M173.244,426.465h38.268v-6.379h-38.268V426.465z"/>
	</g>
</g>
<g>
	<g>
		<path fill-rule="evenodd" clip-rule="evenodd" fill="#666666" d="M-226.292,766.221h6.378v-12.756h12.756v-6.379h-12.756V734.33
			h-6.378v12.756h-12.756v6.379h12.756V766.221z M-175.268,664.174c-70.45,0-127.559,57.107-127.559,127.559
			s57.108,127.559,127.559,127.559c70.452,0,127.559-57.107,127.559-127.559S-104.816,664.174-175.268,664.174z M-175.268,906.535
			c-63.405,0-114.803-51.396-114.803-114.803s51.397-114.803,114.803-114.803c63.407,0,114.803,51.396,114.803,114.803
			S-111.861,906.535-175.268,906.535z M-124.244,734.33h-6.377v12.756h-12.756v6.379h12.756v12.756h6.377v-12.756h12.756v-6.379
			h-12.756V734.33z M-175.268,798.111c-35.222,0-63.779,28.557-63.779,63.779h12.756c0-28.178,22.847-51.023,51.023-51.023
			c28.178,0,51.024,22.846,51.024,51.023h12.756C-111.488,826.668-140.045,798.111-175.268,798.111z"/>
	</g>
</g>
<g>
	<g>
		<path fill-rule="evenodd" clip-rule="evenodd" fill="#FFFFFF" d="M96.209,765.721h6.377v-12.756h12.756v-6.379h-12.756V733.83
			h-6.377v12.756H83.453v6.379h12.756V765.721z M147.232,663.674c-70.451,0-127.559,57.107-127.559,127.559
			s57.107,127.559,127.559,127.559s127.559-57.107,127.559-127.559S217.684,663.674,147.232,663.674z M147.232,906.035
			c-63.406,0-114.803-51.396-114.803-114.803S83.826,676.43,147.232,676.43s114.803,51.396,114.803,114.803
			S210.639,906.035,147.232,906.035z M198.256,733.83h-6.377v12.756h-12.756v6.379h12.756v12.756h6.377v-12.756h12.756v-6.379
			h-12.756V733.83z M147.232,797.611c-35.223,0-63.779,28.557-63.779,63.779h12.756c0-28.178,22.846-51.023,51.023-51.023
			s51.023,22.846,51.023,51.023h12.756C211.012,826.168,182.455,797.611,147.232,797.611z"/>
	</g>
</g>
</svg>
