<?xml version="1.0" encoding="utf-8"?>
<!-- Generator: Adobe Illustrator 16.0.0, SVG Export Plug-In . SVG Version: 6.00 Build 0)  -->
<!DOCTYPE svg PUBLIC "-//W3C//DTD SVG 1.1//EN" "http://www.w3.org/Graphics/SVG/1.1/DTD/svg11.dtd">
<svg version="1.1" id="图层_1" xmlns="http://www.w3.org/2000/svg" xmlns:xlink="http://www.w3.org/1999/xlink" x="0px" y="0px"
	 width="283.465px" height="283.465px" viewBox="0 0 283.465 283.465" enable-background="new 0 0 283.465 283.465"
	 xml:space="preserve">
<g>
	<g>
		<path fill-rule="evenodd" clip-rule="evenodd" fill="#666666" d="M-217.616-212.428c5.285,0,9.566-4.285,9.566-9.566
			c0-5.282-4.281-9.567-9.566-9.567s-9.567,4.285-9.567,9.567C-227.184-216.713-222.901-212.428-217.616-212.428z M-182.538-308.097
			c-70.45,0-127.559,57.108-127.559,127.559s57.108,127.56,127.559,127.56s127.56-57.109,127.56-127.56
			S-112.088-308.097-182.538-308.097z M-182.538-65.734c-63.402,0-114.803-51.397-114.803-114.804
			c0-63.405,51.4-114.803,114.803-114.803c63.406,0,114.804,51.397,114.804,114.803C-67.734-117.132-119.132-65.734-182.538-65.734z
			 M-106.002-180.538c0,42.267-34.27,76.536-76.536,76.536c-42.27,0-76.535-34.27-76.535-76.536h-12.756
			c0,49.312,39.978,89.292,89.291,89.292c49.317,0,89.292-39.98,89.292-89.292H-106.002z M-147.459-212.428
			c5.282,0,9.567-4.285,9.567-9.566c0-5.282-4.285-9.567-9.567-9.567c-5.281,0-9.566,4.285-9.566,9.567
			C-157.025-216.713-152.74-212.428-147.459-212.428z"/>
	</g>
</g>
<g>
	<g>
		<path fill-rule="evenodd" clip-rule="evenodd" fill="#FFFFFF" d="M212.268-181.268c0,42.266-34.27,76.536-76.535,76.536
			c-42.27,0-76.535-34.27-76.535-76.536H46.441c0,49.311,39.977,89.292,89.291,89.292c49.316,0,89.291-39.98,89.291-89.292H212.268z
			 M100.654-213.158c5.285,0,9.566-4.285,9.566-9.566c0-5.282-4.281-9.567-9.566-9.567s-9.568,4.285-9.568,9.567
			C91.086-217.443,95.369-213.158,100.654-213.158z M135.732-308.827c-70.451,0-127.559,57.108-127.559,127.559
			c0,70.45,57.107,127.559,127.559,127.559c70.449,0,127.559-57.109,127.559-127.559
			C263.291-251.718,206.182-308.827,135.732-308.827z M135.732-66.465c-63.402,0-114.803-51.396-114.803-114.803
			c0-63.405,51.4-114.803,114.803-114.803c63.406,0,114.803,51.397,114.803,114.803C250.535-117.861,199.139-66.465,135.732-66.465z
			 M170.811-213.158c5.283,0,9.568-4.285,9.568-9.566c0-5.282-4.285-9.567-9.568-9.567c-5.281,0-9.566,4.285-9.566,9.567
			C161.244-217.443,165.529-213.158,170.811-213.158z"/>
	</g>
</g>
<g>
	<g>
		<path fill-rule="evenodd" clip-rule="evenodd" fill="#666666" d="M-225.414,195.256h89.292v-6.377h-89.292V195.256z
			 M-206.28,99.586h-38.268v6.379h38.268V99.586z M-180.768,16.674c-70.451,0-127.559,57.107-127.559,127.559
			s57.108,127.559,127.559,127.559c70.449,0,127.559-57.107,127.559-127.559S-110.318,16.674-180.768,16.674z M-180.768,259.035
			c-63.406,0-114.803-51.396-114.803-114.803S-244.173,29.43-180.768,29.43c63.406,0,114.803,51.396,114.803,114.803
			S-117.361,259.035-180.768,259.035z M-155.256,105.965h38.268v-6.379h-38.268V105.965z"/>
	</g>
</g>
<g>
	<g>
		<path fill-rule="evenodd" clip-rule="evenodd" fill="#FFFFFF" d="M97.086,192.756h89.293v-6.377H97.086V192.756z M116.221,97.086
			H77.953v6.379h38.268V97.086z M141.732,14.174c-70.451,0-127.559,57.107-127.559,127.559s57.107,127.559,127.559,127.559
			c70.449,0,127.559-57.107,127.559-127.559S212.182,14.174,141.732,14.174z M141.732,256.535
			c-63.406,0-114.803-51.396-114.803-114.803S78.326,26.93,141.732,26.93s114.803,51.396,114.803,114.803
			S205.139,256.535,141.732,256.535z M167.244,103.465h38.268v-6.379h-38.268V103.465z"/>
	</g>
</g>
<g>
	<g>
		<path fill-rule="evenodd" clip-rule="evenodd" fill="#666666" d="M-232.292,443.221h6.378v-12.756h12.756v-6.379h-12.756V411.33
			h-6.378v12.756h-12.756v6.379h12.756V443.221z M-181.268,341.174c-70.45,0-127.559,57.107-127.559,127.559
			s57.108,127.559,127.559,127.559c70.452,0,127.559-57.107,127.559-127.559S-110.816,341.174-181.268,341.174z M-181.268,583.535
			c-63.405,0-114.803-51.396-114.803-114.803s51.397-114.803,114.803-114.803c63.407,0,114.803,51.396,114.803,114.803
			S-117.861,583.535-181.268,583.535z M-130.244,411.33h-6.377v12.756h-12.756v6.379h12.756v12.756h6.377v-12.756h12.756v-6.379
			h-12.756V411.33z M-181.268,475.111c-35.222,0-63.779,28.557-63.779,63.779h12.756c0-28.178,22.847-51.023,51.023-51.023
			c28.178,0,51.024,22.846,51.024,51.023h12.756C-117.488,503.668-146.045,475.111-181.268,475.111z"/>
	</g>
</g>
<g>
	<g>
		<path fill-rule="evenodd" clip-rule="evenodd" fill="#FFFFFF" d="M90.209,442.721h6.377v-12.756h12.756v-6.379H96.586V410.83
			h-6.377v12.756H77.453v6.379h12.756V442.721z M141.232,340.674c-70.451,0-127.559,57.107-127.559,127.559
			s57.107,127.559,127.559,127.559s127.559-57.107,127.559-127.559S211.684,340.674,141.232,340.674z M141.232,583.035
			c-63.406,0-114.803-51.396-114.803-114.803S77.826,353.43,141.232,353.43s114.803,51.396,114.803,114.803
			S204.639,583.035,141.232,583.035z M192.256,410.83h-6.377v12.756h-12.756v6.379h12.756v12.756h6.377v-12.756h12.756v-6.379
			h-12.756V410.83z M141.232,474.611c-35.223,0-63.779,28.557-63.779,63.779h12.756c0-28.178,22.846-51.023,51.023-51.023
			s51.023,22.846,51.023,51.023h12.756C205.012,503.168,176.455,474.611,141.232,474.611z"/>
	</g>
</g>
</svg>
