<?xml version="1.0" encoding="utf-8"?>
<!-- Generator: Adobe Illustrator 16.0.0, SVG Export Plug-In . SVG Version: 6.00 Build 0)  -->
<!DOCTYPE svg PUBLIC "-//W3C//DTD SVG 1.1//EN" "http://www.w3.org/Graphics/SVG/1.1/DTD/svg11.dtd">
<svg version="1.1" id="图层_1" xmlns="http://www.w3.org/2000/svg" xmlns:xlink="http://www.w3.org/1999/xlink" x="0px" y="0px"
	 width="283.46px" height="283.46px" viewBox="0 0 283.46 283.46" enable-background="new 0 0 283.46 283.46" xml:space="preserve">
<g>
	<g>
		<path fill-rule="evenodd" clip-rule="evenodd" fill="#666666" d="M106.651,109.84c5.285,0,9.566-4.285,9.566-9.566
			c0-5.282-4.281-9.567-9.566-9.567s-9.567,4.285-9.567,9.567C97.084,105.555,101.366,109.84,106.651,109.84z M141.729,14.171
			c-70.45,0-127.559,57.108-127.559,127.559s57.108,127.56,127.559,127.56s127.56-57.109,127.56-127.56
			S212.18,14.171,141.729,14.171z M141.729,256.533c-63.402,0-114.803-51.397-114.803-114.804
			c0-63.405,51.4-114.803,114.803-114.803c63.406,0,114.804,51.397,114.804,114.803
			C256.533,205.136,205.136,256.533,141.729,256.533z M218.266,141.729c0,42.267-34.27,76.536-76.536,76.536
			c-42.27,0-76.535-34.27-76.535-76.536H52.438c0,49.312,39.978,89.292,89.291,89.292c49.317,0,89.292-39.98,89.292-89.292H218.266z
			 M176.809,109.84c5.282,0,9.567-4.285,9.567-9.566c0-5.282-4.285-9.567-9.567-9.567c-5.281,0-9.566,4.285-9.566,9.567
			C167.242,105.555,171.527,109.84,176.809,109.84z"/>
	</g>
</g>
<g>
	<g>
		<path fill-rule="evenodd" clip-rule="evenodd" fill="#FFFFFF" d="M536.535,141c0,42.266-34.27,76.536-76.535,76.536
			c-42.27,0-76.535-34.27-76.535-76.536h-12.756c0,49.311,39.977,89.292,89.291,89.292c49.316,0,89.291-39.98,89.291-89.292H536.535
			z M424.922,109.11c5.285,0,9.566-4.285,9.566-9.566c0-5.282-4.281-9.567-9.566-9.567s-9.568,4.285-9.568,9.567
			C415.354,104.825,419.637,109.11,424.922,109.11z M460,13.441c-70.451,0-127.559,57.108-127.559,127.559
			c0,70.45,57.107,127.559,127.559,127.559c70.449,0,127.559-57.109,127.559-127.559C587.559,70.549,530.449,13.441,460,13.441z
			 M460,255.803c-63.402,0-114.803-51.396-114.803-114.803c0-63.405,51.4-114.803,114.803-114.803
			c63.406,0,114.803,51.397,114.803,114.803C574.803,204.406,523.406,255.803,460,255.803z M495.078,109.11
			c5.283,0,9.568-4.285,9.568-9.566c0-5.282-4.285-9.567-9.568-9.567c-5.281,0-9.566,4.285-9.566,9.567
			C485.512,104.825,489.797,109.11,495.078,109.11z"/>
	</g>
</g>
<g>
	<g>
		<path fill-rule="evenodd" clip-rule="evenodd" fill="#666666" d="M98.854,517.523h89.292v-6.377H98.854V517.523z M117.988,421.854
			H79.72v6.379h38.268V421.854z M143.5,338.941c-70.451,0-127.559,57.107-127.559,127.559S73.049,594.059,143.5,594.059
			c70.449,0,127.559-57.107,127.559-127.559S213.949,338.941,143.5,338.941z M143.5,581.303
			c-63.406,0-114.803-51.396-114.803-114.803S80.094,351.697,143.5,351.697c63.406,0,114.803,51.396,114.803,114.803
			S206.906,581.303,143.5,581.303z M169.012,428.232h38.268v-6.379h-38.268V428.232z"/>
	</g>
</g>
<g>
	<g>
		<path fill-rule="evenodd" clip-rule="evenodd" fill="#FFFFFF" d="M421.354,515.023h89.293v-6.377h-89.293V515.023z
			 M440.488,419.354h-38.268v6.379h38.268V419.354z M466,336.441c-70.451,0-127.559,57.107-127.559,127.559
			S395.549,591.559,466,591.559c70.449,0,127.559-57.107,127.559-127.559S536.449,336.441,466,336.441z M466,578.803
			c-63.406,0-114.803-51.396-114.803-114.803S402.594,349.197,466,349.197S580.803,400.594,580.803,464S529.406,578.803,466,578.803
			z M491.512,425.732h38.268v-6.379h-38.268V425.732z"/>
	</g>
</g>
<g>
	<g>
		<path fill-rule="evenodd" clip-rule="evenodd" fill="#666666" d="M91.976,765.488h6.378v-12.756h12.756v-6.379H98.354v-12.756
			h-6.378v12.756H79.22v6.379h12.756V765.488z M143,663.441c-70.45,0-127.559,57.107-127.559,127.559S72.549,918.559,143,918.559
			c70.452,0,127.559-57.107,127.559-127.559S213.451,663.441,143,663.441z M143,905.803c-63.405,0-114.803-51.396-114.803-114.803
			S79.594,676.197,143,676.197c63.407,0,114.803,51.396,114.803,114.803S206.406,905.803,143,905.803z M194.023,733.598h-6.377
			v12.756h-12.756v6.379h12.756v12.756h6.377v-12.756h12.756v-6.379h-12.756V733.598z M143,797.379
			c-35.222,0-63.779,28.557-63.779,63.779h12.756c0-28.178,22.847-51.023,51.023-51.023c28.178,0,51.024,22.846,51.024,51.023
			h12.756C206.779,825.936,178.223,797.379,143,797.379z"/>
	</g>
</g>
<g>
	<g>
		<path fill-rule="evenodd" clip-rule="evenodd" fill="#FFFFFF" d="M414.477,764.988h6.377v-12.756h12.756v-6.379h-12.756v-12.756
			h-6.377v12.756h-12.756v6.379h12.756V764.988z M465.5,662.941c-70.451,0-127.559,57.107-127.559,127.559
			S395.049,918.059,465.5,918.059S593.059,860.951,593.059,790.5S535.951,662.941,465.5,662.941z M465.5,905.303
			c-63.406,0-114.803-51.396-114.803-114.803S402.094,675.697,465.5,675.697S580.303,727.094,580.303,790.5
			S528.906,905.303,465.5,905.303z M516.523,733.098h-6.377v12.756h-12.756v6.379h12.756v12.756h6.377v-12.756h12.756v-6.379
			h-12.756V733.098z M465.5,796.879c-35.223,0-63.779,28.557-63.779,63.779h12.756c0-28.178,22.846-51.023,51.023-51.023
			s51.023,22.846,51.023,51.023h12.756C529.279,825.436,500.723,796.879,465.5,796.879z"/>
	</g>
</g>
</svg>
