<?xml version="1.0" encoding="utf-8"?>
<!-- Generator: Adobe Illustrator 16.0.0, SVG Export Plug-In . SVG Version: 6.00 Build 0)  -->
<!DOCTYPE svg PUBLIC "-//W3C//DTD SVG 1.1//EN" "http://www.w3.org/Graphics/SVG/1.1/DTD/svg11.dtd">
<svg version="1.1" id="图层_1" xmlns="http://www.w3.org/2000/svg" xmlns:xlink="http://www.w3.org/1999/xlink" x="0px" y="0px"
	 width="283.46px" height="283.46px" viewBox="0 0 283.46 283.46" enable-background="new 0 0 283.46 283.46" xml:space="preserve">
<g>
	<path fill="#969696" d="M201.757,14.171H81.702c-10.757,0-19.509,8.752-19.509,19.509V249.78c0,10.758,8.752,19.509,19.509,19.509
		h120.055c10.759,0,19.511-8.751,19.511-19.509V33.68C221.268,22.923,212.516,14.171,201.757,14.171L201.757,14.171z
		 M206.26,206.261H77.201V65.194H206.26V206.261L206.26,206.261z M81.702,29.178h120.056c2.482,0,4.502,2.02,4.502,4.501v16.508
		H77.201V33.68C77.201,31.198,79.22,29.178,81.702,29.178L81.702,29.178z M201.757,254.282H81.702c-2.482,0-4.501-2.02-4.501-4.502
		v-28.514H206.26v28.514C206.26,252.263,204.24,254.282,201.757,254.282L201.757,254.282z M141.73,225.468
		c-7.447,0-13.506,6.061-13.506,13.508s6.059,13.506,13.506,13.506c7.448,0,13.506-6.059,13.506-13.506
		S149.178,225.468,141.73,225.468L141.73,225.468z M141.73,240.476c-0.828,0-1.5-0.673-1.5-1.5c0-0.828,0.673-1.502,1.5-1.502
		s1.5,0.674,1.5,1.502C143.23,239.803,142.558,240.476,141.73,240.476L141.73,240.476z M141.73,240.476"/>
</g>
</svg>
