<?xml version="1.0" encoding="utf-8"?>
<!-- Generator: Adobe Illustrator 16.0.0, SVG Export Plug-In . SVG Version: 6.00 Build 0)  -->
<!DOCTYPE svg PUBLIC "-//W3C//DTD SVG 1.1//EN" "http://www.w3.org/Graphics/SVG/1.1/DTD/svg11.dtd">
<svg version="1.1" id="图层_1" xmlns="http://www.w3.org/2000/svg" xmlns:xlink="http://www.w3.org/1999/xlink" x="0px" y="0px"
	 width="283.465px" height="283.467px" viewBox="0 0 283.465 283.467" enable-background="new 0 0 283.465 283.467"
	 xml:space="preserve">
<path fill="#989898" d="M-32.094,135.266L-149.979,17.378c-1.284-1.281-2.797-2.029-4.281-2.392
	c-0.097-0.033-0.185-0.072-0.286-0.099c-0.523-0.104-1.004-0.088-1.502-0.072c-0.354,0.011-0.688-0.016-1.05,0.05
	c-0.19,0.044-0.357,0.115-0.539,0.182c-1.441,0.379-2.901,1.105-4.147,2.348l-117.865,117.871c-0.187,0.188-0.281,0.412-0.448,0.605
	c-1.515,0.995-2.577,2.629-2.577,4.575c0,1.084,0.391,2.041,0.927,2.898c0.209,0.44,0.371,0.907,0.723,1.26
	c0.707,0.704,1.647,1.022,2.656,1.16c0.418,0.104,0.817,0.259,1.268,0.259h22.524v117.788c-0.012,0.148-0.089,0.28-0.089,0.435
	c0,3.135,2.541,5.676,5.676,5.676h73.213c0.009,0,0.014-0.006,0.022-0.006c0.008,0,0.014,0.006,0.021,0.006
	c3.11,0,5.632-2.52,5.632-5.632v-61.949h28.16v61.993c0,3.085,2.502,5.588,5.588,5.588c0.016,0,0.027-0.012,0.044-0.012
	s0.027,0.012,0.044,0.012h73.212c3.136,0,5.676-2.541,5.676-5.676c0-0.056-0.027-0.1-0.032-0.148V152.001
	c0-3.173-2.574-5.747-5.748-5.747c-3.173,0-5.747,2.574-5.747,5.747V258.57h-61.861v-61.905c0-3.086-2.502-5.588-5.587-5.588
	c-0.012,0-0.012,0.006-0.022,0.006s-0.011-0.006-0.022-0.006h-38.897c-0.151-0.011-0.283-0.088-0.438-0.088
	c-3.109,0-5.632,2.519-5.632,5.632v61.949h-61.949V140.392c0-3.113-2.521-5.632-5.632-5.632c-0.203,0-0.373,0.094-0.571,0.115
	h-13.815L-155.873,27.41l115.815,115.819c2.959,2.959,7.139,3.574,9.338,1.375C-28.52,142.404-29.136,138.225-32.094,135.266z"/>
<path fill="#66A439" d="M265.676,134.636L147.791,16.749c-1.284-1.281-2.797-2.029-4.281-2.392
	c-0.097-0.033-0.185-0.072-0.286-0.099c-0.522-0.104-1.005-0.088-1.503-0.072c-0.354,0.011-0.688-0.016-1.049,0.05
	c-0.191,0.044-0.357,0.115-0.539,0.182c-1.441,0.379-2.902,1.105-4.148,2.348L18.12,134.636c-0.187,0.188-0.28,0.412-0.448,0.605
	c-1.516,0.995-2.576,2.629-2.576,4.575c0,1.084,0.391,2.041,0.926,2.898c0.209,0.44,0.371,0.907,0.724,1.26
	c0.706,0.704,1.647,1.022,2.656,1.16c0.418,0.104,0.817,0.259,1.269,0.259h22.523v117.788c-0.012,0.148-0.088,0.28-0.088,0.435
	c0,3.135,2.541,5.676,5.676,5.676h73.213c0.008,0,0.014-0.006,0.021-0.006s0.014,0.006,0.021,0.006c3.111,0,5.633-2.52,5.633-5.632
	v-61.949h28.159v61.993c0,3.085,2.502,5.588,5.588,5.588c0.016,0,0.027-0.012,0.044-0.012s0.027,0.012,0.044,0.012h73.212
	c3.136,0,5.676-2.541,5.676-5.676c0-0.056-0.027-0.1-0.032-0.148V151.372c0-3.173-2.574-5.747-5.748-5.747
	c-3.173,0-5.747,2.574-5.747,5.747v106.569h-61.861v-61.905c0-3.086-2.502-5.588-5.587-5.588c-0.012,0-0.012,0.006-0.022,0.006
	s-0.011-0.006-0.022-0.006h-38.897c-0.15-0.011-0.283-0.088-0.438-0.088c-3.109,0-5.631,2.519-5.631,5.632v61.949H54.457V139.762
	c0-3.113-2.521-5.632-5.633-5.632c-0.203,0-0.373,0.094-0.57,0.115H34.438L141.896,26.781L257.712,142.6
	c2.959,2.959,7.139,3.575,9.338,1.375C269.25,141.775,268.634,137.595,265.676,134.636z"/>
</svg>
