<?xml version="1.0" encoding="utf-8"?>
<!-- Generator: Adobe Illustrator 16.0.0, SVG Export Plug-In . SVG Version: 6.00 Build 0)  -->
<!DOCTYPE svg PUBLIC "-//W3C//DTD SVG 1.1//EN" "http://www.w3.org/Graphics/SVG/1.1/DTD/svg11.dtd">
<svg version="1.1" id="图层_1" xmlns="http://www.w3.org/2000/svg" xmlns:xlink="http://www.w3.org/1999/xlink" x="0px" y="0px"
	 width="283.46px" height="283.46px" viewBox="0 0 283.46 283.46" enable-background="new 0 0 283.46 283.46" xml:space="preserve">
<path fill="#989898" d="M267.365,249.627c-6.794-40.209-32.402-73.953-67.433-92c15.239-14.944,24.713-35.737,24.713-58.761
	c0-45.475-36.86-82.335-82.334-82.335c-45.469,0-82.329,36.86-82.329,82.335c0,22.848,9.311,43.51,24.341,58.423
	c-35.355,17.965-61.225,51.885-68.06,92.338h-2.092v17.303h255.118v-17.303H267.365z M33.642,249.627L33.642,249.627
	c0.012-0.07,0.035-0.141,0.046-0.221c0.535-2.756,1.197-5.459,1.93-8.137c0.232-0.838,0.482-1.668,0.732-2.5
	c0.616-2.063,1.291-4.098,2.023-6.104c0.267-0.738,0.511-1.475,0.796-2.207c0.977-2.506,2.04-4.971,3.19-7.383
	c0.407-0.865,0.86-1.709,1.297-2.557c0.813-1.604,1.656-3.186,2.545-4.742c0.594-1.035,1.192-2.059,1.808-3.076
	c0.878-1.424,1.802-2.807,2.732-4.178c1.203-1.779,2.458-3.5,3.76-5.197c0.773-1.004,1.529-2.016,2.331-2.992
	c1.046-1.262,2.121-2.494,3.214-3.715c0.593-0.65,1.197-1.301,1.808-1.941c4.127-4.381,8.603-8.416,13.392-12.082
	c0.227-0.17,0.441-0.344,0.668-0.512c11.147-8.387,23.882-14.77,37.75-18.477c-14.483-6.807-26.172-18.578-32.902-33.118
	c-0.187-0.401-0.396-0.788-0.575-1.191c-0.582-1.319-1.075-2.674-1.569-4.034c-0.343-0.912-0.709-1.813-1.012-2.746
	c-0.215-0.694-0.378-1.412-0.575-2.115c-1.691-5.911-2.68-12.119-2.68-18.579c0-37.537,30.427-67.964,67.968-67.964
	c2.4,0,4.766,0.133,7.107,0.375c34.345,3.47,61.15,32.464,61.15,67.723c0,27.363-16.182,50.892-39.465,61.708
	c13.774,3.713,26.434,10.084,37.523,18.436c0.232,0.174,0.465,0.354,0.697,0.535c4.777,3.648,9.235,7.672,13.351,12.041
	c0.61,0.652,1.227,1.303,1.825,1.971c1.087,1.209,2.156,2.436,3.19,3.691c0.813,0.988,1.587,2.012,2.371,3.033
	c1.273,1.662,2.505,3.359,3.686,5.092c0.953,1.406,1.889,2.813,2.778,4.254c0.615,1.006,1.203,2.023,1.79,3.047
	c0.895,1.574,1.755,3.18,2.58,4.801c0.419,0.836,0.866,1.65,1.268,2.492c1.156,2.43,2.22,4.906,3.202,7.434
	c0.273,0.688,0.506,1.396,0.762,2.1c0.749,2.051,1.441,4.133,2.068,6.236c0.238,0.795,0.477,1.592,0.698,2.395
	c0.755,2.766,1.453,5.557,1.993,8.404H33.642z"/>
</svg>
