<?xml version="1.0" encoding="utf-8"?>
<!-- Generator: Adobe Illustrator 16.0.0, SVG Export Plug-In . SVG Version: 6.00 Build 0)  -->
<!DOCTYPE svg PUBLIC "-//W3C//DTD SVG 1.1//EN" "http://www.w3.org/Graphics/SVG/1.1/DTD/svg11.dtd">
<svg version="1.1" id="图层_1" xmlns="http://www.w3.org/2000/svg" xmlns:xlink="http://www.w3.org/1999/xlink" x="0px" y="0px"
	 width="283.46px" height="283.46px" viewBox="0 0 283.46 283.46" enable-background="new 0 0 283.46 283.46" xml:space="preserve">
<path fill="#999899" d="M232.125,231.722c22.966-23.066,37.164-54.873,37.164-89.992c0-70.446-57.112-127.559-127.56-127.559
	c-70.446,0-127.559,57.112-127.559,127.559c0,34.422,13.656,65.632,35.82,88.582c-0.011,0.553-0.082,1.089-0.082,1.647h1.658
	c23.082,23.065,54.956,37.33,90.162,37.33c35.207,0,67.081-14.265,90.163-37.33h0.243
	C232.136,231.876,232.125,231.799,232.125,231.722z M25.14,141.729c0-64.388,52.203-116.589,116.589-116.589
	c64.388,0,116.591,52.202,116.591,116.589c0,28.656-10.383,54.856-27.533,75.158c-6.348-38.065-36.23-68.081-74.234-74.621
	c11.814-7.287,20.036-23.221,20.036-41.753c0-25.405-15.409-46-34.417-46c-19.002,0-34.41,20.595-34.41,46
	c0,18.3,8.017,34.057,19.594,41.465c-38.419,5.794-68.938,35.489-75.888,73.516C35.025,195.397,25.14,169.722,25.14,141.729z
	 M116.961,100.514c0-18.616,11.29-33.704,25.211-33.704c13.928,0,25.217,15.088,25.217,33.704c0,18.615-11.289,33.703-25.217,33.703
	C128.251,134.217,116.961,119.129,116.961,100.514z M60.17,224.971c3.55-41.57,38.364-74.218,80.853-74.218
	c42.902,0,77.949,33.294,80.913,75.445c-20.904,19.859-49.096,32.122-80.206,32.122C109.962,258.32,81.196,245.576,60.17,224.971z"
	/>
<path fill="#619638" d="M548.895,230.492c22.967-23.066,37.164-54.873,37.164-89.993c0-70.446-57.111-127.559-127.559-127.559
	S330.941,70.053,330.941,140.5c0,34.422,13.656,65.631,35.82,88.583c-0.012,0.553-0.082,1.088-0.082,1.646h1.658
	c23.082,23.066,54.955,37.33,90.162,37.33s67.08-14.264,90.162-37.33h0.244C548.906,230.646,548.895,230.568,548.895,230.492z
	 M341.91,140.5c0-64.388,52.203-116.589,116.59-116.589S575.09,76.112,575.09,140.5c0,28.657-10.383,54.856-27.533,75.159
	c-6.348-38.066-36.23-68.082-74.234-74.622c11.814-7.287,20.037-23.221,20.037-41.753c0-25.405-15.41-46-34.418-46
	c-19.002,0-34.41,20.595-34.41,46c0,18.3,8.018,34.057,19.594,41.465c-38.418,5.794-68.938,35.49-75.887,73.515
	C351.795,194.168,341.91,168.492,341.91,140.5z M433.73,99.284c0-18.616,11.291-33.704,25.211-33.704
	c13.928,0,25.217,15.088,25.217,33.704c0,18.615-11.289,33.703-25.217,33.703C445.021,132.987,433.73,117.899,433.73,99.284z
	 M376.939,223.74c3.551-41.57,38.365-74.217,80.854-74.217c42.902,0,77.949,33.293,80.912,75.445
	c-20.904,19.859-49.096,32.121-80.205,32.121C426.732,257.09,397.967,244.346,376.939,223.74z"/>
</svg>
