<?xml version="1.0" encoding="utf-8"?>
<!-- Generator: Adobe Illustrator 16.0.0, SVG Export Plug-In . SVG Version: 6.00 Build 0)  -->
<!DOCTYPE svg PUBLIC "-//W3C//DTD SVG 1.1//EN" "http://www.w3.org/Graphics/SVG/1.1/DTD/svg11.dtd">
<svg version="1.1" id="图层_1" xmlns="http://www.w3.org/2000/svg" xmlns:xlink="http://www.w3.org/1999/xlink" x="0px" y="0px"
	 width="283.46px" height="283.46px" viewBox="0 0 283.46 283.46" enable-background="new 0 0 283.46 283.46" xml:space="preserve">
<path fill="#989898" d="M217.827,14.171H65.634c-5.125,0-9.284,4.159-9.284,9.287v236.547c0,5.125,4.159,9.284,9.284,9.284h152.193
	c5.125,0,9.283-4.159,9.283-9.284V23.458C227.11,18.33,222.952,14.171,217.827,14.171z M141.781,256.287
	c-7.096,0-12.848-5.752-12.848-12.848s5.752-12.848,12.848-12.848s12.849,5.752,12.849,12.848S148.877,256.287,141.781,256.287z
	 M214.007,208.408c0,5.125-4.159,9.284-9.284,9.284H78.737c-5.125,0-9.284-4.159-9.284-9.284V35.743
	c0-5.128,4.159-9.287,9.284-9.287h125.985c5.125,0,9.284,4.159,9.284,9.287V208.408z"/>
</svg>
