<?xml version="1.0" encoding="utf-8"?>
<!-- Generator: Adobe Illustrator 16.0.0, SVG Export Plug-In . SVG Version: 6.00 Build 0)  -->
<!DOCTYPE svg PUBLIC "-//W3C//DTD SVG 1.1//EN" "http://www.w3.org/Graphics/SVG/1.1/DTD/svg11.dtd">
<svg version="1.1" id="图层_1" xmlns="http://www.w3.org/2000/svg" xmlns:xlink="http://www.w3.org/1999/xlink" x="0px" y="0px"
	 width="283.46px" height="283.46px" viewBox="0 0 283.46 283.46" enable-background="new 0 0 283.46 283.46" xml:space="preserve">
<g>
	<path fill="#5A9EB0" d="M269.16,136.707h-8.646c0.043,1.371,0.104,2.74,0.104,4.123c0,66.216-53.678,119.894-119.893,119.894
		c-66.215,0-119.893-53.678-119.893-119.894c0-66.214,53.678-119.893,119.893-119.893c1.383,0,2.752,0.058,4.124,0.104V14.25
		c-1.039-0.025-2.072-0.079-3.118-0.079c-70.449,0-127.56,57.111-127.56,127.559c0,70.451,57.11,127.56,127.56,127.56
		c70.448,0,127.559-57.108,127.559-127.56C269.289,140.045,269.225,138.376,269.16,136.707z"/>
	<g>
		<path fill="#5A9EB0" d="M82.354,190.295l-2.528,9.53c0,0-1.586,5.075,3.807,8.881c5.392,3.807,41.867,13.321,41.867,13.321
			s8.247,1.269,11.735-7.929l1.702-6.106L82.354,190.295z"/>
		<path fill="#5A9EB0" d="M156.479,74.328l1.385-5.723l-22.214-6.012l-3.885,13.691c0,0-15.938-1.189-21.489,8.722l-0.749,2.825
			l58.027,17.177c0.23-1.067,0.408-2.041,0.488-2.795c-0.555-6.581-2.154-12.131-12.938-18.686l-1.693-0.847l1.586-4.098
			l0.676-1.586l38.496,19.745l6.74-18.793L156.479,74.328z"/>
		<path fill="#5A9EB0" d="M108.131,93.088l-24.677,93.054l56.875,16.855l24.5-87.858c0,0,0.629-2.049,1.332-4.602L108.131,93.088z"
			/>
	</g>
</g>
</svg>
