<?xml version="1.0" encoding="utf-8"?>
<!-- Generator: Adobe Illustrator 16.0.0, SVG Export Plug-In . SVG Version: 6.00 Build 0)  -->
<!DOCTYPE svg PUBLIC "-//W3C//DTD SVG 1.1//EN" "http://www.w3.org/Graphics/SVG/1.1/DTD/svg11.dtd">
<svg version="1.1" id="图层_1" xmlns="http://www.w3.org/2000/svg" xmlns:xlink="http://www.w3.org/1999/xlink" x="0px" y="0px"
	 width="283.46px" height="283.46px" viewBox="0 0 283.46 283.46" enable-background="new 0 0 283.46 283.46" xml:space="preserve">
<path fill="#C97E3B" d="M264.018,84.373l-64.923-64.929c-7.034-7.034-18.435-7.028-25.462,0L19.447,173.629
	c-7.031,7.034-7.034,18.435-0.003,25.462l64.926,64.924c7.031,7.033,18.432,7.033,25.462,0l154.186-154.186
	C271.045,102.801,271.045,91.4,264.018,84.373z M107.906,223.555l-52.351-52.351c-2.09-2.091-2.093-5.489,0-7.58
	c2.091-2.09,5.489-2.09,7.58,0l52.35,52.351c2.094,2.091,2.091,5.489,0,7.58C113.392,225.645,110,225.645,107.906,223.555z
	 M139.344,192.113l-52.351-52.351c-2.091-2.084-2.094-5.483,0-7.579c2.093-2.091,5.489-2.085,7.579,0l52.351,52.35
	c2.094,2.097,2.094,5.489,0,7.58C144.83,194.21,141.437,194.21,139.344,192.113z M223.235,136.017
	c-7.034,7.033-18.435,7.033-25.462,0L149.69,87.934c-7.032-7.027-7.032-18.428,0-25.456l23.378-23.384
	c7.033-7.034,18.434-7.034,25.468,0l48.083,48.083c7.027,7.034,7.021,18.428-0.006,25.456L223.235,136.017z"/>
</svg>
