<?xml version="1.0" encoding="utf-8"?>
<!-- Generator: Adobe Illustrator 16.0.0, SVG Export Plug-In . SVG Version: 6.00 Build 0)  -->
<!DOCTYPE svg PUBLIC "-//W3C//DTD SVG 1.1//EN" "http://www.w3.org/Graphics/SVG/1.1/DTD/svg11.dtd">
<svg version="1.1" id="图层_1" xmlns="http://www.w3.org/2000/svg" xmlns:xlink="http://www.w3.org/1999/xlink" x="0px" y="0px"
	 width="283.46px" height="283.46px" viewBox="0 0 283.46 283.46" enable-background="new 0 0 283.46 283.46" xml:space="preserve">
<g>
	<path fill="#AB8742" d="M269.16,136.707h-8.646c0.043,1.371,0.104,2.74,0.104,4.123c0,66.216-53.678,119.894-119.893,119.894
		c-66.215,0-119.893-53.678-119.893-119.894c0-66.214,53.678-119.893,119.893-119.893c1.383,0,2.752,0.058,4.124,0.104V14.25
		c-1.039-0.025-2.072-0.079-3.118-0.079c-70.449,0-127.56,57.111-127.56,127.559c0,70.451,57.11,127.56,127.56,127.56
		c70.448,0,127.559-57.108,127.559-127.56C269.289,140.045,269.225,138.376,269.16,136.707z"/>
	<path fill="#AB8742" d="M65.66,138.082c0,41.572,33.702,75.277,75.277,75.277c41.575,0,75.276-33.705,75.276-75.277
		c0-41.574-33.701-75.277-75.276-75.277C99.362,62.805,65.66,96.508,65.66,138.082z M191.789,138.451
		c0,28.641-23.219,51.858-51.858,51.858c-28.641,0-51.858-23.218-51.858-51.858c0-28.64,23.218-51.858,51.858-51.858
		C168.57,86.593,191.789,109.812,191.789,138.451z"/>
	<circle fill="#AB8742" cx="139.773" cy="138.928" r="29.815"/>
	<circle fill="#AB8742" cx="175.455" cy="119.738" r="5.868"/>
	<circle fill="#AB8742" cx="175.455" cy="160.336" r="5.868"/>
	<circle fill="#AB8742" cx="139.931" cy="180.636" r="5.868"/>
	<circle fill="#AB8742" cx="104.408" cy="160.336" r="5.868"/>
	<circle fill="#AB8742" cx="104.408" cy="119.738" r="5.868"/>
	<circle fill="#AB8742" cx="139.931" cy="99.438" r="5.868"/>
</g>
</svg>
