<?xml version="1.0" encoding="utf-8"?>
<!DOCTYPE svg PUBLIC "-//W3C//DTD SVG 1.1//EN" "http://www.w3.org/Graphics/SVG/1.1/DTD/svg11.dtd">
<svg version="1.1" id="图形" xmlns="http://www.w3.org/2000/svg" xmlns:xlink="http://www.w3.org/1999/xlink" x="0px" y="0px" width="1024px" height="1024px" viewBox="0 0 1024 1024" enable-background="new 0 0 1024 1024" xml:space="preserve">
  <path fill="#272636" d="M429.480123 330.436115l3.413415 9.728336 30.669546 87.288829c7.213834 20.519397 26.680744 34.304106 48.443058 34.304106 21.760266 0 41.227176-13.78471 48.453296-34.326631l30.636784-87.243781 3.433892-9.748812 16.321735-0.331718 19.755627-0.387004L630.607477 590.904065c0 5.219433-2.082449 10.248436-5.784582 13.960807-3.710323 3.700085-8.731135 5.762058-13.960807 5.762058l-197.709843 0c-10.903681 0-19.745389-8.821231-19.745389-19.722865l0-261.188719 19.745389 0.387004L429.480123 330.436115zM708.851882 280.631377c-1.552111 4.809905-5.983203 8.100462-11.047016 8.211035l-67.199437 1.36168-19.755627 0.387004-19.755627 0.421814-16.86436 0.321479-7.899794 0.165859-4.177185 11.900881-38.96863 110.955448c-1.672922 4.719809-6.149062 7.910032-11.180112 7.910032-5.031051 0-9.517429-3.190223-11.192398-7.910032l-38.956344-110.955448-4.187423-11.900881-7.912079-0.165859-16.86436-0.321479-19.743341-0.421814-19.745389-0.387004-67.211723-1.36168c-5.063813-0.110573-9.494905-3.401129-11.047016-8.211035-1.552111-4.820144 0.120811-10.072339 4.177185-13.106941l104.683528-78.557694-38.049239-124.383868c-1.462015-4.830382 0.276431-10.037529 4.343044-13.029131 1.029963-0.753531 2.147974-1.306394 3.325367-1.68316 0.376766-0.133097 0.774008-0.122858 1.173297-0.223193 0.798579-0.153573 1.595111-0.354242 2.416215-0.36448 0.032762 0 0.065524-0.012286 0.088049-0.012286 0.753531 0 1.484539 0.176097 2.23807 0.331718 0.39929 0.07781 0.808818 0.045048 1.197869 0.176097 1.152821 0.354242 2.260594 0.864104 3.280319 1.574635l107.98637 74.368223 107.984323-74.368223c2.027163-1.39649 4.365568-2.082449 6.71421-2.082449 2.459215 0 4.920478 0.753531 7.013166 2.283118 4.066612 2.991601 5.79482 8.221273 4.332805 13.029131l-38.069716 124.383868 104.71629 78.557694C708.729024 270.559038 710.401945 275.811233 708.851882 280.631377zM512 787.428325c65.813185 0 129.644255-12.883748 189.722001-38.294956 58.040345-24.549151 110.169154-59.696885 154.942842-104.470573 44.77164-44.77164 79.921422-96.902497 104.470573-154.942842 25.411208-60.077746 38.294956-123.908816 38.294956-189.722001s-12.883748-129.644255-38.294956-189.722001c-24.549151-58.040345-59.696885-110.169154-104.470573-154.942842-44.77164-44.77164-96.902497-79.921422-154.942842-104.470573-60.077746-25.411208-123.908816-38.294956-189.722001-38.294956s-129.644255 12.883748-189.722001 38.294956c-58.040345 24.549151-110.169154 59.696885-154.942842 104.470573-44.77164 44.77164-79.921422 96.902497-104.470573 154.942842C37.455424 170.355745 24.571675 234.186815 24.571675 300s12.883748 129.644255 38.294956 189.722001c24.549151 58.040345 59.696885 110.169154 104.470573 154.942842 44.77164 44.77164 96.902497 79.921422 154.942842 104.470573C382.355745 774.544576 446.186815 787.428325 512 787.428325M512 812C229.22916 812 0 582.77084 0 300s229.22916-512 512-512 512 229.22916 512 512S794.768793 812 512 812L512 812z" transform="translate(0, 812) scale(1, -1)"/>
</svg>
