<?xml version="1.0" encoding="utf-8"?>
<!-- Generator: Adobe Illustrator 16.0.0, SVG Export Plug-In . SVG Version: 6.00 Build 0)  -->
<!DOCTYPE svg PUBLIC "-//W3C//DTD SVG 1.1//EN" "http://www.w3.org/Graphics/SVG/1.1/DTD/svg11.dtd">
<svg version="1.1" id="图层_1" xmlns="http://www.w3.org/2000/svg" xmlns:xlink="http://www.w3.org/1999/xlink" x="0px" y="0px"
	 width="283.46px" height="283.46px" viewBox="0 0 283.46 283.46" enable-background="new 0 0 283.46 283.46" xml:space="preserve">
<g>
	<path fill="#DC471D" d="M269.161,136.707h-8.648c0.047,1.371,0.104,2.74,0.104,4.123c0,66.216-53.677,119.894-119.892,119.894
		c-66.214,0-119.893-53.678-119.893-119.894c0-66.214,53.679-119.893,119.893-119.893c1.383,0,2.752,0.058,4.124,0.104V14.25
		c-1.04-0.025-2.072-0.079-3.117-0.079c-70.449,0-127.561,57.111-127.561,127.559c0,70.451,57.111,127.56,127.561,127.56
		c70.446,0,127.558-57.108,127.558-127.56C269.289,140.045,269.228,138.376,269.161,136.707z"/>
	<path fill="#DC471D" d="M171.51,139.746h-28.024V96.545c0-1.403-1.138-2.536-2.537-2.538c-1.402-0.001-2.54,1.137-2.538,2.538
		v45.674c0,0.006,0.006,0.011,0.006,0.016s-0.008,0.007-0.008,0.015c0.002,1.389,1.122,2.507,2.505,2.507h30.592
		c1.388,0,2.508-1.118,2.508-2.507C174.013,140.866,172.893,139.746,171.51,139.746z"/>
	<path fill="#DC471D" d="M192.419,99.088c2.106,2.106,5.519,2.104,7.624-0.002c2.104-2.104,2.104-5.517-0.002-7.622l-7.672-7.672
		c-2.104-2.106-5.516-2.106-7.622,0s-2.106,5.521,0,7.624L192.419,99.088z"/>
	<path fill="#DC471D" d="M90.782,99.051l7.626-7.627c2.085-2.084,2.085-5.464,0-7.548c-2.086-2.086-5.466-2.086-7.551,0
		l-7.626,7.625c-2.085,2.084-2.085,5.464,0,7.55C85.317,101.138,88.697,101.138,90.782,99.051z"/>
	<path fill="#DC471D" d="M186.699,97.405c-24.836-24.834-65.102-24.836-89.937,0c-23.493,23.491-24.747,60.785-3.795,85.769
		l-8.82,8.821c-2.106,2.106-2.106,5.521,0,7.627s5.519,2.106,7.624,0l8.795-8.797c23.626,20.116,58.465,20.166,82.146,0.159
		l8.556,8.554c2.121,2.121,5.561,2.121,7.682,0s2.121-5.561,0-7.682l-8.561-8.559C211.449,158.31,210.23,120.937,186.699,97.405z
		 M181.092,181.736c-21.739,21.736-56.983,21.736-78.722,0c-21.739-21.741-21.74-56.984,0-78.726
		c21.738-21.736,56.982-21.736,78.722,0C202.831,124.75,202.831,159.995,181.092,181.736z"/>
</g>
</svg>
