<?xml version="1.0" encoding="utf-8"?>
<!-- Generator: Adobe Illustrator 16.0.0, SVG Export Plug-In . SVG Version: 6.00 Build 0)  -->
<!DOCTYPE svg PUBLIC "-//W3C//DTD SVG 1.1//EN" "http://www.w3.org/Graphics/SVG/1.1/DTD/svg11.dtd">
<svg version="1.1" id="图层_1" xmlns="http://www.w3.org/2000/svg" xmlns:xlink="http://www.w3.org/1999/xlink" x="0px" y="0px"
	 width="283.465px" height="283.465px" viewBox="0 0 283.465 283.465" enable-background="new 0 0 283.465 283.465"
	 xml:space="preserve">
<g>
	<g>
		<path fill-rule="evenodd" clip-rule="evenodd" fill="#666666" d="M-217.116-538.928c5.285,0,9.566-4.285,9.566-9.566
			c0-5.282-4.281-9.567-9.566-9.567s-9.567,4.285-9.567,9.567C-226.684-543.213-222.401-538.928-217.116-538.928z M-182.038-634.597
			c-70.45,0-127.559,57.108-127.559,127.559s57.108,127.56,127.559,127.56s127.56-57.109,127.56-127.56
			S-111.588-634.597-182.038-634.597z M-182.038-392.234c-63.402,0-114.803-51.397-114.803-114.804
			c0-63.405,51.4-114.803,114.803-114.803c63.406,0,114.804,51.397,114.804,114.803
			C-67.234-443.632-118.632-392.234-182.038-392.234z M-105.502-507.038c0,42.267-34.27,76.536-76.536,76.536
			c-42.27,0-76.535-34.27-76.535-76.536h-12.756c0,49.312,39.978,89.292,89.291,89.292c49.317,0,89.292-39.98,89.292-89.292
			H-105.502z M-146.959-538.928c5.282,0,9.567-4.285,9.567-9.566c0-5.282-4.285-9.567-9.567-9.567c-5.281,0-9.566,4.285-9.566,9.567
			C-156.525-543.213-152.24-538.928-146.959-538.928z"/>
	</g>
</g>
<g>
	<g>
		<path fill-rule="evenodd" clip-rule="evenodd" fill="#FFFFFF" d="M212.768-507.768c0,42.266-34.27,76.536-76.535,76.536
			c-42.27,0-76.535-34.27-76.535-76.536H46.941c0,49.311,39.977,89.292,89.291,89.292c49.316,0,89.291-39.98,89.291-89.292H212.768z
			 M101.154-539.658c5.285,0,9.566-4.285,9.566-9.566c0-5.282-4.281-9.567-9.566-9.567s-9.568,4.285-9.568,9.567
			C91.586-543.943,95.869-539.658,101.154-539.658z M136.232-635.327c-70.451,0-127.559,57.108-127.559,127.559
			c0,70.45,57.107,127.559,127.559,127.559c70.449,0,127.559-57.109,127.559-127.559
			C263.791-578.218,206.682-635.327,136.232-635.327z M136.232-392.965c-63.402,0-114.803-51.396-114.803-114.803
			c0-63.405,51.4-114.803,114.803-114.803c63.406,0,114.803,51.397,114.803,114.803
			C251.035-444.361,199.639-392.965,136.232-392.965z M171.311-539.658c5.283,0,9.568-4.285,9.568-9.566
			c0-5.282-4.285-9.567-9.568-9.567c-5.281,0-9.566,4.285-9.566,9.567C161.744-543.943,166.029-539.658,171.311-539.658z"/>
	</g>
</g>
<g>
	<g>
		<path fill-rule="evenodd" clip-rule="evenodd" fill="#666666" d="M-224.914-131.244h89.292v-6.377h-89.292V-131.244z
			 M-205.78-226.914h-38.268v6.379h38.268V-226.914z M-180.268-309.826c-70.451,0-127.559,57.107-127.559,127.559
			s57.108,127.559,127.559,127.559c70.449,0,127.559-57.107,127.559-127.559S-109.818-309.826-180.268-309.826z M-180.268-67.465
			c-63.406,0-114.803-51.396-114.803-114.803s51.397-114.803,114.803-114.803c63.406,0,114.803,51.396,114.803,114.803
			S-116.861-67.465-180.268-67.465z M-154.756-220.535h38.268v-6.379h-38.268V-220.535z"/>
	</g>
</g>
<g>
	<g>
		<path fill-rule="evenodd" clip-rule="evenodd" fill="#FFFFFF" d="M97.586-133.744h89.293v-6.377H97.586V-133.744z
			 M116.721-229.414H78.453v6.379h38.268V-229.414z M142.232-312.326c-70.451,0-127.559,57.107-127.559,127.559
			S71.781-57.209,142.232-57.209c70.449,0,127.559-57.107,127.559-127.559S212.682-312.326,142.232-312.326z M142.232-69.965
			c-63.406,0-114.803-51.396-114.803-114.803S78.826-299.57,142.232-299.57s114.803,51.396,114.803,114.803
			S205.639-69.965,142.232-69.965z M167.744-223.035h38.268v-6.379h-38.268V-223.035z"/>
	</g>
</g>
<g>
	<g>
		<path fill-rule="evenodd" clip-rule="evenodd" fill="#666666" d="M-231.792,116.721h6.378v-12.756h12.756v-6.379h-12.756V84.83
			h-6.378v12.756h-12.756v6.379h12.756V116.721z M-180.768,14.674c-70.45,0-127.559,57.107-127.559,127.559
			s57.108,127.559,127.559,127.559c70.452,0,127.559-57.107,127.559-127.559S-110.316,14.674-180.768,14.674z M-180.768,257.035
			c-63.405,0-114.803-51.396-114.803-114.803S-244.173,27.43-180.768,27.43c63.407,0,114.803,51.396,114.803,114.803
			S-117.361,257.035-180.768,257.035z M-129.744,84.83h-6.377v12.756h-12.756v6.379h12.756v12.756h6.377v-12.756h12.756v-6.379
			h-12.756V84.83z M-180.768,148.611c-35.222,0-63.779,28.557-63.779,63.779h12.756c0-28.178,22.847-51.023,51.023-51.023
			c28.178,0,51.024,22.846,51.024,51.023h12.756C-116.988,177.168-145.545,148.611-180.768,148.611z"/>
	</g>
</g>
<g>
	<g>
		<path fill-rule="evenodd" clip-rule="evenodd" fill="#FFFFFF" d="M90.709,116.221h6.377v-12.756h12.756v-6.379H97.086V84.33
			h-6.377v12.756H77.953v6.379h12.756V116.221z M141.732,14.174c-70.451,0-127.559,57.107-127.559,127.559
			s57.107,127.559,127.559,127.559s127.559-57.107,127.559-127.559S212.184,14.174,141.732,14.174z M141.732,256.535
			c-63.406,0-114.803-51.396-114.803-114.803S78.326,26.93,141.732,26.93s114.803,51.396,114.803,114.803
			S205.139,256.535,141.732,256.535z M192.756,84.33h-6.377v12.756h-12.756v6.379h12.756v12.756h6.377v-12.756h12.756v-6.379
			h-12.756V84.33z M141.732,148.111c-35.223,0-63.779,28.557-63.779,63.779h12.756c0-28.178,22.846-51.023,51.023-51.023
			s51.023,22.846,51.023,51.023h12.756C205.512,176.668,176.955,148.111,141.732,148.111z"/>
	</g>
</g>
</svg>
