<?xml version="1.0" encoding="utf-8"?>
<!-- Generator: Adobe Illustrator 16.0.0, SVG Export Plug-In . SVG Version: 6.00 Build 0)  -->
<!DOCTYPE svg PUBLIC "-//W3C//DTD SVG 1.1//EN" "http://www.w3.org/Graphics/SVG/1.1/DTD/svg11.dtd">
<svg version="1.1" id="图层_1" xmlns="http://www.w3.org/2000/svg" xmlns:xlink="http://www.w3.org/1999/xlink" x="0px" y="0px"
	 width="283.46px" height="283.46px" viewBox="0 0 283.46 283.46" enable-background="new 0 0 283.46 283.46" xml:space="preserve">
<g>
	<path fill="#8F8E8F" d="M234.351,118.91h-27.379V67.606h-1.162c-5.536-30.373-32.04-53.436-64.016-53.436
		c-34.952,0-63.365,27.545-64.986,62.088h-0.108v1.679c-0.007,0.191-0.032,0.37-0.032,0.563h0.032v40.41h-27.59
		c-10.229,0-18.529,8.301-18.529,18.535v113.308c0,10.235,8.3,18.536,18.529,18.536h185.241c10.229,0,18.529-8.301,18.529-18.536
		V137.445C252.88,127.211,244.579,118.91,234.351,118.91z M89.449,78.5c0-29.244,23.714-52.951,52.957-52.951
		c25.515,0,46.809,18.051,51.82,42.083v51.278H89.449V78.5z M240.353,238.227c0,10.234-8.301,18.535-18.536,18.535H62.729
		c-10.235,0-18.536-8.301-18.536-18.535v-88.241c0-10.234,8.3-18.535,18.536-18.535h159.088c10.235,0,18.536,8.301,18.536,18.535
		V238.227z"/>
	<path fill="#8F8E8F" d="M142.139,164.678c-6.845,0-12.4,5.549-12.4,12.394v13.625c0,4.604,2.542,8.575,6.271,10.714v21.568h12.259
		V201.41c3.729-2.139,6.271-6.11,6.271-10.714v-13.625C154.538,170.227,148.983,164.678,142.139,164.678z"/>
</g>
</svg>
