<?xml version="1.0" encoding="utf-8"?>
<!-- Generator: Adobe Illustrator 16.0.0, SVG Export Plug-In . SVG Version: 6.00 Build 0)  -->
<!DOCTYPE svg PUBLIC "-//W3C//DTD SVG 1.1//EN" "http://www.w3.org/Graphics/SVG/1.1/DTD/svg11.dtd">
<svg version="1.1" id="图层_1" xmlns="http://www.w3.org/2000/svg" xmlns:xlink="http://www.w3.org/1999/xlink" x="0px" y="0px"
	 width="283.46px" height="283.46px" viewBox="0 0 283.46 283.46" enable-background="new 0 0 283.46 283.46" xml:space="preserve">
<g>
	<path fill="#514188" d="M269.16,136.706h-8.648c0.045,1.372,0.104,2.741,0.104,4.124c0,66.215-53.677,119.892-119.893,119.892
		c-66.214,0-119.892-53.677-119.892-119.892S74.51,20.938,140.724,20.938c1.383,0,2.752,0.059,4.124,0.104v-6.791
		c-1.04-0.026-2.072-0.079-3.118-0.079c-70.448,0-127.559,57.109-127.559,127.558c0,70.45,57.11,127.559,127.559,127.559
		s127.56-57.108,127.56-127.559C269.289,140.044,269.225,138.375,269.16,136.706z"/>
	<path fill="#514188" d="M66.029,130.669c0,2.796,0.176,5.55,0.472,8.267l-0.472,0.149v0.635l15.541,50.748l19.982-5.868
		l-15.542-51.857l-11.06,3.511c-0.161-1.875-0.276-3.762-0.276-5.678c0-37.488,30.39-67.876,67.875-67.876
		c37.489,0,67.876,30.388,67.876,67.876c0,2.179-0.146,4.322-0.354,6.447l-11.621-4.28l-15.646,50.802l5.896,2.319
		c-5.865,7.29-21.174,9.6-21.174,9.6v-3.251h-37.427v11.735h37.427v-3.568c13.876,1.745,27.856-11.879,27.859-11.884l7.295,2.872
		l15.435-51.383l-1.722-0.634h1.214c0.325-2.851,0.508-5.744,0.508-8.682c0-41.997-34.046-76.043-76.042-76.043
		C100.074,54.626,66.029,88.672,66.029,130.669z M162.713,199.721h-27.804v-2.538h27.804V199.721z"/>
</g>
</svg>
