<?xml version="1.0" encoding="utf-8"?>
<!-- Generator: Adobe Illustrator 16.0.0, SVG Export Plug-In . SVG Version: 6.00 Build 0)  -->
<!DOCTYPE svg PUBLIC "-//W3C//DTD SVG 1.1//EN" "http://www.w3.org/Graphics/SVG/1.1/DTD/svg11.dtd">
<svg version="1.1" id="图层_1" xmlns="http://www.w3.org/2000/svg" xmlns:xlink="http://www.w3.org/1999/xlink" x="0px" y="0px"
	 width="283.46px" height="283.46px" viewBox="0 0 283.46 283.46" enable-background="new 0 0 283.46 283.46" xml:space="preserve">
<g>
	<path fill="#40A24C" d="M269.16,136.706h-8.648c0.045,1.372,0.104,2.741,0.104,4.124c0,66.215-53.677,119.892-119.893,119.892
		c-66.215,0-119.892-53.677-119.892-119.892S74.509,20.938,140.724,20.938c1.383,0,2.751,0.059,4.124,0.104v-6.791
		c-1.041-0.026-2.072-0.079-3.118-0.079c-70.447,0-127.559,57.109-127.559,127.558c0,70.45,57.111,127.559,127.559,127.559
		c70.448,0,127.56-57.108,127.56-127.559C269.289,140.044,269.225,138.375,269.16,136.706z"/>
	<path fill="#40A24C" d="M107.262,88.813v116.721h65.814V88.813H107.262z M168.001,200.474h-55.823V93.956h55.823V200.474z"/>
	<rect x="114.874" y="129.253" fill="#40A24C" width="50.748" height="68.668"/>
	<rect x="107.158" y="210.608" fill="#40A24C" width="66.076" height="5.075"/>
	<rect x="107.104" y="78.742" fill="#40A24C" width="66.131" height="5.035"/>
	<rect x="124.905" y="63.439" fill="#40A24C" width="30.527" height="12.687"/>
</g>
</svg>
