<?xml version="1.0" encoding="utf-8"?>
<!-- Generator: Adobe Illustrator 16.0.0, SVG Export Plug-In . SVG Version: 6.00 Build 0)  -->
<!DOCTYPE svg PUBLIC "-//W3C//DTD SVG 1.1//EN" "http://www.w3.org/Graphics/SVG/1.1/DTD/svg11.dtd">
<svg version="1.1" id="图层_1" xmlns="http://www.w3.org/2000/svg" xmlns:xlink="http://www.w3.org/1999/xlink" x="0px" y="0px"
	 width="283.46px" height="283.46px" viewBox="0 0 283.46 283.46" enable-background="new 0 0 283.46 283.46" xml:space="preserve">
<g>
	<g>
		<path fill-rule="evenodd" clip-rule="evenodd" fill="#E48584" d="M84.328,116.218h63.779c3.525,0,6.378-2.858,6.378-6.378
			c0-3.525-2.853-6.378-6.378-6.378H84.328c-3.522,0-6.378,2.853-6.378,6.378C77.95,113.359,80.806,116.218,84.328,116.218z
			 M84.328,167.242h114.804c3.524,0,6.378-2.859,6.378-6.378c0-3.525-2.854-6.379-6.378-6.379H84.328
			c-3.522,0-6.378,2.854-6.378,6.379C77.95,164.383,80.806,167.242,84.328,167.242z M218.266,14.171H65.194
			c-10.566,0-19.134,8.564-19.134,19.134v216.851c0,10.569,8.567,19.134,19.134,19.134h153.071c10.563,0,19.134-8.564,19.134-19.134
			V33.305C237.399,22.735,228.829,14.171,218.266,14.171z M224.644,237.399c0,10.569-8.57,19.134-19.134,19.134H77.95
			c-10.566,0-19.134-8.564-19.134-19.134V71.572h165.827V237.399z M84.328,218.266h114.804c3.524,0,6.378-2.859,6.378-6.378
			c0-3.525-2.854-6.378-6.378-6.378H84.328c-3.522,0-6.378,2.853-6.378,6.378C77.95,215.406,80.806,218.266,84.328,218.266z"/>
	</g>
</g>
</svg>
