<?xml version="1.0" encoding="utf-8"?>
<!-- Generator: Adobe Illustrator 16.0.0, SVG Export Plug-In . SVG Version: 6.00 Build 0)  -->
<!DOCTYPE svg PUBLIC "-//W3C//DTD SVG 1.1//EN" "http://www.w3.org/Graphics/SVG/1.1/DTD/svg11.dtd">
<svg version="1.1" id="图层_1" xmlns="http://www.w3.org/2000/svg" xmlns:xlink="http://www.w3.org/1999/xlink" x="0px" y="0px"
	 width="283.465px" height="283.465px" viewBox="0 0 283.465 283.465" enable-background="new 0 0 283.465 283.465"
	 xml:space="preserve">
<g>
	<g>
		<path fill-rule="evenodd" clip-rule="evenodd" fill="#666666" d="M105.384-539.428c5.285,0,9.566-4.285,9.566-9.566
			c0-5.282-4.281-9.567-9.566-9.567s-9.567,4.285-9.567,9.567C95.816-543.713,100.099-539.428,105.384-539.428z M140.462-635.097
			c-70.45,0-127.559,57.108-127.559,127.559s57.108,127.56,127.559,127.56s127.56-57.109,127.56-127.56
			S210.912-635.097,140.462-635.097z M140.462-392.734c-63.402,0-114.803-51.397-114.803-114.804
			c0-63.405,51.4-114.803,114.803-114.803c63.406,0,114.804,51.397,114.804,114.803
			C255.266-444.132,203.868-392.734,140.462-392.734z M216.998-507.538c0,42.267-34.27,76.536-76.536,76.536
			c-42.27,0-76.535-34.27-76.535-76.536H51.171c0,49.312,39.978,89.292,89.291,89.292c49.317,0,89.292-39.98,89.292-89.292H216.998z
			 M175.541-539.428c5.282,0,9.567-4.285,9.567-9.566c0-5.282-4.285-9.567-9.567-9.567c-5.281,0-9.566,4.285-9.566,9.567
			C165.975-543.713,170.26-539.428,175.541-539.428z"/>
	</g>
</g>
<g>
	<g>
		<path fill-rule="evenodd" clip-rule="evenodd" fill="#FFFFFF" d="M535.268-508.268c0,42.266-34.27,76.536-76.535,76.536
			c-42.27,0-76.535-34.27-76.535-76.536h-12.756c0,49.311,39.977,89.292,89.291,89.292c49.316,0,89.291-39.98,89.291-89.292H535.268
			z M423.654-540.158c5.285,0,9.566-4.285,9.566-9.566c0-5.282-4.281-9.567-9.566-9.567s-9.568,4.285-9.568,9.567
			C414.086-544.443,418.369-540.158,423.654-540.158z M458.732-635.827c-70.451,0-127.559,57.108-127.559,127.559
			c0,70.45,57.107,127.559,127.559,127.559c70.449,0,127.559-57.109,127.559-127.559
			C586.291-578.718,529.182-635.827,458.732-635.827z M458.732-393.465c-63.402,0-114.803-51.396-114.803-114.803
			c0-63.405,51.4-114.803,114.803-114.803c63.406,0,114.803,51.397,114.803,114.803
			C573.535-444.861,522.139-393.465,458.732-393.465z M493.811-540.158c5.283,0,9.568-4.285,9.568-9.566
			c0-5.282-4.285-9.567-9.568-9.567c-5.281,0-9.566,4.285-9.566,9.567C484.244-544.443,488.529-540.158,493.811-540.158z"/>
	</g>
</g>
<g>
	<g>
		<path fill-rule="evenodd" clip-rule="evenodd" fill="#666666" d="M97.586-131.744h89.292v-6.377H97.586V-131.744z M116.72-227.414
			H78.453v6.379h38.268V-227.414z M142.232-310.326c-70.451,0-127.559,57.107-127.559,127.559S71.782-55.209,142.232-55.209
			c70.449,0,127.559-57.107,127.559-127.559S212.682-310.326,142.232-310.326z M142.232-67.965
			c-63.406,0-114.803-51.396-114.803-114.803S78.827-297.57,142.232-297.57c63.406,0,114.803,51.396,114.803,114.803
			S205.639-67.965,142.232-67.965z M167.744-221.035h38.268v-6.379h-38.268V-221.035z"/>
	</g>
</g>
<g>
	<g>
		<path fill-rule="evenodd" clip-rule="evenodd" fill="#FFFFFF" d="M420.086-134.244h89.293v-6.377h-89.293V-134.244z
			 M439.221-229.914h-38.268v6.379h38.268V-229.914z M464.732-312.826c-70.451,0-127.559,57.107-127.559,127.559
			S394.281-57.709,464.732-57.709c70.449,0,127.559-57.107,127.559-127.559S535.182-312.826,464.732-312.826z M464.732-70.465
			c-63.406,0-114.803-51.396-114.803-114.803S401.326-300.07,464.732-300.07s114.803,51.396,114.803,114.803
			S528.139-70.465,464.732-70.465z M490.244-223.535h38.268v-6.379h-38.268V-223.535z"/>
	</g>
</g>
<g>
	<g>
		<path fill-rule="evenodd" clip-rule="evenodd" fill="#666666" d="M90.708,116.221h6.378v-12.756h12.756v-6.379H97.086V84.33
			h-6.378v12.756H77.953v6.379h12.756V116.221z M141.732,14.174c-70.45,0-127.559,57.107-127.559,127.559
			s57.108,127.559,127.559,127.559c70.452,0,127.559-57.107,127.559-127.559S212.184,14.174,141.732,14.174z M141.732,256.535
			c-63.405,0-114.803-51.396-114.803-114.803S78.327,26.93,141.732,26.93c63.407,0,114.803,51.396,114.803,114.803
			S205.139,256.535,141.732,256.535z M192.756,84.33h-6.377v12.756h-12.756v6.379h12.756v12.756h6.377v-12.756h12.756v-6.379
			h-12.756V84.33z M141.732,148.111c-35.222,0-63.779,28.557-63.779,63.779h12.756c0-28.178,22.847-51.023,51.023-51.023
			c28.178,0,51.024,22.846,51.024,51.023h12.756C205.512,176.668,176.955,148.111,141.732,148.111z"/>
	</g>
</g>
<g>
	<g>
		<path fill-rule="evenodd" clip-rule="evenodd" fill="#FFFFFF" d="M413.209,115.721h6.377v-12.756h12.756v-6.379h-12.756V83.83
			h-6.377v12.756h-12.756v6.379h12.756V115.721z M464.232,13.674c-70.451,0-127.559,57.107-127.559,127.559
			s57.107,127.559,127.559,127.559s127.559-57.107,127.559-127.559S534.684,13.674,464.232,13.674z M464.232,256.035
			c-63.406,0-114.803-51.396-114.803-114.803S400.826,26.43,464.232,26.43s114.803,51.396,114.803,114.803
			S527.639,256.035,464.232,256.035z M515.256,83.83h-6.377v12.756h-12.756v6.379h12.756v12.756h6.377v-12.756h12.756v-6.379
			h-12.756V83.83z M464.232,147.611c-35.223,0-63.779,28.557-63.779,63.779h12.756c0-28.178,22.846-51.023,51.023-51.023
			s51.023,22.846,51.023,51.023h12.756C528.012,176.168,499.455,147.611,464.232,147.611z"/>
	</g>
</g>
</svg>
