<?xml version="1.0" encoding="utf-8"?>
<!-- Generator: Adobe Illustrator 16.0.0, SVG Export Plug-In . SVG Version: 6.00 Build 0)  -->
<!DOCTYPE svg PUBLIC "-//W3C//DTD SVG 1.1//EN" "http://www.w3.org/Graphics/SVG/1.1/DTD/svg11.dtd">
<svg version="1.1" id="图层_1" xmlns="http://www.w3.org/2000/svg" xmlns:xlink="http://www.w3.org/1999/xlink" x="0px" y="0px"
	 width="283.465px" height="283.465px" viewBox="0 0 283.465 283.465" enable-background="new 0 0 283.465 283.465"
	 xml:space="preserve">
<g>
	<path fill="#646C72" d="M-322.878,216.653c0,10.646-8.61,19.278-19.229,19.278h-166.182c-10.621,0-19.23-8.632-19.23-19.278V66.812
		c0-10.647,8.609-19.28,19.23-19.28h166.182c10.619,0,19.229,8.632,19.229,19.28V216.653z"/>
	<path fill="#F8F7F6" d="M-340.497,78.724h-70.683l-39.774-25.771h-55.827c-8.448,0-15.295,6.838-15.295,15.273v147.032
		c0,8.438,6.848,15.273,15.295,15.273h163.207c8.447,0,15.295-6.836,15.295-15.273v-123.8
		C-328.279,81.181-340.497,78.724-340.497,78.724z"/>
	<path fill="#F8F7F6" stroke="#636B71" stroke-miterlimit="10" d="M-526.262,76.663l88.993-18.523l20.781,11.521l-109.774,24.056
		c0,0-4.94,0.697-3.777-4.681C-530.039,89.036-527.052,76.86-526.262,76.663z"/>
	<path fill="#F8F7F6" stroke="#636B71" stroke-miterlimit="10" d="M-528.916,95.071c-0.479,1.031-0.819,2.477-0.932,3.388
		c-0.117,0.965-0.27,2.062-0.368,2.662c-0.319,1.934-2.25,7.552,7.038,4.645c11.328-3.547,115.788-28.376,115.788-28.376
		s-4.636-6.098-10.057-6.776c-5.244-0.655-102.971,21.786-109.394,23.25C-527.058,93.914-528.62,94.563-528.916,95.071z"/>
	<path fill="#F8F7F6" stroke="#636B71" stroke-miterlimit="10" d="M-528.408,110.262c0,0,0.959,11.631,1.242,12.705
		c0.282,1.072-0.227,3.954,9.651-1.34l110.367-44.101l-116.03,28.239C-523.178,105.765-528.323,106.224-528.408,110.262z"/>
	<path fill="#646C72" d="M-346.918,140.869c0,5.893-4.02,10.672-8.978,10.672c-4.96,0-8.979-4.779-8.979-10.672
		c0-5.895,8.979-25.582,8.979-25.582S-346.918,134.974-346.918,140.869z"/>
	<path fill="#666C6F" d="M-393.563,139.683c0,2.184-1.77,3.951-3.951,3.951l0,0c-2.185,0-3.954-1.768-3.954-3.951v-12.2
		c0-2.183,1.77-3.951,3.954-3.951l0,0c2.182,0,3.951,1.768,3.951,3.951V139.683z"/>
	<path fill="#666B71" d="M-443.706,139.683c0,2.184-1.77,3.951-3.951,3.951l0,0c-2.185,0-3.954-1.768-3.954-3.951v-12.2
		c0-2.183,1.769-3.951,3.954-3.951l0,0c2.181,0,3.951,1.768,3.951,3.951V139.683z"/>
	<path fill="#646C72" d="M-422.296,169.159c-12.644,0-23.98,5.563-31.721,14.365c0.898,1.454,1.888,2.843,2.973,4.155
		c6.835-8.276,17.175-13.552,28.749-13.552c11.572,0,21.914,5.276,28.749,13.552c1.084-1.31,2.074-2.701,2.974-4.155
		C-398.314,174.722-409.65,169.159-422.296,169.159z"/>
	<path fill="#F8F7F6" stroke="#636B71" stroke-miterlimit="10" d="M-489.056,128.104c2.286-2.166,5.896-2.066,8.062,0.218l0,0
		c2.167,2.288,2.069,5.897-0.22,8.065l-18.448,17.474c-2.286,2.166-5.896,2.068-8.062-0.22l0,0
		c-2.165-2.288-2.067-5.897,0.218-8.062L-489.056,128.104z"/>
	<path fill="#F8F7F6" stroke="#636B71" stroke-miterlimit="10" d="M-480.504,141.829c2.728,1.573,3.663,5.063,2.088,7.79l0,0
		c-1.575,2.728-5.064,3.663-7.792,2.087l-22.006-12.704c-2.728-1.574-3.662-5.063-2.086-7.791l0,0
		c1.574-2.728,5.063-3.662,7.79-2.088L-480.504,141.829z"/>
</g>
<g>
	<path fill="#646C72" d="M527.516,216.651c0,10.645-8.608,19.276-19.229,19.276H342.109c-10.621,0-19.229-8.632-19.229-19.276
		V66.811c0-10.647,8.607-19.279,19.229-19.279h166.178c10.62,0,19.229,8.632,19.229,19.279V216.651z"/>
	<path fill="#F8F7F6" d="M509.897,78.723h-70.68l-39.774-25.771h-55.827c-8.447,0-15.295,6.838-15.295,15.272v147.029
		c0,8.438,6.848,15.272,15.295,15.272h163.206c8.448,0,15.294-6.835,15.294-15.272V91.457
		C522.116,81.181,509.897,78.723,509.897,78.723z"/>
	<path fill="#666C6F" d="M456.835,139.681c0,2.184-1.771,3.951-3.953,3.951l0,0c-2.182,0-3.953-1.768-3.953-3.951v-12.198
		c0-2.183,1.771-3.952,3.953-3.952l0,0c2.183,0,3.953,1.77,3.953,3.952V139.681z"/>
	<path fill="#666B71" d="M406.691,139.681c0,2.184-1.771,3.951-3.953,3.951l0,0c-2.181,0-3.95-1.768-3.95-3.951v-12.198
		c0-2.183,1.77-3.952,3.95-3.952l0,0c2.183,0,3.953,1.77,3.953,3.952V139.681z"/>
	<path fill="#646C72" d="M428.104,187.677c12.644,0,23.979-5.563,31.722-14.364c-0.9-1.453-1.891-2.845-2.974-4.155
		c-6.835,8.275-17.174,13.552-28.748,13.552c-11.571,0-21.914-5.276-28.748-13.552c-1.084,1.311-2.075,2.702-2.976,4.155
		C404.122,182.115,415.46,187.677,428.104,187.677z"/>
	<path fill="#F8F7F6" stroke="#636B71" stroke-miterlimit="10" d="M412.905,58.141c0,0-90.803,20.668-92.61,23.829
		c-1.804,3.162-2.582,28.46,0,30.718c2.586,2.26,102.744-41.373,104.905-43.048C427.359,67.966,416.934,57.217,412.905,58.141z"/>
	<polygon fill="#F8F7F6" stroke="#636B71" stroke-miterlimit="10" points="297.597,68.474 319.457,85.429 319.107,88.464 
		292.005,80.501 	"/>
	<polygon fill="#F8F7F6" stroke="#636B71" stroke-miterlimit="10" points="295.902,86.262 319.107,88.464 319.107,90.159 
		297.597,96.087 	"/>
	<g>
		<path fill="#646C72" d="M359.49,78.844l-0.385-1.394l3.477-0.958l0.12-0.906l1.801-0.495l-0.152,0.915l8.937-2.461l0.381,1.393
			l-2.541,0.699l1.047,1.057c0.275,0.275,0.675,0.47,1.2,0.584c0.314,0.06,0.6,0.06,0.855,0.001l0.394,1.425
			c-0.652,0.18-1.267,0.187-1.839,0.021c-0.562-0.164-1.175-0.534-1.838-1.109l-1.68-1.464l-5.178,1.443
			c-0.098,0.687-0.179,1.185-0.247,1.499c-0.264,1.221-0.89,2.175-1.879,2.867c-0.406,0.281-0.868,0.495-1.389,0.645l-0.37-1.348
			c0.647-0.223,1.143-0.58,1.49-1.078c0.333-0.486,0.552-1.195,0.652-2.121L359.49,78.844z M362.39,88.235l-1.131-4.105
			c-0.117-0.427-0.085-0.809,0.098-1.137c0.174-0.313,0.535-0.544,1.087-0.695l10.289-2.834c0.52-0.144,0.888-0.182,1.097-0.112
			c0.488,0.157,0.8,0.48,0.935,0.97l1.163,4.226c0.103,0.373,0.069,0.719-0.099,1.04c-0.172,0.323-0.539,0.561-1.104,0.715
			l-10.273,2.831c-0.472,0.13-0.818,0.179-1.042,0.146C362.901,89.206,362.561,88.856,362.39,88.235z M363.055,85.152l4.672-1.287
			l-0.391-1.416l-4.217,1.17c-0.303,0.082-0.411,0.271-0.328,0.567L363.055,85.152z M368.459,86.53l-0.36-1.317l-4.676,1.279
			l0.229,0.825c0.091,0.332,0.328,0.445,0.711,0.339L368.459,86.53z M369.166,83.469l4.593-1.266l-0.227-0.819
			c-0.061-0.225-0.138-0.363-0.229-0.415c-0.117-0.07-0.255-0.087-0.406-0.044l-4.121,1.127L369.166,83.469z M369.9,86.133
			l3.956-1.089c0.241-0.067,0.384-0.141,0.434-0.22c0.09-0.135,0.108-0.299,0.054-0.492l-0.215-0.782l-4.592,1.266L369.9,86.133z"/>
	</g>
</g>
<g>
	<path fill="#646C72" d="M-39.413,216.652c0,10.648-8.608,19.279-19.228,19.279h-166.18c-10.621,0-19.229-8.631-19.229-19.279
		V66.813c0-10.647,8.608-19.279,19.229-19.279h166.18c10.619,0,19.228,8.632,19.228,19.279V216.652z"/>
	<path fill="#F8F7F6" d="M-57.051,78.726h-70.683l-39.774-25.771h-55.825c-8.449,0-15.297,6.838-15.297,15.272v147.03
		c0,8.437,6.848,15.272,15.297,15.272h163.204c8.448,0,15.295-6.836,15.295-15.272v-123.8
		C-44.834,81.182-57.051,78.726-57.051,78.726z"/>
	<g>
		<line fill="none" stroke="#636B71" stroke-miterlimit="10" x1="-203.278" y1="124.886" x2="-160.138" y2="126.073"/>
		<line fill="none" stroke="#636B71" stroke-miterlimit="10" x1="-203.134" y1="145.672" x2="-160.282" y2="140.524"/>
		<line fill="none" stroke="#636B71" stroke-miterlimit="10" x1="-80.183" y1="124.886" x2="-123.322" y2="126.073"/>
		<line fill="none" stroke="#636B71" stroke-miterlimit="10" x1="-80.328" y1="145.672" x2="-123.176" y2="140.524"/>
		<circle fill="#666B71" cx="-169.511" cy="134.488" r="2.145"/>
		<circle fill="#666B71" cx="-113.949" cy="134.488" r="2.146"/>
	</g>
	<path fill="none" stroke="#636B71" stroke-miterlimit="10" d="M-109.534,183.05c0,2.559-2.072,4.631-4.631,4.631h-55.133
		c-2.555,0-4.629-2.072-4.629-4.631l0,0c0-2.558,2.074-4.631,4.629-4.631h55.133C-111.606,178.419-109.534,180.493-109.534,183.05
		L-109.534,183.05z"/>
	<path fill="#666B71" d="M-122.588,187.785c0.401-0.549,0.62-1.126,0.62-1.721c0-3.837-8.849-6.947-19.763-6.947
		c-10.915,0-19.764,3.11-19.764,6.947c0,0.595,0.219,1.172,0.621,1.721H-122.588z"/>
	
		<line fill="none" stroke="#636B71" stroke-width="0.5" stroke-miterlimit="10" x1="-98.252" y1="78.726" x2="-98.252" y2="111.789"/>
	
		<line fill="none" stroke="#636B71" stroke-width="0.5" stroke-miterlimit="10" x1="-84.698" y1="78.726" x2="-84.698" y2="113.426"/>
	
		<line fill="none" stroke="#636B71" stroke-width="0.5" stroke-miterlimit="10" x1="-71.149" y1="78.726" x2="-71.149" y2="117.434"/>
</g>
<g>
	<path fill="none" stroke="#FFFFFF" stroke-miterlimit="10" d="M138.259,57.552c-2.358,0.041-4.836,0.134-7.409,0.276"/>
	<path fill="none" stroke="#636B71" stroke-miterlimit="10" d="M50.038,73.85C37.784,78.288,31.7,82.324,32.313,85.767
		c0.459,2.579,5.314,4.182,13.201,4.797"/>
	<g>
		<path fill="#646C72" d="M250.15,216.651c0,10.648-8.609,19.28-19.229,19.28H64.742c-10.621,0-19.229-8.632-19.229-19.28V66.812
			c0-10.648,8.607-19.28,19.229-19.28h166.18c10.619,0,19.229,8.632,19.229,19.28V216.651z"/>
		<path fill="#F8F7F6" d="M232.534,78.722h-70.684l-39.773-25.771H66.251c-8.449,0-15.296,6.84-15.296,15.274v147.031
			c0,8.438,6.847,15.273,15.296,15.273h163.207c8.445,0,15.293-6.835,15.293-15.273v-123.8
			C244.751,81.178,232.534,78.722,232.534,78.722z"/>
		<g>
			<path fill="#646C72" d="M102.911,118.489h3.288l-2.001,13.137c-0.054,0.379-0.08,0.629-0.08,0.746
				c0,0.338,0.154,0.635,0.462,0.889c0.232,0.18,0.533,0.271,0.903,0.271h4.638v-15.042h3.319v15.042h2.016v3.128h-2.016v6.065
				h-3.319v-6.065h-6.385c-1.122,0-2.017-0.523-2.683-1.572c-0.276-0.434-0.413-1.001-0.413-1.7c0-0.21,0.015-0.421,0.047-0.635
				L102.911,118.489z"/>
		</g>
		<g>
			<path fill="#646C72" d="M180.162,118.489h3.287l-2.002,13.137c-0.054,0.379-0.081,0.629-0.081,0.746
				c0,0.338,0.155,0.635,0.462,0.889c0.232,0.18,0.535,0.271,0.905,0.271h4.637v-15.042h3.318v15.042h2.019v3.128h-2.019v6.065
				h-3.318v-6.065h-6.385c-1.121,0-2.016-0.523-2.684-1.572c-0.273-0.434-0.412-1.001-0.412-1.7c0-0.21,0.017-0.421,0.047-0.635
				L180.162,118.489z"/>
		</g>
		<g>
			<path fill="#646C72" d="M142.228,188.803v-15.485c0-1.356,0.396-2.45,1.19-3.287c0.783-0.814,1.716-1.224,2.795-1.224h6.289
				c1.483,0,2.572,0.43,3.272,1.287c0.72,0.889,1.08,1.916,1.08,3.079v15.552c0,1.427-0.366,2.508-1.097,3.237
				c-0.307,0.309-0.694,0.567-1.159,0.779c-0.552,0.254-1.043,0.382-1.478,0.382h-6.544c-1.279,0-2.344-0.409-3.19-1.223
				C142.613,191.147,142.228,190.114,142.228,188.803z M147.15,189.993h4.7c0.669,0,1.123-0.133,1.366-0.396
				c0.211-0.243,0.318-0.672,0.318-1.287v-14.849c0-1.019-0.461-1.527-1.383-1.527h-5.178c-0.444,0-0.788,0.113-1.032,0.336
				c-0.264,0.254-0.396,0.561-0.396,0.922v15.118C145.547,189.433,146.081,189.993,147.15,189.993z"/>
		</g>
		<path fill="none" stroke="#FFFFFF" stroke-miterlimit="10" d="M151.454,71.987c7.792-3.452,12.173-6.795,11.694-9.485
			c-0.288-1.616-2.462-2.83-6.062-3.655"/>
		<path fill="none" stroke="#636B71" stroke-miterlimit="10" d="M144.925,74.612c2.379-0.877,4.562-1.755,6.529-2.625"/>
		<path fill="none" stroke="#636B71" stroke-miterlimit="10" d="M110.34,84.122c3.682-0.768,7.251-1.573,10.68-2.408"/>
		<path fill="none" stroke="#636B71" stroke-miterlimit="10" d="M79.574,89.151c4.444-0.521,9.077-1.16,13.844-1.92"/>
		<path fill="none" stroke="#636B71" stroke-miterlimit="10" d="M50.955,90.825c1.371,0.028,2.807,0.037,4.298,0.019"/>
		<path fill="none" stroke="#FFFFFF" stroke-miterlimit="10" d="M45.515,90.564c1.681,0.134,3.498,0.219,5.44,0.261"/>
		<polygon fill="#F8F7F6" stroke="#636B71" stroke-miterlimit="10" points="66.308,79.167 69.754,86.147 77.456,87.268 
			71.882,92.702 73.198,100.375 66.308,96.75 59.417,100.375 60.733,92.702 55.158,87.268 62.862,86.147 		"/>
		<polygon fill="#F8F7F6" stroke="#636B71" stroke-miterlimit="10" points="100.754,80.725 102.447,84.158 106.231,84.708 
			103.494,87.377 104.14,91.148 100.754,89.367 97.367,91.148 98.013,87.377 95.273,84.708 99.06,84.158 		"/>
		<polygon fill="#646C72" stroke="#F8F7F6" stroke-miterlimit="10" points="148.824,50.222 151.251,55.139 156.677,55.926 
			152.751,59.753 153.679,65.157 148.824,62.606 143.973,65.157 144.897,59.753 140.972,55.926 146.398,55.139 		"/>
		<polygon fill="#F8F7F6" stroke="#636B71" stroke-miterlimit="10" points="130.964,67.512 134.481,74.643 142.349,75.786 
			136.656,81.333 138,89.168 130.964,85.471 123.925,89.168 125.269,81.333 119.576,75.786 127.443,74.643 		"/>
	</g>
</g>
</svg>
