<?xml version="1.0" encoding="utf-8"?>
<!-- Generator: Adobe Illustrator 16.0.0, SVG Export Plug-In . SVG Version: 6.00 Build 0)  -->
<!DOCTYPE svg PUBLIC "-//W3C//DTD SVG 1.1//EN" "http://www.w3.org/Graphics/SVG/1.1/DTD/svg11.dtd">
<svg version="1.1" id="图层_1" xmlns="http://www.w3.org/2000/svg" xmlns:xlink="http://www.w3.org/1999/xlink" x="0px" y="0px"
	 width="283.465px" height="283.465px" viewBox="0 0 283.465 283.465" enable-background="new 0 0 283.465 283.465"
	 xml:space="preserve">
<g>
	<path fill="#999899" d="M-94.425,12.403h-137.229c-8.875,0-16.069,7.197-16.069,16.072v222.974c0,8.875,7.194,16.072,16.069,16.072
		h137.229c8.875,0,16.072-7.197,16.072-16.072V28.476C-78.353,19.601-85.55,12.403-94.425,12.403z M-89.691,240.465
		c0,8.875-7.197,16.072-16.072,16.072h-115.26c-8.875,0-16.069-7.197-16.069-16.072V39.814c0-8.875,7.194-16.073,16.069-16.073
		h115.26c8.875,0,16.072,7.198,16.072,16.073V240.465z"/>
	<path fill="#999899" d="M-219.73,63.781h73.347c3.134,0,5.669-2.536,5.669-5.669c0-3.134-2.535-5.67-5.669-5.67h-73.347
		c-3.131,0-5.669,2.536-5.669,5.67C-225.399,61.245-222.861,63.781-219.73,63.781z"/>
	<path fill="#999899" d="M-106.345,91.773H-219.73c-3.131,0-5.669,2.535-5.669,5.669s2.538,5.67,5.669,5.67h113.386
		c3.134,0,5.669-2.536,5.669-5.67S-103.211,91.773-106.345,91.773z"/>
	<path fill="#999899" d="M-106.345,131.458H-219.73c-3.134,0-5.669,2.536-5.669,5.67s2.535,5.669,5.669,5.669h113.386
		c3.134,0,5.669-2.535,5.669-5.669S-103.211,131.458-106.345,131.458z"/>
	<path fill="#999899" d="M-106.345,171.144H-219.73c-3.134,0-5.669,2.535-5.669,5.669s2.535,5.67,5.669,5.67h113.386
		c3.134,0,5.669-2.536,5.669-5.67S-103.211,171.144-106.345,171.144z"/>
	<path fill="#999899" d="M-106.345,210.828H-219.73c-3.134,0-5.669,2.536-5.669,5.67s2.535,5.669,5.669,5.669h113.386
		c3.134,0,5.669-2.535,5.669-5.669S-103.211,210.828-106.345,210.828z"/>
</g>
<g>
	<path fill="#639D38" d="M210.346,14.173H73.117c-8.875,0-16.07,7.197-16.07,16.072v222.973c0,8.875,7.195,16.072,16.07,16.072
		h137.229c8.875,0,16.072-7.197,16.072-16.072V30.246C226.418,21.371,219.221,14.173,210.346,14.173z M215.078,242.234
		c0,8.875-7.197,16.072-16.072,16.072H83.746c-8.875,0-16.068-7.197-16.068-16.072V41.584c0-8.875,7.193-16.073,16.068-16.073
		h115.26c8.875,0,16.072,7.198,16.072,16.073V242.234z"/>
	<path fill="#639D38" d="M85.039,65.551h73.348c3.133,0,5.668-2.536,5.668-5.669c0-3.134-2.535-5.67-5.668-5.67H85.039
		c-3.131,0-5.668,2.536-5.668,5.67C79.371,63.015,81.908,65.551,85.039,65.551z"/>
	<path fill="#639D38" d="M198.426,93.543H85.039c-3.131,0-5.668,2.535-5.668,5.669s2.537,5.67,5.668,5.67h113.387
		c3.133,0,5.668-2.536,5.668-5.67S201.559,93.543,198.426,93.543z"/>
	<path fill="#639D38" d="M198.426,133.228H85.039c-3.133,0-5.668,2.536-5.668,5.67c0,3.133,2.535,5.668,5.668,5.668h113.387
		c3.133,0,5.668-2.535,5.668-5.668C204.094,135.764,201.559,133.228,198.426,133.228z"/>
	<path fill="#639D38" d="M198.426,172.914H85.039c-3.133,0-5.668,2.535-5.668,5.668c0,3.135,2.535,5.67,5.668,5.67h113.387
		c3.133,0,5.668-2.535,5.668-5.67C204.094,175.449,201.559,172.914,198.426,172.914z"/>
	<path fill="#639D38" d="M198.426,212.598H85.039c-3.133,0-5.668,2.537-5.668,5.67c0,3.135,2.535,5.67,5.668,5.67h113.387
		c3.133,0,5.668-2.535,5.668-5.67C204.094,215.135,201.559,212.598,198.426,212.598z"/>
</g>
</svg>
