<?xml version="1.0" encoding="utf-8"?>
<!-- Generator: Adobe Illustrator 16.0.0, SVG Export Plug-In . SVG Version: 6.00 Build 0)  -->
<!DOCTYPE svg PUBLIC "-//W3C//DTD SVG 1.1//EN" "http://www.w3.org/Graphics/SVG/1.1/DTD/svg11.dtd">
<svg version="1.1" id="图层_1" xmlns="http://www.w3.org/2000/svg" xmlns:xlink="http://www.w3.org/1999/xlink" x="0px" y="0px"
	 width="283.46px" height="283.46px" viewBox="0 0 283.46 283.46" enable-background="new 0 0 283.46 283.46" xml:space="preserve">
<g>
	<g>
		<path fill-rule="evenodd" clip-rule="evenodd" fill="#666666" d="M14.171,55.823v154.419v14.725v2.67h144.902h14.725h95.491
			v-19.941v-14.729V55.823H14.171z M24.584,217.225v-2.671l60.703-60.702l63.374,63.373H24.584z M258.876,217.225h-95.49
			l-47.307-47.307l57.719-57.716l85.078,85.081V217.225z M258.876,182.554l-85.078-85.079l-65.081,65.082l-23.43-23.43
			l-60.703,60.703V66.236h234.292V182.554z M87.062,118.3c11.501,0,20.826-9.324,20.826-20.825c0-11.502-9.325-20.826-20.826-20.826
			s-20.826,9.324-20.826,20.826C66.235,108.976,75.561,118.3,87.062,118.3z M87.062,87.062c5.751,0,10.413,4.662,10.413,10.413
			c0,5.75-4.662,10.412-10.413,10.412c-5.75,0-10.413-4.662-10.413-10.412C76.648,91.724,81.312,87.062,87.062,87.062z"/>
	</g>
</g>
</svg>
