<?xml version="1.0" encoding="utf-8"?>
<!-- Generator: Adobe Illustrator 16.0.0, SVG Export Plug-In . SVG Version: 6.00 Build 0)  -->
<!DOCTYPE svg PUBLIC "-//W3C//DTD SVG 1.1//EN" "http://www.w3.org/Graphics/SVG/1.1/DTD/svg11.dtd">
<svg version="1.1" id="图层_1" xmlns="http://www.w3.org/2000/svg" xmlns:xlink="http://www.w3.org/1999/xlink" x="0px" y="0px"
	 width="283.46px" height="283.46px" viewBox="0 0 283.46 283.46" enable-background="new 0 0 283.46 283.46" xml:space="preserve">
<path fill="#FFFFFF" d="M263.8,46.173l-95.561,95.561l95.546,95.553c7.336,7.337,7.336,19.174,0,26.511
	c-7.307,7.306-19.174,7.306-26.495,0l-95.546-95.562l-95.561,95.562c-7.336,7.336-19.204,7.306-26.51,0
	c-7.336-7.337-7.336-19.174,0-26.511l95.561-95.553L19.673,46.173c-7.336-7.337-7.336-19.174,0-26.511
	c7.321-7.321,19.174-7.321,26.495,0l95.562,95.561l95.561-95.561c7.321-7.321,19.188-7.306,26.495,0
	C271.121,27,271.121,38.852,263.8,46.173z"/>
</svg>
