<?xml version="1.0" encoding="utf-8"?>
<!-- Generator: Adobe Illustrator 16.0.0, SVG Export Plug-In . SVG Version: 6.00 Build 0)  -->
<!DOCTYPE svg PUBLIC "-//W3C//DTD SVG 1.1//EN" "http://www.w3.org/Graphics/SVG/1.1/DTD/svg11.dtd">
<svg version="1.1" id="图层_1" xmlns="http://www.w3.org/2000/svg" xmlns:xlink="http://www.w3.org/1999/xlink" x="0px" y="0px"
	 width="283.46px" height="283.46px" viewBox="0 0 283.46 283.46" enable-background="new 0 0 283.46 283.46" xml:space="preserve">
<g>
	<path fill="#A53F3E" d="M269.16,136.706h-8.648c0.045,1.372,0.104,2.741,0.104,4.124c0,66.215-53.677,119.892-119.893,119.892
		c-66.215,0-119.892-53.677-119.892-119.892S74.509,20.938,140.724,20.938c1.383,0,2.751,0.059,4.124,0.104v-6.791
		c-1.041-0.026-2.072-0.079-3.118-0.079c-70.447,0-127.559,57.109-127.559,127.558c0,70.45,57.111,127.559,127.559,127.559
		c70.448,0,127.56-57.108,127.56-127.559C269.289,140.044,269.225,138.375,269.16,136.706z"/>
	<path fill="#A53F3E" d="M96.574,131.242l-17.303,0.104v8.615l13.098,0.139l-8.538,11.658l-0.184,8.003h-4.376v45.892h21.888v-6.497
		l83.092-0.364v6.827h21.955v-45.892h-4.379v-7.603l-8.65-12.059l12.96-0.069l0.069-8.662l-17.146,0.092l-9.302-15.229h-74.405
		L96.574,131.242z M92.588,179.3l-4.376-10.578l28.354,6.472v4.106H92.588z M179.942,192.658h-74.41l-2.324-8.755h0.548h78.377
		L179.942,192.658z M197.268,168.722L192.8,179.3h-23.798v-4.287L197.268,168.722z M177.665,120.299l8.752,15.23H98.879l8.844-15.23
		H177.665z"/>
	<path fill="#A53F3E" d="M135.161,104.037l-0.144-1.902V76.126h7.688v-7.612H86.804v7.612h45.89v27.385
		c0,6.305,5.111,11.416,11.415,11.416c6.123,0,11.082-4.835,11.364-10.89h-2.446c-0.352,4.65-4.192,8.326-8.933,8.326
		S135.513,108.688,135.161,104.037z"/>
</g>
</svg>
