<?xml version="1.0" encoding="utf-8"?>
<!-- Generator: Adobe Illustrator 16.0.0, SVG Export Plug-In . SVG Version: 6.00 Build 0)  -->
<!DOCTYPE svg PUBLIC "-//W3C//DTD SVG 1.1//EN" "http://www.w3.org/Graphics/SVG/1.1/DTD/svg11.dtd">
<svg version="1.1" id="图层_1" xmlns="http://www.w3.org/2000/svg" xmlns:xlink="http://www.w3.org/1999/xlink" x="0px" y="0px"
	 width="283.46px" height="283.46px" viewBox="0 0 283.46 283.46" enable-background="new 0 0 283.46 283.46" xml:space="preserve">
<g>
	<path fill="#979797" d="M141.738,14.174c-70.454,0-127.567,57.108-127.567,127.558c0,70.442,57.113,127.555,127.567,127.555
		c70.438,0,127.551-57.112,127.551-127.555C269.289,71.282,212.176,14.174,141.738,14.174z M141.738,250.541
		c-60.093,0-108.813-48.711-108.813-108.81c0-60.093,48.721-108.809,108.813-108.809c60.094,0,108.805,48.716,108.805,108.809
		C250.543,201.83,201.832,250.541,141.738,250.541z"/>
	<path fill="#979797" d="M227.274,141.022h-86.299V82.007c0-2.523-2.04-4.568-4.568-4.568c-2.52,0-4.568,2.045-4.568,4.568v63.251
		c0,1.907,1.171,3.531,2.821,4.214c0.532,0.231,1.117,0.355,1.729,0.355h90.885c2.432,0,4.4-1.97,4.4-4.4
		C231.675,142.991,229.706,141.022,227.274,141.022z"/>
</g>
</svg>
