<?xml version="1.0" encoding="utf-8"?>
<!-- Generator: Adobe Illustrator 16.0.0, SVG Export Plug-In . SVG Version: 6.00 Build 0)  -->
<!DOCTYPE svg PUBLIC "-//W3C//DTD SVG 1.1//EN" "http://www.w3.org/Graphics/SVG/1.1/DTD/svg11.dtd">
<svg version="1.1" id="图层_1" xmlns="http://www.w3.org/2000/svg" xmlns:xlink="http://www.w3.org/1999/xlink" x="0px" y="0px"
	 width="283.46px" height="283.46px" viewBox="0 0 283.46 283.46" enable-background="new 0 0 283.46 283.46" xml:space="preserve">
<g>
	<g>
		<path fill-rule="evenodd" clip-rule="evenodd" fill="#B64341" d="M256.533,52.438H26.927c-7.044,0-12.756,5.711-12.756,12.756
			v153.071c0,7.044,5.711,12.756,12.756,12.756h229.606c7.044,0,12.756-5.712,12.756-12.756V65.194
			C269.289,58.15,263.577,52.438,256.533,52.438z M262.911,167.241h-63.779c-17.614,0-31.89-14.275-31.89-31.89
			s14.275-31.89,31.89-31.89h63.779V167.241z M179.998,135.352c0,10.563,8.57,19.134,19.134,19.134s19.134-8.57,19.134-19.134
			c0-10.566-8.57-19.134-19.134-19.134S179.998,124.785,179.998,135.352z"/>
	</g>
</g>
</svg>
