<?xml version="1.0" encoding="utf-8"?>
<!-- Generator: Adobe Illustrator 16.0.0, SVG Export Plug-In . SVG Version: 6.00 Build 0)  -->
<!DOCTYPE svg PUBLIC "-//W3C//DTD SVG 1.1//EN" "http://www.w3.org/Graphics/SVG/1.1/DTD/svg11.dtd">
<svg version="1.1" id="图层_1" xmlns="http://www.w3.org/2000/svg" xmlns:xlink="http://www.w3.org/1999/xlink" x="0px" y="0px"
	 width="283.46px" height="283.46px" viewBox="0 0 283.46 283.46" enable-background="new 0 0 283.46 283.46" xml:space="preserve">
<g>
	<path fill="#272636" d="M39.683,167.241c-14.068,0-25.512-11.444-25.512-25.511c0-14.067,11.444-25.512,25.512-25.512
		c14.066,0,25.511,11.444,25.511,25.512C65.194,155.797,53.75,167.241,39.683,167.241L39.683,167.241z M39.683,131.227
		c-5.793,0-10.504,4.712-10.504,10.504s4.711,10.505,10.504,10.505c5.792,0,10.505-4.713,10.505-10.505
		S45.475,131.227,39.683,131.227L39.683,131.227z M243.777,167.241c-14.066,0-25.512-11.444-25.512-25.511
		c0-14.067,11.445-25.512,25.512-25.512c14.067,0,25.512,11.444,25.512,25.512C269.289,155.797,257.845,167.241,243.777,167.241
		L243.777,167.241z M243.777,131.227c-5.792,0-10.506,4.712-10.506,10.504s4.714,10.505,10.506,10.505
		c5.793,0,10.504-4.713,10.504-10.505S249.57,131.227,243.777,131.227L243.777,131.227z M142.931,167.241
		c-14.068,0-25.512-11.444-25.512-25.511c0-14.067,11.444-25.512,25.512-25.512c14.067,0,25.513,11.444,25.513,25.512
		C168.443,155.797,156.998,167.241,142.931,167.241L142.931,167.241z M142.931,131.227c-5.793,0-10.505,4.712-10.505,10.504
		s4.712,10.505,10.505,10.505c5.792,0,10.505-4.713,10.505-10.505S148.723,131.227,142.931,131.227L142.931,131.227z
		 M142.931,131.227"/>
</g>
</svg>
