<?xml version="1.0" encoding="utf-8"?>
<!-- Generator: Adobe Illustrator 16.0.0, SVG Export Plug-In . SVG Version: 6.00 Build 0)  -->
<!DOCTYPE svg PUBLIC "-//W3C//DTD SVG 1.1//EN" "http://www.w3.org/Graphics/SVG/1.1/DTD/svg11.dtd">
<svg version="1.1" id="图层_1" xmlns="http://www.w3.org/2000/svg" xmlns:xlink="http://www.w3.org/1999/xlink" x="0px" y="0px"
	 width="99.213px" height="99.213px" viewBox="0 0 99.213 99.213" enable-background="new 0 0 99.213 99.213" xml:space="preserve">
<g>
	<path fill="none" stroke="#C40000" stroke-width="20" stroke-miterlimit="10" d="M369.346,638.896"/>
</g>
<g>
	<path fill="#FF2800" stroke="#C40000" stroke-width="3" stroke-miterlimit="10" d="M49.627,85.918L15.913,53.653
		c-1.077-1.148-2.046-2.422-2.877-3.785c-0.819-1.343-1.501-2.776-2.029-4.26c-0.895-2.52-1.35-6.299-1.35-8.905
		c0-12.724,10.351-20.31,23.074-20.31c6.405,0,12.445,4.868,16.77,9.445c4.323-4.577,10.364-9.445,16.77-9.445
		c12.722,0,23.072,7.586,23.072,20.31c0,2.563-0.439,6.302-1.304,8.782c-0.553,1.579-1.279,3.103-2.164,4.527
		c-0.743,1.198-1.601,2.335-2.55,3.378l-0.181,0.183L49.627,85.918L49.627,85.918z M49.627,85.918"/>
	<g>
		<path opacity="0.4" fill="#FFFFFF" d="M50.613,76.618l-27.83-26.125c-2.026-2.707-3.144-6.063-3.144-9.45
			c0-8.464,6.818-15.35,15.199-15.35v5.581c-5.333,0-9.672,4.383-9.672,9.769c0,2.071,0.687,4.206,1.89,5.899l27.316,25.583
			L50.613,76.618L50.613,76.618z"/>
		<path opacity="0.3" fill="#FFFFFF" d="M63.554,36.329l-4.842-2.692c1.957-3.587,5.184-6.19,9.089-7.331
			c3.903-1.141,8.007-0.678,11.558,1.296l-2.667,4.89c-2.255-1.255-4.869-1.548-7.356-0.823
			C66.852,32.395,64.796,34.05,63.554,36.329L63.554,36.329z"/>
	</g>
</g>
</svg>
