<?xml version="1.0" encoding="utf-8"?>
<!-- Generator: Adobe Illustrator 16.0.0, SVG Export Plug-In . SVG Version: 6.00 Build 0)  -->
<!DOCTYPE svg PUBLIC "-//W3C//DTD SVG 1.1//EN" "http://www.w3.org/Graphics/SVG/1.1/DTD/svg11.dtd">
<svg version="1.1" id="图层_1" xmlns="http://www.w3.org/2000/svg" xmlns:xlink="http://www.w3.org/1999/xlink" x="0px" y="0px"
	 width="283.46px" height="283.46px" viewBox="0 0 283.46 283.46" enable-background="new 0 0 283.46 283.46" xml:space="preserve">
<g>
	<path fill="#CA5342" d="M222.961,29.402c0,10.999-16.998,25.384-37.966,25.384H98.463c-20.966,0-37.966-13.96-37.966-25.384
		c0-11.423,11.848-15.231,30.37-12.561c7.546,1.087,13.543,5.958,22.48,5.528c8.395-0.401,19.701-8.198,28.38-8.198
		c8.68,0,19.977,7.975,28.37,8.62c9.115,0.701,15.485-2.37,22.932-4.613C211.963,12.477,222.961,18.403,222.961,29.402
		 M192.5,66.208H90.961c-21.031,0-71.079,45.692-71.079,109.155c0,38.08,27.924,93.926,66,93.926h111.694
		c41.886,0,66.002-54.576,66.002-93.926C263.578,111.901,213.529,66.208,192.5,66.208 M176.154,170.014
		c6.355,0,11.506,5.15,11.506,11.504c0,6.356-5.15,11.506-11.506,11.506h-22.92v29.825c0,6.353-5.148,11.503-11.503,11.503
		c-6.355,0-11.508-5.15-11.508-11.503v-29.825h-22.92c-6.355,0-11.507-5.149-11.507-11.506c0-6.354,5.151-11.504,11.507-11.504
		h22.92V158.51h-22.92c-6.355,0-11.507-5.15-11.507-11.508c0-6.354,5.151-11.504,11.507-11.504h15.857l-15.515-15.511
		c-4.491-4.492-4.491-11.777,0.005-16.271c4.487-4.49,11.775-4.492,16.268,0.004l17.812,17.81l17.809-17.81
		c4.494-4.497,11.777-4.495,16.272-0.004c4.495,4.495,4.495,11.78,0.003,16.271l-15.51,15.511h15.852
		c6.354,0,11.504,5.149,11.504,11.504c0,6.357-5.15,11.508-11.504,11.508h-22.922v11.504H176.154L176.154,170.014z M176.154,170.014
		"/>
</g>
</svg>
