<?xml version="1.0" encoding="utf-8"?>
<!-- Generator: Adobe Illustrator 16.0.0, SVG Export Plug-In . SVG Version: 6.00 Build 0)  -->
<!DOCTYPE svg PUBLIC "-//W3C//DTD SVG 1.1//EN" "http://www.w3.org/Graphics/SVG/1.1/DTD/svg11.dtd">
<svg version="1.1" id="图层_1" xmlns="http://www.w3.org/2000/svg" xmlns:xlink="http://www.w3.org/1999/xlink" x="0px" y="0px"
	 width="141.732px" height="141.732px" viewBox="0 0 141.732 141.732" enable-background="new 0 0 141.732 141.732"
	 xml:space="preserve">
<path fill-rule="evenodd" clip-rule="evenodd" fill="#44B035" d="M-108.283-544.634H10.373c14.493,0,26.352,11.858,26.352,26.351
	v119.819c0,14.494-11.858,26.352-26.352,26.352h-118.656c-14.493,0-26.351-11.857-26.351-26.352v-119.819
	C-134.634-532.776-122.776-544.634-108.283-544.634L-108.283-544.634z"/>
<path fill-rule="evenodd" clip-rule="evenodd" fill="#FFFFFF" d="M-76.787-516.933c2.188-0.251,4.419-0.385,6.684-0.394h0.519
	c2.266,0.01,4.505,0.143,6.708,0.394c0.891,0.102,1.775,0.224,2.653,0.363c0.693,0.11,1.382,0.23,2.066,0.364
	c0.582,0.113,1.16,0.234,1.734,0.363c0.512,0.115,1.022,0.236,1.529,0.364c0.459,0.116,0.914,0.237,1.368,0.364
	c0.421,0.117,0.84,0.238,1.257,0.363c0.39,0.118,0.778,0.239,1.164,0.364c0.365,0.118,0.727,0.239,1.087,0.363
	c0.342,0.119,0.683,0.24,1.021,0.364c0.324,0.118,0.646,0.24,0.967,0.364c0.307,0.119,0.612,0.24,0.917,0.363
	c0.294,0.119,0.585,0.24,0.875,0.364c0.281,0.12,0.561,0.24,0.839,0.363c0.27,0.12,0.538,0.241,0.806,0.364
	c0.257,0.119,0.513,0.241,0.768,0.363c0.248,0.12,0.494,0.242,0.739,0.364c0.24,0.12,0.479,0.241,0.717,0.364
	c0.232,0.12,0.465,0.24,0.694,0.364c0.224,0.12,0.445,0.241,0.666,0.363c0.217,0.12,0.432,0.242,0.646,0.364
	c0.21,0.121,0.421,0.241,0.63,0.363c0.204,0.12,0.406,0.241,0.608,0.364c0.197,0.12,0.394,0.242,0.59,0.364
	c0.192,0.121,0.387,0.241,0.578,0.364c0.187,0.12,0.372,0.242,0.557,0.363c0.183,0.12,0.363,0.242,0.544,0.364
	c0.178,0.121,0.357,0.241,0.533,0.363c0.173,0.12,0.343,0.242,0.513,0.364c0.169,0.121,0.338,0.241,0.506,0.364
	c0.164,0.12,0.327,0.241,0.49,0.364c0.16,0.12,0.319,0.241,0.479,0.363c0.157,0.121,0.314,0.241,0.47,0.364
	c0.152,0.12,0.303,0.242,0.454,0.363c0.15,0.121,0.302,0.241,0.45,0.364c0.146,0.12,0.288,0.242,0.432,0.364
	c0.144,0.121,0.287,0.241,0.429,0.363c0.139,0.12,0.276,0.242,0.414,0.364c0.137,0.121,0.273,0.241,0.408,0.364
	c0.134,0.12,0.266,0.242,0.397,0.363c0.13,0.121,0.261,0.242,0.39,0.364c0.128,0.12,0.254,0.242,0.38,0.363
	c0.125,0.121,0.249,0.242,0.373,0.364c0.122,0.121,0.243,0.242,0.364,0.363c0.119,0.121,0.238,0.242,0.356,0.364
	c0.117,0.121,0.233,0.242,0.349,0.364c0.115,0.121,0.229,0.242,0.342,0.363c0.112,0.121,0.224,0.242,0.334,0.364
	c0.109,0.121,0.22,0.242,0.328,0.364c0.106,0.121,0.213,0.242,0.319,0.363c0.105,0.121,0.21,0.242,0.313,0.364
	c0.103,0.12,0.204,0.242,0.306,0.363c0.101,0.121,0.202,0.242,0.302,0.364c0.099,0.121,0.194,0.243,0.292,0.364
	c0.097,0.121,0.195,0.242,0.29,0.363c0.094,0.121,0.186,0.243,0.278,0.364c0.093,0.122,0.187,0.242,0.278,0.364
	c0.09,0.12,0.177,0.242,0.266,0.363s0.178,0.242,0.266,0.364c0.086,0.121,0.171,0.242,0.256,0.364
	c0.085,0.121,0.169,0.242,0.252,0.363c0.083,0.121,0.165,0.242,0.247,0.364c0.081,0.121,0.16,0.242,0.239,0.363
	c0.079,0.122,0.16,0.242,0.238,0.364c0.077,0.121,0.151,0.242,0.227,0.364c0.076,0.121,0.153,0.241,0.228,0.364
	c0.074,0.12,0.146,0.242,0.218,0.363c0.072,0.121,0.145,0.242,0.215,0.364c0.07,0.121,0.141,0.242,0.21,0.363
	c0.068,0.121,0.136,0.242,0.203,0.364c0.067,0.121,0.136,0.242,0.202,0.364c0.065,0.12,0.127,0.242,0.191,0.363
	s0.129,0.242,0.192,0.364c0.062,0.121,0.122,0.242,0.183,0.364c0.062,0.121,0.121,0.242,0.181,0.363
	c0.06,0.121,0.119,0.242,0.177,0.364c0.058,0.121,0.113,0.242,0.169,0.363c0.057,0.121,0.114,0.242,0.17,0.364
	c0.055,0.121,0.106,0.243,0.159,0.363c0.053,0.121,0.106,0.242,0.158,0.364c0.052,0.121,0.104,0.242,0.153,0.364
	c0.05,0.121,0.099,0.242,0.147,0.363c0.049,0.122,0.1,0.242,0.146,0.364c0.048,0.121,0.092,0.243,0.138,0.364
	s0.092,0.242,0.136,0.363c0.045,0.121,0.09,0.242,0.133,0.364c0.043,0.121,0.083,0.243,0.125,0.363
	c0.042,0.122,0.085,0.242,0.126,0.364c0.04,0.121,0.077,0.242,0.116,0.364c0.039,0.121,0.077,0.242,0.115,0.364
	c0.037,0.121,0.076,0.242,0.112,0.363c0.036,0.121,0.069,0.243,0.104,0.364c0.034,0.121,0.07,0.242,0.104,0.363
	s0.065,0.242,0.098,0.364c0.032,0.121,0.063,0.242,0.094,0.364c0.031,0.121,0.064,0.242,0.094,0.363
	c0.029,0.121,0.056,0.243,0.084,0.364c0.027,0.121,0.056,0.242,0.083,0.364c0.018,0.079,0.036,0.157,0.054,0.236v0.002
	c-0.924-0.103-1.852-0.186-2.784-0.238c-0.71-0.04-1.422-0.062-2.138-0.062c-0.813,0-1.621,0.021-2.423,0.062
	c-1.333,0.067-2.649,0.189-3.946,0.363c-0.768,0.104-1.53,0.224-2.284,0.364c-0.593,0.11-1.182,0.232-1.765,0.364
	c-0.505,0.114-1.007,0.233-1.504,0.363c-0.438,0.114-0.875,0.237-1.308,0.364c-0.395,0.116-0.787,0.237-1.177,0.363
	c-0.362,0.117-0.722,0.238-1.079,0.364c-0.335,0.118-0.667,0.239-0.998,0.364c-0.313,0.118-0.623,0.239-0.932,0.363
	c-0.293,0.118-0.585,0.239-0.875,0.364c-0.277,0.119-0.554,0.239-0.828,0.363c-0.263,0.119-0.526,0.24-0.786,0.364
	c-0.249,0.119-0.495,0.241-0.741,0.363c-0.238,0.119-0.475,0.241-0.71,0.364c-0.229,0.12-0.457,0.241-0.683,0.364
	c-0.221,0.12-0.441,0.24-0.659,0.364c-0.21,0.119-0.417,0.241-0.625,0.363c-0.203,0.12-0.404,0.241-0.604,0.364
	c-0.196,0.12-0.394,0.24-0.588,0.363c-0.188,0.12-0.376,0.242-0.563,0.364c-0.183,0.12-0.364,0.242-0.545,0.364
	c-0.178,0.121-0.356,0.241-0.533,0.364c-0.171,0.119-0.339,0.242-0.508,0.363c-0.167,0.121-0.333,0.241-0.498,0.364
	c-0.162,0.12-0.324,0.241-0.484,0.363c-0.156,0.12-0.311,0.242-0.466,0.364c-0.154,0.121-0.308,0.241-0.46,0.364
	c-0.148,0.12-0.292,0.242-0.438,0.364c-0.145,0.12-0.29,0.241-0.433,0.363c-0.141,0.12-0.279,0.242-0.418,0.363
	c-0.137,0.121-0.274,0.242-0.409,0.364c-0.134,0.121-0.267,0.242-0.398,0.364c-0.13,0.121-0.259,0.242-0.388,0.363
	c-0.127,0.121-0.254,0.242-0.379,0.364c-0.124,0.12-0.246,0.242-0.368,0.364c-0.121,0.121-0.242,0.241-0.362,0.363
	c-0.118,0.121-0.233,0.242-0.35,0.364c-0.116,0.121-0.231,0.241-0.345,0.364c-0.112,0.12-0.223,0.242-0.333,0.363
	c-0.11,0.121-0.22,0.242-0.329,0.364c-0.106,0.12-0.212,0.242-0.317,0.363c-0.105,0.121-0.209,0.242-0.313,0.364
	c-0.102,0.12-0.203,0.242-0.304,0.364c-0.1,0.121-0.199,0.242-0.297,0.363c-0.097,0.121-0.194,0.242-0.291,0.364
	c-0.095,0.121-0.189,0.242-0.283,0.364c-0.093,0.121-0.187,0.241-0.278,0.363c-0.091,0.121-0.18,0.242-0.269,0.364
	c-0.089,0.121-0.18,0.241-0.267,0.363c-0.086,0.12-0.17,0.243-0.255,0.364c-0.085,0.122-0.171,0.242-0.255,0.364
	c-0.082,0.12-0.163,0.242-0.244,0.363s-0.162,0.242-0.242,0.364c-0.079,0.121-0.157,0.242-0.234,0.363
	c-0.077,0.121-0.153,0.243-0.229,0.364s-0.151,0.242-0.226,0.364c-0.073,0.121-0.145,0.242-0.217,0.364
	c-0.072,0.121-0.146,0.241-0.216,0.363c-0.07,0.121-0.137,0.243-0.206,0.364c-0.068,0.121-0.137,0.242-0.204,0.363
	c-0.066,0.121-0.132,0.242-0.198,0.364c-0.065,0.121-0.128,0.242-0.192,0.364c-0.064,0.121-0.129,0.241-0.191,0.364
	c-0.062,0.12-0.12,0.242-0.18,0.363c-0.061,0.121-0.122,0.242-0.181,0.363s-0.116,0.242-0.173,0.363
	c-0.058,0.121-0.114,0.242-0.169,0.363c-0.056,0.123-0.113,0.242-0.167,0.365c-0.054,0.119-0.105,0.242-0.158,0.363
	c-0.053,0.121-0.107,0.242-0.158,0.363s-0.101,0.242-0.15,0.363s-0.099,0.242-0.147,0.363c-0.048,0.121-0.099,0.242-0.146,0.363
	s-0.09,0.242-0.136,0.365c-0.045,0.121-0.092,0.24-0.136,0.363c-0.044,0.121-0.087,0.242-0.13,0.363
	c-0.042,0.121-0.084,0.242-0.125,0.363s-0.085,0.242-0.125,0.363c-0.04,0.121-0.076,0.242-0.115,0.363
	c-0.039,0.121-0.078,0.242-0.115,0.365c-0.038,0.121-0.075,0.24-0.111,0.363c-0.036,0.119-0.069,0.242-0.104,0.363
	c-0.035,0.121-0.071,0.242-0.104,0.363c-0.033,0.121-0.065,0.242-0.097,0.363s-0.063,0.242-0.094,0.363s-0.064,0.242-0.094,0.365
	c-0.029,0.119-0.055,0.242-0.083,0.363s-0.057,0.242-0.084,0.363s-0.055,0.242-0.081,0.363s-0.049,0.242-0.074,0.363
	c-0.024,0.121-0.05,0.242-0.074,0.363s-0.046,0.242-0.068,0.363s-0.043,0.244-0.064,0.365s-0.044,0.24-0.064,0.363
	c-0.02,0.121-0.037,0.242-0.056,0.363s-0.037,0.242-0.054,0.363s-0.037,0.242-0.053,0.363s-0.029,0.242-0.044,0.363
	c-0.015,0.121-0.03,0.242-0.044,0.365c-0.014,0.121-0.029,0.242-0.042,0.363c-0.012,0.121-0.022,0.242-0.034,0.363
	c-0.012,0.121-0.024,0.242-0.035,0.363c-0.01,0.121-0.02,0.242-0.029,0.363c-0.01,0.121-0.017,0.242-0.024,0.363
	c-0.008,0.121-0.018,0.242-0.024,0.363c-0.007,0.121-0.013,0.244-0.019,0.365c-0.006,0.119-0.01,0.242-0.015,0.363
	s-0.011,0.242-0.015,0.363c-0.003,0.121-0.005,0.242-0.007,0.363c-0.002,0.121-0.004,0.242-0.005,0.363
	c-0.001,0.121-0.005,0.242-0.005,0.365l0,0.037c0,0.107,0,0.217,0.002,0.326c0,0.121,0.002,0.242,0.005,0.363
	c0.002,0.121,0.005,0.242,0.009,0.363c0.004,0.121,0.008,0.242,0.013,0.363s0.01,0.242,0.016,0.363
	c0.006,0.121,0.013,0.242,0.02,0.363c0.007,0.123,0.015,0.244,0.023,0.365c0.009,0.121,0.018,0.242,0.027,0.363
	s0.02,0.242,0.03,0.363c0.011,0.121,0.022,0.242,0.035,0.363s0.025,0.242,0.038,0.363s0.027,0.242,0.042,0.363
	c0.015,0.121,0.03,0.244,0.045,0.363c0.016,0.123,0.032,0.244,0.049,0.365s0.034,0.242,0.052,0.363s0.037,0.242,0.056,0.363
	c0.02,0.121,0.04,0.242,0.06,0.363s0.042,0.242,0.063,0.363c0.022,0.121,0.044,0.242,0.067,0.363
	c0.023,0.123,0.046,0.244,0.07,0.363c0.024,0.123,0.049,0.244,0.074,0.365c0.025,0.121,0.051,0.242,0.077,0.363
	c0.027,0.121,0.054,0.242,0.082,0.363c0.028,0.121,0.056,0.242,0.084,0.363c0.029,0.121,0.059,0.242,0.089,0.363
	c0.03,0.121,0.061,0.242,0.092,0.363c0.031,0.123,0.063,0.244,0.095,0.365c0.033,0.121,0.065,0.242,0.099,0.363
	s0.068,0.242,0.103,0.363l0.06,0.207c-0.859,0.066-1.723,0.121-2.59,0.156c-0.725,0.029-1.453,0.047-2.183,0.047
	c-0.708,0-1.4-0.016-2.081-0.047c-1.435-0.064-2.815-0.189-4.176-0.363c-0.83-0.105-1.652-0.229-2.474-0.363
	c-0.683-0.113-1.366-0.234-2.052-0.363c-0.619-0.117-1.241-0.238-1.87-0.365c-0.59-0.117-1.187-0.238-1.791-0.363
	c-0.583-0.119-1.175-0.24-1.775-0.363c-0.554-0.113-1.117-0.227-1.689-0.34l-0.677,0.34l-0.725,0.363l-0.726,0.363l-0.725,0.365
	l-0.725,0.363l-0.725,0.363l-0.725,0.363l-0.725,0.363l-0.725,0.363l-0.725,0.365l-0.725,0.363l-0.726,0.363l-0.725,0.363
	l-0.725,0.363l-0.726,0.363l-0.725,0.365l-0.725,0.363l-0.725,0.363l-0.725,0.363l-0.725,0.363l-0.725,0.363l-0.726,0.363
	l-0.725,0.365l-0.725,0.363l-0.516,0.258l0.086-0.258l0.121-0.363l0.121-0.365l0.121-0.363l0.121-0.363l0.121-0.363l0.121-0.363
	l0.121-0.363l0.121-0.363l0.121-0.365l0.121-0.363l0.121-0.363l0.121-0.363l0.121-0.363l0.121-0.363l0.121-0.365l0.121-0.363
	l0.121-0.363l0.121-0.363l0.121-0.363l0.121-0.363l0.121-0.365l0.121-0.363l0.121-0.363l0.121-0.363l0.121-0.363l0.121-0.363
	l0.121-0.365l0.121-0.363l0.121-0.363l0.121-0.363l0.121-0.363l0.121-0.363l0.121-0.363l0.121-0.365l0.121-0.363l0.121-0.363
	l0.121-0.363l0.121-0.363l0.121-0.363l0.121-0.363l0.121-0.365l0.07-0.211c-0.072-0.051-0.143-0.102-0.214-0.152
	c-0.172-0.121-0.343-0.242-0.512-0.363c-0.168-0.121-0.336-0.242-0.502-0.363c-0.165-0.121-0.33-0.242-0.493-0.363
	c-0.162-0.121-0.323-0.242-0.483-0.363c-0.159-0.121-0.317-0.242-0.474-0.363c-0.156-0.121-0.311-0.242-0.466-0.365
	c-0.153-0.121-0.306-0.242-0.458-0.363c-0.15-0.121-0.301-0.242-0.449-0.363c-0.147-0.121-0.294-0.242-0.44-0.363
	c-0.145-0.121-0.289-0.242-0.432-0.363c-0.142-0.121-0.283-0.242-0.424-0.365c-0.139-0.119-0.278-0.242-0.416-0.363
	c-0.137-0.121-0.274-0.242-0.409-0.363c-0.134-0.121-0.268-0.242-0.4-0.363c-0.132-0.121-0.262-0.242-0.393-0.363
	c-0.129-0.121-0.258-0.242-0.385-0.363c-0.127-0.121-0.253-0.242-0.379-0.363c-0.124-0.121-0.249-0.242-0.372-0.365
	c-0.122-0.119-0.242-0.242-0.363-0.363c-0.12-0.121-0.239-0.242-0.357-0.363c-0.117-0.121-0.234-0.242-0.35-0.363
	s-0.231-0.242-0.345-0.363c-0.113-0.121-0.224-0.242-0.335-0.363c-0.111-0.121-0.22-0.242-0.33-0.365
	c-0.108-0.121-0.217-0.24-0.324-0.363c-0.106-0.121-0.212-0.242-0.317-0.363c-0.104-0.121-0.207-0.242-0.31-0.363
	c-0.102-0.121-0.204-0.242-0.304-0.363c-0.1-0.121-0.2-0.242-0.299-0.363c-0.098-0.121-0.195-0.242-0.292-0.363
	c-0.096-0.121-0.19-0.242-0.285-0.365c-0.094-0.121-0.187-0.242-0.28-0.363c-0.092-0.121-0.185-0.242-0.275-0.363
	c-0.09-0.121-0.178-0.242-0.267-0.363s-0.176-0.242-0.263-0.363c-0.086-0.121-0.172-0.242-0.257-0.363
	c-0.084-0.121-0.167-0.242-0.25-0.365c-0.083-0.119-0.164-0.242-0.245-0.363c-0.081-0.121-0.162-0.242-0.241-0.363
	c-0.079-0.121-0.156-0.242-0.233-0.363s-0.153-0.242-0.229-0.363c-0.076-0.121-0.15-0.242-0.225-0.363
	c-0.073-0.121-0.146-0.242-0.218-0.365c-0.072-0.119-0.142-0.242-0.212-0.363c-0.07-0.121-0.14-0.242-0.208-0.363
	s-0.135-0.242-0.203-0.363c-0.066-0.121-0.132-0.242-0.197-0.363s-0.13-0.242-0.194-0.363c-0.063-0.121-0.125-0.242-0.187-0.365
	c-0.062-0.119-0.123-0.242-0.183-0.363s-0.12-0.242-0.179-0.363s-0.116-0.242-0.172-0.363c-0.057-0.121-0.113-0.242-0.168-0.363
	c-0.055-0.121-0.111-0.242-0.165-0.364c-0.054-0.121-0.106-0.243-0.158-0.364c-0.052-0.121-0.104-0.242-0.154-0.364
	c-0.051-0.121-0.101-0.242-0.15-0.363c-0.049-0.121-0.097-0.242-0.144-0.364c-0.048-0.121-0.095-0.242-0.142-0.363
	c-0.046-0.121-0.091-0.242-0.136-0.364c-0.044-0.121-0.088-0.242-0.131-0.364c-0.043-0.121-0.087-0.242-0.128-0.364
	c-0.042-0.121-0.082-0.242-0.122-0.363c-0.04-0.121-0.08-0.242-0.119-0.364c-0.039-0.121-0.077-0.242-0.115-0.363
	c-0.038-0.121-0.073-0.242-0.11-0.364c-0.036-0.121-0.072-0.242-0.106-0.364c-0.035-0.121-0.068-0.242-0.101-0.363
	c-0.033-0.121-0.065-0.242-0.098-0.364c-0.032-0.121-0.063-0.242-0.094-0.363c-0.03-0.121-0.059-0.243-0.088-0.364
	c-0.029-0.121-0.058-0.242-0.086-0.364c-0.028-0.121-0.054-0.242-0.081-0.363c-0.027-0.121-0.052-0.242-0.078-0.364
	c-0.025-0.121-0.05-0.242-0.074-0.364c-0.024-0.121-0.046-0.242-0.069-0.363c-0.022-0.121-0.045-0.242-0.066-0.364
	c-0.021-0.121-0.041-0.242-0.061-0.363c-0.02-0.121-0.039-0.242-0.058-0.364c-0.019-0.121-0.037-0.242-0.054-0.364
	c-0.017-0.121-0.034-0.242-0.05-0.363s-0.033-0.242-0.047-0.364c-0.015-0.121-0.028-0.242-0.042-0.364
	c-0.014-0.121-0.027-0.242-0.04-0.363c-0.012-0.121-0.023-0.243-0.034-0.364c-0.012-0.121-0.022-0.242-0.032-0.364
	c-0.01-0.121-0.02-0.242-0.028-0.363c-0.009-0.121-0.017-0.242-0.024-0.363c-0.008-0.122-0.016-0.243-0.022-0.364
	s-0.011-0.243-0.017-0.364c-0.005-0.121-0.011-0.242-0.015-0.364c-0.004-0.121-0.007-0.242-0.01-0.363
	c-0.003-0.122-0.005-0.242-0.007-0.364c-0.001-0.121-0.002-0.242-0.003-0.363c0-0.063-0.002-0.124-0.002-0.187
	c0-0.059,0.002-0.118,0.003-0.177c0-0.122,0.003-0.242,0.005-0.364c0.001-0.121,0.002-0.243,0.005-0.364
	c0.002-0.121,0.005-0.242,0.009-0.363c0.004-0.122,0.011-0.243,0.016-0.364c0.005-0.121,0.01-0.242,0.016-0.363
	c0.006-0.122,0.012-0.243,0.019-0.364c0.007-0.122,0.018-0.242,0.027-0.364c0.008-0.121,0.017-0.243,0.027-0.364
	c0.01-0.121,0.018-0.242,0.029-0.363c0.011-0.122,0.026-0.242,0.038-0.364c0.012-0.121,0.024-0.243,0.038-0.363
	c0.013-0.121,0.024-0.243,0.039-0.364c0.015-0.122,0.033-0.242,0.048-0.363c0.016-0.122,0.032-0.243,0.049-0.364
	c0.017-0.121,0.031-0.243,0.05-0.364c0.018-0.122,0.04-0.242,0.06-0.363c0.02-0.122,0.039-0.243,0.06-0.364s0.039-0.243,0.06-0.363
	c0.022-0.122,0.048-0.243,0.071-0.364c0.023-0.122,0.046-0.243,0.071-0.364c0.024-0.121,0.046-0.243,0.072-0.363
	c0.025-0.122,0.055-0.243,0.082-0.364c0.026-0.122,0.054-0.243,0.082-0.364c0.028-0.121,0.054-0.243,0.083-0.363
	c0.029-0.122,0.062-0.243,0.093-0.364c0.03-0.122,0.061-0.243,0.092-0.364c0.032-0.121,0.063-0.243,0.096-0.363
	c0.033-0.122,0.07-0.243,0.104-0.364c0.035-0.121,0.069-0.243,0.104-0.363c0.036-0.122,0.071-0.243,0.107-0.364
	c0.037-0.122,0.077-0.242,0.116-0.364c0.038-0.121,0.076-0.243,0.115-0.364c0.04-0.121,0.08-0.243,0.121-0.363
	c0.041-0.122,0.085-0.243,0.127-0.364c0.042-0.121,0.083-0.243,0.127-0.363c0.044-0.122,0.089-0.243,0.134-0.364
	c0.045-0.122,0.092-0.243,0.139-0.364s0.091-0.243,0.139-0.363c0.048-0.122,0.099-0.242,0.148-0.364s0.1-0.243,0.15-0.364
	c0.051-0.121,0.099-0.243,0.151-0.363c0.053-0.122,0.109-0.242,0.163-0.364c0.054-0.121,0.107-0.243,0.163-0.363
	c0.055-0.122,0.11-0.243,0.166-0.364c0.057-0.122,0.117-0.242,0.175-0.363c0.059-0.122,0.116-0.243,0.175-0.364
	c0.06-0.122,0.121-0.243,0.182-0.364c0.062-0.122,0.125-0.242,0.188-0.363c0.063-0.121,0.124-0.244,0.188-0.364
	c0.064-0.122,0.133-0.243,0.199-0.364c0.066-0.121,0.133-0.243,0.2-0.363c0.067-0.122,0.134-0.243,0.203-0.364
	c0.07-0.122,0.142-0.242,0.213-0.363c0.071-0.122,0.141-0.244,0.213-0.364c0.073-0.122,0.148-0.243,0.222-0.364
	c0.075-0.122,0.15-0.243,0.227-0.364c0.076-0.121,0.15-0.243,0.228-0.363c0.078-0.122,0.16-0.242,0.239-0.364
	c0.08-0.121,0.159-0.243,0.24-0.363c0.082-0.122,0.165-0.243,0.248-0.364c0.084-0.122,0.168-0.243,0.253-0.364
	c0.085-0.121,0.169-0.243,0.255-0.364c0.087-0.122,0.179-0.242,0.268-0.363c0.089-0.121,0.177-0.243,0.268-0.364
	c0.092-0.122,0.185-0.243,0.278-0.363c0.093-0.122,0.188-0.243,0.282-0.364c0.095-0.121,0.19-0.243,0.287-0.364
	c0.098-0.122,0.198-0.242,0.298-0.363c0.099-0.121,0.197-0.244,0.297-0.364c0.102-0.122,0.208-0.242,0.312-0.363
	c0.104-0.122,0.208-0.243,0.313-0.364c0.107-0.122,0.214-0.243,0.323-0.364c0.108-0.122,0.219-0.243,0.329-0.363
	c0.111-0.122,0.222-0.243,0.334-0.364c0.114-0.122,0.23-0.243,0.346-0.364c0.116-0.121,0.23-0.243,0.347-0.363
	c0.12-0.123,0.243-0.243,0.364-0.364s0.241-0.243,0.364-0.363c0.125-0.123,0.253-0.243,0.379-0.364
	c0.127-0.122,0.253-0.244,0.382-0.363c0.13-0.123,0.263-0.243,0.396-0.364c0.133-0.122,0.266-0.243,0.4-0.364
	c0.137-0.122,0.275-0.243,0.413-0.363c0.14-0.122,0.279-0.244,0.42-0.364c0.143-0.123,0.288-0.243,0.433-0.364
	c0.146-0.122,0.293-0.243,0.441-0.363c0.15-0.123,0.302-0.243,0.454-0.364c0.154-0.122,0.308-0.244,0.463-0.363
	c0.158-0.123,0.318-0.243,0.478-0.364c0.161-0.122,0.322-0.244,0.485-0.364c0.167-0.123,0.335-0.243,0.504-0.364
	c0.169-0.121,0.338-0.244,0.51-0.363c0.176-0.123,0.355-0.243,0.534-0.364c0.179-0.122,0.357-0.244,0.539-0.363
	c0.186-0.123,0.375-0.243,0.563-0.364c0.19-0.122,0.381-0.244,0.574-0.364c0.196-0.122,0.393-0.244,0.591-0.364
	c0.203-0.123,0.408-0.243,0.614-0.363c0.208-0.122,0.415-0.244,0.625-0.364c0.217-0.123,0.436-0.243,0.655-0.363
	c0.224-0.123,0.449-0.244,0.674-0.364c0.23-0.122,0.459-0.245,0.692-0.364c0.242-0.124,0.486-0.243,0.73-0.364
	c0.25-0.123,0.501-0.244,0.753-0.363c0.259-0.122,0.518-0.245,0.78-0.364c0.271-0.123,0.544-0.244,0.818-0.363
	c0.285-0.124,0.572-0.244,0.86-0.364c0.298-0.124,0.599-0.245,0.9-0.363c0.313-0.124,0.629-0.246,0.946-0.364
	c0.332-0.124,0.665-0.246,1-0.364c0.353-0.124,0.708-0.246,1.065-0.363c0.379-0.125,0.76-0.246,1.143-0.364
	c0.41-0.125,0.823-0.247,1.238-0.363c0.45-0.127,0.902-0.248,1.357-0.364c0.499-0.128,1.002-0.249,1.508-0.364
	c0.565-0.129,1.133-0.251,1.706-0.363c0.679-0.134,1.363-0.253,2.052-0.364C-78.561-516.71-77.678-516.831-76.787-516.933
	L-76.787-516.933z M-34.063-458.509c-2.546,0-5.113,2.564-5.113,5.113c0,2.586,2.567,5.113,5.113,5.113
	c3.867,0,6.399-2.527,6.399-5.113C-27.663-455.944-30.196-458.509-34.063-458.509L-34.063-458.509z M-5.942-458.509
	c-2.527,0-5.078,2.564-5.078,5.113c0,2.586,2.55,5.113,5.078,5.113c3.832,0,6.399-2.527,6.399-5.113
	C0.457-455.944-2.11-458.509-5.942-458.509L-5.942-458.509z M-86.467-495.591c-3.832,0-7.699,2.532-7.699,6.377
	c0,3.836,3.867,6.399,7.699,6.399s6.381-2.563,6.381-6.399C-80.085-493.059-82.635-495.591-86.467-495.591L-86.467-495.591z
	 M-50.688-482.814c3.85,0,6.399-2.563,6.399-6.399c0-3.845-2.55-6.377-6.399-6.377c-3.831,0-7.676,2.532-7.676,6.377
	C-58.365-485.378-54.52-482.814-50.688-482.814L-50.688-482.814z M-52.149-466.91c0.11-0.104,0.223-0.207,0.335-0.309
	c0.112-0.103,0.224-0.207,0.338-0.309c0.116-0.104,0.234-0.206,0.351-0.309c0.118-0.103,0.235-0.207,0.354-0.309
	c0.122-0.104,0.245-0.206,0.368-0.309c0.124-0.103,0.246-0.207,0.371-0.309c0.128-0.104,0.258-0.206,0.387-0.309
	c0.13-0.103,0.259-0.207,0.391-0.309c0.134-0.104,0.27-0.206,0.406-0.309c0.137-0.103,0.272-0.207,0.411-0.309
	c0.141-0.104,0.283-0.206,0.426-0.309c0.145-0.104,0.289-0.207,0.435-0.309c0.148-0.104,0.298-0.207,0.447-0.309
	c0.153-0.104,0.307-0.206,0.461-0.309c0.156-0.104,0.313-0.207,0.471-0.309c0.162-0.104,0.326-0.206,0.49-0.309
	c0.165-0.104,0.33-0.208,0.497-0.309c0.173-0.104,0.347-0.206,0.521-0.309c0.178-0.104,0.355-0.207,0.534-0.309
	c0.183-0.104,0.364-0.207,0.549-0.309c0.19-0.105,0.383-0.207,0.574-0.309c0.196-0.104,0.393-0.208,0.59-0.309
	c0.203-0.104,0.405-0.208,0.61-0.309c0.213-0.104,0.428-0.207,0.643-0.309c0.22-0.104,0.441-0.208,0.664-0.309
	c0.229-0.104,0.457-0.208,0.688-0.309c0.241-0.105,0.483-0.208,0.728-0.309c0.254-0.105,0.51-0.208,0.766-0.309
	c0.267-0.105,0.534-0.208,0.804-0.309c0.282-0.105,0.565-0.209,0.85-0.309c0.3-0.106,0.602-0.209,0.904-0.309
	c0.321-0.106,0.645-0.209,0.971-0.309c0.348-0.107,0.697-0.209,1.05-0.309c0.381-0.107,0.766-0.21,1.151-0.309
	c0.423-0.109,0.85-0.211,1.278-0.309c0.479-0.109,0.96-0.213,1.445-0.309c0.579-0.114,1.163-0.215,1.751-0.309
	c0.745-0.119,1.497-0.222,2.255-0.309c1.888-0.216,3.816-0.331,5.779-0.335h0.273c1.854,0.005,3.692,0.12,5.504,0.335
	c0.728,0.086,1.451,0.189,2.17,0.309c0.568,0.094,1.133,0.195,1.694,0.309c0.471,0.095,0.938,0.2,1.404,0.309
	c0.418,0.098,0.833,0.2,1.247,0.309c0.377,0.099,0.752,0.201,1.125,0.309c0.345,0.1,0.688,0.202,1.029,0.309
	c0.319,0.1,0.638,0.203,0.954,0.309c0.298,0.1,0.595,0.203,0.891,0.309c0.28,0.1,0.561,0.204,0.839,0.309
	c0.266,0.101,0.53,0.203,0.794,0.309c0.254,0.101,0.507,0.204,0.759,0.309c0.242,0.101,0.482,0.204,0.723,0.309
	c0.229,0.101,0.457,0.205,0.685,0.309c0.222,0.101,0.442,0.204,0.661,0.309c0.214,0.102,0.428,0.204,0.64,0.309
	c0.205,0.102,0.408,0.205,0.611,0.309c0.197,0.101,0.394,0.205,0.589,0.309c0.192,0.102,0.386,0.204,0.576,0.309
	c0.185,0.102,0.367,0.205,0.55,0.309c0.18,0.102,0.358,0.205,0.536,0.309c0.175,0.103,0.351,0.205,0.523,0.309
	c0.168,0.102,0.334,0.206,0.501,0.309c0.165,0.103,0.331,0.205,0.494,0.309c0.159,0.102,0.316,0.206,0.475,0.309
	c0.156,0.102,0.312,0.205,0.466,0.309c0.151,0.103,0.303,0.206,0.452,0.309c0.147,0.102,0.294,0.205,0.439,0.309
	c0.145,0.103,0.289,0.205,0.433,0.309c0.14,0.102,0.278,0.206,0.417,0.309c0.138,0.103,0.275,0.205,0.412,0.309
	c0.133,0.102,0.265,0.206,0.396,0.309c0.131,0.103,0.263,0.205,0.394,0.309c0.127,0.102,0.252,0.206,0.378,0.309
	c0.125,0.103,0.251,0.205,0.375,0.309c0.122,0.102,0.241,0.206,0.361,0.309c0.12,0.103,0.24,0.205,0.358,0.309
	c0.116,0.103,0.231,0.206,0.346,0.309c0.115,0.103,0.229,0.205,0.343,0.309c0.111,0.102,0.222,0.206,0.332,0.309
	c0.109,0.103,0.218,0.206,0.326,0.309c0.107,0.102,0.214,0.205,0.319,0.309c0.104,0.103,0.209,0.206,0.313,0.309
	c0.103,0.103,0.205,0.205,0.307,0.309c0.101,0.102,0.198,0.206,0.298,0.309c0.099,0.103,0.199,0.205,0.297,0.309
	c0.096,0.102,0.188,0.206,0.283,0.309c0.095,0.103,0.19,0.205,0.283,0.309c0.092,0.103,0.183,0.206,0.273,0.309
	c0.091,0.103,0.181,0.205,0.27,0.309c0.089,0.103,0.177,0.206,0.265,0.309c0.087,0.102,0.172,0.206,0.257,0.309
	c0.086,0.103,0.172,0.205,0.256,0.309c0.083,0.102,0.163,0.206,0.245,0.309c0.082,0.103,0.164,0.206,0.244,0.309
	c0.08,0.103,0.158,0.206,0.236,0.309c0.078,0.103,0.155,0.206,0.232,0.309c0.076,0.103,0.154,0.205,0.229,0.309
	c0.075,0.102,0.146,0.206,0.221,0.309c0.073,0.103,0.147,0.206,0.22,0.309c0.071,0.103,0.142,0.206,0.212,0.309
	c0.07,0.103,0.14,0.206,0.208,0.309c0.069,0.103,0.139,0.205,0.207,0.309c0.066,0.103,0.131,0.206,0.196,0.309
	c0.066,0.103,0.133,0.206,0.197,0.309c0.064,0.103,0.127,0.206,0.19,0.309c0.063,0.103,0.124,0.205,0.186,0.309
	s0.125,0.205,0.186,0.309c0.06,0.104,0.116,0.207,0.175,0.309c0.059,0.104,0.117,0.207,0.175,0.309
	c0.058,0.104,0.115,0.207,0.171,0.311c0.056,0.102,0.109,0.205,0.164,0.309s0.11,0.205,0.164,0.309
	c0.053,0.102,0.104,0.205,0.156,0.309c0.053,0.104,0.103,0.205,0.153,0.309s0.104,0.205,0.153,0.309
	c0.049,0.104,0.095,0.207,0.144,0.309c0.048,0.104,0.096,0.207,0.143,0.311c0.047,0.102,0.095,0.205,0.141,0.309
	c0.045,0.102,0.088,0.205,0.132,0.309c0.045,0.104,0.09,0.205,0.133,0.309s0.086,0.205,0.128,0.309
	c0.041,0.104,0.081,0.205,0.122,0.309c0.04,0.104,0.082,0.205,0.122,0.309c0.039,0.104,0.077,0.207,0.115,0.311
	c0.039,0.102,0.075,0.205,0.112,0.309c0.037,0.102,0.076,0.205,0.112,0.309c0.036,0.102,0.069,0.205,0.104,0.309
	c0.034,0.104,0.068,0.205,0.102,0.309s0.069,0.205,0.103,0.309c0.032,0.104,0.062,0.207,0.092,0.309
	c0.031,0.104,0.063,0.207,0.093,0.309c0.03,0.104,0.063,0.207,0.092,0.311c0.028,0.102,0.055,0.205,0.082,0.309
	c0.027,0.102,0.056,0.205,0.082,0.309s0.056,0.205,0.081,0.309c0.025,0.102,0.048,0.205,0.072,0.309s0.049,0.205,0.073,0.309
	c0.023,0.104,0.048,0.205,0.07,0.309s0.042,0.207,0.063,0.309c0.021,0.104,0.043,0.207,0.063,0.311
	c0.021,0.102,0.042,0.205,0.062,0.309c0.019,0.102,0.034,0.205,0.053,0.309c0.018,0.104,0.036,0.205,0.053,0.309
	s0.035,0.205,0.051,0.309s0.028,0.207,0.043,0.309c0.016,0.104,0.03,0.207,0.044,0.309c0.014,0.104,0.028,0.207,0.041,0.309
	c0.013,0.104,0.022,0.207,0.034,0.311c0.011,0.102,0.022,0.205,0.033,0.309s0.022,0.205,0.032,0.309
	c0.009,0.102,0.016,0.205,0.024,0.309c0.008,0.104,0.017,0.205,0.023,0.309c0.008,0.104,0.017,0.207,0.023,0.309
	c0.006,0.104,0.009,0.207,0.014,0.309c0.006,0.104,0.011,0.207,0.015,0.311c0.004,0.102,0.011,0.205,0.014,0.309
	c0.003,0.102,0.003,0.205,0.005,0.309s0.004,0.205,0.005,0.309l0.002,0.09v0.219v0.309v0.053c-0.002,0.086-0.002,0.172-0.005,0.256
	c-0.002,0.104-0.006,0.207-0.009,0.311c-0.004,0.102-0.009,0.205-0.013,0.309c-0.005,0.104-0.011,0.205-0.017,0.309
	s-0.013,0.205-0.021,0.309c-0.007,0.104-0.014,0.205-0.021,0.309c-0.01,0.104-0.02,0.207-0.029,0.309
	c-0.01,0.104-0.02,0.207-0.03,0.309c-0.011,0.104-0.023,0.207-0.035,0.309c-0.012,0.104-0.025,0.207-0.038,0.311
	c-0.014,0.102-0.027,0.205-0.042,0.309s-0.03,0.205-0.046,0.309c-0.017,0.104-0.032,0.205-0.049,0.309
	c-0.018,0.104-0.036,0.205-0.054,0.309c-0.019,0.104-0.037,0.207-0.057,0.309c-0.02,0.104-0.04,0.207-0.061,0.309
	c-0.021,0.104-0.043,0.207-0.064,0.311c-0.022,0.102-0.044,0.205-0.067,0.309c-0.023,0.102-0.048,0.205-0.072,0.309
	s-0.05,0.205-0.075,0.309s-0.052,0.205-0.079,0.309c-0.026,0.104-0.055,0.205-0.083,0.309s-0.057,0.207-0.086,0.309
	c-0.029,0.104-0.061,0.207-0.091,0.311c-0.031,0.102-0.063,0.205-0.094,0.309c-0.032,0.102-0.064,0.205-0.098,0.309
	c-0.033,0.102-0.068,0.205-0.103,0.309s-0.069,0.205-0.104,0.309c-0.036,0.104-0.072,0.207-0.109,0.309
	c-0.037,0.104-0.075,0.207-0.113,0.309c-0.039,0.104-0.076,0.207-0.116,0.309c-0.039,0.104-0.081,0.207-0.121,0.311
	c-0.041,0.102-0.082,0.205-0.124,0.309c-0.043,0.102-0.085,0.205-0.129,0.309c-0.043,0.104-0.088,0.205-0.133,0.309
	c-0.044,0.104-0.089,0.205-0.135,0.309s-0.093,0.207-0.141,0.309c-0.047,0.104-0.095,0.207-0.144,0.309
	c-0.049,0.104-0.097,0.207-0.146,0.309c-0.051,0.104-0.102,0.207-0.152,0.311c-0.052,0.102-0.104,0.205-0.155,0.309
	c-0.053,0.102-0.105,0.205-0.159,0.309s-0.109,0.205-0.164,0.309c-0.056,0.104-0.11,0.205-0.167,0.309s-0.113,0.207-0.171,0.309
	c-0.058,0.104-0.117,0.207-0.177,0.309c-0.059,0.104-0.118,0.207-0.178,0.309c-0.062,0.104-0.122,0.207-0.184,0.311
	c-0.063,0.102-0.125,0.205-0.188,0.309c-0.063,0.104-0.126,0.205-0.19,0.309s-0.131,0.205-0.196,0.309s-0.133,0.205-0.2,0.309
	s-0.134,0.207-0.203,0.309c-0.068,0.104-0.138,0.207-0.208,0.309c-0.07,0.104-0.142,0.207-0.213,0.309
	c-0.071,0.104-0.143,0.207-0.216,0.311c-0.072,0.102-0.146,0.205-0.221,0.309s-0.149,0.205-0.225,0.309
	c-0.076,0.104-0.152,0.207-0.229,0.309c-0.078,0.104-0.155,0.207-0.233,0.309c-0.079,0.104-0.159,0.207-0.238,0.309
	c-0.081,0.104-0.161,0.207-0.242,0.311c-0.082,0.102-0.163,0.205-0.246,0.309c-0.083,0.102-0.168,0.205-0.252,0.309
	s-0.17,0.205-0.255,0.309c-0.087,0.104-0.172,0.205-0.26,0.309s-0.176,0.207-0.265,0.309c-0.089,0.104-0.179,0.207-0.27,0.309
	c-0.09,0.104-0.181,0.207-0.273,0.309c-0.092,0.104-0.184,0.207-0.277,0.309c-0.094,0.104-0.188,0.207-0.283,0.311
	c-0.096,0.104-0.191,0.205-0.288,0.309s-0.193,0.205-0.292,0.309s-0.197,0.205-0.297,0.309c-0.101,0.104-0.201,0.207-0.303,0.309
	c-0.102,0.104-0.204,0.207-0.307,0.309c-0.104,0.104-0.207,0.207-0.312,0.309c-0.104,0.104-0.211,0.207-0.316,0.311
	c-0.107,0.102-0.215,0.205-0.322,0.309c-0.108,0.102-0.218,0.205-0.327,0.309c-0.11,0.104-0.221,0.205-0.332,0.309
	c-0.112,0.104-0.225,0.207-0.337,0.309c-0.114,0.104-0.229,0.207-0.344,0.309c-0.116,0.104-0.231,0.207-0.349,0.309
	c-0.117,0.104-0.234,0.207-0.354,0.311c-0.119,0.102-0.238,0.205-0.358,0.309s-0.242,0.205-0.364,0.309
	c-0.123,0.104-0.247,0.205-0.371,0.309c-0.125,0.104-0.25,0.207-0.376,0.309c-0.127,0.104-0.255,0.207-0.383,0.309
	c-0.128,0.104-0.257,0.207-0.387,0.309c-0.131,0.104-0.262,0.207-0.394,0.311c-0.133,0.102-0.267,0.205-0.4,0.309
	c-0.136,0.104-0.271,0.205-0.407,0.309l-0.141,0.105l0.061,0.203l0.093,0.309l0.093,0.309l0.094,0.309l0.093,0.309l0.093,0.309
	l0.093,0.311l0.093,0.309l0.093,0.309l0.093,0.309l0.094,0.309l0.093,0.309l0.093,0.309l0.093,0.309l0.094,0.311l0.093,0.309
	l0.093,0.309l0.093,0.309l0.093,0.309l0.094,0.309l0.093,0.309l0.093,0.311l0.093,0.309l0.093,0.309l0.093,0.309l0.094,0.309
	l0.093,0.309l0.093,0.309l0.093,0.311l0.093,0.309l0.094,0.309l0.092,0.309l0.094,0.309l0.093,0.309l0.093,0.309l0.093,0.309
	l0.094,0.311l0.093,0.309l0.093,0.309l0.093,0.309l0.093,0.309l0.066,0.221l-0.401-0.221l-0.564-0.309l-0.564-0.309l-0.563-0.309
	l-0.563-0.309l-0.563-0.311l-0.564-0.309l-0.563-0.309l-0.564-0.309l-0.563-0.309l-0.563-0.309l-0.564-0.309l-0.563-0.309
	l-0.564-0.311l-0.563-0.309l-0.563-0.309l-0.564-0.309l-0.563-0.309l-0.564-0.309l-0.563-0.309l-0.564-0.311l-0.563-0.309
	l-0.563-0.309l-0.564-0.309l-0.563-0.309l-0.089-0.049l-0.193,0.049c-0.412,0.104-0.824,0.207-1.236,0.309
	c-0.418,0.104-0.837,0.207-1.255,0.309c-0.432,0.105-0.863,0.209-1.294,0.309c-0.453,0.107-0.905,0.209-1.358,0.309
	c-0.487,0.107-0.975,0.211-1.461,0.311c-0.545,0.109-1.09,0.213-1.635,0.309c-0.66,0.115-1.319,0.219-1.979,0.309
	c-1.065,0.145-2.131,0.252-3.194,0.309c-0.578,0.031-1.156,0.047-1.733,0.047c-0.756,0-1.506-0.016-2.251-0.047
	c-1.298-0.055-2.578-0.16-3.841-0.309c-0.744-0.088-1.482-0.191-2.214-0.309c-0.578-0.094-1.154-0.197-1.724-0.309
	c-0.483-0.096-0.963-0.201-1.438-0.311c-0.427-0.098-0.851-0.199-1.272-0.309c-0.384-0.098-0.766-0.201-1.145-0.309
	c-0.351-0.1-0.699-0.201-1.046-0.309c-0.324-0.1-0.646-0.203-0.966-0.309c-0.302-0.1-0.602-0.203-0.9-0.309
	c-0.283-0.102-0.565-0.205-0.846-0.309c-0.269-0.102-0.536-0.205-0.801-0.311c-0.256-0.1-0.51-0.203-0.763-0.309
	c-0.244-0.102-0.487-0.203-0.729-0.309c-0.23-0.1-0.459-0.205-0.687-0.309c-0.222-0.102-0.441-0.203-0.661-0.309
	c-0.214-0.102-0.428-0.205-0.639-0.309c-0.205-0.102-0.409-0.205-0.612-0.309c-0.197-0.102-0.393-0.205-0.587-0.309
	c-0.191-0.104-0.384-0.205-0.573-0.311c-0.184-0.102-0.366-0.203-0.549-0.309c-0.179-0.102-0.355-0.205-0.532-0.309
	c-0.174-0.102-0.349-0.203-0.521-0.309c-0.167-0.102-0.331-0.205-0.496-0.309c-0.163-0.102-0.326-0.205-0.488-0.309
	c-0.157-0.102-0.314-0.205-0.471-0.309c-0.153-0.102-0.307-0.205-0.459-0.309c-0.149-0.104-0.3-0.205-0.448-0.309
	c-0.146-0.104-0.288-0.207-0.433-0.311c-0.143-0.102-0.285-0.203-0.426-0.309c-0.138-0.102-0.273-0.205-0.41-0.309
	c-0.136-0.104-0.272-0.205-0.406-0.309c-0.131-0.102-0.259-0.205-0.388-0.309c-0.129-0.104-0.26-0.205-0.387-0.309
	c-0.125-0.104-0.247-0.207-0.37-0.309c-0.123-0.104-0.248-0.205-0.369-0.311c-0.119-0.102-0.234-0.205-0.352-0.309
	c-0.117-0.102-0.235-0.205-0.352-0.309c-0.113-0.102-0.225-0.205-0.337-0.309c-0.112-0.104-0.224-0.205-0.334-0.309
	c-0.109-0.102-0.216-0.207-0.323-0.309c-0.107-0.104-0.214-0.205-0.319-0.309c-0.104-0.104-0.207-0.207-0.31-0.311
	c-0.102-0.102-0.204-0.205-0.304-0.309c-0.1-0.102-0.199-0.205-0.297-0.309c-0.098-0.102-0.194-0.205-0.29-0.309
	c-0.096-0.104-0.192-0.205-0.287-0.309c-0.093-0.102-0.184-0.207-0.276-0.309c-0.092-0.104-0.185-0.205-0.275-0.309
	c-0.089-0.104-0.176-0.207-0.264-0.311c-0.088-0.102-0.176-0.205-0.262-0.309c-0.085-0.102-0.17-0.205-0.254-0.309
	c-0.084-0.102-0.167-0.205-0.249-0.309c-0.083-0.102-0.166-0.205-0.247-0.309c-0.08-0.102-0.158-0.207-0.236-0.309
	c-0.079-0.104-0.159-0.205-0.236-0.309s-0.152-0.207-0.228-0.309c-0.075-0.104-0.15-0.207-0.224-0.309
	c-0.074-0.104-0.148-0.207-0.221-0.311c-0.072-0.102-0.141-0.205-0.212-0.309c-0.07-0.104-0.143-0.205-0.212-0.309
	c-0.068-0.102-0.135-0.205-0.203-0.309c-0.067-0.104-0.134-0.205-0.2-0.309c-0.066-0.104-0.133-0.205-0.197-0.309
	s-0.126-0.207-0.189-0.311c-0.063-0.102-0.127-0.203-0.189-0.309c-0.062-0.102-0.121-0.205-0.182-0.309
	c-0.06-0.102-0.119-0.205-0.178-0.309c-0.059-0.104-0.119-0.205-0.177-0.309c-0.057-0.102-0.111-0.207-0.167-0.309
	c-0.056-0.104-0.112-0.205-0.167-0.309s-0.109-0.207-0.163-0.309c-0.053-0.104-0.104-0.207-0.156-0.311
	c-0.052-0.102-0.105-0.205-0.157-0.309c-0.05-0.102-0.099-0.205-0.148-0.309c-0.049-0.102-0.098-0.205-0.146-0.309
	s-0.098-0.205-0.146-0.309c-0.047-0.102-0.091-0.207-0.136-0.309c-0.046-0.104-0.091-0.205-0.136-0.309
	c-0.044-0.104-0.089-0.207-0.133-0.309c-0.043-0.104-0.084-0.207-0.126-0.311c-0.042-0.102-0.085-0.205-0.126-0.309
	c-0.041-0.102-0.081-0.205-0.121-0.309c-0.04-0.102-0.078-0.205-0.116-0.309s-0.079-0.205-0.116-0.309
	c-0.037-0.104-0.072-0.207-0.109-0.309c-0.036-0.104-0.071-0.207-0.106-0.309c-0.035-0.104-0.072-0.207-0.106-0.309
	c-0.034-0.104-0.064-0.207-0.097-0.311c-0.033-0.102-0.065-0.205-0.097-0.309c-0.031-0.104-0.066-0.205-0.096-0.309
	c-0.03-0.102-0.058-0.205-0.087-0.309c-0.029-0.104-0.059-0.205-0.087-0.309s-0.059-0.205-0.086-0.309
	c-0.027-0.104-0.051-0.207-0.078-0.309c-0.026-0.104-0.053-0.207-0.078-0.309c-0.025-0.104-0.052-0.207-0.076-0.311
	c-0.024-0.102-0.045-0.205-0.068-0.309c-0.023-0.104-0.046-0.205-0.068-0.309c-0.022-0.104-0.044-0.205-0.066-0.309
	c-0.021-0.104-0.039-0.207-0.059-0.309c-0.02-0.104-0.04-0.207-0.059-0.309c-0.019-0.104-0.038-0.207-0.056-0.309
	c-0.018-0.104-0.033-0.207-0.05-0.311c-0.017-0.102-0.034-0.205-0.05-0.309c-0.016-0.102-0.032-0.205-0.047-0.309
	c-0.015-0.102-0.027-0.205-0.041-0.309c-0.014-0.104-0.028-0.205-0.041-0.309c-0.013-0.104-0.026-0.205-0.038-0.309
	s-0.021-0.207-0.032-0.309c-0.011-0.104-0.021-0.207-0.032-0.311c-0.01-0.102-0.021-0.205-0.029-0.309
	c-0.009-0.102-0.015-0.205-0.022-0.309c-0.008-0.102-0.016-0.205-0.022-0.309s-0.015-0.205-0.021-0.309s-0.009-0.207-0.014-0.309
	l-0.014-0.309c-0.004-0.104-0.009-0.207-0.013-0.309c-0.002-0.104-0.002-0.207-0.004-0.311l-0.005-0.309
	c-0.001-0.1-0.004-0.197-0.004-0.299l0-0.01c0-0.104,0.003-0.205,0.004-0.309c0.001-0.104,0.003-0.205,0.005-0.309
	s0.002-0.207,0.005-0.309c0.003-0.104,0.009-0.207,0.013-0.309c0.004-0.104,0.009-0.207,0.014-0.311
	c0.005-0.102,0.008-0.205,0.014-0.309c0.006-0.102,0.015-0.205,0.021-0.309s0.015-0.205,0.022-0.309s0.014-0.207,0.022-0.309
	c0.009-0.104,0.02-0.205,0.03-0.309c0.01-0.104,0.021-0.207,0.031-0.309c0.011-0.104,0.02-0.207,0.032-0.311
	c0.012-0.102,0.026-0.205,0.039-0.309c0.013-0.102,0.027-0.205,0.041-0.309c0.014-0.102,0.026-0.205,0.041-0.309
	c0.015-0.104,0.032-0.205,0.048-0.309c0.016-0.104,0.033-0.205,0.05-0.309c0.017-0.104,0.032-0.207,0.05-0.309
	c0.018-0.104,0.039-0.207,0.058-0.309c0.019-0.104,0.039-0.207,0.059-0.311c0.02-0.102,0.038-0.205,0.059-0.309
	c0.021-0.104,0.044-0.205,0.067-0.309c0.022-0.104,0.045-0.205,0.068-0.309s0.044-0.207,0.069-0.309
	c0.024-0.104,0.051-0.205,0.076-0.309c0.026-0.104,0.052-0.207,0.078-0.309c0.026-0.104,0.05-0.207,0.078-0.309
	c0.028-0.104,0.059-0.207,0.087-0.311c0.028-0.102,0.058-0.205,0.087-0.309c0.03-0.102,0.057-0.205,0.088-0.309
	s0.065-0.205,0.097-0.309c0.032-0.104,0.064-0.205,0.097-0.309c0.033-0.104,0.064-0.207,0.099-0.309
	c0.034-0.104,0.071-0.207,0.106-0.309c0.035-0.104,0.07-0.207,0.106-0.309c0.036-0.104,0.073-0.207,0.11-0.311
	c0.038-0.104,0.078-0.205,0.116-0.309s0.077-0.205,0.116-0.309c0.04-0.104,0.081-0.205,0.122-0.309
	c0.042-0.104,0.084-0.205,0.126-0.309c0.042-0.104,0.083-0.207,0.126-0.309c0.044-0.104,0.09-0.207,0.134-0.309
	c0.045-0.104,0.09-0.207,0.136-0.311c0.045-0.102,0.089-0.205,0.137-0.309s0.098-0.205,0.146-0.309
	c0.049-0.104,0.097-0.205,0.146-0.309c0.05-0.104,0.099-0.207,0.15-0.309c0.051-0.104,0.104-0.205,0.157-0.309
	s0.103-0.207,0.156-0.309c0.054-0.104,0.109-0.207,0.165-0.311c0.055-0.102,0.111-0.205,0.167-0.309
	c0.056-0.102,0.11-0.205,0.167-0.309c0.058-0.104,0.119-0.205,0.178-0.309s0.118-0.206,0.178-0.309
	c0.061-0.103,0.121-0.206,0.183-0.309c0.062-0.104,0.126-0.206,0.189-0.309c0.063-0.103,0.125-0.207,0.189-0.309
	c0.065-0.104,0.132-0.206,0.198-0.309c0.066-0.104,0.133-0.207,0.201-0.309c0.068-0.103,0.135-0.206,0.204-0.309
	c0.069-0.104,0.141-0.206,0.212-0.309s0.14-0.207,0.212-0.309c0.073-0.104,0.148-0.206,0.222-0.309s0.149-0.206,0.224-0.309
	c0.076-0.103,0.151-0.206,0.228-0.309c0.078-0.104,0.157-0.206,0.236-0.309c0.079-0.103,0.156-0.207,0.236-0.309
	c0.082-0.104,0.166-0.206,0.248-0.309s0.165-0.207,0.249-0.309c0.084-0.104,0.17-0.206,0.256-0.309
	c0.086-0.104,0.174-0.206,0.262-0.309c0.088-0.103,0.175-0.207,0.265-0.309c0.091-0.104,0.184-0.206,0.276-0.309
	c0.092-0.103,0.182-0.207,0.275-0.309c0.095-0.104,0.192-0.206,0.289-0.309c0.096-0.104,0.192-0.207,0.289-0.309
	c0.099-0.104,0.199-0.206,0.299-0.309c0.101-0.104,0.202-0.207,0.304-0.309c0.104-0.104,0.207-0.207,0.312-0.309
	c0.105-0.104,0.212-0.207,0.319-0.309C-52.365-466.705-52.258-466.808-52.149-466.91L-52.149-466.91z"/>
<g>
	<rect fill="none" width="141.732" height="141.732"/>
	<g>
		<linearGradient id="SVGID_1_" gradientUnits="userSpaceOnUse" x1="97.4424" y1="51.9434" x2="97.4424" y2="125.2148">
			<stop  offset="0" style="stop-color:#E0E0E0"/>
			<stop  offset="1" style="stop-color:#8C8C8C"/>
		</linearGradient>
		<path fill-rule="evenodd" clip-rule="evenodd" fill="url(#SVGID_1_)" d="M67.738,63.096c0.101-0.096,0.206-0.191,0.309-0.285
			c0.104-0.096,0.207-0.191,0.313-0.287s0.215-0.189,0.323-0.285c0.11-0.094,0.218-0.191,0.328-0.285
			c0.112-0.096,0.226-0.189,0.34-0.285c0.115-0.096,0.228-0.191,0.343-0.285c0.119-0.096,0.238-0.191,0.357-0.285
			c0.121-0.096,0.239-0.189,0.36-0.285c0.125-0.096,0.25-0.189,0.376-0.285s0.251-0.191,0.38-0.285
			c0.13-0.096,0.261-0.189,0.393-0.285c0.134-0.096,0.268-0.191,0.401-0.285c0.138-0.096,0.275-0.191,0.414-0.285
			c0.142-0.096,0.283-0.191,0.426-0.285c0.144-0.096,0.288-0.191,0.435-0.287c0.149-0.096,0.301-0.189,0.453-0.285
			s0.305-0.191,0.459-0.285c0.159-0.096,0.32-0.189,0.48-0.285c0.164-0.096,0.329-0.191,0.494-0.285
			c0.168-0.096,0.336-0.191,0.507-0.285c0.176-0.098,0.354-0.191,0.53-0.285c0.182-0.096,0.362-0.191,0.545-0.285
			c0.188-0.096,0.374-0.191,0.563-0.285c0.197-0.098,0.396-0.191,0.594-0.285c0.203-0.098,0.408-0.193,0.614-0.285
			c0.211-0.098,0.422-0.193,0.636-0.287c0.223-0.096,0.446-0.191,0.672-0.285c0.234-0.098,0.471-0.191,0.707-0.285
			c0.247-0.098,0.494-0.191,0.743-0.285c0.261-0.096,0.522-0.191,0.784-0.285c0.277-0.098,0.557-0.191,0.836-0.285
			c0.297-0.098,0.596-0.193,0.896-0.285c0.321-0.098,0.645-0.193,0.97-0.285c0.353-0.1,0.708-0.193,1.064-0.285
			c0.391-0.102,0.784-0.195,1.181-0.285c0.442-0.102,0.887-0.197,1.335-0.285c0.535-0.105,1.075-0.199,1.618-0.285
			c0.688-0.111,1.383-0.207,2.083-0.285c1.744-0.201,3.525-0.307,5.339-0.311h0.253c1.713,0.004,3.411,0.109,5.085,0.311
			c0.672,0.078,1.34,0.174,2.004,0.285c0.525,0.086,1.047,0.18,1.565,0.285c0.436,0.088,0.867,0.184,1.298,0.285
			c0.386,0.09,0.77,0.184,1.151,0.285c0.349,0.092,0.695,0.186,1.04,0.285c0.318,0.092,0.636,0.188,0.95,0.285
			c0.296,0.092,0.59,0.188,0.882,0.285c0.275,0.094,0.55,0.188,0.823,0.285c0.259,0.094,0.518,0.189,0.774,0.285
			c0.245,0.094,0.49,0.188,0.733,0.285c0.234,0.094,0.469,0.188,0.701,0.285c0.224,0.094,0.445,0.189,0.668,0.285
			c0.212,0.094,0.422,0.189,0.632,0.287c0.205,0.092,0.409,0.188,0.611,0.285c0.197,0.094,0.395,0.188,0.591,0.285
			c0.189,0.094,0.377,0.189,0.564,0.285c0.183,0.094,0.364,0.189,0.544,0.285c0.178,0.094,0.356,0.188,0.532,0.285
			c0.171,0.094,0.34,0.189,0.509,0.285c0.166,0.094,0.331,0.189,0.495,0.285c0.161,0.096,0.323,0.189,0.483,0.285
			c0.155,0.094,0.309,0.189,0.463,0.285c0.152,0.096,0.306,0.189,0.456,0.285c0.147,0.096,0.293,0.191,0.438,0.287
			c0.145,0.094,0.288,0.189,0.431,0.285c0.14,0.094,0.279,0.189,0.418,0.285c0.136,0.094,0.271,0.189,0.405,0.285
			s0.268,0.189,0.4,0.285c0.129,0.094,0.257,0.189,0.385,0.285c0.127,0.096,0.255,0.189,0.381,0.285
			c0.123,0.096,0.244,0.189,0.366,0.285c0.121,0.094,0.243,0.189,0.363,0.285c0.118,0.094,0.233,0.189,0.35,0.285
			c0.115,0.096,0.231,0.189,0.347,0.285c0.112,0.094,0.223,0.191,0.334,0.285c0.11,0.096,0.222,0.189,0.331,0.285
			c0.106,0.096,0.214,0.191,0.319,0.287c0.106,0.094,0.212,0.189,0.316,0.285c0.103,0.094,0.205,0.189,0.307,0.285
			c0.101,0.094,0.201,0.189,0.302,0.285c0.099,0.094,0.197,0.189,0.295,0.285c0.096,0.096,0.192,0.189,0.288,0.285
			c0.095,0.096,0.189,0.189,0.283,0.285c0.094,0.094,0.184,0.189,0.275,0.285c0.091,0.096,0.185,0.189,0.274,0.285
			c0.089,0.096,0.174,0.191,0.262,0.287c0.087,0.094,0.176,0.189,0.262,0.285c0.085,0.094,0.169,0.189,0.252,0.285
			c0.084,0.094,0.167,0.189,0.249,0.285s0.164,0.189,0.245,0.285c0.08,0.094,0.158,0.189,0.237,0.285s0.158,0.189,0.236,0.285
			c0.076,0.096,0.15,0.191,0.227,0.285c0.075,0.096,0.151,0.189,0.226,0.285c0.073,0.094,0.146,0.189,0.218,0.285
			s0.144,0.189,0.215,0.285c0.07,0.096,0.143,0.189,0.212,0.285s0.136,0.191,0.204,0.285c0.067,0.096,0.137,0.191,0.203,0.287
			c0.065,0.094,0.131,0.189,0.195,0.285c0.065,0.094,0.129,0.189,0.192,0.285c0.064,0.096,0.128,0.189,0.191,0.285
			c0.062,0.094,0.121,0.189,0.182,0.285c0.062,0.096,0.122,0.189,0.182,0.285s0.117,0.191,0.176,0.285
			c0.059,0.096,0.115,0.189,0.172,0.285s0.115,0.189,0.171,0.285s0.107,0.191,0.162,0.285c0.054,0.096,0.108,0.191,0.161,0.285
			c0.054,0.096,0.106,0.191,0.158,0.287c0.052,0.094,0.101,0.189,0.151,0.285s0.102,0.189,0.151,0.285
			c0.049,0.094,0.097,0.189,0.145,0.285c0.049,0.096,0.095,0.189,0.142,0.285s0.096,0.189,0.142,0.285
			c0.045,0.096,0.088,0.191,0.133,0.285c0.044,0.096,0.089,0.191,0.132,0.285c0.043,0.096,0.088,0.189,0.13,0.285
			c0.041,0.094,0.081,0.189,0.122,0.285s0.083,0.189,0.122,0.285c0.04,0.096,0.08,0.189,0.118,0.285s0.075,0.189,0.113,0.285
			c0.037,0.096,0.075,0.189,0.112,0.285c0.036,0.096,0.071,0.191,0.106,0.287c0.036,0.094,0.069,0.189,0.104,0.285
			c0.034,0.094,0.07,0.189,0.104,0.285c0.033,0.094,0.063,0.189,0.097,0.285c0.031,0.096,0.063,0.189,0.094,0.285
			c0.03,0.096,0.063,0.189,0.095,0.285c0.029,0.096,0.057,0.191,0.085,0.285c0.028,0.096,0.058,0.191,0.085,0.285
			c0.028,0.096,0.058,0.191,0.085,0.287c0.026,0.094,0.051,0.189,0.076,0.285c0.025,0.094,0.051,0.189,0.075,0.285
			s0.052,0.189,0.075,0.285c0.023,0.094,0.044,0.189,0.066,0.285c0.023,0.096,0.046,0.189,0.068,0.285
			c0.021,0.096,0.044,0.189,0.064,0.285s0.039,0.191,0.058,0.285c0.021,0.096,0.04,0.191,0.058,0.285
			c0.02,0.096,0.039,0.189,0.058,0.285c0.017,0.094,0.031,0.189,0.049,0.285c0.016,0.096,0.033,0.189,0.048,0.285
			c0.016,0.096,0.033,0.189,0.047,0.285c0.015,0.096,0.026,0.191,0.04,0.285c0.015,0.096,0.028,0.191,0.041,0.285
			c0.013,0.096,0.026,0.191,0.038,0.285c0.012,0.096,0.021,0.191,0.031,0.287c0.01,0.094,0.021,0.189,0.03,0.285
			s0.021,0.189,0.03,0.285c0.008,0.094,0.015,0.189,0.022,0.285c0.007,0.096,0.016,0.189,0.021,0.285
			c0.007,0.096,0.016,0.191,0.021,0.285c0.006,0.096,0.009,0.191,0.013,0.285c0.006,0.096,0.01,0.191,0.014,0.287
			c0.004,0.094,0.01,0.189,0.013,0.285c0.003,0.094,0.003,0.189,0.005,0.285c0.001,0.096,0.003,0.189,0.004,0.285l0.002,0.082v0.203
			v0.285v0.049c-0.002,0.078-0.002,0.158-0.005,0.236c-0.001,0.096-0.005,0.191-0.008,0.287c-0.004,0.094-0.008,0.189-0.012,0.285
			c-0.005,0.094-0.01,0.189-0.016,0.283c-0.005,0.096-0.012,0.189-0.019,0.285s-0.013,0.189-0.02,0.285
			c-0.01,0.096-0.019,0.191-0.027,0.285c-0.009,0.096-0.019,0.191-0.028,0.285c-0.01,0.096-0.021,0.191-0.032,0.285
			c-0.011,0.096-0.023,0.191-0.035,0.287c-0.013,0.094-0.025,0.189-0.039,0.285s-0.027,0.189-0.042,0.285
			c-0.016,0.096-0.03,0.189-0.045,0.285c-0.017,0.096-0.034,0.189-0.05,0.285c-0.018,0.096-0.034,0.191-0.053,0.285
			c-0.018,0.096-0.037,0.191-0.056,0.285c-0.019,0.096-0.04,0.191-0.06,0.287c-0.021,0.094-0.041,0.189-0.063,0.285
			c-0.021,0.094-0.044,0.189-0.066,0.285s-0.046,0.189-0.069,0.285s-0.048,0.189-0.073,0.285c-0.024,0.096-0.051,0.189-0.077,0.285
			c-0.025,0.096-0.052,0.191-0.079,0.285c-0.027,0.096-0.056,0.191-0.084,0.287c-0.028,0.094-0.058,0.189-0.087,0.285
			c-0.029,0.094-0.06,0.189-0.09,0.285c-0.03,0.094-0.063,0.189-0.095,0.283c-0.031,0.096-0.064,0.189-0.097,0.285
			c-0.033,0.096-0.066,0.191-0.101,0.285c-0.034,0.096-0.069,0.191-0.104,0.285c-0.036,0.096-0.07,0.191-0.107,0.285
			c-0.036,0.096-0.075,0.191-0.112,0.287c-0.038,0.094-0.076,0.189-0.114,0.285c-0.04,0.094-0.079,0.189-0.119,0.285
			s-0.081,0.189-0.123,0.285c-0.04,0.096-0.082,0.189-0.124,0.285c-0.043,0.096-0.086,0.191-0.13,0.285
			c-0.044,0.096-0.088,0.191-0.133,0.285c-0.045,0.096-0.09,0.191-0.136,0.285c-0.047,0.096-0.094,0.191-0.141,0.287
			c-0.048,0.094-0.096,0.189-0.144,0.285c-0.049,0.094-0.097,0.189-0.146,0.285s-0.102,0.189-0.151,0.285
			c-0.052,0.096-0.103,0.189-0.154,0.285c-0.053,0.096-0.105,0.191-0.158,0.285c-0.054,0.096-0.108,0.191-0.163,0.285
			c-0.055,0.096-0.109,0.191-0.165,0.285c-0.057,0.096-0.112,0.191-0.169,0.287c-0.058,0.094-0.115,0.189-0.175,0.285
			c-0.058,0.094-0.116,0.189-0.176,0.285c-0.06,0.094-0.12,0.189-0.181,0.283c-0.061,0.096-0.123,0.189-0.186,0.285
			c-0.062,0.096-0.123,0.191-0.188,0.285c-0.063,0.096-0.127,0.191-0.192,0.285c-0.064,0.096-0.131,0.191-0.196,0.285
			c-0.065,0.096-0.132,0.191-0.199,0.287c-0.067,0.094-0.136,0.189-0.204,0.285s-0.138,0.189-0.207,0.285
			c-0.071,0.096-0.142,0.191-0.212,0.285c-0.072,0.096-0.144,0.191-0.216,0.285c-0.072,0.096-0.146,0.191-0.22,0.285
			c-0.075,0.096-0.148,0.191-0.224,0.287c-0.076,0.094-0.15,0.189-0.228,0.285c-0.076,0.094-0.155,0.189-0.232,0.285
			c-0.078,0.096-0.157,0.189-0.235,0.285c-0.081,0.096-0.159,0.189-0.24,0.285s-0.162,0.191-0.244,0.285
			c-0.082,0.096-0.165,0.191-0.249,0.285c-0.083,0.096-0.167,0.191-0.253,0.285c-0.085,0.096-0.17,0.191-0.256,0.285
			c-0.087,0.096-0.175,0.191-0.262,0.287c-0.089,0.096-0.177,0.189-0.267,0.285c-0.089,0.096-0.179,0.189-0.27,0.285
			c-0.091,0.094-0.183,0.189-0.274,0.283c-0.093,0.096-0.186,0.191-0.279,0.285c-0.094,0.096-0.188,0.191-0.283,0.285
			c-0.096,0.096-0.191,0.191-0.288,0.285c-0.097,0.096-0.195,0.191-0.292,0.287c-0.1,0.094-0.199,0.189-0.298,0.285
			c-0.101,0.094-0.201,0.189-0.303,0.285s-0.204,0.189-0.307,0.285c-0.104,0.096-0.207,0.191-0.312,0.285
			c-0.105,0.096-0.211,0.191-0.317,0.285c-0.107,0.096-0.214,0.191-0.322,0.285c-0.108,0.096-0.216,0.191-0.326,0.287
			c-0.11,0.094-0.22,0.189-0.331,0.285s-0.224,0.189-0.337,0.285s-0.228,0.189-0.343,0.285s-0.23,0.191-0.347,0.285
			c-0.118,0.096-0.236,0.191-0.354,0.285c-0.118,0.096-0.237,0.191-0.356,0.285c-0.121,0.096-0.242,0.191-0.364,0.287
			c-0.122,0.094-0.246,0.189-0.37,0.285c-0.125,0.096-0.25,0.189-0.376,0.285l-0.13,0.096l0.056,0.189l0.086,0.285l0.086,0.285
			l0.087,0.283l0.085,0.285l0.086,0.285l0.086,0.287l0.086,0.285l0.086,0.285l0.085,0.285l0.087,0.285l0.086,0.285l0.086,0.285
			l0.085,0.285l0.087,0.287l0.086,0.285l0.085,0.285l0.086,0.285l0.086,0.285l0.087,0.285l0.085,0.285l0.086,0.287l0.086,0.285
			l0.086,0.285l0.085,0.285l0.087,0.285l0.086,0.283l0.086,0.285l0.085,0.287l0.086,0.285l0.087,0.285l0.085,0.285l0.086,0.285
			l0.086,0.285l0.086,0.285l0.086,0.285l0.086,0.287l0.086,0.285l0.086,0.285l0.086,0.285l0.086,0.285l0.061,0.203l-0.37-0.203
			l-0.521-0.285l-0.521-0.285l-0.521-0.285l-0.521-0.285l-0.521-0.287l-0.521-0.285l-0.521-0.285l-0.521-0.285l-0.521-0.285
			l-0.521-0.285l-0.521-0.285l-0.521-0.285l-0.521-0.287l-0.521-0.285l-0.521-0.283l-0.521-0.285l-0.521-0.285l-0.521-0.285
			l-0.521-0.285l-0.521-0.287l-0.521-0.285l-0.521-0.285l-0.521-0.285l-0.521-0.285l-0.082-0.045l-0.179,0.045
			c-0.381,0.096-0.762,0.191-1.143,0.285c-0.386,0.096-0.772,0.191-1.159,0.285c-0.398,0.098-0.797,0.193-1.195,0.285
			c-0.418,0.1-0.836,0.193-1.255,0.285c-0.45,0.1-0.9,0.195-1.35,0.287c-0.503,0.1-1.007,0.195-1.51,0.285
			c-0.61,0.105-1.22,0.201-1.828,0.285c-0.984,0.133-1.969,0.232-2.951,0.285c-0.534,0.027-1.068,0.043-1.602,0.043
			c-0.698,0-1.391-0.016-2.079-0.043c-1.199-0.051-2.382-0.148-3.549-0.285c-0.688-0.082-1.369-0.178-2.045-0.285
			c-0.534-0.088-1.066-0.184-1.593-0.285c-0.446-0.09-0.89-0.188-1.329-0.287c-0.394-0.09-0.785-0.184-1.175-0.285
			c-0.354-0.09-0.708-0.186-1.058-0.285c-0.324-0.092-0.646-0.186-0.966-0.285c-0.3-0.092-0.597-0.188-0.893-0.285
			c-0.279-0.092-0.556-0.188-0.832-0.285c-0.262-0.094-0.522-0.189-0.781-0.285c-0.248-0.094-0.495-0.189-0.74-0.287
			c-0.236-0.092-0.471-0.188-0.704-0.285c-0.226-0.094-0.45-0.188-0.673-0.285c-0.213-0.092-0.424-0.189-0.635-0.285
			c-0.204-0.094-0.407-0.188-0.61-0.285c-0.197-0.094-0.396-0.189-0.59-0.285c-0.189-0.094-0.378-0.189-0.566-0.285
			c-0.182-0.094-0.362-0.189-0.542-0.285c-0.177-0.096-0.354-0.189-0.529-0.287c-0.17-0.094-0.339-0.188-0.507-0.285
			c-0.165-0.094-0.329-0.189-0.492-0.285c-0.16-0.094-0.322-0.188-0.48-0.283c-0.154-0.096-0.306-0.191-0.459-0.285
			c-0.15-0.096-0.301-0.189-0.45-0.285c-0.146-0.094-0.291-0.189-0.436-0.285c-0.142-0.094-0.283-0.189-0.424-0.285
			c-0.138-0.096-0.277-0.189-0.414-0.285c-0.135-0.096-0.267-0.191-0.399-0.287c-0.132-0.094-0.264-0.188-0.394-0.285
			c-0.127-0.094-0.253-0.189-0.379-0.285c-0.125-0.096-0.251-0.189-0.375-0.285c-0.121-0.094-0.239-0.189-0.358-0.285
			c-0.12-0.096-0.24-0.189-0.358-0.285c-0.114-0.096-0.228-0.191-0.341-0.285c-0.114-0.096-0.229-0.189-0.341-0.287
			c-0.11-0.094-0.217-0.189-0.325-0.285c-0.108-0.094-0.218-0.189-0.324-0.285c-0.105-0.094-0.208-0.189-0.313-0.285
			c-0.103-0.096-0.207-0.189-0.309-0.285c-0.102-0.094-0.199-0.191-0.298-0.285c-0.1-0.096-0.198-0.189-0.296-0.285
			c-0.096-0.096-0.191-0.191-0.286-0.287c-0.094-0.094-0.188-0.189-0.28-0.285c-0.092-0.094-0.185-0.189-0.275-0.285
			c-0.09-0.094-0.18-0.189-0.268-0.285c-0.089-0.094-0.178-0.189-0.266-0.283c-0.086-0.096-0.17-0.191-0.254-0.285
			c-0.085-0.096-0.171-0.189-0.255-0.285c-0.082-0.096-0.162-0.191-0.243-0.287c-0.082-0.094-0.163-0.189-0.242-0.285
			c-0.079-0.094-0.158-0.189-0.235-0.285c-0.078-0.094-0.154-0.189-0.23-0.285c-0.075-0.094-0.153-0.189-0.228-0.285
			c-0.073-0.094-0.146-0.191-0.218-0.285c-0.073-0.096-0.147-0.189-0.219-0.285s-0.141-0.191-0.21-0.285
			c-0.069-0.096-0.138-0.191-0.206-0.285c-0.069-0.096-0.138-0.191-0.204-0.287c-0.067-0.094-0.13-0.189-0.197-0.285
			c-0.064-0.096-0.132-0.189-0.194-0.285c-0.063-0.094-0.126-0.189-0.188-0.285s-0.124-0.189-0.186-0.285
			c-0.061-0.096-0.122-0.189-0.182-0.285s-0.117-0.191-0.176-0.287c-0.059-0.094-0.117-0.188-0.174-0.285
			c-0.058-0.094-0.111-0.189-0.168-0.285c-0.056-0.094-0.109-0.189-0.165-0.285c-0.054-0.096-0.109-0.189-0.163-0.285
			c-0.053-0.094-0.103-0.189-0.155-0.283c-0.052-0.096-0.103-0.191-0.153-0.285c-0.051-0.096-0.101-0.191-0.151-0.285
			c-0.049-0.096-0.096-0.191-0.145-0.287c-0.048-0.094-0.098-0.189-0.145-0.285c-0.047-0.094-0.092-0.189-0.137-0.285
			c-0.045-0.094-0.091-0.189-0.136-0.285s-0.09-0.189-0.134-0.285C60,98.668,59.96,98.57,59.918,98.477
			c-0.043-0.096-0.085-0.189-0.126-0.285C59.75,98.096,59.71,98,59.669,97.906c-0.039-0.096-0.077-0.191-0.116-0.287
			c-0.039-0.094-0.078-0.189-0.116-0.285c-0.038-0.094-0.075-0.189-0.112-0.285c-0.036-0.094-0.071-0.189-0.106-0.285
			c-0.036-0.096-0.073-0.189-0.108-0.285c-0.034-0.096-0.066-0.191-0.1-0.285c-0.033-0.096-0.066-0.191-0.099-0.285
			c-0.032-0.096-0.066-0.191-0.099-0.285c-0.031-0.096-0.06-0.191-0.089-0.287c-0.03-0.094-0.061-0.189-0.09-0.285
			s-0.062-0.189-0.089-0.285c-0.028-0.094-0.054-0.189-0.081-0.285s-0.055-0.189-0.08-0.285c-0.026-0.094-0.055-0.189-0.08-0.283
			c-0.024-0.096-0.048-0.191-0.071-0.285c-0.024-0.096-0.048-0.191-0.071-0.285c-0.024-0.096-0.048-0.191-0.071-0.287
			c-0.021-0.094-0.041-0.189-0.063-0.285s-0.043-0.189-0.063-0.285c-0.02-0.096-0.041-0.189-0.062-0.285
			c-0.018-0.096-0.035-0.191-0.054-0.285c-0.019-0.096-0.037-0.191-0.055-0.285c-0.018-0.096-0.036-0.191-0.052-0.285
			c-0.017-0.096-0.031-0.191-0.046-0.287c-0.016-0.094-0.032-0.189-0.046-0.285c-0.015-0.094-0.03-0.189-0.044-0.285
			c-0.015-0.094-0.025-0.189-0.038-0.285c-0.012-0.096-0.025-0.189-0.037-0.285c-0.013-0.096-0.024-0.189-0.035-0.285
			s-0.02-0.191-0.03-0.285c-0.009-0.096-0.02-0.191-0.028-0.287c-0.01-0.094-0.02-0.189-0.027-0.285
			c-0.008-0.094-0.014-0.189-0.021-0.285c-0.008-0.094-0.015-0.189-0.021-0.285c-0.006-0.096-0.014-0.189-0.019-0.285
			c-0.006-0.096-0.008-0.189-0.013-0.285l-0.013-0.283c-0.004-0.096-0.008-0.191-0.012-0.285c-0.002-0.096-0.002-0.191-0.004-0.287
			l-0.004-0.285C57.304,86.4,57.3,86.309,57.3,86.215l0.001-0.008c0-0.096,0.003-0.189,0.004-0.285s0.003-0.189,0.004-0.285
			c0.002-0.096,0.002-0.191,0.005-0.285c0.003-0.096,0.008-0.191,0.012-0.285c0.004-0.096,0.008-0.191,0.013-0.287
			c0.005-0.094,0.007-0.189,0.013-0.285c0.005-0.094,0.014-0.189,0.02-0.285c0.007-0.096,0.014-0.189,0.021-0.285
			c0.008-0.096,0.013-0.191,0.021-0.285c0.008-0.096,0.018-0.189,0.027-0.285s0.02-0.191,0.029-0.285
			c0.01-0.096,0.019-0.191,0.029-0.287c0.011-0.094,0.023-0.189,0.036-0.285c0.011-0.094,0.025-0.189,0.038-0.285
			c0.013-0.094,0.023-0.189,0.038-0.285c0.013-0.096,0.029-0.189,0.043-0.285c0.015-0.096,0.031-0.189,0.047-0.285
			c0.015-0.096,0.029-0.191,0.046-0.285c0.017-0.096,0.035-0.189,0.054-0.285c0.017-0.094,0.036-0.189,0.054-0.285
			c0.019-0.094,0.035-0.189,0.055-0.285s0.041-0.189,0.063-0.285c0.021-0.096,0.041-0.189,0.063-0.285s0.041-0.191,0.064-0.285
			c0.021-0.096,0.047-0.189,0.07-0.285s0.047-0.191,0.072-0.285c0.023-0.096,0.046-0.191,0.071-0.285
			c0.026-0.096,0.054-0.191,0.08-0.287c0.026-0.094,0.053-0.189,0.081-0.285c0.027-0.094,0.053-0.189,0.081-0.285
			s0.06-0.189,0.089-0.285c0.03-0.096,0.06-0.189,0.09-0.285c0.031-0.096,0.06-0.191,0.092-0.285
			c0.031-0.096,0.065-0.191,0.098-0.285c0.032-0.096,0.065-0.191,0.099-0.285c0.033-0.096,0.067-0.191,0.102-0.287
			s0.071-0.189,0.106-0.285c0.036-0.096,0.071-0.189,0.108-0.285c0.036-0.096,0.074-0.189,0.112-0.285s0.077-0.189,0.117-0.285
			c0.039-0.096,0.075-0.191,0.115-0.285c0.042-0.096,0.083-0.189,0.125-0.285c0.041-0.094,0.083-0.189,0.126-0.285
			c0.041-0.094,0.082-0.189,0.126-0.285s0.091-0.189,0.135-0.285c0.045-0.096,0.089-0.189,0.136-0.285
			c0.046-0.096,0.091-0.191,0.138-0.285c0.048-0.096,0.098-0.189,0.146-0.285s0.095-0.191,0.144-0.285
			c0.05-0.096,0.102-0.191,0.153-0.287c0.05-0.094,0.102-0.189,0.153-0.285c0.052-0.094,0.103-0.189,0.154-0.285
			c0.055-0.096,0.11-0.189,0.165-0.285s0.108-0.189,0.164-0.285c0.056-0.094,0.111-0.189,0.169-0.285
			c0.059-0.096,0.117-0.189,0.176-0.285c0.058-0.096,0.115-0.191,0.175-0.285c0.06-0.096,0.122-0.189,0.182-0.285
			c0.062-0.096,0.124-0.191,0.187-0.285c0.063-0.096,0.124-0.191,0.188-0.285c0.064-0.096,0.131-0.191,0.195-0.287
			c0.065-0.094,0.13-0.189,0.196-0.285c0.067-0.096,0.136-0.189,0.205-0.285c0.068-0.096,0.138-0.189,0.207-0.285
			c0.07-0.096,0.14-0.191,0.211-0.285c0.071-0.096,0.145-0.189,0.219-0.285c0.072-0.094,0.145-0.189,0.218-0.285
			c0.075-0.096,0.152-0.189,0.229-0.285c0.076-0.096,0.151-0.191,0.229-0.285c0.078-0.096,0.157-0.189,0.237-0.285
			s0.16-0.191,0.241-0.285c0.081-0.096,0.162-0.191,0.245-0.285c0.083-0.096,0.169-0.191,0.254-0.285
			c0.085-0.096,0.169-0.191,0.255-0.287c0.088-0.096,0.179-0.189,0.267-0.285c0.089-0.096,0.177-0.191,0.268-0.285
			c0.092-0.096,0.184-0.189,0.275-0.285c0.094-0.096,0.188-0.189,0.282-0.285s0.19-0.191,0.287-0.285
			c0.098-0.096,0.196-0.191,0.295-0.285C67.538,63.285,67.638,63.189,67.738,63.096L67.738,63.096z"/>
		<linearGradient id="SVGID_2_" gradientUnits="userSpaceOnUse" x1="51.5889" y1="16.5176" x2="51.5889" y2="102.7734">
			<stop  offset="0" style="stop-color:#90C769"/>
			<stop  offset="1" style="stop-color:#469F37"/>
		</linearGradient>
		<path fill-rule="evenodd" clip-rule="evenodd" fill="url(#SVGID_2_)" d="M44.976,16.883c2.022-0.232,4.084-0.355,6.175-0.365h0.48
			c2.093,0.01,4.161,0.133,6.197,0.365c0.822,0.094,1.639,0.207,2.451,0.336c0.64,0.1,1.275,0.213,1.909,0.334
			c0.536,0.105,1.07,0.217,1.602,0.336c0.473,0.107,0.944,0.219,1.412,0.336c0.424,0.107,0.845,0.221,1.264,0.338
			c0.391,0.107,0.776,0.219,1.162,0.336c0.359,0.107,0.719,0.219,1.076,0.334c0.336,0.109,0.671,0.223,1.004,0.336
			c0.316,0.111,0.631,0.223,0.943,0.336c0.299,0.109,0.597,0.223,0.894,0.336c0.283,0.109,0.565,0.223,0.847,0.336
			c0.271,0.111,0.541,0.223,0.809,0.338c0.26,0.109,0.518,0.221,0.775,0.334c0.248,0.111,0.497,0.223,0.744,0.336
			c0.237,0.111,0.474,0.223,0.709,0.336c0.229,0.109,0.456,0.225,0.683,0.336c0.222,0.111,0.443,0.223,0.662,0.336
			c0.215,0.111,0.43,0.223,0.642,0.336c0.207,0.111,0.411,0.223,0.615,0.336c0.2,0.111,0.399,0.223,0.598,0.336
			c0.193,0.111,0.389,0.223,0.582,0.336c0.188,0.111,0.375,0.223,0.562,0.336c0.183,0.111,0.364,0.223,0.545,0.336
			c0.178,0.111,0.357,0.223,0.534,0.336c0.173,0.111,0.344,0.223,0.515,0.336c0.169,0.111,0.335,0.223,0.502,0.336
			c0.164,0.111,0.33,0.223,0.493,0.336c0.159,0.111,0.316,0.223,0.474,0.336c0.156,0.111,0.312,0.223,0.467,0.336
			c0.151,0.111,0.303,0.223,0.453,0.336c0.148,0.111,0.295,0.223,0.442,0.336c0.145,0.111,0.29,0.223,0.434,0.336
			c0.141,0.109,0.279,0.225,0.42,0.336c0.139,0.111,0.278,0.223,0.416,0.336c0.134,0.109,0.266,0.223,0.398,0.336
			c0.133,0.111,0.266,0.223,0.396,0.336c0.128,0.111,0.255,0.223,0.382,0.336c0.127,0.111,0.253,0.223,0.377,0.336
			c0.124,0.111,0.246,0.223,0.367,0.336c0.12,0.111,0.241,0.223,0.36,0.336c0.118,0.111,0.234,0.223,0.351,0.334
			c0.116,0.113,0.23,0.225,0.345,0.338c0.113,0.111,0.225,0.223,0.337,0.336c0.11,0.111,0.22,0.223,0.329,0.336
			c0.108,0.111,0.216,0.223,0.322,0.336c0.106,0.111,0.211,0.223,0.315,0.336c0.104,0.111,0.207,0.223,0.309,0.334
			c0.102,0.113,0.203,0.225,0.304,0.338c0.098,0.109,0.196,0.223,0.295,0.336c0.097,0.111,0.193,0.223,0.289,0.336
			c0.095,0.109,0.188,0.223,0.282,0.336c0.094,0.111,0.188,0.223,0.279,0.334c0.091,0.113,0.18,0.225,0.27,0.336
			c0.09,0.113,0.181,0.225,0.268,0.336s0.172,0.225,0.258,0.336c0.086,0.113,0.172,0.225,0.257,0.338
			c0.083,0.109,0.163,0.223,0.245,0.336c0.082,0.111,0.165,0.223,0.246,0.334c0.079,0.113,0.157,0.225,0.236,0.336
			c0.078,0.113,0.155,0.225,0.232,0.336s0.152,0.225,0.229,0.336c0.074,0.111,0.147,0.225,0.221,0.336
			c0.073,0.113,0.148,0.223,0.221,0.338c0.071,0.109,0.14,0.223,0.209,0.334c0.07,0.113,0.142,0.223,0.21,0.336
			c0.068,0.111,0.135,0.225,0.201,0.336s0.134,0.225,0.198,0.336c0.065,0.111,0.13,0.225,0.194,0.336
			c0.063,0.111,0.125,0.225,0.188,0.336c0.063,0.113,0.126,0.225,0.187,0.336s0.118,0.225,0.177,0.336
			c0.06,0.111,0.119,0.225,0.178,0.336c0.058,0.111,0.113,0.223,0.169,0.336c0.057,0.111,0.112,0.223,0.167,0.336
			c0.055,0.111,0.11,0.225,0.163,0.336c0.054,0.111,0.105,0.225,0.156,0.336c0.053,0.111,0.105,0.225,0.157,0.336
			c0.051,0.111,0.099,0.225,0.147,0.336c0.048,0.111,0.098,0.223,0.146,0.336c0.048,0.111,0.096,0.223,0.142,0.336
			c0.046,0.111,0.092,0.225,0.137,0.336c0.045,0.113,0.092,0.223,0.135,0.336c0.045,0.111,0.085,0.225,0.128,0.336
			c0.042,0.111,0.084,0.225,0.125,0.336s0.083,0.223,0.123,0.336c0.039,0.111,0.076,0.225,0.115,0.334
			c0.039,0.113,0.078,0.225,0.116,0.338c0.037,0.111,0.071,0.223,0.107,0.336c0.036,0.111,0.071,0.225,0.106,0.336
			c0.034,0.111,0.07,0.223,0.104,0.336c0.033,0.111,0.064,0.223,0.097,0.336c0.031,0.111,0.065,0.223,0.096,0.334
			c0.03,0.113,0.061,0.225,0.09,0.338c0.03,0.111,0.059,0.223,0.087,0.336c0.029,0.111,0.06,0.223,0.087,0.336
			c0.026,0.111,0.051,0.223,0.077,0.336c0.025,0.111,0.052,0.223,0.077,0.336c0.016,0.072,0.033,0.145,0.05,0.217v0.002
			c-0.854-0.094-1.711-0.172-2.572-0.219c-0.656-0.037-1.313-0.059-1.976-0.059c-0.751,0-1.497,0.021-2.238,0.059
			c-1.231,0.063-2.447,0.174-3.646,0.334c-0.709,0.096-1.414,0.209-2.11,0.338c-0.548,0.102-1.092,0.213-1.63,0.336
			c-0.467,0.105-0.931,0.215-1.39,0.336c-0.405,0.104-0.809,0.219-1.208,0.336c-0.364,0.105-0.727,0.219-1.087,0.334
			c-0.335,0.109-0.667,0.221-0.997,0.336c-0.31,0.109-0.616,0.221-0.922,0.338c-0.289,0.107-0.576,0.221-0.861,0.334
			c-0.271,0.109-0.54,0.223-0.808,0.338c-0.257,0.109-0.512,0.219-0.766,0.336c-0.242,0.109-0.486,0.221-0.726,0.334
			c-0.23,0.111-0.458,0.223-0.686,0.336c-0.22,0.111-0.438,0.223-0.655,0.336c-0.212,0.111-0.423,0.223-0.631,0.336
			c-0.204,0.111-0.408,0.223-0.609,0.338c-0.193,0.109-0.385,0.221-0.577,0.334c-0.188,0.111-0.373,0.223-0.559,0.336
			c-0.181,0.111-0.363,0.223-0.543,0.336c-0.174,0.109-0.348,0.225-0.52,0.336c-0.169,0.111-0.337,0.225-0.503,0.336
			s-0.33,0.223-0.492,0.338c-0.159,0.109-0.313,0.223-0.47,0.334c-0.154,0.111-0.308,0.223-0.459,0.336
			c-0.15,0.111-0.3,0.223-0.448,0.336c-0.145,0.111-0.287,0.225-0.43,0.336c-0.142,0.111-0.284,0.223-0.426,0.336
			c-0.137,0.111-0.271,0.225-0.404,0.336c-0.135,0.111-0.269,0.223-0.4,0.336c-0.13,0.111-0.258,0.223-0.386,0.336
			c-0.127,0.111-0.254,0.223-0.379,0.336c-0.123,0.111-0.245,0.225-0.368,0.336c-0.12,0.111-0.239,0.223-0.357,0.336
			c-0.117,0.111-0.234,0.223-0.351,0.336c-0.115,0.111-0.228,0.225-0.34,0.336s-0.225,0.223-0.334,0.336
			c-0.109,0.111-0.217,0.225-0.323,0.336c-0.107,0.111-0.214,0.223-0.319,0.336c-0.103,0.111-0.206,0.223-0.307,0.336
			c-0.103,0.111-0.204,0.223-0.305,0.336c-0.098,0.111-0.195,0.223-0.293,0.336c-0.098,0.111-0.192,0.223-0.288,0.336
			c-0.095,0.109-0.188,0.223-0.282,0.336c-0.092,0.111-0.184,0.223-0.273,0.336c-0.091,0.111-0.181,0.223-0.27,0.336
			c-0.088,0.111-0.175,0.223-0.262,0.336c-0.085,0.111-0.172,0.223-0.257,0.336c-0.084,0.109-0.166,0.223-0.248,0.336
			c-0.083,0.111-0.166,0.223-0.247,0.336c-0.079,0.109-0.157,0.223-0.236,0.336c-0.078,0.111-0.158,0.223-0.235,0.334
			c-0.076,0.113-0.151,0.225-0.225,0.336c-0.076,0.113-0.15,0.225-0.224,0.338c-0.073,0.109-0.145,0.223-0.217,0.334
			c-0.071,0.113-0.142,0.225-0.211,0.338c-0.07,0.111-0.141,0.223-0.21,0.336c-0.066,0.111-0.133,0.223-0.2,0.334
			c-0.065,0.113-0.134,0.225-0.199,0.336c-0.064,0.113-0.126,0.225-0.19,0.338c-0.063,0.109-0.126,0.223-0.188,0.334
			s-0.123,0.225-0.184,0.338c-0.06,0.109-0.118,0.223-0.178,0.334c-0.059,0.113-0.119,0.225-0.177,0.336
			c-0.056,0.113-0.109,0.225-0.166,0.336c-0.056,0.111-0.112,0.225-0.167,0.336c-0.054,0.111-0.107,0.225-0.159,0.336
			c-0.054,0.111-0.104,0.223-0.157,0.336c-0.051,0.113-0.104,0.223-0.153,0.336c-0.051,0.111-0.098,0.225-0.146,0.336
			c-0.048,0.113-0.099,0.225-0.146,0.336s-0.093,0.225-0.14,0.336c-0.046,0.111-0.092,0.223-0.135,0.336
			c-0.045,0.111-0.092,0.223-0.136,0.336c-0.043,0.111-0.083,0.223-0.125,0.336s-0.085,0.223-0.125,0.336
			c-0.042,0.111-0.082,0.225-0.121,0.336s-0.078,0.225-0.116,0.336c-0.037,0.111-0.078,0.223-0.115,0.336
			c-0.037,0.111-0.07,0.223-0.106,0.336c-0.036,0.111-0.072,0.223-0.106,0.336s-0.069,0.223-0.103,0.336
			c-0.032,0.109-0.064,0.225-0.097,0.336c-0.031,0.111-0.065,0.225-0.097,0.336c-0.03,0.111-0.06,0.223-0.09,0.336
			c-0.029,0.111-0.058,0.223-0.087,0.334c-0.028,0.113-0.06,0.225-0.087,0.338c-0.026,0.111-0.051,0.225-0.077,0.336
			s-0.053,0.225-0.078,0.336c-0.024,0.111-0.05,0.223-0.074,0.336c-0.024,0.111-0.046,0.223-0.068,0.336
			c-0.022,0.111-0.047,0.223-0.068,0.334c-0.021,0.113-0.043,0.225-0.063,0.336c-0.021,0.113-0.04,0.227-0.06,0.338
			s-0.041,0.223-0.059,0.336c-0.02,0.111-0.034,0.223-0.052,0.336c-0.018,0.111-0.034,0.223-0.051,0.334
			c-0.016,0.113-0.034,0.225-0.049,0.336c-0.014,0.113-0.026,0.225-0.04,0.336s-0.028,0.225-0.041,0.338
			c-0.013,0.111-0.026,0.223-0.039,0.336c-0.012,0.111-0.021,0.223-0.031,0.336c-0.011,0.111-0.021,0.223-0.031,0.334
			c-0.009,0.113-0.02,0.225-0.027,0.336c-0.009,0.113-0.016,0.225-0.022,0.336s-0.017,0.225-0.022,0.336
			c-0.007,0.111-0.012,0.225-0.018,0.338c-0.005,0.109-0.009,0.223-0.013,0.336c-0.005,0.111-0.011,0.223-0.014,0.334
			c-0.004,0.113-0.005,0.225-0.007,0.336c-0.003,0.111-0.004,0.225-0.004,0.336c-0.002,0.111-0.006,0.225-0.006,0.338v0.033
			c0,0.1,0,0.201,0.002,0.303c0,0.111,0.002,0.223,0.004,0.334c0.002,0.113,0.005,0.225,0.009,0.336
			c0.004,0.113,0.007,0.225,0.012,0.336c0.004,0.111,0.009,0.225,0.016,0.336c0.005,0.111,0.011,0.225,0.018,0.336
			c0.006,0.113,0.015,0.225,0.021,0.338c0.008,0.111,0.017,0.223,0.025,0.334c0.009,0.113,0.018,0.225,0.028,0.336
			c0.01,0.113,0.021,0.225,0.031,0.336c0.012,0.111,0.023,0.225,0.036,0.336c0.012,0.111,0.025,0.223,0.038,0.336
			c0.014,0.111,0.026,0.225,0.041,0.336c0.015,0.113,0.031,0.225,0.046,0.336c0.016,0.113,0.032,0.225,0.048,0.336
			c0.018,0.111,0.034,0.225,0.053,0.336c0.018,0.111,0.036,0.225,0.056,0.336c0.019,0.111,0.038,0.223,0.058,0.336
			c0.021,0.111,0.042,0.223,0.063,0.334c0.021,0.115,0.042,0.227,0.065,0.336c0.022,0.115,0.045,0.227,0.068,0.338
			c0.022,0.111,0.047,0.225,0.071,0.336c0.025,0.111,0.05,0.223,0.075,0.336c0.025,0.111,0.051,0.223,0.078,0.336
			c0.027,0.111,0.054,0.223,0.082,0.334c0.028,0.113,0.056,0.225,0.085,0.336c0.028,0.113,0.059,0.227,0.087,0.338
			c0.031,0.111,0.062,0.225,0.093,0.336c0.03,0.111,0.063,0.223,0.095,0.336l0.055,0.191c-0.794,0.061-1.592,0.111-2.393,0.145
			c-0.67,0.025-1.343,0.043-2.018,0.043c-0.653,0-1.294-0.016-1.922-0.043c-1.326-0.061-2.602-0.176-3.857-0.336
			c-0.767-0.098-1.526-0.211-2.286-0.336c-0.632-0.105-1.261-0.217-1.896-0.336c-0.572-0.107-1.146-0.221-1.728-0.338
			c-0.545-0.107-1.096-0.219-1.653-0.336c-0.539-0.109-1.086-0.221-1.641-0.334c-0.512-0.105-1.031-0.211-1.56-0.314l-0.627,0.314
			l-0.669,0.334l-0.67,0.336l-0.671,0.338l-0.669,0.336l-0.67,0.336l-0.67,0.336l-0.671,0.334l-0.669,0.336l-0.67,0.338l-0.67,0.336
			l-0.67,0.336l-0.67,0.334L25.5,99.176l-0.672,0.336l-0.669,0.338l-0.67,0.336l-0.67,0.336l-0.671,0.334l-0.669,0.336l-0.67,0.336
			l-0.671,0.336l-0.669,0.338l-0.67,0.334l-0.478,0.238l0.08-0.238l0.111-0.334l0.111-0.338l0.111-0.336l0.112-0.336l0.112-0.336
			l0.111-0.334l0.112-0.336l0.111-0.336l0.111-0.338l0.111-0.336l0.112-0.336l0.111-0.334l0.111-0.336l0.112-0.336l0.111-0.338
			l0.112-0.336l0.111-0.334l0.111-0.336l0.112-0.336l0.111-0.336l0.112-0.338l0.11-0.336l0.112-0.334l0.111-0.336l0.112-0.336
			l0.112-0.336l0.111-0.338l0.111-0.336l0.111-0.334l0.112-0.336l0.11-0.336l0.112-0.336l0.112-0.336l0.111-0.336l0.112-0.336
			l0.111-0.336l0.111-0.336l0.111-0.336l0.112-0.336l0.111-0.334l0.111-0.338l0.065-0.195c-0.066-0.047-0.132-0.094-0.197-0.141
			c-0.158-0.111-0.317-0.225-0.474-0.336s-0.311-0.223-0.464-0.336c-0.152-0.111-0.305-0.223-0.455-0.336
			c-0.149-0.111-0.298-0.223-0.445-0.334c-0.147-0.113-0.294-0.225-0.439-0.336c-0.144-0.111-0.286-0.225-0.43-0.338
			c-0.142-0.111-0.282-0.225-0.423-0.336c-0.14-0.111-0.278-0.223-0.415-0.336c-0.136-0.111-0.271-0.223-0.406-0.334
			c-0.134-0.113-0.268-0.225-0.398-0.336c-0.132-0.113-0.262-0.225-0.392-0.338c-0.13-0.109-0.259-0.225-0.385-0.336
			c-0.127-0.111-0.254-0.223-0.379-0.336c-0.124-0.111-0.247-0.223-0.37-0.336c-0.121-0.111-0.241-0.223-0.362-0.334
			c-0.119-0.113-0.238-0.225-0.355-0.336c-0.117-0.113-0.234-0.225-0.351-0.336c-0.115-0.111-0.229-0.225-0.344-0.338
			c-0.112-0.109-0.224-0.223-0.334-0.336c-0.111-0.111-0.222-0.223-0.33-0.336c-0.108-0.111-0.217-0.223-0.323-0.334
			c-0.107-0.113-0.214-0.225-0.319-0.336c-0.104-0.111-0.206-0.225-0.309-0.336c-0.104-0.111-0.204-0.225-0.305-0.338
			c-0.101-0.111-0.201-0.221-0.3-0.336c-0.098-0.111-0.196-0.223-0.292-0.334c-0.098-0.113-0.191-0.225-0.287-0.336
			c-0.094-0.113-0.188-0.225-0.281-0.336c-0.093-0.111-0.185-0.225-0.275-0.336c-0.092-0.111-0.18-0.223-0.27-0.336
			c-0.089-0.111-0.176-0.223-0.264-0.338c-0.087-0.111-0.173-0.223-0.258-0.334c-0.085-0.113-0.171-0.225-0.255-0.336
			c-0.083-0.111-0.164-0.225-0.245-0.336c-0.082-0.111-0.163-0.225-0.244-0.336c-0.079-0.111-0.158-0.223-0.237-0.336
			c-0.077-0.111-0.154-0.223-0.23-0.336c-0.077-0.111-0.151-0.225-0.227-0.336c-0.074-0.113-0.149-0.225-0.222-0.336
			c-0.073-0.111-0.145-0.225-0.217-0.336c-0.07-0.111-0.141-0.225-0.211-0.336c-0.069-0.111-0.14-0.223-0.208-0.336
			c-0.066-0.111-0.134-0.223-0.201-0.336c-0.065-0.111-0.131-0.225-0.195-0.336c-0.065-0.113-0.13-0.225-0.193-0.336
			s-0.124-0.225-0.188-0.336c-0.062-0.111-0.121-0.223-0.182-0.336c-0.061-0.111-0.12-0.223-0.18-0.336
			c-0.058-0.111-0.115-0.223-0.172-0.336c-0.057-0.111-0.113-0.225-0.169-0.336s-0.111-0.225-0.165-0.336s-0.107-0.225-0.159-0.336
			c-0.053-0.111-0.104-0.223-0.155-0.336c-0.051-0.111-0.104-0.223-0.152-0.336c-0.05-0.111-0.098-0.223-0.146-0.334
			c-0.049-0.113-0.096-0.225-0.143-0.338c-0.047-0.111-0.094-0.223-0.139-0.334c-0.046-0.111-0.091-0.225-0.134-0.338
			c-0.044-0.111-0.089-0.223-0.131-0.336c-0.043-0.111-0.084-0.223-0.126-0.334c-0.041-0.113-0.081-0.225-0.12-0.336
			c-0.04-0.113-0.081-0.225-0.119-0.338c-0.038-0.109-0.076-0.223-0.113-0.334c-0.037-0.113-0.073-0.225-0.109-0.338
			c-0.036-0.111-0.071-0.223-0.106-0.336c-0.034-0.111-0.067-0.223-0.101-0.334c-0.033-0.113-0.066-0.225-0.1-0.336
			c-0.031-0.111-0.062-0.225-0.093-0.336c-0.029-0.111-0.061-0.225-0.09-0.336c-0.03-0.113-0.059-0.225-0.088-0.336
			c-0.027-0.111-0.054-0.225-0.081-0.336c-0.027-0.113-0.054-0.225-0.079-0.336c-0.025-0.113-0.051-0.225-0.074-0.336
			c-0.025-0.111-0.049-0.225-0.072-0.336s-0.046-0.225-0.068-0.336c-0.021-0.111-0.043-0.225-0.063-0.336
			c-0.02-0.111-0.041-0.225-0.062-0.336c-0.02-0.111-0.037-0.225-0.056-0.336c-0.018-0.113-0.036-0.225-0.054-0.336
			s-0.034-0.225-0.051-0.336c-0.016-0.111-0.03-0.223-0.045-0.336c-0.016-0.111-0.031-0.223-0.045-0.336
			c-0.013-0.111-0.025-0.225-0.038-0.336c-0.013-0.113-0.025-0.223-0.037-0.336c-0.012-0.111-0.021-0.225-0.031-0.336
			c-0.012-0.111-0.021-0.225-0.03-0.336s-0.018-0.223-0.026-0.336c-0.008-0.111-0.015-0.223-0.021-0.336
			c-0.007-0.111-0.015-0.225-0.021-0.336c-0.007-0.111-0.01-0.225-0.016-0.336c-0.004-0.111-0.01-0.225-0.014-0.336
			s-0.006-0.223-0.009-0.336c-0.003-0.111-0.005-0.223-0.006-0.336c-0.002-0.111-0.002-0.223-0.004-0.334
			c0-0.059-0.002-0.117-0.002-0.174c0-0.055,0.003-0.109,0.004-0.164c0-0.111,0.003-0.223,0.004-0.336
			c0.001-0.111,0.003-0.225,0.005-0.336c0.003-0.111,0.006-0.223,0.009-0.336c0.004-0.111,0.01-0.223,0.015-0.336
			c0.006-0.111,0.009-0.223,0.016-0.334c0.006-0.113,0.011-0.225,0.017-0.338c0.008-0.111,0.018-0.223,0.025-0.336
			c0.007-0.111,0.017-0.225,0.025-0.336s0.017-0.223,0.026-0.336c0.01-0.111,0.024-0.223,0.035-0.334
			c0.011-0.113,0.022-0.225,0.034-0.336c0.013-0.113,0.023-0.225,0.036-0.338c0.015-0.111,0.03-0.223,0.045-0.334
			c0.015-0.113,0.03-0.225,0.045-0.338c0.017-0.111,0.029-0.223,0.046-0.336c0.018-0.111,0.037-0.223,0.056-0.334
			c0.018-0.113,0.036-0.225,0.055-0.336c0.019-0.113,0.035-0.227,0.055-0.336c0.021-0.113,0.046-0.225,0.066-0.336
			c0.021-0.113,0.042-0.225,0.065-0.338c0.021-0.111,0.042-0.223,0.066-0.334c0.023-0.113,0.05-0.225,0.074-0.336
			c0.025-0.113,0.051-0.225,0.076-0.336c0.026-0.111,0.051-0.225,0.077-0.336c0.027-0.113,0.058-0.225,0.085-0.336
			c0.029-0.113,0.057-0.225,0.086-0.338c0.03-0.111,0.058-0.223,0.089-0.334c0.03-0.113,0.063-0.225,0.096-0.336
			C5.512,47,5.543,46.889,5.575,46.777c0.034-0.111,0.066-0.225,0.1-0.336c0.034-0.113,0.072-0.223,0.107-0.336
			s0.069-0.225,0.106-0.338C5.926,45.656,5.963,45.545,6,45.434c0.037-0.113,0.079-0.225,0.118-0.336
			c0.038-0.111,0.076-0.225,0.117-0.336c0.04-0.111,0.082-0.225,0.123-0.336c0.042-0.113,0.086-0.225,0.128-0.336
			c0.044-0.111,0.085-0.225,0.129-0.336c0.045-0.113,0.092-0.225,0.137-0.336c0.046-0.113,0.092-0.225,0.139-0.336
			s0.093-0.225,0.141-0.336c0.048-0.113,0.1-0.225,0.15-0.336c0.049-0.111,0.099-0.225,0.149-0.336s0.102-0.225,0.153-0.336
			c0.053-0.113,0.108-0.223,0.162-0.336s0.107-0.225,0.161-0.336c0.056-0.111,0.112-0.225,0.168-0.336
			c0.058-0.111,0.115-0.223,0.173-0.336c0.058-0.111,0.115-0.225,0.174-0.336c0.06-0.113,0.122-0.225,0.184-0.336
			s0.123-0.225,0.185-0.336c0.063-0.111,0.124-0.225,0.188-0.336c0.063-0.111,0.131-0.225,0.196-0.336s0.13-0.225,0.196-0.336
			c0.068-0.111,0.137-0.223,0.205-0.334c0.068-0.113,0.139-0.227,0.209-0.338s0.14-0.225,0.211-0.336
			c0.072-0.111,0.146-0.223,0.221-0.336c0.074-0.111,0.147-0.223,0.222-0.336c0.076-0.111,0.152-0.223,0.229-0.336
			c0.077-0.111,0.155-0.223,0.233-0.334c0.079-0.113,0.156-0.227,0.235-0.338c0.081-0.111,0.166-0.223,0.248-0.336
			c0.082-0.111,0.164-0.225,0.248-0.336s0.17-0.223,0.257-0.336c0.086-0.111,0.173-0.223,0.26-0.336
			c0.088-0.111,0.176-0.225,0.266-0.334c0.09-0.115,0.183-0.225,0.274-0.336s0.182-0.227,0.275-0.336
			c0.094-0.113,0.191-0.225,0.287-0.336c0.097-0.113,0.193-0.225,0.29-0.338c0.099-0.111,0.198-0.223,0.298-0.334
			c0.101-0.113,0.202-0.225,0.304-0.336c0.104-0.113,0.205-0.225,0.31-0.336c0.105-0.113,0.213-0.225,0.319-0.336
			s0.213-0.225,0.321-0.336c0.11-0.113,0.224-0.225,0.336-0.338c0.112-0.111,0.222-0.223,0.336-0.334
			c0.115-0.113,0.234-0.225,0.351-0.336c0.117-0.113,0.233-0.227,0.353-0.336c0.121-0.113,0.244-0.225,0.366-0.336
			c0.123-0.113,0.246-0.225,0.37-0.336c0.126-0.113,0.254-0.225,0.381-0.336c0.13-0.113,0.258-0.225,0.389-0.336
			c0.133-0.113,0.267-0.225,0.399-0.336c0.136-0.111,0.271-0.225,0.408-0.336c0.139-0.113,0.278-0.225,0.419-0.336
			c0.143-0.113,0.285-0.225,0.428-0.336c0.146-0.113,0.294-0.225,0.441-0.336c0.149-0.113,0.298-0.225,0.448-0.336
			c0.154-0.113,0.31-0.225,0.466-0.336s0.313-0.227,0.471-0.336c0.164-0.113,0.329-0.225,0.494-0.336
			c0.165-0.113,0.33-0.225,0.497-0.336c0.172-0.113,0.346-0.225,0.52-0.336c0.176-0.113,0.353-0.225,0.53-0.336
			c0.182-0.111,0.362-0.225,0.546-0.336c0.188-0.113,0.377-0.225,0.567-0.336c0.192-0.113,0.384-0.225,0.577-0.336
			c0.2-0.113,0.403-0.225,0.605-0.336c0.207-0.113,0.415-0.225,0.623-0.336c0.213-0.113,0.425-0.227,0.641-0.336
			c0.223-0.113,0.448-0.225,0.674-0.336c0.229-0.113,0.463-0.225,0.695-0.336c0.24-0.113,0.479-0.225,0.721-0.336
			c0.251-0.113,0.503-0.225,0.756-0.334c0.264-0.115,0.529-0.227,0.795-0.338c0.275-0.113,0.553-0.227,0.832-0.336
			c0.289-0.113,0.581-0.227,0.873-0.336c0.307-0.113,0.614-0.227,0.924-0.336c0.327-0.113,0.654-0.227,0.983-0.336
			c0.351-0.115,0.702-0.227,1.056-0.334c0.379-0.117,0.762-0.229,1.145-0.336c0.415-0.117,0.833-0.23,1.254-0.338
			c0.461-0.117,0.926-0.229,1.393-0.336c0.522-0.119,1.047-0.23,1.576-0.336c0.627-0.121,1.26-0.232,1.896-0.334
			C43.338,17.088,44.153,16.977,44.976,16.883L44.976,16.883z"/>
		<path fill-rule="evenodd" clip-rule="evenodd" fill="#323333" d="M84.447,70.857c-2.353,0-4.725,2.369-4.725,4.723
			c0,2.389,2.372,4.725,4.725,4.725c3.572,0,5.912-2.336,5.912-4.725C90.359,73.227,88.019,70.857,84.447,70.857L84.447,70.857z"/>
		<path fill-rule="evenodd" clip-rule="evenodd" fill="#323333" d="M110.426,70.857c-2.335,0-4.691,2.369-4.691,4.723
			c0,2.389,2.355,4.725,4.691,4.725c3.54,0,5.912-2.336,5.912-4.725C116.338,73.227,113.966,70.857,110.426,70.857L110.426,70.857z"
			/>
		<path fill-rule="evenodd" clip-rule="evenodd" fill="#323333" d="M36.033,36.6c-3.54,0-7.112,2.338-7.112,5.891
			c0,3.543,3.572,5.912,7.112,5.912s5.896-2.369,5.896-5.912C41.929,38.938,39.573,36.6,36.033,36.6L36.033,36.6z"/>
		<path fill-rule="evenodd" clip-rule="evenodd" fill="#323333" d="M69.087,48.402c3.557,0,5.912-2.369,5.912-5.912
			c0-3.553-2.355-5.891-5.912-5.891c-3.539,0-7.092,2.338-7.092,5.891C61.995,46.033,65.548,48.402,69.087,48.402L69.087,48.402z"/>
	</g>
</g>
</svg>
